{
	"patcher" : 	{
		"fileversion" : 1,
		"appversion" : 		{
			"major" : 6,
			"minor" : 1,
			"revision" : 3,
			"architecture" : "x86"
		}
,
		"rect" : [ 0.0, 44.0, 1045.0, 434.0 ],
		"bglocked" : 0,
		"openinpresentation" : 0,
		"default_fontsize" : 12.0,
		"default_fontface" : 0,
		"default_fontname" : "Arial",
		"gridonopen" : 0,
		"gridsize" : [ 15.0, 15.0 ],
		"gridsnaponopen" : 0,
		"statusbarvisible" : 2,
		"toolbarvisible" : 1,
		"boxanimatetime" : 200,
		"imprint" : 0,
		"enablehscroll" : 1,
		"enablevscroll" : 1,
		"devicewidth" : 0.0,
		"description" : "",
		"digest" : "",
		"tags" : "",
		"boxes" : [ 			{
				"box" : 				{
					"fontname" : "Arial",
					"fontsize" : 12.0,
					"hidden" : 1,
					"id" : "obj-10",
					"maxclass" : "newobj",
					"numinlets" : 1,
					"numoutlets" : 1,
					"outlettype" : [ "" ],
					"patching_rect" : [ 539.0, 189.0, 84.0, 20.0 ],
					"text" : "loadmess 110"
				}

			}
, 			{
				"box" : 				{
					"fontname" : "Arial",
					"fontsize" : 18.0,
					"frgb" : 0.0,
					"id" : "obj-8",
					"linecount" : 2,
					"maxclass" : "comment",
					"numinlets" : 1,
					"numoutlets" : 0,
					"patching_rect" : [ 3.0, -0.5, 743.0, 47.0 ],
					"presentation" : 1,
					"presentation_linecount" : 15,
					"presentation_rect" : [ 30.0, 10.5, 134.0, 308.0 ],
					"text" : "A modal resonator allows the user to directly specify the frequency. The arguments after the name of the resonator~ (r1 in this case) are frequency in Hz, decay time in sec, and mass."
				}

			}
, 			{
				"box" : 				{
					"data" : [ 9267, "png", "IBkSG0fBZn....PCIgDQRA...DJ...fbHX....vN6G6M....DLmPIQEBHf.B7g.YHB..f.PRDEDU3wY6clGecVUm++84Y897bWxM2jl1lz1zPKzRozMrriBnhKvniBHffJnLxLJpi313n+zWy.ynhiJp33nC5.HJNNnNha+DJnVVDJsTPVaKsooKIM64l6M4duOKmyu+3I2zD5VVa8G49V6ePVN2SdteteOmy2siPoTJpPENFh1w5IPEpPEQXENlSEQXENlSEQXENlSEQXENlSEQXENlSEQXENlSEQXENlSEQXENlSEQXENliwD4WJWasvu49VGO9i8GnTrUy23qcCnOUOypvLFlPhvc87af+iuy2icrkMRcqrFDS0ypJLiBwgOAFj7322uiAptQza6OyiuqBbMWy6gLwBQW2j+4qXEbu667XC+9udk00qvDlifkvR7e7o9vbGasSlW8MvIcFuVdGuq2CyR2D.BCjGElhU3U5bDWN1xvfT0rL9u++9K3LVzrNZLmpvLLNhqh5EH4jO+2QEAXEl13HuUNAn3furqPK5Gnx9Aqvjgin9QA7x0fxv.JUb.FrOIgROxWnD9AgSOyvJ7JdNBhPAHUHMG8W8E98+LN0UrR9NOv1341vOfUsxUvW5m7vSeyxJ7JZNBtnQQquz1nP7ZXQyslg+pEx1Mac6s.FFHPQPPHyswEybqI0QgobEdkFGAQXEpvzOUNSQENlSEQXENlyDJ1wSFTJEk2Afh8uS.ABh9+BDhJQidlDS6hvxhNIRPCBkgD3EfLThLLx2OBg.MCMzM0wvz.gRfPFIF0zpXr9U5LsIBUJERoDolDOOO5cm8RmatS59o6l91ReLXqCRP1.TREZw0wY1NjZQIolStFpc00RsmXs3jzAsPMzDZHDUrP9JUlxEgJkhvvPBEgLP1AX2+9cy1+u2Ns+GamA6XPjHiVx8kk.Xpg9eBDDKULpdkUSSWRSzzeUST8BpFcoN5Z5yXsLp7Gf08vOHMchuZV7bp5X8zYJkoTWzHkRBBCnneQZ920LOys7rz4C0AgpPzPCipMIVS1Xs.KrmqE5w0Ag.YII9c5SoVJQocUBu83QHQQfopEWEK85VJK8cuTRkIE5nitt9LNqhg8tUVypOEdm+aOLepKYki+AvqO9rejOHy9buF9PW1qapeBNIXJyRXPP.gDR26oa1z+5lX62w1IvO.CcCpZMUQ5KHMoVUJbpyAyDlnKzQSnEEaZkhPYH9E8oXOkXfslmdefdI2iji9eo9YCehMPK+xVXs23ZY9m97wDSLzMlQID0ssvU2DcwDbk.MMRVSZR3Zdj+YOJyThHLHH.OoG6YS6kG4C+Hz8F6BMzH0ojhYeU0Q0mRFbS4hsgM1V1XZXhggwvKsVdIbOeO7p1iRKnDy5rmE8us9o86oc58W2G6a86i0cIqiS4K7p3jdmKiXpXXX7JagX1N1I21scGzd1RrxkuHJDXvv+450O+jev+EO1y1B0unky082b0352C28c9S4jecuMV4ITG.z8NeF94+9mlK8xdar1S6UiSS0O73+j+geA+h6+QoPff4u30x6+ZuXrEvV23Cvc9S+c3IhyE+NuRNsku3o0+Nmzhvff.7B8nkGoE9iW65Iey4vLtI0c00Q8WR8jn5D3Z6hiiCwrigssMFFFGvRpRoDeee777nXohTrPQhuh3T0wWEcb1cPqeiVovtJvi8A+S3k0iU82tRbvYJWHFJG+IhgPSCTRFKarQWarUMN94ai2ya6MyiuOcthK7L36909w7b6cPrLzA73K89uB9lObK71equd9Z23MvF2SQt6+4qju6W6Si0yzO2+29Sf.E21W9iy25gRykeouI972vUywcUeENike77S+1eddWW+MxxNu+JNqklgMuwmlfq8hY2+9+atvK45XYu02E5s8PbQ+neN2+C+Hrp4Eeb+bYrxjRDFFDhWnG69I2Mq+8sdxuybXUqMM9Ot.ly4NGRFKIIbSfggAOwm5IXYWyxH8qNMFhHqfubQngoAgEBYi+8ajS9SdxLqELKFH2.D6BhQ7lhyN9BMS9MliM8OrIzczXEW8JvlHKqSVgnenOevex0SW46BKcqQ4CyCMBrLzXOsrchUaiTelDTnvfDJOveWAB7B8n1D0v25c7svT+vur3l9M2F+1M1N+pm7430eRygA18ixoc5uYjBCx07ehuvc8f7w+AO.e1q3L4rlSV9a9peO53F+.7Q+6tTtpu7OlcdyebVPvN3t9Eahq4K7yHQBSrcRPrXwPUXe709R2LK5b963Au+uEoF9QmGe8+salAV1EyO569MIrsmf0tpyi689eLV007ZG2OSGqLgEgRoD+Pe5dOcye5C+mH2Nygcs1zzMcbzvYUOU4VEIRj.KKKjHIWy4nsGqMl2qYd.bPc4hRSQeauO5bCchgoAIRjfXVwvY.GLWpIF2nAa6yuMxsgb7je5mjDKHAK90sXzB0vvXxYTOPFPqYak+kK5lHS7Li4euG89tK9He6eLyYsMvxVSsbsu62GyKsyA8msmA6gOy89YwOz+HJB6bmagTUsTN4EMG.vM0rIkiNff9y2K8q74V+jWI2wmSmB45DcizzcNIu9K9cS0e96few5eJNyA9Mr6R0yU7VNSvuO.PHzPUrOx1aIdGetKdDBP.JQKk7om+7ujUrzECgkn8AJx.C19X94wDgI76bAAALPwAXyeoMSWarKLcMowOciLuytApNQ0TUUUgssMJkhhAEIypxP6anC777PSWCc8QurT48E1wS2AV0Xgcc1nqoicbarrrP2PGMcMT+eTrkaXKL31FjM8o2DUuzpYVMLKzzzlztuIlQLZrlFIsS5w7uicAAjy.u1xRWszC0kb9L+pO3hvjwRRLyXiowUIDDJKQvPFUEZJ7F5+PHTnzb3S8UtS9qeU0SnDrcbYNo0vLyqh2xYsT9g21+NOP+ahy9RtFVZUFPwQXcVngRWwd5n0W1qpfvRE43Omqf68VuAB78vvzhL0N8lU8Sn20JePjlW2NYG+flQfFy48LGl+ELepNQ0Tc0UiqqKVVVCsrKjd0oo+WJK4ZOGR0Alo1RojRdknimnCRtjTXlvDTfggANNNTUUUQlTYntiuNZ7SzH5t5z6yzKOys9LTLnHAAAS5GFv3eOg+0u6qiU2TJtzO5Myc78+OYQ0dvEfi2wt9SXUza2ala+tuW1aKai+oO8GiM2RAzIjYuvSgyb9lb2+faG8j0RSMNOBFLGk7CAr4ccsWEa7+81329n6k2668RGdLi9fd.ZoZjyY0qj67e6Kxu8QedFHee7m2zlXff3bYu9ylm+O9SXCauKZZQKlTwzIWtAFWOSFuLwDggAjq2b7heyWffh9jbkIXAuy4SUwqhzoSSrXwF9zuZZZfRPpSHEd86StckCIRjx8KDKGcE+A8ommtGp4UUMf.c8HmSqqqissMISljzwSS8mY8L6Ke1.Py2Qyz9yzN9R+QMlG0PoiH.7GzaJcXWya3Z3i+ddcbiev2Iq8zeM76dpdog4VKJBQOwB36bW2Nr0eKupUtbNgkrTdKumOHsNPjHeMm+amyXgoYwq8sxErlns+fl.qXVXoI.Ma9m+5eWdCKFtz234vxO4Ux65C8YnqhBtpOwWjOwUbp7gtjymS33WLqZsmE28e3olR+a6ky3d4XoThuzm87P6gNezNQ2PmFt5FHybqgTISMJAHPjPToQxFShYUlz0l6h4cZyiQ5i7xwVN2tyQwNJR0qHC5BsgO7hPHFkPzKvi4c4yid9c8Pg8Vfs8C2F0s75vR25nRDUZMaqr4cuYxVLK32G6s1RrRm9mReMzhkgu72+d4ZtgWDegIK8DWJ46sCLSDkbwK+LeK7POwYvK9R6FkgE0N64R8UaA.1YNN9kO9ySnURRTdWOVY3N9kOAltQQaYVK+T4d9C+I1xV2AAXPs0MGlabPSTGewu6Oiq6FdQ5IeIRjtZl27m+T5eaubF2hvff.JTn.M+S2Ig9gT0pqhYe1ylDwRfqqKllliRHHDBLLLvx0hZVaF125amfqM.olDkRgPHhhwLR55o5FiTFjrwjQNydDmft73DKVLR3lfZVXMLqKZVr6uytYu+p8Ruefdw43l3trQo3Hdh3tFna95+gagmo0mAayXDFDBgCRayNGeu0+2hQUWIezy6umLt0bHGiw1otGBMaV1J1ezQrm0bF021N0rXkq4fuesZpatu7Ai5lSCi5qXDKImzJNXQeQmlV5IQSi8Y5jhwkYixgkq2V5kte3tPffY8FmEopMENNNGf.DX3kjMMMo1SsVx9BYYfNG.oRt+LrQJwOvm1e38QpSrJbq08fFm3xBQWWWh6Dm5d80goqIC1xfruGee3E5Mssjbyc2LW2O98yd5aOjwMClZFTShLTS554DW1pnuc0J2zW7l4cemWKM2SySKygWox3VD5K8o6msaJruBXjzfLmVFbsbIVrXGvIdAFdoTMzHypxfedO5aq8QnJbThvBYKPmanKly4NaLzMFd+fGvDVSCKKKhYFipO9pwYYNHQR6ObG3E3Mkc.kQRW46hO1O+iwbRLG5ZftwKziZbqk9KzO8OPdVyIeNb4W9kvo+lNCpO0b3i8y+XzU9tlxmGuRkwsHzyyide1dQJk3r.GpZAUgsk8n1G3A7hnogglAoZLEIWbR18uY2DpBih27PYbSmarS7y4wrNs5PWnePEz.iZ+gtobopUFsGmbuP+LPeCfTJYptrY9p+9uJocRyt5a2TWh5nneIxVHKF5FXXXPuExQgfRbRG2wy9xuWRGKMeke+WcJcNLcPYi.Q+6X27XLKBGN9tddz+1yA.NKzA2LtXZXdHEMvPhPCCrhYQCWTCz580J46LOAx.BBBvOvmV9EsP0qnZppwTXncfg06kOdVVV3DygjGeRDHXv1Fjh8UjPY3DRD9xSsrxzROsvyz5yhPHHUrTzewr3Z4RZ2p3xVykwkeJWNocqBGSWxNXVRZmBgPvy15yRK8zxA803P8ZczDYXHARnXghLX9r3GFRX3T+GfGKLtDgRoj.+.J0dI.voAGrLsNhGFnr0KCgAy80NW7Gvm87.6AeoOdAdz0N5h1u+1ooKqIrrsv1z9vFiUgPfgtAlFl3NaGzzzvuGe7yOjaZl.OGEhCLGGA3IZ4IHtsKE8KRl3USbqDTahZ3Vt3agKZ4WDW3IcgbKW7sPsIpk3lwIS7poneQha6xF14FF8yvgxWxi0IcQXXHC34y9dpeGO6W4Mwl+LmL67290oPonsybzVHNtNcrTJiV9LWz9tLRXfl9QNREkEgl5ljrgjL+KY97LekmkZOqZ4Kswal599yh7x7bO69dv3GXfosIB8Ctn.hdyTFHwujONuXLNS8yBUdEele9mA4SFhgkIZ5iOW0DDFvdxt2CP7msPVBCjjLQR5n+Nw1zhK7jtnC32+hNoKja+wuc5r+NIoaRFrTAtw66F46+3e+HmyKD3G3wK1wKxkc6WF5hiMsUTkRgL.Vy.k307h+AzaXMnuvWC68m+IQO0bYNm1kfll7vtx1TMie+DNhrEQSr+Tu+HgttNVVVX4Yww+9Nd53g6j0esqGuAKQrs5vydkOKcF1I5Cniv6HasPFJIzKjzERGYgQInq7cRwrkP2d7mA1gxP7C8O.guTonroUkRhBElZG3iMCMinObLTzfD.8UnODBQjkEADDFRA+BzZ1VixkxixnTJBCTX2e+rncsU5dAmBM9V9FnaFCY9Voi66KQxkbdXjIye4JBKalVyM5MpvBgixOdGNJ6dEaKahWSbNkuwZ3o9bOEm5lOUNwu4IxkbtWLoimNJoGLs3HssIeeexNP+r0eyVXy20lQ3pws7N95z3JZjTIRgg436yWC5Ufq4ttFBji9z0obRgtgNE8JxrRUG4Kkm0sk0wqdwu5Q8ysts7.ngN0kpNxVHKAp.9Wtv+UtzUeIC+yz8.8v0++b8b6W0+EtVtiq42TAAAgLXo.1yu9KS1d+VD6M8EHliKf.m09do+648Qea4gwcs+UXnGdTSHNtdmpb0uYUmM.TbeEG0IrNRBwxVCi4GiTKHEy6RlGaussyrVyrnJmpHU7nHtLl1yTHXYXRXuQaQvIiE1wigsoMVlVi6GfVFgGzW2UMuUxObi2EU6lgbEygenOuX6agu38+E47OgyGABV2Ve.dwNdQzE5zewbnooyfEyxosvScTIrfqkC5BcrLrNhYQyzAx.ExRdTbaOH5K3zH8bWLwrzQo.84uJFn5FI2Kd+TZkW.VFh+xUDpqqiaiQAouPyEnT9RnRL11HqPHvzzjXwhguxGCUT4cZpYhssM5Fi8ZGQphbvc9WJJVz1y1FyjFfhIzFqOT+NKotkPS0zDE7JRq82JYbyfglAO0ddZdxc+jnPgtv.acaDBA8LXOTeU0SS0zDmPcmvALmUnNlbBzn.MDRg91Gk5ZG3dpuWh43R7XFQyGcKrl2ZoPyOJkJL.t1liICKSELl2Xxvmv0vfjKIIZBMFXmCRt8leb4VjxIjfk0PmpVKRXVNaqGKLr6hFzide5dQf.2E4hcR6CHYYmJ3FNuaf8lcOrvpaj9JzK9ReRYmDkBDJAorShuzmdKzKKr5FYu8sGtgy6FlRmCSVhdlIwOeODNXVrqcwXYE8geaaarLMvddqhvbsgWu6i.ohff.jC4CwQ1zBlpYbIBG1oyKIEV0ZgWuknqMzI9ReBCGaooT4wobDQDHF9D1iYqfRIAx.5am8QtmNGZnQ50lFKCqCqSymnzXlF4ltnahl6oYpOU8H.7U9zP55o9z0iuJ.APCopml6YGbSWzMQiYZbJcNLYQoTHUJ7GrGPHQOdMXZnOrgECCcrl0hP4UfR81JAAgDDJoTIex2WmL3.4IPpFyuOOdXb8tUY2rjZAoH0pSgBE68d2KClaPBCG+NIdhZwJLLprBZ89ZkhYKh8rsolSoFL0O7NM+vOWN7NQd0ya0bqW5shDIkBJgtlNclqS5HWmnqoQo.OBURt0K8awpm2pOzuNGibTsREk5Dxh4QnYflkCZZ62fftlFlolCHLoTu6hR9R5qi8vVu8+Ndp+OmLO6M+5o8+7ChefZTuWWdbmLVIGW6Ib3HU35Pcu45n600M8rgdosGqMp5MVElglS5zr+HQ4jcHaaYY2+jcC.U+ZplTyK0vGHY5ZeLMUSS7cu7uKOWaOGOxNdT5avdQghpcqly53NKNo4dRSKutSV1eL5UnB7.MMzzMQHXDobm.M6DHbRPorsR+81E87ie+Tr0mgXupqFuc9Pz726pPb8+Jpdgq.ScIHzwuzfDLXeDK8bPWahcXlw8ASLMMIlYLp6rpicex6lrOcV15+9VogSuALqwbJIM6ObDDDPwfh7R281o+s1OltlT+EWOtNtXaYeT4DcmzbOo+hUvcjPoTHfgJcz8+gUMg.MyXnYm.u78Q2O5cRwc9HD+seaX0zoi0x+qo+ezUv9V22fXW42hPSMJkqG10O55I+K8Hz3U9uScm5EiEieW6LtTKk80mSLGRUaJp+c2.5FZz9C1Aa4t1BkBKMsF1mxkWZaOYarsacq.PsWTsT6JpEGKGrrrNlGRr+xmCLiFEBABMABCKDVwwqqcQwm9tw7DeKDagqEK7vJccDa4ucFbqqircrK5u+brye7Ggr63wPU0BYO+5ahb8zA99Q4CPfTQfBBjbDSutwsIqxKIG2NN0+5lKYtfZ.T77e4mmct9VvSN8D+wvvP7B7nmV6gM8OtIJ0SIhs.GVv6cAjzM4gLUxFuLcFIiiEQIYzn.cCPoPo1+ALhhaNQeOq3H22SiJWqXtj2Dwcipum3NwH1BOMBGLK4Za6z4S+6H2e9dw7b+rXdVWOdcrM5emalR9A34GRe6Yqrka+CSWO+eD+P0gUHNt2.W4kjcccopTUQSWeSLvKL.EZt.a3C+3D6NrY9mx7g.lxJL8xBv95pOdrO4iQm+oNwv1fF+6W.0tnZw0Y+EU0jA+Pe5qPei4BTe7ReE5C+P+okwdrhvvFTRHzmWdXoTJPIzPq2VfL0i0rWBtwrvwIF5d9LXpYCZljuisS3Kbun2vZQuwyDx2IX4xf66EXvEeln5qa18c9AH2e9AI2tdRrt96kDoRh0g38mIzoHJml8Iimj5N95XQetEwV93akbuTN9iuq0yY9sOSZ5bWHp.EF5SbWlT1ef9Je5b2cxi9QeT16uZunIzogOXCL+KX9jxM0vkUvjACMCbsc4C++7Qv1vZhjHNGVD.kB7HgcbLzO51aRGYMdqY4fRFhz26.NUqTJQIUfBDYVB1opEaaKrrrHTAZlNHrhQoc+jHZcyD67+r33FGoH.e2poXW6h74Gj99UedJr6mD6y8CRwm5Nouc9zXuryDcsC99EmvOMJaMLHHfFN8FH3eJfs+42A42QNV+Usdx945ikcUKi3IhitTe3CrT9OZgP.JP5KOvhfenzFKTFRovRzxC0Ba7SsQ5dyciPnQ8W2b43dWMQ5joIYhjXaaOosBZpax+0U98wKzmnDVXpdukQioktIV5VSwi8XCMAnYEGjBjdGjx3TIAYXzp1YZBqQzxVzzz.MMPyDUKOLZ1IvZAqEGaCB0Rw.1wwaf9n2s7PL3S9iP6b9GPMuSC4ScmL39dd7OgSCKiCrdygIgHTSSCaaaRjHAgggHOOIBKA63esYJtyBrgOzSPq2eqrhaXET+ZqOJrbgQS.UTUEQ7FhybesyECqnoQXX3vg1xW5S26nadt+ymisdaaC+rdn6ZP8ef543dmMQlz6u59lpNQbLyXi4hS++eDAfloKnairX+GX1TqTT9lSROYcXNj2FJajP56gRFhV18fXIWHwROWhYYhmtIBCKBJL.AO4cCYZBik7Ffv.jwqAuNaNJ5KR8CZn.mTqKTtvzG151YKv5qYwtt0cQ1GHK65d2Es+fsS8uw543trii4dZyk3YhilkFRkjZOkZo5UUMFllH0jTLrHk5qDc+BcSy+zlok+2VH2txg.ANmfKy+CMep+UOWxjJCoqJ8vKCW4DwGYhdFMzIf00P5mGEhQmd+gAPPT8Sq6jbTakRoTD5W.k2.H.zq+jwx1FSKK7K3AHHHW6n06Kh0puZbRjFgRRfSUDjssCavLlzaNob0uMb33NQcbuQWZ6rai1+QcPwsUflumlYW2ytHdSwIyJyPpSHEtyyE83ZQ4fWQEk5rD42Vd5445gbOeN777Pf.6L1j4slgFtrFn54WMoimlpppJbbp3RlwKBAnYXilkKxB8gZDcBCEfLrDpfhnDQVL0z2enTUJPVHK3mGkoIF0dBXOT7+UxAPICQzy1PHCvZgmEtNVfvfAblEgC1azpbR4TukvgGjgrHVNNjVFV3bINTyYUKcu9tn66qaF7oGjbMmirMmMJdwnMhPXoHD4vo+tttNtKxkzmeZl0ELKRu3zjzMIoRjhjIi1CXEKfiOF9vIC8uv96.YX3HrDpPE3CAkhtEEzrFg.TQnTQXu6JxweopAqLyGCin84K8JgzqH54aGl6xwZVMQLKSjBSzsSfrPuQID7zkkvgGngbGyvg1a.Gbsbop2QJl8aX1jaG4H2yjmA21.TZ2d32oOxbRDJ.GAwpw.6Frv43bHwxSPxkjj30Fm3whSb23jHdhgs9MSrcAOYYXAfThRFhRniRJGkHTFFfJLHxrnJxENk+dggR76YWQmbNVJrppNLzz.DH8FDk2f.fn1kgsSbLMMIDcDlwfbENrysoTeETVbTNUsbbbnXwhTvs.oqIMdq1Cuhd3WvmPuPjCcywKzDnaoiQrnN0fsgM1l13DyIp4ZFK1vhuiloc9qjX3OzpafvvDgSxxwtCfgEgHixHHT6OfCkafogcskHQX7FvvNN55ZnPPPw7nJEUAlFyZQXYGCSSSTgfvzAUv.G1fWLk6vpxthorPz00EOOug+WPPvv0a7H6NW555QUPmoYTsnXYMp7Lb5HOAmoQ4UpDBcDxvCrGQNBchLL.FJAbkJvOeuDlc2f.zppggW4KTAxB8.E6Cz.yplGVVCUxtRYz9OC8iNY8gPGNs40zxhwxs.jXwhE0yYFph8J6KvxObFYdFVVzMxFhTElJPgPnEcaoOTap6PZgRFcGyD89kBu9aGY+sA.ZomG5C0cbkgR76auPXHX6hdxYiwvFMTHzMAYXzx7GBl1cce4i3qqqOp8ebvXjBtJBuoIDhnlj4AKVtBApQbZ3xkhPPXHd46BUwdAMPup4ggQz1hBCkDls8HqnVwQ2opgySQMMEJgFCsIyC4T5nZ7ipXU6XMQmLNpQuGFEhtQhlNBMyQIWhNYrjfrsAgJvxA8jQ4NX4NpVX+sEsWQKWLbSM72ChbIDgQVBOT0Wyw5z5nBGEIJOBiVNVEFRYqSkyhFMCqnSypH5vKCUyzRohvA5I5q6lAypa.csgJ62PEx76KZnLiitSJzFRDF4RngdgOLVBqHBmwQzxwnF8dzzDBLcSgVrTn.LbpY+hI.MgND.ZyZ4DK8bvXnNbQnL.kW1nQNd8XXZObCQPo.UPIPSGzLNj5vi5W0rU3XLBQTG7WFNrlPHhJ1rXtIHVSuZTkF.m4tTLGtFTzH17OYFn9kS7U91Hdb28WFGAACkVXQI8fwn5Qkpn8dNzqYjexOvsiUQDNCg8uznHxxzHNXR4bD0wpD0dtWGgm00fahpvxLp02YKkT8hdUXec2CV1N3FKxEZAAAnYZBBcTRvpgUfo4nK1LkeQPKx2jGJpHBmAQzxpivEMp86hrx4.fttNRoBSSinLeZDQmxwwA8ghHlggARoDKKSbW5alAMSQhEcFDyxX3T1SoTHKkGggChCSNTVQDNSighcrRENjaXhXjMj.kRMJ+7V1GtkS9fxBSkRgikA0d1WMgm9URLGWbhEMF999QNloXenGqlCaiyphHblFBsgVN9.Kh8Q1hlGofYjIj7H+5625oARkDSCiQUlEJoBYwdP3NmQEhvWNUDgyzn7ASNDcRgiTyNcjTNZXk2CXYKlvPoFVfGJu7XjI4g0GwUDgyPnrHPTNhIC035mrMq5CVRkTta4J8JfzqvQIYzZ..v.dmDQAQEZtoOrw9uheBmogPa3HlLg5qxiAhtbjfvh4PVrezSM6Q+gfWFUDgy3XHKgSiMIckRgRphDgkJfQxYWwRXEFAQMflCHhISkTN8uBKjEjgn6VynCk2KiJhvYXDE4hnHl.SWKHGIDC5uMDF5n6VMZbnOzSEQ3LLJevjnHlL0KAKmmnRkB+d1CZ1IQOd0GxP1AUDgyHQHLiNXxzjYvgqIktaFM2ZwLd0Cub7AiJhvYhnYBC0jAlpuOwJ2QXCC8wu6sgd0MgtoIZGF+DVQDNCg829U.DFHCmNsDB982MAY2KVyYInoc36GQUDgyDQSmxs6ioZhpiHEdYaivbcg4rOwQTyIUrDNilQU+NZFHjSONqVoTDHUTp8sfP2.qLKDcMpHBqvKCg9vtnYpj82M0jTnkMgVp4fYlnRAnxxwUXznoGUnSSw2MIkEg9EF.u8tQrlypvxIA5GgKgyJhvYbnPTNypmFNYbnRPgNZFuN1F1G2YhwP2E1GtryohHbFFQNqVGESOKGGDJYvleLPng87VCl5hiXaithHblHZ5G1NhvDggup27JQ9m+2hwbWIwlUiXLFtOrqHBmAhPSGwH5d+SE6KL5pdSwfstEJty+DNm3aFqXNXNppu6fSEQ3LMTLzASJ2atmZHLLD+.E8s4eFXDC2S37vx3HuTLTQDNih8mXoi7zwS9wMLL5xXLeG6h923ODmk+1IVsyGaCiJhvJbHPSOpuvHkS5Ko.kJ5JosneHcugeDgE6mDq4xHlkAViwaUgJhvYbLjKZJeqNMIsDFJk3GBsstakdW2sf6ptBbm6Rv1xbL2RmqHBmIR4101jLmBKaEbf96g9d76.iEcNj7r+.Dy1fX1i8K6xJhvYZHDHzJe+1M4tzfht1ekjeuu.dcuSbW4aC2LylX1ViqFaeEQ3LLzzzPnIPETBMNvqygwCkcKS9stdD1IwogUfik9vsOjwJUp63YPnoogg.hufUCm56CqXNG1Ld9vQ4lmoWwAYvstNLqe0DKS8XOTuFe7bMuUQDNCgx8PFSCMxbhmCoW54fot1D953n7caRgNZgRs8rj77+GFV.NdugEpHBmAQ46Xlx8UFcc8I7kRjTJIHTx.srQTxPbZ7TwzPeBc8BWQDNChxs.tQ1zilH2NpCm2fgRF7490XTyhwY1KFCcwDxxZEQ3LLJur7jAkRE012B7vtgUh8hOebbbwzbhcwmKTSW8BhJ7JVFNJIEKRQu.TRIVl5S3ac0JVBqv3lQd0wU1xmwXLNwGzwqhkvJLQo7UGKLw2eITQDVg+BfJQLoBGyohHrBGyohHrBGyohHrBGy4+Gv1IqEemEoUv.....jTQNQjqBAlf" ],
					"embed" : 1,
					"id" : "obj-3",
					"maxclass" : "fpic",
					"numinlets" : 1,
					"numoutlets" : 0,
					"patching_rect" : [ 12.0, 306.5, 161.0, 114.0 ]
				}

			}
, 			{
				"box" : 				{
					"color" : [ 0.960784, 0.439216, 0.478431, 1.0 ],
					"fontname" : "Arial",
					"fontsize" : 18.0,
					"id" : "obj-14",
					"maxclass" : "newobj",
					"numinlets" : 1,
					"numoutlets" : 1,
					"outlettype" : [ "signal" ],
					"patching_rect" : [ 249.0, 88.0, 228.0, 27.0 ],
					"presentation" : 1,
					"presentation_rect" : [ 357.0, 296.0, 228.0, 27.0 ],
					"text" : "resonator~ r1 300. 2. 0.001"
				}

			}
, 			{
				"box" : 				{
					"fontname" : "Arial",
					"fontsize" : 18.0,
					"frgb" : 0.0,
					"id" : "obj-9",
					"maxclass" : "comment",
					"numinlets" : 1,
					"numoutlets" : 0,
					"patching_rect" : [ 887.5, 209.0, 139.0, 27.0 ],
					"presentation" : 1,
					"presentation_rect" : [ 685.0, 277.0, 128.0, 27.0 ],
					"text" : "Force on fader"
				}

			}
, 			{
				"box" : 				{
					"fontname" : "Arial",
					"fontsize" : 12.0,
					"frgb" : 0.0,
					"id" : "obj-11",
					"maxclass" : "comment",
					"numinlets" : 1,
					"numoutlets" : 0,
					"patching_rect" : [ 783.5, 222.0, 150.0, 20.0 ],
					"text" : "|"
				}

			}
, 			{
				"box" : 				{
					"fontname" : "Arial",
					"fontsize" : 12.0,
					"frgb" : 0.0,
					"id" : "obj-30",
					"maxclass" : "comment",
					"numinlets" : 1,
					"numoutlets" : 0,
					"patching_rect" : [ 783.5, 204.0, 150.0, 20.0 ],
					"text" : "|"
				}

			}
, 			{
				"box" : 				{
					"fontname" : "Arial",
					"fontsize" : 12.0,
					"frgb" : 0.0,
					"id" : "obj-31",
					"maxclass" : "comment",
					"numinlets" : 1,
					"numoutlets" : 0,
					"patching_rect" : [ 783.5, 212.0, 150.0, 20.0 ],
					"text" : "|"
				}

			}
, 			{
				"box" : 				{
					"fontname" : "Arial",
					"fontsize" : 12.0,
					"hidden" : 1,
					"id" : "obj-32",
					"maxclass" : "newobj",
					"numinlets" : 1,
					"numoutlets" : 1,
					"outlettype" : [ "float" ],
					"patcher" : 					{
						"fileversion" : 1,
						"appversion" : 						{
							"major" : 6,
							"minor" : 1,
							"revision" : 3,
							"architecture" : "x86"
						}
,
						"rect" : [ 276.0, 159.0, 280.0, 282.0 ],
						"bglocked" : 0,
						"openinpresentation" : 0,
						"default_fontsize" : 12.0,
						"default_fontface" : 0,
						"default_fontname" : "Arial",
						"gridonopen" : 0,
						"gridsize" : [ 15.0, 15.0 ],
						"gridsnaponopen" : 0,
						"statusbarvisible" : 2,
						"toolbarvisible" : 1,
						"boxanimatetime" : 200,
						"imprint" : 0,
						"enablehscroll" : 1,
						"enablevscroll" : 1,
						"devicewidth" : 0.0,
						"description" : "",
						"digest" : "",
						"tags" : "",
						"boxes" : [ 							{
								"box" : 								{
									"fontname" : "Arial",
									"fontsize" : 12.0,
									"id" : "obj-7",
									"maxclass" : "newobj",
									"numinlets" : 2,
									"numoutlets" : 1,
									"outlettype" : [ "float" ],
									"patching_rect" : [ 5.0, 154.0, 35.0, 20.0 ],
									"text" : "* 0.5"
								}

							}
, 							{
								"box" : 								{
									"fontname" : "Arial",
									"fontsize" : 12.0,
									"id" : "obj-6",
									"maxclass" : "newobj",
									"numinlets" : 2,
									"numoutlets" : 1,
									"outlettype" : [ "float" ],
									"patching_rect" : [ 5.0, 129.0, 32.5, 20.0 ],
									"text" : "+ 1."
								}

							}
, 							{
								"box" : 								{
									"fontname" : "Arial",
									"fontsize" : 12.0,
									"id" : "obj-5",
									"maxclass" : "newobj",
									"numinlets" : 2,
									"numoutlets" : 1,
									"outlettype" : [ "float" ],
									"patching_rect" : [ 5.0, 105.0, 42.0, 20.0 ],
									"text" : "* 0.05"
								}

							}
, 							{
								"box" : 								{
									"id" : "obj-8",
									"maxclass" : "toggle",
									"numinlets" : 1,
									"numoutlets" : 1,
									"outlettype" : [ "int" ],
									"parameter_enable" : 0,
									"patching_rect" : [ 18.0, 32.0, 20.0, 20.0 ]
								}

							}
, 							{
								"box" : 								{
									"fontname" : "Arial",
									"fontsize" : 12.0,
									"id" : "obj-4",
									"maxclass" : "newobj",
									"numinlets" : 1,
									"numoutlets" : 1,
									"outlettype" : [ "" ],
									"patching_rect" : [ 29.0, 55.0, 72.0, 20.0 ],
									"text" : "loadmess 1"
								}

							}
, 							{
								"box" : 								{
									"fontname" : "Arial",
									"fontsize" : 12.0,
									"id" : "obj-3",
									"maxclass" : "newobj",
									"numinlets" : 2,
									"numoutlets" : 1,
									"outlettype" : [ "float" ],
									"patching_rect" : [ 5.0, 79.0, 83.0, 20.0 ],
									"text" : "snapshot~ 15"
								}

							}
, 							{
								"box" : 								{
									"comment" : "",
									"id" : "obj-2",
									"maxclass" : "outlet",
									"numinlets" : 1,
									"numoutlets" : 0,
									"patching_rect" : [ 5.0, 178.0, 25.0, 25.0 ]
								}

							}
, 							{
								"box" : 								{
									"comment" : "",
									"id" : "obj-1",
									"maxclass" : "inlet",
									"numinlets" : 0,
									"numoutlets" : 1,
									"outlettype" : [ "signal" ],
									"patching_rect" : [ 5.0, 4.0, 25.0, 25.0 ]
								}

							}
 ],
						"lines" : [ 							{
								"patchline" : 								{
									"destination" : [ "obj-3", 0 ],
									"disabled" : 0,
									"hidden" : 0,
									"source" : [ "obj-1", 0 ]
								}

							}
, 							{
								"patchline" : 								{
									"destination" : [ "obj-5", 0 ],
									"disabled" : 0,
									"hidden" : 0,
									"source" : [ "obj-3", 0 ]
								}

							}
, 							{
								"patchline" : 								{
									"destination" : [ "obj-3", 0 ],
									"disabled" : 0,
									"hidden" : 0,
									"source" : [ "obj-4", 0 ]
								}

							}
, 							{
								"patchline" : 								{
									"destination" : [ "obj-6", 0 ],
									"disabled" : 0,
									"hidden" : 0,
									"source" : [ "obj-5", 0 ]
								}

							}
, 							{
								"patchline" : 								{
									"destination" : [ "obj-7", 0 ],
									"disabled" : 0,
									"hidden" : 0,
									"source" : [ "obj-6", 0 ]
								}

							}
, 							{
								"patchline" : 								{
									"destination" : [ "obj-2", 0 ],
									"disabled" : 0,
									"hidden" : 0,
									"source" : [ "obj-7", 0 ]
								}

							}
, 							{
								"patchline" : 								{
									"destination" : [ "obj-3", 0 ],
									"disabled" : 0,
									"hidden" : 0,
									"source" : [ "obj-8", 0 ]
								}

							}
 ]
					}
,
					"patching_rect" : [ 694.5, 212.0, 84.0, 20.0 ],
					"saved_object_attributes" : 					{
						"default_fontface" : 0,
						"default_fontname" : "Arial",
						"default_fontsize" : 12.0,
						"description" : "",
						"digest" : "",
						"fontface" : 0,
						"fontname" : "Arial",
						"fontsize" : 12.0,
						"globalpatchername" : "",
						"tags" : ""
					}
,
					"text" : "p prep-hslider"
				}

			}
, 			{
				"box" : 				{
					"floatoutput" : 1,
					"id" : "obj-33",
					"maxclass" : "slider",
					"mult" : 100.0,
					"numinlets" : 1,
					"numoutlets" : 1,
					"outlettype" : [ "" ],
					"parameter_enable" : 0,
					"patching_rect" : [ 695.5, 212.0, 189.0, 20.0 ],
					"size" : 1.0
				}

			}
, 			{
				"box" : 				{
					"fontname" : "Arial",
					"fontsize" : 18.0,
					"frgb" : 0.0,
					"id" : "obj-20",
					"linecount" : 2,
					"maxclass" : "comment",
					"numinlets" : 1,
					"numoutlets" : 0,
					"patching_rect" : [ 711.0, 300.5, 259.0, 47.0 ],
					"presentation" : 1,
					"presentation_linecount" : 5,
					"presentation_rect" : [ 62.0, 281.0, 133.0, 107.0 ],
					"text" : "Change the parameters of the touch link to the haptic device:"
				}

			}
, 			{
				"box" : 				{
					"fontname" : "Arial",
					"fontsize" : 18.0,
					"id" : "obj-18",
					"maxclass" : "message",
					"numinlets" : 2,
					"numoutlets" : 1,
					"outlettype" : [ "" ],
					"patching_rect" : [ 837.5, 351.0, 78.0, 25.0 ],
					"text" : "150. 1.5"
				}

			}
, 			{
				"box" : 				{
					"fontname" : "Arial",
					"fontsize" : 18.0,
					"id" : "obj-19",
					"maxclass" : "message",
					"numinlets" : 2,
					"numoutlets" : 1,
					"outlettype" : [ "" ],
					"patching_rect" : [ 929.5, 351.0, 98.0, 25.0 ],
					"text" : "1000. 0.01"
				}

			}
, 			{
				"box" : 				{
					"fontname" : "Arial",
					"fontsize" : 18.0,
					"id" : "obj-16",
					"maxclass" : "message",
					"numinlets" : 2,
					"numoutlets" : 1,
					"outlettype" : [ "" ],
					"patching_rect" : [ 645.5, 351.0, 88.0, 25.0 ],
					"text" : "150. 0.01"
				}

			}
, 			{
				"box" : 				{
					"fontname" : "Arial",
					"fontsize" : 18.0,
					"id" : "obj-15",
					"maxclass" : "message",
					"numinlets" : 2,
					"numoutlets" : 1,
					"outlettype" : [ "" ],
					"patching_rect" : [ 747.5, 351.0, 78.0, 25.0 ],
					"text" : "150. 0.1"
				}

			}
, 			{
				"box" : 				{
					"fontname" : "Arial",
					"fontsize" : 24.0,
					"id" : "obj-12",
					"maxclass" : "newobj",
					"numinlets" : 1,
					"numoutlets" : 0,
					"patching_rect" : [ 837.5, 391.5, 38.0, 33.0 ],
					"text" : "s t"
				}

			}
, 			{
				"box" : 				{
					"fontname" : "Arial",
					"fontsize" : 12.0,
					"frgb" : 0.0,
					"id" : "obj-41",
					"maxclass" : "comment",
					"numinlets" : 1,
					"numoutlets" : 0,
					"patching_rect" : [ 232.0, 189.0, 150.0, 20.0 ],
					"text" : "|"
				}

			}
, 			{
				"box" : 				{
					"fontname" : "Arial",
					"fontsize" : 12.0,
					"frgb" : 0.0,
					"id" : "obj-42",
					"maxclass" : "comment",
					"numinlets" : 1,
					"numoutlets" : 0,
					"patching_rect" : [ 232.0, 168.0, 150.0, 20.0 ],
					"text" : "|"
				}

			}
, 			{
				"box" : 				{
					"fontname" : "Arial",
					"fontsize" : 12.0,
					"frgb" : 0.0,
					"id" : "obj-43",
					"maxclass" : "comment",
					"numinlets" : 1,
					"numoutlets" : 0,
					"patching_rect" : [ 232.0, 179.0, 150.0, 20.0 ],
					"text" : "|"
				}

			}
, 			{
				"box" : 				{
					"fontname" : "Arial",
					"fontsize" : 12.0,
					"hidden" : 1,
					"id" : "obj-44",
					"maxclass" : "newobj",
					"numinlets" : 1,
					"numoutlets" : 1,
					"outlettype" : [ "float" ],
					"patcher" : 					{
						"fileversion" : 1,
						"appversion" : 						{
							"major" : 6,
							"minor" : 1,
							"revision" : 3,
							"architecture" : "x86"
						}
,
						"rect" : [ 696.0, 163.0, 280.0, 282.0 ],
						"bglocked" : 0,
						"openinpresentation" : 0,
						"default_fontsize" : 12.0,
						"default_fontface" : 0,
						"default_fontname" : "Arial",
						"gridonopen" : 0,
						"gridsize" : [ 15.0, 15.0 ],
						"gridsnaponopen" : 0,
						"statusbarvisible" : 2,
						"toolbarvisible" : 1,
						"boxanimatetime" : 200,
						"imprint" : 0,
						"enablehscroll" : 1,
						"enablevscroll" : 1,
						"devicewidth" : 0.0,
						"description" : "",
						"digest" : "",
						"tags" : "",
						"boxes" : [ 							{
								"box" : 								{
									"fontname" : "Arial",
									"fontsize" : 12.0,
									"id" : "obj-7",
									"maxclass" : "newobj",
									"numinlets" : 2,
									"numoutlets" : 1,
									"outlettype" : [ "float" ],
									"patching_rect" : [ 5.0, 154.0, 35.0, 20.0 ],
									"text" : "* 0.5"
								}

							}
, 							{
								"box" : 								{
									"fontname" : "Arial",
									"fontsize" : 12.0,
									"id" : "obj-6",
									"maxclass" : "newobj",
									"numinlets" : 2,
									"numoutlets" : 1,
									"outlettype" : [ "float" ],
									"patching_rect" : [ 5.0, 129.0, 32.5, 20.0 ],
									"text" : "+ 1."
								}

							}
, 							{
								"box" : 								{
									"fontname" : "Arial",
									"fontsize" : 12.0,
									"id" : "obj-5",
									"maxclass" : "newobj",
									"numinlets" : 2,
									"numoutlets" : 1,
									"outlettype" : [ "float" ],
									"patching_rect" : [ 5.0, 104.0, 42.0, 20.0 ],
									"text" : "* 200."
								}

							}
, 							{
								"box" : 								{
									"id" : "obj-8",
									"maxclass" : "toggle",
									"numinlets" : 1,
									"numoutlets" : 1,
									"outlettype" : [ "int" ],
									"parameter_enable" : 0,
									"patching_rect" : [ 18.0, 32.0, 20.0, 20.0 ]
								}

							}
, 							{
								"box" : 								{
									"fontname" : "Arial",
									"fontsize" : 12.0,
									"id" : "obj-4",
									"maxclass" : "newobj",
									"numinlets" : 1,
									"numoutlets" : 1,
									"outlettype" : [ "" ],
									"patching_rect" : [ 29.0, 55.0, 72.0, 20.0 ],
									"text" : "loadmess 1"
								}

							}
, 							{
								"box" : 								{
									"fontname" : "Arial",
									"fontsize" : 12.0,
									"id" : "obj-3",
									"maxclass" : "newobj",
									"numinlets" : 2,
									"numoutlets" : 1,
									"outlettype" : [ "float" ],
									"patching_rect" : [ 5.0, 79.0, 83.0, 20.0 ],
									"text" : "snapshot~ 15"
								}

							}
, 							{
								"box" : 								{
									"comment" : "",
									"id" : "obj-2",
									"maxclass" : "outlet",
									"numinlets" : 1,
									"numoutlets" : 0,
									"patching_rect" : [ 5.0, 178.0, 25.0, 25.0 ]
								}

							}
, 							{
								"box" : 								{
									"comment" : "",
									"id" : "obj-1",
									"maxclass" : "inlet",
									"numinlets" : 0,
									"numoutlets" : 1,
									"outlettype" : [ "signal" ],
									"patching_rect" : [ 5.0, 4.0, 25.0, 25.0 ]
								}

							}
 ],
						"lines" : [ 							{
								"patchline" : 								{
									"destination" : [ "obj-3", 0 ],
									"disabled" : 0,
									"hidden" : 0,
									"source" : [ "obj-1", 0 ]
								}

							}
, 							{
								"patchline" : 								{
									"destination" : [ "obj-5", 0 ],
									"disabled" : 0,
									"hidden" : 0,
									"source" : [ "obj-3", 0 ]
								}

							}
, 							{
								"patchline" : 								{
									"destination" : [ "obj-3", 0 ],
									"disabled" : 0,
									"hidden" : 0,
									"source" : [ "obj-4", 0 ]
								}

							}
, 							{
								"patchline" : 								{
									"destination" : [ "obj-6", 0 ],
									"disabled" : 0,
									"hidden" : 0,
									"source" : [ "obj-5", 0 ]
								}

							}
, 							{
								"patchline" : 								{
									"destination" : [ "obj-7", 0 ],
									"disabled" : 0,
									"hidden" : 0,
									"source" : [ "obj-6", 0 ]
								}

							}
, 							{
								"patchline" : 								{
									"destination" : [ "obj-2", 0 ],
									"disabled" : 0,
									"hidden" : 0,
									"source" : [ "obj-7", 0 ]
								}

							}
, 							{
								"patchline" : 								{
									"destination" : [ "obj-3", 0 ],
									"disabled" : 0,
									"hidden" : 0,
									"source" : [ "obj-8", 0 ]
								}

							}
 ]
					}
,
					"patching_rect" : [ 144.0, 178.0, 84.0, 20.0 ],
					"saved_object_attributes" : 					{
						"default_fontface" : 0,
						"default_fontname" : "Arial",
						"default_fontsize" : 12.0,
						"description" : "",
						"digest" : "",
						"fontface" : 0,
						"fontname" : "Arial",
						"fontsize" : 12.0,
						"globalpatchername" : "",
						"tags" : ""
					}
,
					"text" : "p prep-hslider"
				}

			}
, 			{
				"box" : 				{
					"floatoutput" : 1,
					"id" : "obj-45",
					"maxclass" : "slider",
					"mult" : 100.0,
					"numinlets" : 1,
					"numoutlets" : 1,
					"outlettype" : [ "" ],
					"parameter_enable" : 0,
					"patching_rect" : [ 144.0, 179.0, 189.0, 20.0 ],
					"size" : 1.0
				}

			}
, 			{
				"box" : 				{
					"fontname" : "Arial",
					"fontsize" : 18.0,
					"frgb" : 0.0,
					"id" : "obj-35",
					"maxclass" : "comment",
					"numinlets" : 1,
					"numoutlets" : 0,
					"patching_rect" : [ 790.0, 147.0, 185.0, 27.0 ],
					"presentation" : 1,
					"presentation_linecount" : 2,
					"presentation_rect" : [ 625.0, 217.0, 128.0, 47.0 ],
					"text" : "Position of fader"
				}

			}
, 			{
				"box" : 				{
					"fontname" : "Arial",
					"fontsize" : 12.0,
					"frgb" : 0.0,
					"id" : "obj-36",
					"maxclass" : "comment",
					"numinlets" : 1,
					"numoutlets" : 0,
					"patching_rect" : [ 869.0, 133.0, 150.0, 20.0 ],
					"text" : "|"
				}

			}
, 			{
				"box" : 				{
					"fontname" : "Arial",
					"fontsize" : 12.0,
					"frgb" : 0.0,
					"id" : "obj-37",
					"maxclass" : "comment",
					"numinlets" : 1,
					"numoutlets" : 0,
					"patching_rect" : [ 869.0, 112.0, 150.0, 20.0 ],
					"text" : "|"
				}

			}
, 			{
				"box" : 				{
					"fontname" : "Arial",
					"fontsize" : 12.0,
					"frgb" : 0.0,
					"id" : "obj-38",
					"maxclass" : "comment",
					"numinlets" : 1,
					"numoutlets" : 0,
					"patching_rect" : [ 869.0, 123.0, 150.0, 20.0 ],
					"text" : "|"
				}

			}
, 			{
				"box" : 				{
					"fontname" : "Arial",
					"fontsize" : 12.0,
					"hidden" : 1,
					"id" : "obj-39",
					"maxclass" : "newobj",
					"numinlets" : 1,
					"numoutlets" : 1,
					"outlettype" : [ "float" ],
					"patcher" : 					{
						"fileversion" : 1,
						"appversion" : 						{
							"major" : 6,
							"minor" : 1,
							"revision" : 3,
							"architecture" : "x86"
						}
,
						"rect" : [ 276.0, 159.0, 280.0, 282.0 ],
						"bglocked" : 0,
						"openinpresentation" : 0,
						"default_fontsize" : 12.0,
						"default_fontface" : 0,
						"default_fontname" : "Arial",
						"gridonopen" : 0,
						"gridsize" : [ 15.0, 15.0 ],
						"gridsnaponopen" : 0,
						"statusbarvisible" : 2,
						"toolbarvisible" : 1,
						"boxanimatetime" : 200,
						"imprint" : 0,
						"enablehscroll" : 1,
						"enablevscroll" : 1,
						"devicewidth" : 0.0,
						"description" : "",
						"digest" : "",
						"tags" : "",
						"boxes" : [ 							{
								"box" : 								{
									"fontname" : "Arial",
									"fontsize" : 12.0,
									"id" : "obj-7",
									"maxclass" : "newobj",
									"numinlets" : 2,
									"numoutlets" : 1,
									"outlettype" : [ "float" ],
									"patching_rect" : [ 5.0, 154.0, 35.0, 20.0 ],
									"text" : "* 0.5"
								}

							}
, 							{
								"box" : 								{
									"fontname" : "Arial",
									"fontsize" : 12.0,
									"id" : "obj-6",
									"maxclass" : "newobj",
									"numinlets" : 2,
									"numoutlets" : 1,
									"outlettype" : [ "float" ],
									"patching_rect" : [ 5.0, 129.0, 32.5, 20.0 ],
									"text" : "+ 1."
								}

							}
, 							{
								"box" : 								{
									"fontname" : "Arial",
									"fontsize" : 12.0,
									"id" : "obj-5",
									"maxclass" : "newobj",
									"numinlets" : 2,
									"numoutlets" : 1,
									"outlettype" : [ "float" ],
									"patching_rect" : [ 5.0, 105.0, 41.0, 20.0 ],
									"text" : "/ 0.05"
								}

							}
, 							{
								"box" : 								{
									"id" : "obj-8",
									"maxclass" : "toggle",
									"numinlets" : 1,
									"numoutlets" : 1,
									"outlettype" : [ "int" ],
									"parameter_enable" : 0,
									"patching_rect" : [ 18.0, 32.0, 20.0, 20.0 ]
								}

							}
, 							{
								"box" : 								{
									"fontname" : "Arial",
									"fontsize" : 12.0,
									"id" : "obj-4",
									"maxclass" : "newobj",
									"numinlets" : 1,
									"numoutlets" : 1,
									"outlettype" : [ "" ],
									"patching_rect" : [ 29.0, 55.0, 72.0, 20.0 ],
									"text" : "loadmess 1"
								}

							}
, 							{
								"box" : 								{
									"fontname" : "Arial",
									"fontsize" : 12.0,
									"id" : "obj-3",
									"maxclass" : "newobj",
									"numinlets" : 2,
									"numoutlets" : 1,
									"outlettype" : [ "float" ],
									"patching_rect" : [ 5.0, 79.0, 83.0, 20.0 ],
									"text" : "snapshot~ 15"
								}

							}
, 							{
								"box" : 								{
									"comment" : "",
									"id" : "obj-2",
									"maxclass" : "outlet",
									"numinlets" : 1,
									"numoutlets" : 0,
									"patching_rect" : [ 5.0, 178.0, 25.0, 25.0 ]
								}

							}
, 							{
								"box" : 								{
									"comment" : "",
									"id" : "obj-1",
									"maxclass" : "inlet",
									"numinlets" : 0,
									"numoutlets" : 1,
									"outlettype" : [ "signal" ],
									"patching_rect" : [ 5.0, 4.0, 25.0, 25.0 ]
								}

							}
 ],
						"lines" : [ 							{
								"patchline" : 								{
									"destination" : [ "obj-3", 0 ],
									"disabled" : 0,
									"hidden" : 0,
									"source" : [ "obj-1", 0 ]
								}

							}
, 							{
								"patchline" : 								{
									"destination" : [ "obj-5", 0 ],
									"disabled" : 0,
									"hidden" : 0,
									"source" : [ "obj-3", 0 ]
								}

							}
, 							{
								"patchline" : 								{
									"destination" : [ "obj-3", 0 ],
									"disabled" : 0,
									"hidden" : 0,
									"source" : [ "obj-4", 0 ]
								}

							}
, 							{
								"patchline" : 								{
									"destination" : [ "obj-6", 0 ],
									"disabled" : 0,
									"hidden" : 0,
									"source" : [ "obj-5", 0 ]
								}

							}
, 							{
								"patchline" : 								{
									"destination" : [ "obj-7", 0 ],
									"disabled" : 0,
									"hidden" : 0,
									"source" : [ "obj-6", 0 ]
								}

							}
, 							{
								"patchline" : 								{
									"destination" : [ "obj-2", 0 ],
									"disabled" : 0,
									"hidden" : 0,
									"source" : [ "obj-7", 0 ]
								}

							}
, 							{
								"patchline" : 								{
									"destination" : [ "obj-3", 0 ],
									"disabled" : 0,
									"hidden" : 0,
									"source" : [ "obj-8", 0 ]
								}

							}
 ]
					}
,
					"patching_rect" : [ 780.0, 123.0, 84.0, 20.0 ],
					"saved_object_attributes" : 					{
						"default_fontface" : 0,
						"default_fontname" : "Arial",
						"default_fontsize" : 12.0,
						"description" : "",
						"digest" : "",
						"fontface" : 0,
						"fontname" : "Arial",
						"fontsize" : 12.0,
						"globalpatchername" : "",
						"tags" : ""
					}
,
					"text" : "p prep-hslider"
				}

			}
, 			{
				"box" : 				{
					"floatoutput" : 1,
					"id" : "obj-40",
					"maxclass" : "slider",
					"mult" : 100.0,
					"numinlets" : 1,
					"numoutlets" : 1,
					"outlettype" : [ "" ],
					"parameter_enable" : 0,
					"patching_rect" : [ 781.0, 123.0, 189.0, 20.0 ],
					"size" : 1.0
				}

			}
, 			{
				"box" : 				{
					"fontname" : "Arial Bold Italic",
					"fontsize" : 24.0,
					"frgb" : 0.0,
					"id" : "obj-27",
					"maxclass" : "comment",
					"numinlets" : 1,
					"numoutlets" : 0,
					"patching_rect" : [ 13.0, 234.0, 215.0, 33.0 ],
					"presentation" : 1,
					"presentation_linecount" : 2,
					"presentation_rect" : [ 198.0, 299.0, 178.0, 60.0 ],
					"text" : "Modal Resonator"
				}

			}
, 			{
				"box" : 				{
					"fontname" : "Arial Italic",
					"fontsize" : 18.0,
					"frgb" : 0.0,
					"id" : "obj-23",
					"maxclass" : "comment",
					"numinlets" : 1,
					"numoutlets" : 0,
					"patching_rect" : [ 428.0, 189.0, 30.0, 27.0 ],
					"presentation" : 1,
					"presentation_rect" : [ 607.0, 190.0, 128.0, 27.0 ],
					"text" : "r1"
				}

			}
, 			{
				"box" : 				{
					"fontname" : "Arial",
					"fontsize" : 18.0,
					"frgb" : 0.0,
					"id" : "obj-6",
					"maxclass" : "comment",
					"numinlets" : 1,
					"numoutlets" : 0,
					"patching_rect" : [ 339.0, 189.0, 85.0, 27.0 ],
					"presentation" : 1,
					"presentation_rect" : [ 494.0, 190.0, 128.0, 27.0 ],
					"text" : "resonator"
				}

			}
, 			{
				"box" : 				{
					"id" : "obj-1",
					"maxclass" : "ezdac~",
					"numinlets" : 2,
					"numoutlets" : 0,
					"patching_rect" : [ 526.0, 291.0, 45.0, 45.0 ]
				}

			}
, 			{
				"box" : 				{
					"fontname" : "Arial",
					"fontsize" : 12.0,
					"hidden" : 1,
					"id" : "obj-21",
					"maxclass" : "newobj",
					"numinlets" : 1,
					"numoutlets" : 1,
					"outlettype" : [ "signal" ],
					"patcher" : 					{
						"fileversion" : 1,
						"appversion" : 						{
							"major" : 6,
							"minor" : 1,
							"revision" : 3,
							"architecture" : "x86"
						}
,
						"rect" : [ 700.0, 261.0, 100.0, 132.0 ],
						"bglocked" : 0,
						"openinpresentation" : 0,
						"default_fontsize" : 12.0,
						"default_fontface" : 0,
						"default_fontname" : "Arial",
						"gridonopen" : 0,
						"gridsize" : [ 15.0, 15.0 ],
						"gridsnaponopen" : 0,
						"statusbarvisible" : 2,
						"toolbarvisible" : 1,
						"boxanimatetime" : 200,
						"imprint" : 0,
						"enablehscroll" : 1,
						"enablevscroll" : 1,
						"devicewidth" : 0.0,
						"description" : "",
						"digest" : "",
						"tags" : "",
						"boxes" : [ 							{
								"box" : 								{
									"fontname" : "Arial",
									"fontsize" : 12.0,
									"id" : "obj-10",
									"maxclass" : "newobj",
									"numinlets" : 1,
									"numoutlets" : 1,
									"outlettype" : [ "signal" ],
									"patcher" : 									{
										"fileversion" : 1,
										"appversion" : 										{
											"major" : 6,
											"minor" : 1,
											"revision" : 3,
											"architecture" : "x86"
										}
,
										"rect" : [ 776.0, 261.0, 208.0, 283.0 ],
										"bglocked" : 0,
										"openinpresentation" : 0,
										"default_fontsize" : 12.0,
										"default_fontface" : 0,
										"default_fontname" : "Arial",
										"gridonopen" : 0,
										"gridsize" : [ 15.0, 15.0 ],
										"gridsnaponopen" : 0,
										"statusbarvisible" : 2,
										"toolbarvisible" : 1,
										"boxanimatetime" : 200,
										"imprint" : 0,
										"enablehscroll" : 1,
										"enablevscroll" : 1,
										"devicewidth" : 0.0,
										"description" : "",
										"digest" : "",
										"tags" : "",
										"boxes" : [ 											{
												"box" : 												{
													"fontname" : "Arial",
													"fontsize" : 12.0,
													"id" : "obj-8",
													"maxclass" : "newobj",
													"numinlets" : 1,
													"numoutlets" : 1,
													"outlettype" : [ "signal" ],
													"patcher" : 													{
														"fileversion" : 1,
														"appversion" : 														{
															"major" : 6,
															"minor" : 1,
															"revision" : 3,
															"architecture" : "x86"
														}
,
														"rect" : [ 863.0, 388.0, 226.0, 196.0 ],
														"bglocked" : 0,
														"openinpresentation" : 0,
														"default_fontsize" : 12.0,
														"default_fontface" : 0,
														"default_fontname" : "Arial",
														"gridonopen" : 0,
														"gridsize" : [ 15.0, 15.0 ],
														"gridsnaponopen" : 0,
														"statusbarvisible" : 2,
														"toolbarvisible" : 1,
														"boxanimatetime" : 200,
														"imprint" : 0,
														"enablehscroll" : 1,
														"enablevscroll" : 1,
														"devicewidth" : 0.0,
														"description" : "",
														"digest" : "",
														"tags" : "",
														"boxes" : [ 															{
																"box" : 																{
																	"fontname" : "Arial",
																	"fontsize" : 12.0,
																	"id" : "obj-3",
																	"maxclass" : "newobj",
																	"numinlets" : 2,
																	"numoutlets" : 1,
																	"outlettype" : [ "signal" ],
																	"patching_rect" : [ 28.0, 110.0, 32.5, 20.0 ],
																	"text" : "-~"
																}

															}
, 															{
																"box" : 																{
																	"comment" : "",
																	"id" : "obj-2",
																	"maxclass" : "outlet",
																	"numinlets" : 1,
																	"numoutlets" : 0,
																	"patching_rect" : [ 19.0, 147.0, 25.0, 25.0 ]
																}

															}
, 															{
																"box" : 																{
																	"comment" : "",
																	"id" : "obj-1",
																	"maxclass" : "inlet",
																	"numinlets" : 0,
																	"numoutlets" : 1,
																	"outlettype" : [ "signal" ],
																	"patching_rect" : [ 25.0, 24.0, 25.0, 25.0 ]
																}

															}
, 															{
																"box" : 																{
																	"fontname" : "Arial",
																	"fontsize" : 12.0,
																	"id" : "obj-7",
																	"maxclass" : "newobj",
																	"numinlets" : 2,
																	"numoutlets" : 1,
																	"outlettype" : [ "signal" ],
																	"patching_rect" : [ 52.0, 66.0, 98.0, 20.0 ],
																	"text" : "onepole~ 30. Hz"
																}

															}
 ],
														"lines" : [ 															{
																"patchline" : 																{
																	"destination" : [ "obj-3", 0 ],
																	"disabled" : 0,
																	"hidden" : 0,
																	"source" : [ "obj-1", 0 ]
																}

															}
, 															{
																"patchline" : 																{
																	"destination" : [ "obj-7", 0 ],
																	"disabled" : 0,
																	"hidden" : 0,
																	"source" : [ "obj-1", 0 ]
																}

															}
, 															{
																"patchline" : 																{
																	"destination" : [ "obj-2", 0 ],
																	"disabled" : 0,
																	"hidden" : 0,
																	"source" : [ "obj-3", 0 ]
																}

															}
, 															{
																"patchline" : 																{
																	"destination" : [ "obj-3", 1 ],
																	"disabled" : 0,
																	"hidden" : 0,
																	"source" : [ "obj-7", 0 ]
																}

															}
 ]
													}
,
													"patching_rect" : [ 10.0, 82.0, 76.0, 20.0 ],
													"saved_object_attributes" : 													{
														"default_fontface" : 0,
														"default_fontname" : "Arial",
														"default_fontsize" : 12.0,
														"description" : "",
														"digest" : "",
														"fontface" : 0,
														"fontname" : "Arial",
														"fontsize" : 12.0,
														"globalpatchername" : "",
														"tags" : ""
													}
,
													"text" : "p highpass~"
												}

											}
, 											{
												"box" : 												{
													"fontname" : "Arial",
													"fontsize" : 12.0,
													"id" : "obj-7",
													"maxclass" : "newobj",
													"numinlets" : 1,
													"numoutlets" : 1,
													"outlettype" : [ "signal" ],
													"patcher" : 													{
														"fileversion" : 1,
														"appversion" : 														{
															"major" : 6,
															"minor" : 1,
															"revision" : 3,
															"architecture" : "x86"
														}
,
														"rect" : [ 863.0, 388.0, 226.0, 196.0 ],
														"bglocked" : 0,
														"openinpresentation" : 0,
														"default_fontsize" : 12.0,
														"default_fontface" : 0,
														"default_fontname" : "Arial",
														"gridonopen" : 0,
														"gridsize" : [ 15.0, 15.0 ],
														"gridsnaponopen" : 0,
														"statusbarvisible" : 2,
														"toolbarvisible" : 1,
														"boxanimatetime" : 200,
														"imprint" : 0,
														"enablehscroll" : 1,
														"enablevscroll" : 1,
														"devicewidth" : 0.0,
														"description" : "",
														"digest" : "",
														"tags" : "",
														"boxes" : [ 															{
																"box" : 																{
																	"fontname" : "Arial",
																	"fontsize" : 12.0,
																	"id" : "obj-3",
																	"maxclass" : "newobj",
																	"numinlets" : 2,
																	"numoutlets" : 1,
																	"outlettype" : [ "signal" ],
																	"patching_rect" : [ 28.0, 110.0, 32.5, 20.0 ],
																	"text" : "-~"
																}

															}
, 															{
																"box" : 																{
																	"comment" : "",
																	"id" : "obj-2",
																	"maxclass" : "outlet",
																	"numinlets" : 1,
																	"numoutlets" : 0,
																	"patching_rect" : [ 19.0, 147.0, 25.0, 25.0 ]
																}

															}
, 															{
																"box" : 																{
																	"comment" : "",
																	"id" : "obj-1",
																	"maxclass" : "inlet",
																	"numinlets" : 0,
																	"numoutlets" : 1,
																	"outlettype" : [ "signal" ],
																	"patching_rect" : [ 25.0, 24.0, 25.0, 25.0 ]
																}

															}
, 															{
																"box" : 																{
																	"fontname" : "Arial",
																	"fontsize" : 12.0,
																	"id" : "obj-7",
																	"maxclass" : "newobj",
																	"numinlets" : 2,
																	"numoutlets" : 1,
																	"outlettype" : [ "signal" ],
																	"patching_rect" : [ 52.0, 66.0, 92.0, 20.0 ],
																	"text" : "onepole~ 5. Hz"
																}

															}
 ],
														"lines" : [ 															{
																"patchline" : 																{
																	"destination" : [ "obj-3", 0 ],
																	"disabled" : 0,
																	"hidden" : 0,
																	"source" : [ "obj-1", 0 ]
																}

															}
, 															{
																"patchline" : 																{
																	"destination" : [ "obj-7", 0 ],
																	"disabled" : 0,
																	"hidden" : 0,
																	"source" : [ "obj-1", 0 ]
																}

															}
, 															{
																"patchline" : 																{
																	"destination" : [ "obj-2", 0 ],
																	"disabled" : 0,
																	"hidden" : 0,
																	"source" : [ "obj-3", 0 ]
																}

															}
, 															{
																"patchline" : 																{
																	"destination" : [ "obj-3", 1 ],
																	"disabled" : 0,
																	"hidden" : 0,
																	"source" : [ "obj-7", 0 ]
																}

															}
 ]
													}
,
													"patching_rect" : [ 10.0, 211.0, 76.0, 20.0 ],
													"saved_object_attributes" : 													{
														"default_fontface" : 0,
														"default_fontname" : "Arial",
														"default_fontsize" : 12.0,
														"description" : "",
														"digest" : "",
														"fontface" : 0,
														"fontname" : "Arial",
														"fontsize" : 12.0,
														"globalpatchername" : "",
														"tags" : ""
													}
,
													"text" : "p highpass~"
												}

											}
, 											{
												"box" : 												{
													"fontname" : "Arial",
													"fontsize" : 12.0,
													"id" : "obj-6",
													"maxclass" : "newobj",
													"numinlets" : 1,
													"numoutlets" : 1,
													"outlettype" : [ "signal" ],
													"patcher" : 													{
														"fileversion" : 1,
														"appversion" : 														{
															"major" : 6,
															"minor" : 1,
															"revision" : 3,
															"architecture" : "x86"
														}
,
														"rect" : [ 863.0, 388.0, 226.0, 196.0 ],
														"bglocked" : 0,
														"openinpresentation" : 0,
														"default_fontsize" : 12.0,
														"default_fontface" : 0,
														"default_fontname" : "Arial",
														"gridonopen" : 0,
														"gridsize" : [ 15.0, 15.0 ],
														"gridsnaponopen" : 0,
														"statusbarvisible" : 2,
														"toolbarvisible" : 1,
														"boxanimatetime" : 200,
														"imprint" : 0,
														"enablehscroll" : 1,
														"enablevscroll" : 1,
														"devicewidth" : 0.0,
														"description" : "",
														"digest" : "",
														"tags" : "",
														"boxes" : [ 															{
																"box" : 																{
																	"fontname" : "Arial",
																	"fontsize" : 12.0,
																	"id" : "obj-3",
																	"maxclass" : "newobj",
																	"numinlets" : 2,
																	"numoutlets" : 1,
																	"outlettype" : [ "signal" ],
																	"patching_rect" : [ 28.0, 110.0, 32.5, 20.0 ],
																	"text" : "-~"
																}

															}
, 															{
																"box" : 																{
																	"comment" : "",
																	"id" : "obj-2",
																	"maxclass" : "outlet",
																	"numinlets" : 1,
																	"numoutlets" : 0,
																	"patching_rect" : [ 19.0, 147.0, 25.0, 25.0 ]
																}

															}
, 															{
																"box" : 																{
																	"comment" : "",
																	"id" : "obj-1",
																	"maxclass" : "inlet",
																	"numinlets" : 0,
																	"numoutlets" : 1,
																	"outlettype" : [ "signal" ],
																	"patching_rect" : [ 25.0, 24.0, 25.0, 25.0 ]
																}

															}
, 															{
																"box" : 																{
																	"fontname" : "Arial",
																	"fontsize" : 12.0,
																	"id" : "obj-7",
																	"maxclass" : "newobj",
																	"numinlets" : 2,
																	"numoutlets" : 1,
																	"outlettype" : [ "signal" ],
																	"patching_rect" : [ 52.0, 66.0, 98.0, 20.0 ],
																	"text" : "onepole~ 10. Hz"
																}

															}
 ],
														"lines" : [ 															{
																"patchline" : 																{
																	"destination" : [ "obj-3", 0 ],
																	"disabled" : 0,
																	"hidden" : 0,
																	"source" : [ "obj-1", 0 ]
																}

															}
, 															{
																"patchline" : 																{
																	"destination" : [ "obj-7", 0 ],
																	"disabled" : 0,
																	"hidden" : 0,
																	"source" : [ "obj-1", 0 ]
																}

															}
, 															{
																"patchline" : 																{
																	"destination" : [ "obj-2", 0 ],
																	"disabled" : 0,
																	"hidden" : 0,
																	"source" : [ "obj-3", 0 ]
																}

															}
, 															{
																"patchline" : 																{
																	"destination" : [ "obj-3", 1 ],
																	"disabled" : 0,
																	"hidden" : 0,
																	"source" : [ "obj-7", 0 ]
																}

															}
 ]
													}
,
													"patching_rect" : [ 10.0, 170.0, 76.0, 20.0 ],
													"saved_object_attributes" : 													{
														"default_fontface" : 0,
														"default_fontname" : "Arial",
														"default_fontsize" : 12.0,
														"description" : "",
														"digest" : "",
														"fontface" : 0,
														"fontname" : "Arial",
														"fontsize" : 12.0,
														"globalpatchername" : "",
														"tags" : ""
													}
,
													"text" : "p highpass~"
												}

											}
, 											{
												"box" : 												{
													"fontname" : "Arial",
													"fontsize" : 12.0,
													"id" : "obj-5",
													"maxclass" : "newobj",
													"numinlets" : 1,
													"numoutlets" : 1,
													"outlettype" : [ "signal" ],
													"patcher" : 													{
														"fileversion" : 1,
														"appversion" : 														{
															"major" : 6,
															"minor" : 1,
															"revision" : 3,
															"architecture" : "x86"
														}
,
														"rect" : [ 863.0, 388.0, 226.0, 196.0 ],
														"bglocked" : 0,
														"openinpresentation" : 0,
														"default_fontsize" : 12.0,
														"default_fontface" : 0,
														"default_fontname" : "Arial",
														"gridonopen" : 0,
														"gridsize" : [ 15.0, 15.0 ],
														"gridsnaponopen" : 0,
														"statusbarvisible" : 2,
														"toolbarvisible" : 1,
														"boxanimatetime" : 200,
														"imprint" : 0,
														"enablehscroll" : 1,
														"enablevscroll" : 1,
														"devicewidth" : 0.0,
														"description" : "",
														"digest" : "",
														"tags" : "",
														"boxes" : [ 															{
																"box" : 																{
																	"fontname" : "Arial",
																	"fontsize" : 12.0,
																	"id" : "obj-3",
																	"maxclass" : "newobj",
																	"numinlets" : 2,
																	"numoutlets" : 1,
																	"outlettype" : [ "signal" ],
																	"patching_rect" : [ 28.0, 110.0, 32.5, 20.0 ],
																	"text" : "-~"
																}

															}
, 															{
																"box" : 																{
																	"comment" : "",
																	"id" : "obj-2",
																	"maxclass" : "outlet",
																	"numinlets" : 1,
																	"numoutlets" : 0,
																	"patching_rect" : [ 19.0, 147.0, 25.0, 25.0 ]
																}

															}
, 															{
																"box" : 																{
																	"comment" : "",
																	"id" : "obj-1",
																	"maxclass" : "inlet",
																	"numinlets" : 0,
																	"numoutlets" : 1,
																	"outlettype" : [ "signal" ],
																	"patching_rect" : [ 25.0, 24.0, 25.0, 25.0 ]
																}

															}
, 															{
																"box" : 																{
																	"fontname" : "Arial",
																	"fontsize" : 12.0,
																	"id" : "obj-7",
																	"maxclass" : "newobj",
																	"numinlets" : 2,
																	"numoutlets" : 1,
																	"outlettype" : [ "signal" ],
																	"patching_rect" : [ 52.0, 66.0, 98.0, 20.0 ],
																	"text" : "onepole~ 15. Hz"
																}

															}
 ],
														"lines" : [ 															{
																"patchline" : 																{
																	"destination" : [ "obj-3", 0 ],
																	"disabled" : 0,
																	"hidden" : 0,
																	"source" : [ "obj-1", 0 ]
																}

															}
, 															{
																"patchline" : 																{
																	"destination" : [ "obj-7", 0 ],
																	"disabled" : 0,
																	"hidden" : 0,
																	"source" : [ "obj-1", 0 ]
																}

															}
, 															{
																"patchline" : 																{
																	"destination" : [ "obj-2", 0 ],
																	"disabled" : 0,
																	"hidden" : 0,
																	"source" : [ "obj-3", 0 ]
																}

															}
, 															{
																"patchline" : 																{
																	"destination" : [ "obj-3", 1 ],
																	"disabled" : 0,
																	"hidden" : 0,
																	"source" : [ "obj-7", 0 ]
																}

															}
 ]
													}
,
													"patching_rect" : [ 10.0, 137.0, 76.0, 20.0 ],
													"saved_object_attributes" : 													{
														"default_fontface" : 0,
														"default_fontname" : "Arial",
														"default_fontsize" : 12.0,
														"description" : "",
														"digest" : "",
														"fontface" : 0,
														"fontname" : "Arial",
														"fontsize" : 12.0,
														"globalpatchername" : "",
														"tags" : ""
													}
,
													"text" : "p highpass~"
												}

											}
, 											{
												"box" : 												{
													"fontname" : "Arial",
													"fontsize" : 12.0,
													"id" : "obj-4",
													"maxclass" : "newobj",
													"numinlets" : 1,
													"numoutlets" : 1,
													"outlettype" : [ "signal" ],
													"patcher" : 													{
														"fileversion" : 1,
														"appversion" : 														{
															"major" : 6,
															"minor" : 1,
															"revision" : 3,
															"architecture" : "x86"
														}
,
														"rect" : [ 863.0, 388.0, 226.0, 196.0 ],
														"bglocked" : 0,
														"openinpresentation" : 0,
														"default_fontsize" : 12.0,
														"default_fontface" : 0,
														"default_fontname" : "Arial",
														"gridonopen" : 0,
														"gridsize" : [ 15.0, 15.0 ],
														"gridsnaponopen" : 0,
														"statusbarvisible" : 2,
														"toolbarvisible" : 1,
														"boxanimatetime" : 200,
														"imprint" : 0,
														"enablehscroll" : 1,
														"enablevscroll" : 1,
														"devicewidth" : 0.0,
														"description" : "",
														"digest" : "",
														"tags" : "",
														"boxes" : [ 															{
																"box" : 																{
																	"fontname" : "Arial",
																	"fontsize" : 12.0,
																	"id" : "obj-3",
																	"maxclass" : "newobj",
																	"numinlets" : 2,
																	"numoutlets" : 1,
																	"outlettype" : [ "signal" ],
																	"patching_rect" : [ 28.0, 110.0, 32.5, 20.0 ],
																	"text" : "-~"
																}

															}
, 															{
																"box" : 																{
																	"comment" : "",
																	"id" : "obj-2",
																	"maxclass" : "outlet",
																	"numinlets" : 1,
																	"numoutlets" : 0,
																	"patching_rect" : [ 19.0, 147.0, 25.0, 25.0 ]
																}

															}
, 															{
																"box" : 																{
																	"comment" : "",
																	"id" : "obj-1",
																	"maxclass" : "inlet",
																	"numinlets" : 0,
																	"numoutlets" : 1,
																	"outlettype" : [ "signal" ],
																	"patching_rect" : [ 25.0, 24.0, 25.0, 25.0 ]
																}

															}
, 															{
																"box" : 																{
																	"fontname" : "Arial",
																	"fontsize" : 12.0,
																	"id" : "obj-7",
																	"maxclass" : "newobj",
																	"numinlets" : 2,
																	"numoutlets" : 1,
																	"outlettype" : [ "signal" ],
																	"patching_rect" : [ 52.0, 66.0, 98.0, 20.0 ],
																	"text" : "onepole~ 20. Hz"
																}

															}
 ],
														"lines" : [ 															{
																"patchline" : 																{
																	"destination" : [ "obj-3", 0 ],
																	"disabled" : 0,
																	"hidden" : 0,
																	"source" : [ "obj-1", 0 ]
																}

															}
, 															{
																"patchline" : 																{
																	"destination" : [ "obj-7", 0 ],
																	"disabled" : 0,
																	"hidden" : 0,
																	"source" : [ "obj-1", 0 ]
																}

															}
, 															{
																"patchline" : 																{
																	"destination" : [ "obj-2", 0 ],
																	"disabled" : 0,
																	"hidden" : 0,
																	"source" : [ "obj-3", 0 ]
																}

															}
, 															{
																"patchline" : 																{
																	"destination" : [ "obj-3", 1 ],
																	"disabled" : 0,
																	"hidden" : 0,
																	"source" : [ "obj-7", 0 ]
																}

															}
 ]
													}
,
													"patching_rect" : [ 10.0, 109.0, 76.0, 20.0 ],
													"saved_object_attributes" : 													{
														"default_fontface" : 0,
														"default_fontname" : "Arial",
														"default_fontsize" : 12.0,
														"description" : "",
														"digest" : "",
														"fontface" : 0,
														"fontname" : "Arial",
														"fontsize" : 12.0,
														"globalpatchername" : "",
														"tags" : ""
													}
,
													"text" : "p highpass~"
												}

											}
, 											{
												"box" : 												{
													"fontname" : "Arial",
													"fontsize" : 12.0,
													"id" : "obj-3",
													"maxclass" : "newobj",
													"numinlets" : 2,
													"numoutlets" : 1,
													"outlettype" : [ "signal" ],
													"patching_rect" : [ 10.0, 42.0, 36.0, 20.0 ],
													"text" : "*~ 1."
												}

											}
, 											{
												"box" : 												{
													"comment" : "",
													"id" : "obj-2",
													"maxclass" : "outlet",
													"numinlets" : 1,
													"numoutlets" : 0,
													"patching_rect" : [ 10.0, 252.0, 25.0, 25.0 ]
												}

											}
, 											{
												"box" : 												{
													"comment" : "",
													"id" : "obj-1",
													"maxclass" : "inlet",
													"numinlets" : 0,
													"numoutlets" : 1,
													"outlettype" : [ "signal" ],
													"patching_rect" : [ 10.0, 12.0, 25.0, 25.0 ]
												}

											}
 ],
										"lines" : [ 											{
												"patchline" : 												{
													"destination" : [ "obj-3", 0 ],
													"disabled" : 0,
													"hidden" : 0,
													"source" : [ "obj-1", 0 ]
												}

											}
, 											{
												"patchline" : 												{
													"destination" : [ "obj-8", 0 ],
													"disabled" : 0,
													"hidden" : 0,
													"source" : [ "obj-3", 0 ]
												}

											}
, 											{
												"patchline" : 												{
													"destination" : [ "obj-5", 0 ],
													"disabled" : 0,
													"hidden" : 0,
													"source" : [ "obj-4", 0 ]
												}

											}
, 											{
												"patchline" : 												{
													"destination" : [ "obj-6", 0 ],
													"disabled" : 0,
													"hidden" : 0,
													"source" : [ "obj-5", 0 ]
												}

											}
, 											{
												"patchline" : 												{
													"destination" : [ "obj-7", 0 ],
													"disabled" : 0,
													"hidden" : 0,
													"source" : [ "obj-6", 0 ]
												}

											}
, 											{
												"patchline" : 												{
													"destination" : [ "obj-2", 0 ],
													"disabled" : 0,
													"hidden" : 0,
													"source" : [ "obj-7", 0 ]
												}

											}
, 											{
												"patchline" : 												{
													"destination" : [ "obj-4", 0 ],
													"disabled" : 0,
													"hidden" : 0,
													"source" : [ "obj-8", 0 ]
												}

											}
 ]
									}
,
									"patching_rect" : [ 10.0, 68.0, 76.0, 20.0 ],
									"saved_object_attributes" : 									{
										"default_fontface" : 0,
										"default_fontname" : "Arial",
										"default_fontsize" : 12.0,
										"description" : "",
										"digest" : "",
										"fontface" : 0,
										"fontname" : "Arial",
										"fontsize" : 12.0,
										"globalpatchername" : "",
										"tags" : ""
									}
,
									"text" : "p highpass~"
								}

							}
, 							{
								"box" : 								{
									"fontname" : "Arial",
									"fontsize" : 12.0,
									"id" : "obj-3",
									"maxclass" : "newobj",
									"numinlets" : 2,
									"numoutlets" : 1,
									"outlettype" : [ "signal" ],
									"patching_rect" : [ 10.0, 42.0, 56.0, 20.0 ],
									"text" : "*~ 5000."
								}

							}
, 							{
								"box" : 								{
									"comment" : "",
									"id" : "obj-2",
									"maxclass" : "outlet",
									"numinlets" : 1,
									"numoutlets" : 0,
									"patching_rect" : [ 10.0, 94.0, 25.0, 25.0 ]
								}

							}
, 							{
								"box" : 								{
									"comment" : "",
									"id" : "obj-1",
									"maxclass" : "inlet",
									"numinlets" : 0,
									"numoutlets" : 1,
									"outlettype" : [ "signal" ],
									"patching_rect" : [ 10.0, 12.0, 25.0, 25.0 ]
								}

							}
 ],
						"lines" : [ 							{
								"patchline" : 								{
									"destination" : [ "obj-3", 0 ],
									"disabled" : 0,
									"hidden" : 0,
									"source" : [ "obj-1", 0 ]
								}

							}
, 							{
								"patchline" : 								{
									"destination" : [ "obj-2", 0 ],
									"disabled" : 0,
									"hidden" : 0,
									"source" : [ "obj-10", 0 ]
								}

							}
, 							{
								"patchline" : 								{
									"destination" : [ "obj-10", 0 ],
									"disabled" : 0,
									"hidden" : 0,
									"source" : [ "obj-3", 0 ]
								}

							}
 ]
					}
,
					"patching_rect" : [ 539.0, 212.0, 41.0, 20.0 ],
					"saved_object_attributes" : 					{
						"default_fontface" : 0,
						"default_fontname" : "Arial",
						"default_fontsize" : 12.0,
						"description" : "",
						"digest" : "",
						"fontface" : 0,
						"fontname" : "Arial",
						"fontsize" : 12.0,
						"globalpatchername" : "",
						"tags" : ""
					}
,
					"text" : "p hp~"
				}

			}
, 			{
				"box" : 				{
					"id" : "obj-22",
					"maxclass" : "gain~",
					"numinlets" : 2,
					"numoutlets" : 2,
					"outlettype" : [ "signal", "int" ],
					"parameter_enable" : 0,
					"patching_rect" : [ 539.0, 212.0, 42.0, 67.0 ]
				}

			}
, 			{
				"box" : 				{
					"fontname" : "Arial",
					"fontsize" : 18.0,
					"frgb" : 0.0,
					"id" : "obj-7",
					"maxclass" : "comment",
					"numinlets" : 1,
					"numoutlets" : 0,
					"patching_rect" : [ 339.0, 166.0, 148.0, 27.0 ],
					"presentation" : 1,
					"presentation_linecount" : 2,
					"presentation_rect" : [ 494.0, 176.0, 128.0, 47.0 ],
					"text" : "Position of modal"
				}

			}
, 			{
				"box" : 				{
					"color" : [ 0.278431, 0.921569, 0.639216, 1.0 ],
					"fontname" : "Arial",
					"fontsize" : 18.0,
					"id" : "obj-4",
					"maxclass" : "newobj",
					"numinlets" : 2,
					"numoutlets" : 2,
					"outlettype" : [ "signal", "signal" ],
					"patching_rect" : [ 539.0, 88.0, 175.0, 27.0 ],
					"presentation" : 1,
					"presentation_rect" : [ 443.0, 94.0, 175.0, 27.0 ],
					"text" : "touch~ t 300. 0.15 0."
				}

			}
, 			{
				"box" : 				{
					"fontname" : "Arial",
					"fontsize" : 18.0,
					"frgb" : 0.0,
					"id" : "obj-2",
					"linecount" : 2,
					"maxclass" : "comment",
					"numinlets" : 1,
					"numoutlets" : 0,
					"patching_rect" : [ 573.0, 288.0, 91.0, 47.0 ],
					"presentation" : 1,
					"presentation_linecount" : 2,
					"presentation_rect" : [ 52.0, 106.0, 91.0, 47.0 ],
					"text" : "Start/stop\nDSP"
				}

			}
, 			{
				"box" : 				{
					"color" : [ 0.960784, 0.439216, 0.478431, 1.0 ],
					"fontname" : "Arial",
					"fontsize" : 18.0,
					"id" : "obj-5",
					"maxclass" : "newobj",
					"numinlets" : 2,
					"numoutlets" : 2,
					"outlettype" : [ "signal", "signal" ],
					"patching_rect" : [ 780.0, 87.0, 99.0, 27.0 ],
					"presentation" : 1,
					"presentation_rect" : [ 391.0, 14.0, 99.0, 27.0 ],
					"text" : "FireFader~"
				}

			}
, 			{
				"box" : 				{
					"background" : 1,
					"grad1" : [ 0.72549, 0.780392, 1.0, 1.0 ],
					"grad2" : [ 0.811765, 0.803922, 1.0, 1.0 ],
					"id" : "obj-26",
					"maxclass" : "panel",
					"mode" : 1,
					"numinlets" : 1,
					"numoutlets" : 0,
					"patching_rect" : [ 3.0, 73.0, 501.0, 204.0 ],
					"varname" : "autohelp_top_panel"
				}

			}
 ],
		"lines" : [ 			{
				"patchline" : 				{
					"destination" : [ "obj-22", 0 ],
					"disabled" : 0,
					"hidden" : 1,
					"source" : [ "obj-10", 0 ]
				}

			}
, 			{
				"patchline" : 				{
					"destination" : [ "obj-21", 0 ],
					"disabled" : 0,
					"hidden" : 0,
					"midpoints" : [ 258.5, 122.0, 466.0, 122.0, 548.5, 163.0 ],
					"source" : [ "obj-14", 0 ]
				}

			}
, 			{
				"patchline" : 				{
					"destination" : [ "obj-4", 0 ],
					"disabled" : 0,
					"hidden" : 0,
					"midpoints" : [ 258.5, 122.0, 475.0, 122.0, 523.0, 79.0, 548.5, 79.0 ],
					"source" : [ "obj-14", 0 ]
				}

			}
, 			{
				"patchline" : 				{
					"destination" : [ "obj-44", 0 ],
					"disabled" : 0,
					"hidden" : 0,
					"source" : [ "obj-14", 0 ]
				}

			}
, 			{
				"patchline" : 				{
					"destination" : [ "obj-12", 0 ],
					"disabled" : 0,
					"hidden" : 0,
					"source" : [ "obj-15", 0 ]
				}

			}
, 			{
				"patchline" : 				{
					"destination" : [ "obj-12", 0 ],
					"disabled" : 0,
					"hidden" : 0,
					"source" : [ "obj-16", 0 ]
				}

			}
, 			{
				"patchline" : 				{
					"destination" : [ "obj-12", 0 ],
					"disabled" : 0,
					"hidden" : 0,
					"source" : [ "obj-18", 0 ]
				}

			}
, 			{
				"patchline" : 				{
					"destination" : [ "obj-12", 0 ],
					"disabled" : 0,
					"hidden" : 0,
					"source" : [ "obj-19", 0 ]
				}

			}
, 			{
				"patchline" : 				{
					"destination" : [ "obj-22", 0 ],
					"disabled" : 0,
					"hidden" : 1,
					"source" : [ "obj-21", 0 ]
				}

			}
, 			{
				"patchline" : 				{
					"destination" : [ "obj-1", 1 ],
					"disabled" : 0,
					"hidden" : 0,
					"source" : [ "obj-22", 0 ]
				}

			}
, 			{
				"patchline" : 				{
					"destination" : [ "obj-1", 0 ],
					"disabled" : 0,
					"hidden" : 0,
					"source" : [ "obj-22", 0 ]
				}

			}
, 			{
				"patchline" : 				{
					"destination" : [ "obj-33", 0 ],
					"disabled" : 0,
					"hidden" : 1,
					"source" : [ "obj-32", 0 ]
				}

			}
, 			{
				"patchline" : 				{
					"destination" : [ "obj-40", 0 ],
					"disabled" : 0,
					"hidden" : 1,
					"source" : [ "obj-39", 0 ]
				}

			}
, 			{
				"patchline" : 				{
					"destination" : [ "obj-14", 0 ],
					"disabled" : 0,
					"hidden" : 0,
					"midpoints" : [ 548.5, 122.0, 529.0, 122.0, 482.0, 79.0, 258.5, 79.0 ],
					"source" : [ "obj-4", 0 ]
				}

			}
, 			{
				"patchline" : 				{
					"destination" : [ "obj-32", 0 ],
					"disabled" : 0,
					"hidden" : 0,
					"source" : [ "obj-4", 1 ]
				}

			}
, 			{
				"patchline" : 				{
					"destination" : [ "obj-5", 0 ],
					"disabled" : 0,
					"hidden" : 0,
					"midpoints" : [ 704.5, 118.0, 742.0, 118.0, 761.0, 81.0, 789.5, 81.0 ],
					"source" : [ "obj-4", 1 ]
				}

			}
, 			{
				"patchline" : 				{
					"destination" : [ "obj-45", 0 ],
					"disabled" : 0,
					"hidden" : 1,
					"source" : [ "obj-44", 0 ]
				}

			}
, 			{
				"patchline" : 				{
					"destination" : [ "obj-39", 0 ],
					"disabled" : 0,
					"hidden" : 0,
					"source" : [ "obj-5", 0 ]
				}

			}
, 			{
				"patchline" : 				{
					"destination" : [ "obj-4", 1 ],
					"disabled" : 0,
					"hidden" : 0,
					"midpoints" : [ 789.5, 117.0, 764.0, 117.0, 742.0, 81.0, 704.5, 81.0 ],
					"source" : [ "obj-5", 0 ]
				}

			}
 ],
		"dependency_cache" : [ 			{
				"name" : "FireFader~.maxpat",
				"bootpath" : "/Users/eberdahl/Documents/gits/Open-Source-Haptics-For-Artists/Software/MaxMSP/palette",
				"patcherrelativepath" : "../palette",
				"type" : "JSON",
				"implicit" : 1
			}
, 			{
				"name" : "touch~.maxpat",
				"bootpath" : "/Users/eberdahl/Documents/gits/Open-Source-Haptics-For-Artists/Software/MaxMSP/palette/CA",
				"patcherrelativepath" : "../palette/CA",
				"type" : "JSON",
				"implicit" : 1
			}
, 			{
				"name" : "resonator~.maxpat",
				"bootpath" : "/Users/eberdahl/Documents/gits/Open-Source-Haptics-For-Artists/Software/MaxMSP/palette/CA",
				"patcherrelativepath" : "../palette/CA",
				"type" : "JSON",
				"implicit" : 1
			}
, 			{
				"name" : "link~.maxpat",
				"bootpath" : "/Users/eberdahl/Documents/gits/Open-Source-Haptics-For-Artists/Software/MaxMSP/palette/CA",
				"patcherrelativepath" : "../palette/CA",
				"type" : "JSON",
				"implicit" : 1
			}
, 			{
				"name" : "mass~.maxpat",
				"bootpath" : "/Users/eberdahl/Documents/gits/Open-Source-Haptics-For-Artists/Software/MaxMSP/palette/CA",
				"patcherrelativepath" : "../palette/CA",
				"type" : "JSON",
				"implicit" : 1
			}
, 			{
				"name" : "grnd~.maxpat",
				"bootpath" : "/Users/eberdahl/Documents/gits/Open-Source-Haptics-For-Artists/Software/MaxMSP/palette/CA",
				"patcherrelativepath" : "../palette/CA",
				"type" : "JSON",
				"implicit" : 1
			}
 ]
	}

}
