{
	"patcher" : 	{
		"fileversion" : 1,
		"appversion" : 		{
			"major" : 6,
			"minor" : 1,
			"revision" : 3,
			"architecture" : "x86"
		}
,
		"rect" : [ 2.0, 48.0, 1032.0, 364.0 ],
		"bglocked" : 0,
		"openinpresentation" : 0,
		"default_fontsize" : 12.0,
		"default_fontface" : 0,
		"default_fontname" : "Arial",
		"gridonopen" : 0,
		"gridsize" : [ 15.0, 15.0 ],
		"gridsnaponopen" : 0,
		"statusbarvisible" : 2,
		"toolbarvisible" : 1,
		"boxanimatetime" : 200,
		"imprint" : 0,
		"enablehscroll" : 1,
		"enablevscroll" : 1,
		"devicewidth" : 0.0,
		"description" : "",
		"digest" : "",
		"tags" : "",
		"boxes" : [ 			{
				"box" : 				{
					"data" : [ 10134, "png", "IBkSG0fBZn....PCIgDQRA..ATA...vYHX....fKyYMm....DLmPIQEBHf.B7g.YHB..f.PRDEDU3wY6clGlbUUs29cuOiUUc0SYnSmNIDx7bHAHgv7fhLIAvIPD7hnnWkH5E0G3B306mJxn7cAQQ4phfBnBHZ.UjoHyP.jPH.ggLmzIcR2o6t5pqoyYuu+wopJcl5oziIm2mm.oN0o10tpTmem0ZsW60RTas0poOFgPrWe7d6uuqGSHD6wwosO+d63654r29+czw5rOducrPBY+QLkRYe5aXW4BtN5B58lvwd6XEdb6855MDTBIjCjnOWTYWoqbAaaO1d5B981w6LVmzdultx7KjPNPGy9xKL5ptEzQVMzdOWGIdzQhY8jt3DJ9DxARLfxRkc8wcE2h1SGuqJVzQia6MuBETBIj.5SrToyZMRG87cUqT5pmS2U7HT3HjP1A86Vp.csXUru3RT683dCAkPwlPNPj9zXp.ctKz5nKd6ptEsmNV24b6LyyNyyERH6Oy.JQkt5pqzYcMZOcr8UKQBETBIj8L8at+zUuvae05gdJwj8kmKjPNPf9bKU1azcC.ZWM9KclWa2ckbFn7cYHgzeR+hnR288rqdQcOonw.YAEctV4IdzGmJmxgPh2bI7BqtNlyBNI9HyaR7G9s2EqcaoYAm3ovILuYzuMGC4.GDoSmtOeu+r2n2xkndqmqqbN8lnZdMbT0LEdSqxXjCuFFZrTr7OnNN7CcZrw5SSIopkOr9J3UVwKyjGQz904ZH6+y.F2e1Szaew9fcwjhHD3XZRMy5D3u7f2EGT1kyvO34iekyjW9QuMRtrGfocReNd+5ZHTTIjdcL6Key5JWD1ctfs2Vno6bd8MnIM1bhm8EyTFhKMsdMxnw4y7k95TQDCRX3fgkMCnlxgreKCHR9stJ6qtIsuLlCrDSZCZvOqWveUqQ.nykq3iCIj9JZeKUDBLML1sC6440qLY5Itfs2xZnArhI4QW7+DRH8ur2iohPhgNCOxe72wRW9GP0iapL93N3U4D3icbyne+te8VqfTm87S6mlU1xJo9bMPJ+TnzJhZDk3VkvjKYJTlYocq4W2Bs.zZTVExEGYf0JELBUnPqUL3ylz8+PkIAK4UdQlzzOJFUkw5umN8JH7771CpCBLLTbGeuKkEcc2Cmw4e9H27J3u9WeAl0m6F3kumuM99987SldAqA5oiMiVq44a344sZ9sHkNMJkBoP.HPgBoPhkvjwGa7bbC43HpQePfQU4X0u66i0HFCipxRP4kl288VEiXLiiJKwkboSv6up0wXF2jnDWqd+4SH6URswWkYM+OBe6e8qwk7QGe2X.pmq9ac4L9S8R3hNiirmeB1CvdzREgTRyq4U3l9w+btvq5Wwu7ZtHPkju5oMWVF68LSs+j804Sm40mxOEKdKOJqu00hszAKgEX.BDnArrrQoxgmmh2Iw6xlRUKKr5ExPsGx9zbqCQZwAOsosiGZ5xzZyisbiyzl1z6cmCgzov01hHXhjt4uWkfvRiTp5YmX8frGioh.HUialTob4ibTGWvAkwXLUUBugeeqaO8lhWckwNm1iGt1+LaNSs3X3F75Qfm1CeTHT43sW1yR40LCF8vqDgxlV7agGXSO.e1QcdTZeo6PgLfhFpcUbO+16m5SpXVSZDjUatCIkLMwe7duGd8UtIF6zlCe9O2mBYSalG5gdLl6G8LYRioB.Xqq9M4wd4OfEtvSgS7jOSJehit33+FO6ivecIuBo8jL1IMOtfy+zvB3C9WKg66geR7Liy4btmKydhioO4yqrPcDos+ABrVQI7nojsj+T8XUaMEH2gkJ8E+omj8kw9o15SQsY1LVBaznPiFOcNFh0PXlwmIyN53Xo2+iwi9pqBgg.MZjBIYTYXwa9QHmJWO5mkPFbP5suF9rm0ovMbm+A11FWI2vO7+hOnNOrLkfJMe+K5Sxkes+BZHQ8bUW1WfK+lueLrDbcWyWkq5Ndf7ihha+GrH9d+3+BRul4a+k+Lbm+4k..+gex0vQeBKjG7oeM1xFeWdl+4KiOv68D2Om1IeN7xqtNd4m3d4z93eFdm5xzm7Ydut5OkOlYwTFc4bcW4UxH7tHdgG6A3W83uOGymefsO48FV1rsLakUjXEXKsK7tf.Amzv9HLi34cqH61nxm1F8DlCk5VBaK61QJjXHLXyY1LuWx2ioGefkKHZsN+pFE7+K7MWugfdOEIRmfK8OtHRmKMFxcekIaODRCbrsQqUHDR78xRNucO1fY7xvAOjwxMc12z97784dveJO0amjm9MdINpwWI08VOBy+D+7nkVT2JdRt96+E4G8WddVzYLaN7Jafq3N947i9VmKK5hOC9V268xV9u+RTQCuK26itb9h21MRrHF3DoDbcifJw53Ft1afId7WJK4e7+P7hQhOM2z0+iH6LOWdn69mR507BbHGxIyhexkxTOuide9yTGwdTTQq0XW9X4N9E2Ieyq4GvUdkWCSedGCm6wOCVc1r85Sp1x.geb+FMuLLDFAKYqPfu1iybDmIiK5AuiSR6guTQ0FihyZHeT9MsbO3o8Pq0XJL4MZ5MXpkLUjh920fQq0nzZ7DB70ZTYyhJaNzJeDRIRKKDNNXBXp0HGfIvzZtTTWyaga9Sby3X5zoecBgjLMtIdv+v8wx+vMiUjR4TN6OOKXVic2N2Mz3F3G+T2B9J+trv0txl9vUvvG5gvzO3JAfJFZMTpqDABpu45IIY35Vzmja+aIoksuQHZMTeJXgm6+Fema5Sxe6kdeF2G96Xaxwwm9TObH6lx+4QfexsQyMliuzE+oaifB.oXMoxvVVwCwLl7Sh1qUpMYRZNQs6SeV5rztoo+DOgONK9YNCx54ikesbxy9vXHGRY.CLtXuu.esOaIyVPiFsPguVwDiMgcVPoM3gGQEwX9kOOdlFdVrDlHDRZ1KAs32R+VrUzZMJkhrBHaxVQ+5uAFK4ow70WF1qY0HSl.czRv6fFK9yY1j53Od3vlKNwhgkViggw.l+MOtSbl7vmbW5Bd+jagy+R957md8Z4BN2ER5MWGzRoL9gt6q.SDqH3Z51yLYEB7UYJlBQBAjyGP.BsBLiyU+iuKN9IWNJsjHwhwnh.VS8n4TlaMbW24sSjU+jbheluJiqDAjnMwzTJQI0r45qaWeSwKaFl1Ib9bu+nKgrYygssMCq5Z5Y9L0AztI+1c7e7I3g9.aNx4NIdo+z8xxZdz7v+amQexDafB4z4HsJcdGdj3oxvjKYxc3qaBkLAdps8zXZXhVqvTXRq9s1uHpnTJ778IkuO9OyyQja8Vw4oeJjslb2NWqk+Fvi7vntwajLGywR5u9hH6IcBDQqwzvfABYfsFMdJutjnxy+.2J+9m504ltukxketGV6dtdpdtj6bjSblr4Mdqb++kmky9PGA29O3pYk05gT6yXm7gwzKOGOzC+m4S9S99LrXFrg0uA77TXYEmK7K7Y3T9h+HriWMOzseNEGSsViuuGlCYBbDSeh7Ku9eDK7XlMyaRCiU+9qlwN8Yvm73mGeie4CwGr8uHm9QLCZZaalTYxBz6maLs6uPNsK96vYchGJYSmki6h9N7buxSvwL8Q1qOoFHgVqIqJawk.THjsI1J6crDVA2YWqQqUnzp9kf0pTJx54QhDs.+vqixOqERjGcw6QAk1hLcqD4w+6T9m7S.e2uGIZtYx54gRMvcoLaOZYSqkJqb1btKr8ET5o4XOmKkuvoOStry+z4PWvIx+XYMvPprT7Td3NrYvcdO2N0tjeIyd5SgIM4IyYcQWF0kN30dTm5mhYLLGlz7NKNgYUUvAkBLsLvDMBiR35+I+bNrJafS+3NBlwLlMm+htJZHmjK4ZtY9xmxD3yepGISZRSlYcnGA2+Rdi9jOysqkJiclGIW5LGXlfM8UHERbkQnYUSXnCxT0Ddszgutj9IChAiTfDIRgDGYmOF.8Dn0Zx54QKM2L1WwUQo+xeQWdLDYRSY2zMPhstMRbCWGwKuLbrrFv3JT6w529FXE09VjHSBdoTqhTibKrwF1B0TSU8YyA6xpgewe3w4q8luMJiXLyYNEputMQrJqF.VvG6B4Ee0Sj248WOX6PUibTL57AHojQNS9Gu9JPDcHTLEJiNBtu+9qgaoCE.p4vOAdjm6k4sW4GhOlL7pGEU6BR2QwscOOJesk+VzPxrDu7JXriab8Iel6S2kxCFwRXQDCWZ1qYznwVZwxad4L83Sa2NWsVWb6K7VM+VXJ24udiY12lV14xkijYxfw0eycKAk1R7eyuBuJpfV9u+tH.br6Xq05uXSMsIt0+4sxJq68vxvBekhbkagr5Mym95ONVzY+k3bFyGCOc4LwILpd84igSbl6gO+hOdj0ry4KR7gMJl2v1SyCAUOpwtKGxfZFyNGOO23Cg4dX6gDrTZyTl8b6ly5tO8+NHO.GoPxAE4fB1KMBAFBSpMcs7Ra+k20yDKKahFMFaL25YYM+lXHLJ51yvcFNwL56DU7yGCEu+wSPY21++djwrra+1v+u8XAwloWXaZz4P2t6ax2ZSuEeke+Wgs0x1nT233Z4xPKoRpdDSfYM2Yy5em2iu0O3aw7+NGC2wi83sy6RHcWBsToSvrJcVrzFeUHeZuYJM4Ea3EIgWBlW4GNwLigvpb9YOySx6H2BOzFdXj42TeFBIdZONrx5auiQNOOR1PCT5sbKHyjtGYLk4xRI2xsPSG4Bvc3CCi8vNXu+j0t80wUr3qfCp7wx5ZbsTQrJobmxotD0ggzfi7H9HLgYNSd2OXkL4wLM1f3IIQlOIwch2eO02uhPKU5DDyLFGUkGEY7yhPKP.XJM4sS71bOq+2x8sg6i6eSO.Og0yyGpVVvtFlfkcOiJKSsjovni12jhzPPvYSqTnegWhXuzK1iN1QekWAdtmmzJU+n0J6NJshq8w9gTSY0vFZZ8TQrJIStzzb5lvvv.oTP8sTOsjpUl8TNDZwuIrMD7SeleZ+8TeelBtcWLYF6mITToSxgV9bY1kMaxnyje4kEXKrPKTrcuFogbMPprIw.KjBIRjjSkkZbqgSd3eLDc2MPV2.OOORmNC1OwSfvums12Hz9X+DOAoRmteUTYW+97sp8sXKIpiDYZAWqHnUAYM6vhOLN2C8yvYNyyDKSKpHZETeh5w0xEaCadw07RrsV1V+zmh8c788wSAoSmgTs1B47BD66OKMIgt+zE3iLrShXFwXoa+Uv1vFkViuRsi7aWCJgBKgEoUoXRwlLmVUmZe6JknAsO30TBh9lKuW4sv4MWNoarITQ56qGHFRi.Akc46zm48eFFRrJwW4izxkVyjhYNxYvU8wtphmymZNeJtj66RnT23D2MNMzZCXaZyqu9WmSdpm7NMdBD6yYSauMJeEox4y1Wwiyl+aWOYaXcT0G6aS0G6EgsoDKq9msTS+tnhRqIahDbKu4OjkYuNDVh9z6p2UPH.SgIqrkURy9MwPsqh5RWKa2e6nEPbQbFgS0jRkjbJOlcoGB26lu29z6ZnUZ7R6A0lhae0KmdiTsKyGrB9l+1+c7GVTLsLPZz2YvaZuzrz0tTNq67rvHeh3IPxZZX0bXi9vnrHkRsMsEzn3zmwouau9SYZmBOzxdHZnkFHlaLpukFX6st8c5bLkl7Na4s4S+q9zCHR1u8DZeE99BNzVRwQ8NOAxQNWDiXNrg+vkgQ7pop4dZHk98Kw8peUTIvGPAq7Y9qrta6l3CWzzwuTKjFCLEUJfgvfRMKiLpTTgckTIAKmmFMdjCaoC1RGd2juK80qif1WieJE1MmEijcb9zzcvr0jrt5VMoz1XXafnO7eu778nkrsvpp+C2wNpGIMmtohmiRqPHAKic+N0NlNn0p.KLghIlXaQfjT4Zk2equOB4.ueKpUZT9ZhzTybVaX0rsCddbPm0sgTZRhDajs7OtNhOwiDixJ6.OQEeeexofDsrclftFtxY7fTdUUikoIF8g28a+I788o4DIntgtFhE6rgV1TO96QjRGF+um+ulgNgwQokTBll8c+LptD0wW+OdY7K+b+RbLBxUFgPvs8O+I7dackzZ1TTZjRIQ5D7revyxzGwNuyve52+owTZQEQiSyoaFKSKJKRY6z4jSkkYWyb3tuf6Z.oKPd47HYFO13e4ZIQK2ENm5ODGmHfPPz4cwzxe5qQievKi6r+nXYp5ys1peUTQoT3kyGOO+.eK7DXgItRmAj2gXv.Zzj0HG1twIS0Ui6V54EUxLhpwNVbhXEgHVQ5Sc+w0xESoIwcJYmrD4XlvQyRW+RwTZ.HHtSb96uyigRq3nG2QSFuL7Xu6iwFabS3qUnSGj2QY7xvLF4t24FkBIQrhLvLyg8EPlTj4CdZLOnihJFwDv0RhVCxC5vHYoifDuySPkS83w1TfcebhJ1uGSEekBkJHZ0dd4vW4iBEFLv6NDCFPoUHDfNpKsLoIRYuwq0i+dzxjl.5XwPJ5nTQqmGkNn.Ysqtrb3i4vwwvlRcKkZatVD.UFsBVx6+OYIu+Rf7wCyPZfszlFRVOUEuJlxvmBioh87x8qzpfRdw.HTJE478IUCajr0uFhM8yhHQhPTGSzJEJYUXWygQqq54ISlVIhqYwD2ruhA.9XriTaefwprO3FgPfggA1NNzzQbDn6g+wjFnoiXAX6ZOfpbHXYXwkehWNqt9US0wqlT4RQq4RQYtkgVoQnED2NN47yQistcFS4ig5ZoNtri+x5um5cITpf3Akskshelj3LjwgssENNNX63fisENi5Pvqo0S1FqCe+fkXVo0n067VIo2hA.hJgzShPHvzzjnFFjZ9yilmXGWlF5JjXbSfVOh4SDCSLMMGvHp.vbG8b4adB+GrlsuFptzpAznEZFYEijpKqZxnxfgzfphWEqsw0x09wuVptrp6um1cIBpKNZ7R1.H.iXUhogAlllXYYgooA1CeBnS2BYZrV777ImmOYxlijM2.oZsU7TzqliQghJ6mQAQkHNN3NhgyZ+bWPOl0JZDrtK3BvcjUSDGmAbhJ.7wl5Iy09wuVRjIA9JezZEaMwVYqsrMLjFzZ1VwPZvO6SeGLip28XoLX.sFToSfvvBosKRo.oThggAFRIVkNRzHIy1WOoyono51.u2c8U4MtlYxacymJ081OK4706TRxUHab6IrhoeOlJgzyiTJw1wgxcivFN0Sl08RuDGzecw6yi65O4Sgjm1oPMtt333zOkCGcbVLMmQMGt6K3t4UV6R4UW6RoozMgTHoxnUxwLgigoMhceGlu6uKC7nnqKZMZurHjFHMrBxu67h6Ro.Yj3HchRlF2DM2vVoge+WhzaZE3N2KfLq5oY0244iXQOBUL5ohogBDF3kMEdoZFmRGFFRw9zRQGJpreHBg.KKKhEMJUVYkrtKaQXWeCT8K+7c6wbyG17YceyKigOzgRIwhg0.7ZphTH4HF674HF6763SdPF51DGxfhT9NdNoPfzJBRmXjokFo9W3WS509RD6b9ewdryGqYrPR76NW17S9Sv8buErrDjo4FXc22hH4pdIFy4+ynpC8LA59INWn6O6mhggAQhDgJJsTFxAMFV428pX0m7ozsBE9ZO9Sj286cMTwAOVpLdbbccGvsCkOPmcz5Y.goMXGirac0jdY+drm1Yi6XObrIKNULRbl9YQxU9Xz7V2.M2TBVy8cYzzG7hnhNB1zi98IQiaib47vyyCOkFOM3qnSW0+BsTY+TJZsRrXLTkB83OXVyUckrsYMaF+C7Goh0rpNzD+FG8AwGdNeBZ5r93T0HFACq7xIVIkfssc+tUJCTZxb8KnALLCrXQEDv0BKarDAXXgvJJpM8FHRWGVS9TIVTWbsjj0GxcvKfldseCMU6pP2xVHwx+yXeZ+OHriP5Eeoz7ZVF1S8nPgfVqaUT2RtCp7v9DTwDOBrniSltPQk8iQJkXaaS73wC96FlrsO6mlW6XNJh+BuDU8xuHktt0SzssMLxlFeKGRMzgRyidTT27lOMcjKfnGzXXTwiSEkWNkjWPo+d+vjyOGIR2BNl8FI0kfVxzROZwutWASaP4C9d.soA4IBzbzBIxFWELjwfcUShnt1Dw0Eir4n0xpFjFjrtUg+a8GwXTGAxC5HQmnVvzkj09NDabyijMUOq+d9pjXYOIsr1WC6u1CSIwKA6PQkCrwvvnnPfooIQiDgliFkFGynXUmwoheiMhNYqn8xgvzDQjnXTQ4DsjRnlHQnzRJgRJoDbccwxxpe2sGGSaR6mgK92cw8JoPu.AslKICsjg1uKd1dHsh.9dn7xVbUaDBQwVwhVqAEHpXxXGuRrsrv11FeEHsbAKWRu9WEwlVFtmz0fajHn0URtHkSl5WGIRlhl9qeeZcsKEmi9KRqq3OPSqc43Lk4ioQ6asRnnxA.Xju0ZTPfIZznTQlLjJcZxVUU344gJ+OJsxeNtNN3leUdBx+gAFKebYQJiG7hefd8NSfioy.tcKeaiahzojfMVXtVKFmrff2J.kJn9W.XLjwgscv+FJkRjRAHM.oE509bHiDG6Qe3D0wBOYYjzIFYS1Ha+8dNZ8UuaLNxuE5Qu.TK+2SxZeaxMgCCGq1uUsDJpb.BExek1JrD2yKHaKKbmMBDfJ7GSSy7+PbfycrEHHlSeecbYfDBAHshBBKzYRTLSYKJ5q0fVAZvnzgisscw+sDD36EzQJkM9gHlxYfSEi.WGKxXXhvzlboZgbu18AkOVLmxoA94PEqBxs0UgmmG99Fs6lHseSTYGk.u1drctz3MP3Ni6uQaEWJTDe10uu6tMw9P56PZ5BRAprAk2hcZqtnxA9AVxYFozcxJSMZTYaExkDAfwHmUf0n11jyOCHD307VP1vai8btPbiWNBshbQJibMUawDlq8t9rGWToXcxrvGh8xZXpUfefaenzAAWRQvw70.57IfTa6b36AxGaJPoPL.5NpCzITzXvIBQfSYRKWjNt3mpwcKKXU4xfNWZz4snQJk6HdKZPkZ6P1VQaYg0vlLNN1XZZDDiFeEhsuRDZOrO3igXtNfzjViLL7ac688hJ999n.ZogswlW4xvKalc6b1wW.Bx4kibd9T+G913ktUV2q8OowUOTrxaplnXk8p8PP7gMBF4TNDrfPgkP1ulcrJOB.I9MGroAKbgtREjssZ+rA8qYicr7+EBhq21WePhmDe3XWwnwxPhTZfe1zn8RiQKaFF4LwdniEWGKTBSjNwQmo4hiQ6QOhnRPuc0GeDrl+0KvSdSeCRT2FP4kicsxmIjRTddjKYyX3FEokMZkBzJdk63JADEqkJYaoIjFlX5Fa2FmfwxfLM2LUN1Ix48ydbJeXUgQnaSgreLECFqVAJezBifFGSapl9Jeu7K0LfdGAzVoT34oHW8qKvS.mRwpzgkurbJvOaRzYZE.DCcZ3DsDrrrvGCDVtnSt4N0bbeVTInNn3gOBV8q+br3q3yR4iapbRW5MhgocwTJV46iuFR1v13M9e+tXDqRl6k78I1PFAJeOJ7ckTJw2Ww69f+T1xq8DLqK56R0yZAHEAofrp3XIY8u3ek299+wT8bOATRS788KV2RCIj8eQCFlfoEhHwos1xGbslGn7PnAs1emhUYNub3W+JCDUJoFrbihggDEBToZAc9XzXNzITbk+z9Ata46kDstiyp18IQkBVn3gf07ZOOK9JOOpXByjibQ2HtwKEoHnglqT934qowsVKq39tIxkIEy6q+iY3iepXYZfTZTrtglIqGK62dCr4W+IY1ew+ebvG8oiqsYw8ZhmmGY8gO7o+S7NOvOgIbFWDy5b+lHMLFfs.fgDROOEChtThPHQn72oMTXfA84spW.57ArsfqQ4Rz.9Ms9fafW1nvHenF78AuT0CoaBjfU4ipXdIITJD1QQ6mKv0pNXudzsEUJJnng07ZOGK9J+rT4DmEG0W+FIVYkiskUwUWvSoY6adirza8xIUCagi7xuUpZ7SintA4BgPHvWoHU5L7ut6+aV2S8GYte4eHi6XNCh5XQznQwzzrXONYM+86mW+meMLgS6BX1m22jnQbwtvW.gt9DxA.HDFfPFjUssG9dEsRwWoHaSaFUhsDHpT9nJtzvJkBuF2H36CNwvH9vwzTlOHuZjF1nU9n6D8QptknRAAkbZX0u1ywhuhyigLoYwQcY2DkTVEDMhaQwBkVPxMuAVx0+Uo052BG6UdGABJN1DKVLLLLPq0zZ5z7p+5eDe3+3dYdW5MjWPwlXwhhisMZfbJXkO5ukW3V+NL4y7eiC479lDMZTJIVTbccGPkOEgDRuIAVmHQq2cQEMhh0PmBYaqRovyWQtD0AoaDjfY4iBCCyh2T2qosD7BbJAiHkggPjOOkzAiWmrpw0sDUJHnrlW84XwW44wPlzrCDTJuBhEIBQhDACCC70PS0tA9a+WWDI1Zsb7+m+BF93mJQccJZ8glftq1y9S+t7NOxcwBtralwcrmAQrLKtWSP.dJAq3Quadpa3xXJm4Wf4b9+GDMRDhEKJQhDY.SFeFRH81DrvOh7VpnPqUs4hcMBoIBoUaVZi7Vp3qHWS0Fj6FNQwnjpvH+hh3qT32bsAwZwJJlQJs3RQC4Ss+7Vpz1RuvdhtjnRac4Y0u5yxhuxO6NDTJamETTHX6adC7HW8ERS0sINgq9WPUiapDwIHaNsrrPqCDTdpa8JYE+keMK3x9wL9i8iSDaChEKVwcCqmVvat3eCOw0sHlxB+BLmy+xIZDWJIVrh6IkPqTB4.GBrRAob2bGQHDHsbPX5fVCBCq1jiJZTIaHP3H5Pvp7QRgFgfuuOpV1bfkJ1QwHRoHk6HIH6J2ttKIpnTJ70vpd0mkEekmGCcxygi7qei4ETbKJnnQPC0tAV7UcAz7V2DmvUemT03lxNKn.jNSFdpa8JXEK9WyB9F2Bi+XN8cSPwWKXYK9t4wutEwTV3Em2BEWhEMZnfRHGfhNeVeJKtGef7BJBAVQKCgSbz.lQprn3Pv4HAOPN7YhaEUgYdUEkuOjMngrIhUClV1HyKnn0ZTdoAoABoQG1e75zhJJkBkF9vW4EapSI..vAAkDQAQUIr3+yOGCcJsQPIpKQiFCSSSTZn9MtFV7Ucgz711Bm3UcmLz7BJwxWwvPHHcKI4I+etBVwib2bjeiagwermAtVABJEJUgd997FO7ulG+F9FL07BJQxKnDIRjPAkPNvEQvp+z1.0FzIEj3FKNtG7QSZ+bDYDSBy70vVSCItidVjr5oQrYc1DMxNBAg12Cc9x8fwPNXL2kqszp7BYRYfdV6DpgNsnRPzi0rwk8hT0LmGK3qc8DqzxHZD2hVej+Do909d34q4jt56jgMtofqsUQqOjRI9JEIabarsUsBNpuwMy3OtONtVFDMu0GFFFA82jb4Xc+qmkosvKl4dgeabsCBbanEJgbfLEaP86AQEKKKh3XvPOwEg5X+JDszxw1JnyG3nTTwDOBb+xO.VtQIVDarssImmGRSKDHQq.6QNKrr24xbg1KMBCSD6gVI6tRWKlJ94XNepuBSMyEgokEN11EsXnfPfxOG0LqEvBug6GCaWrsLIRjHE2ojZsFsRQrJGFm9O72gvzBq7k9Pm1Tg1UJEBgfi+abi34qvzxhHtAqpzN1wkgDxAfjO+uPH1ofzVXyhFKRDLjAqppkkINNNES2hRAhFMJFRYwiqTJbbrIxjOUvtbJYbymHVAWiUL8+yzBXFomUToP83HRznXm28Daa6haS91dNtNNXZVIB.q74qRgyoPytxxxhRKuBzJUa5YI6XEbjRIVllDqj3nTphulA5Eb4PBoOg7Vpn2EKUjRIV11XZYgVqKV5JJbS3BBEENWoThRoHhsIC639h3cjWHQiFCWm.i.xkKWPF4lpQjNCoXbVZO5zhJETA2SSpcZ.yKLX0NmSgZ5gY9MlTAUz1NYkR4N4hSgwITPIjC3QyNb+w2mcMxoE7H.14XeTv.fccGFaZZFX8hgAJsFKSycprgp0JToqGYI0Tr5Czdzkb+oyTvdJH9zQzVKb1Wd+BIjCDQHB1E+Zk+db0XZua9tqOWgqCaq2D6PPATd4PkMIlNw6TkLivJ+VHgLHhhsgCgr3RJGjLZ6ai6d5l7JkJXWOmsUz4RgLZ4cJuEBMCHjPFLRdQEcGs2e1GnPoTvOUBToRfQoUEXgTGXsRnnRHgLXDQ989ixOHGR5fTmu6Pgc1re5Dnx1JlkV0NkHc6MBEUBIjAijOQzXOrgB6onPMj1OUifRgQzgrSot+diPQkPBYPHh7YTaus6OJslbMuYDlFXDoBjzwcvwPQkPBYPF6TcpsWRTYG07VE4195Q5VJFwpnCSQeHTTIjPFzhPX0q69iRowaaqAYzgfUIkGFSkPBY+ZDV4qmJ8hAo0KG4p+8wnhwggocmJiZCEUBIjAgHDBPZhRs6YTaOEZfbI1FdMuArqZJHkse6Ns.ghJgDxfUjFH5kb+QoTnTZx1Xs3mnArFwTvLeBxEZoRHgreDs8BZgzLnYr2KfVqwSoI8VdWDFlXW4Xwvny0YKCEUBIjAknAgQuRfZKrpO99JRu1WGYoiDqJpoXgvtiHTTIjPFrhzHHiZ6gCTaAQkroagLa7Uwt5CA6HkfgQmaC9FJpDRHChnsks.QQKU54W4Gesfz0sZxU2Gfy3V.lllc59pUnnRHgLHjfU+wXO12e1WoPOBJ4pdQvv.2QMWrLDghJgDx98HMBZQG8fFpTz0mLook29ugU0yFmgNFLM635eTwoUO2zIjPBoOkdgkTVoT3ozjbSuKYV6Kh6zNcrcifUWntPGJpDRHCFQWHlJ45QGVeeex5onoW+AAqXDchGO1lhtTG.MTTIjPFDRaioRO0J+366imuhVpacz7qcuDYlmCQFxnw1zLTTIjPNPfftEXPuTdeEsVimmGox5SCuzuC+LIoj47Yvw1rXy8qyRnnRHgLXEoAfNHWU1GGJeeex5C0932Ja+otUhNmOKQqdR3Za1kaKNghJgDxfUDxfxcuVsOsBPZsFOeeR1X8zzqbWXMwim3G8+Nt16nQj0UHTTIjPFDQg8dSPa+wLunhF1GZGVJkhb9JRtwUP15WGQm0YQzJFNtN1cql2WnnRHgLHDgThTHB5wwBcW9B+1hRovySQh26ehHRY3VyrHhsQ2xJEHru+DRHC5PHDXJgXG7giPJv1tqEH01hVqw2WQlzon026IwplCE2JGAN116TGBsqPnnRHgLHhB8hbaSICYFmHUL8SBaSAFcyVBbv97QSp5VEY27aSoezqFGamcp+m2UITTIjPFjQPuH2AoLnuHaXXzsh8Ari3oz5ZVJZsF2wb3XYH6R4kxtRnnRHgLHiB8q7BtlH5j04jcEsViuRgxymjq3QwZXShHUMNLMkc5MO3dhPQkPBYPHEbCZegBYhq1OGtiZNDIVUDIZTr6lwRo3bS2SWFtCIjPFTPgrnMc5zjNqGZkBGaShDIR21cJHzRkPB4.VJFzWa6hVlX1E2mO6wwMzRkPB4.aT46cPP2O9LskPQkPBIjdTByn1PBIjdTBEUBIjP5QITTIjPBoGk+ODe9oV5QigGi.....jTQNQjqBAlf" ],
					"embed" : 1,
					"id" : "obj-8",
					"maxclass" : "fpic",
					"numinlets" : 1,
					"numoutlets" : 0,
					"patching_rect" : [ 5.0, 255.0, 277.0, 103.0 ]
				}

			}
, 			{
				"box" : 				{
					"fontname" : "Arial",
					"fontsize" : 18.0,
					"frgb" : 0.0,
					"id" : "obj-9",
					"maxclass" : "comment",
					"numinlets" : 1,
					"numoutlets" : 0,
					"patching_rect" : [ 887.5, 144.0, 139.0, 27.0 ],
					"presentation" : 1,
					"presentation_rect" : [ 685.0, 277.0, 128.0, 27.0 ],
					"text" : "Force on fader"
				}

			}
, 			{
				"box" : 				{
					"fontname" : "Arial",
					"fontsize" : 12.0,
					"frgb" : 0.0,
					"id" : "obj-11",
					"maxclass" : "comment",
					"numinlets" : 1,
					"numoutlets" : 0,
					"patching_rect" : [ 783.5, 157.0, 150.0, 20.0 ],
					"text" : "|"
				}

			}
, 			{
				"box" : 				{
					"fontname" : "Arial",
					"fontsize" : 12.0,
					"frgb" : 0.0,
					"id" : "obj-30",
					"maxclass" : "comment",
					"numinlets" : 1,
					"numoutlets" : 0,
					"patching_rect" : [ 783.5, 139.0, 150.0, 20.0 ],
					"text" : "|"
				}

			}
, 			{
				"box" : 				{
					"fontname" : "Arial",
					"fontsize" : 12.0,
					"frgb" : 0.0,
					"id" : "obj-31",
					"maxclass" : "comment",
					"numinlets" : 1,
					"numoutlets" : 0,
					"patching_rect" : [ 783.5, 147.0, 150.0, 20.0 ],
					"text" : "|"
				}

			}
, 			{
				"box" : 				{
					"fontname" : "Arial",
					"fontsize" : 12.0,
					"hidden" : 1,
					"id" : "obj-32",
					"maxclass" : "newobj",
					"numinlets" : 1,
					"numoutlets" : 1,
					"outlettype" : [ "float" ],
					"patcher" : 					{
						"fileversion" : 1,
						"appversion" : 						{
							"major" : 6,
							"minor" : 1,
							"revision" : 3,
							"architecture" : "x86"
						}
,
						"rect" : [ 276.0, 159.0, 280.0, 282.0 ],
						"bglocked" : 0,
						"openinpresentation" : 0,
						"default_fontsize" : 12.0,
						"default_fontface" : 0,
						"default_fontname" : "Arial",
						"gridonopen" : 0,
						"gridsize" : [ 15.0, 15.0 ],
						"gridsnaponopen" : 0,
						"statusbarvisible" : 2,
						"toolbarvisible" : 1,
						"boxanimatetime" : 200,
						"imprint" : 0,
						"enablehscroll" : 1,
						"enablevscroll" : 1,
						"devicewidth" : 0.0,
						"description" : "",
						"digest" : "",
						"tags" : "",
						"boxes" : [ 							{
								"box" : 								{
									"fontname" : "Arial",
									"fontsize" : 12.0,
									"id" : "obj-7",
									"maxclass" : "newobj",
									"numinlets" : 2,
									"numoutlets" : 1,
									"outlettype" : [ "float" ],
									"patching_rect" : [ 5.0, 154.0, 35.0, 20.0 ],
									"text" : "* 0.5"
								}

							}
, 							{
								"box" : 								{
									"fontname" : "Arial",
									"fontsize" : 12.0,
									"id" : "obj-6",
									"maxclass" : "newobj",
									"numinlets" : 2,
									"numoutlets" : 1,
									"outlettype" : [ "float" ],
									"patching_rect" : [ 5.0, 129.0, 32.5, 20.0 ],
									"text" : "+ 1."
								}

							}
, 							{
								"box" : 								{
									"fontname" : "Arial",
									"fontsize" : 12.0,
									"id" : "obj-5",
									"maxclass" : "newobj",
									"numinlets" : 2,
									"numoutlets" : 1,
									"outlettype" : [ "float" ],
									"patching_rect" : [ 5.0, 105.0, 42.0, 20.0 ],
									"text" : "* 0.05"
								}

							}
, 							{
								"box" : 								{
									"id" : "obj-8",
									"maxclass" : "toggle",
									"numinlets" : 1,
									"numoutlets" : 1,
									"outlettype" : [ "int" ],
									"parameter_enable" : 0,
									"patching_rect" : [ 18.0, 32.0, 20.0, 20.0 ]
								}

							}
, 							{
								"box" : 								{
									"fontname" : "Arial",
									"fontsize" : 12.0,
									"id" : "obj-4",
									"maxclass" : "newobj",
									"numinlets" : 1,
									"numoutlets" : 1,
									"outlettype" : [ "" ],
									"patching_rect" : [ 29.0, 55.0, 72.0, 20.0 ],
									"text" : "loadmess 1"
								}

							}
, 							{
								"box" : 								{
									"fontname" : "Arial",
									"fontsize" : 12.0,
									"id" : "obj-3",
									"maxclass" : "newobj",
									"numinlets" : 2,
									"numoutlets" : 1,
									"outlettype" : [ "float" ],
									"patching_rect" : [ 5.0, 79.0, 83.0, 20.0 ],
									"text" : "snapshot~ 15"
								}

							}
, 							{
								"box" : 								{
									"comment" : "",
									"id" : "obj-2",
									"maxclass" : "outlet",
									"numinlets" : 1,
									"numoutlets" : 0,
									"patching_rect" : [ 5.0, 178.0, 25.0, 25.0 ]
								}

							}
, 							{
								"box" : 								{
									"comment" : "",
									"id" : "obj-1",
									"maxclass" : "inlet",
									"numinlets" : 0,
									"numoutlets" : 1,
									"outlettype" : [ "signal" ],
									"patching_rect" : [ 5.0, 4.0, 25.0, 25.0 ]
								}

							}
 ],
						"lines" : [ 							{
								"patchline" : 								{
									"destination" : [ "obj-3", 0 ],
									"disabled" : 0,
									"hidden" : 0,
									"source" : [ "obj-1", 0 ]
								}

							}
, 							{
								"patchline" : 								{
									"destination" : [ "obj-5", 0 ],
									"disabled" : 0,
									"hidden" : 0,
									"source" : [ "obj-3", 0 ]
								}

							}
, 							{
								"patchline" : 								{
									"destination" : [ "obj-3", 0 ],
									"disabled" : 0,
									"hidden" : 0,
									"source" : [ "obj-4", 0 ]
								}

							}
, 							{
								"patchline" : 								{
									"destination" : [ "obj-6", 0 ],
									"disabled" : 0,
									"hidden" : 0,
									"source" : [ "obj-5", 0 ]
								}

							}
, 							{
								"patchline" : 								{
									"destination" : [ "obj-7", 0 ],
									"disabled" : 0,
									"hidden" : 0,
									"source" : [ "obj-6", 0 ]
								}

							}
, 							{
								"patchline" : 								{
									"destination" : [ "obj-2", 0 ],
									"disabled" : 0,
									"hidden" : 0,
									"source" : [ "obj-7", 0 ]
								}

							}
, 							{
								"patchline" : 								{
									"destination" : [ "obj-3", 0 ],
									"disabled" : 0,
									"hidden" : 0,
									"source" : [ "obj-8", 0 ]
								}

							}
 ]
					}
,
					"patching_rect" : [ 694.5, 147.0, 84.0, 20.0 ],
					"saved_object_attributes" : 					{
						"default_fontface" : 0,
						"default_fontname" : "Arial",
						"default_fontsize" : 12.0,
						"description" : "",
						"digest" : "",
						"fontface" : 0,
						"fontname" : "Arial",
						"fontsize" : 12.0,
						"globalpatchername" : "",
						"tags" : ""
					}
,
					"text" : "p prep-hslider"
				}

			}
, 			{
				"box" : 				{
					"floatoutput" : 1,
					"id" : "obj-33",
					"maxclass" : "slider",
					"mult" : 100.0,
					"numinlets" : 1,
					"numoutlets" : 1,
					"outlettype" : [ "" ],
					"parameter_enable" : 0,
					"patching_rect" : [ 695.5, 147.0, 189.0, 20.0 ],
					"size" : 1.0
				}

			}
, 			{
				"box" : 				{
					"fontname" : "Arial",
					"fontsize" : 18.0,
					"frgb" : 0.0,
					"id" : "obj-20",
					"linecount" : 2,
					"maxclass" : "comment",
					"numinlets" : 1,
					"numoutlets" : 0,
					"patching_rect" : [ 711.0, 235.5, 259.0, 47.0 ],
					"presentation" : 1,
					"presentation_linecount" : 5,
					"presentation_rect" : [ 62.0, 281.0, 133.0, 107.0 ],
					"text" : "Change the parameters of the touch link to the haptic device:"
				}

			}
, 			{
				"box" : 				{
					"fontname" : "Arial",
					"fontsize" : 18.0,
					"id" : "obj-18",
					"maxclass" : "message",
					"numinlets" : 2,
					"numoutlets" : 1,
					"outlettype" : [ "" ],
					"patching_rect" : [ 837.5, 286.0, 78.0, 25.0 ],
					"text" : "150. 1.5"
				}

			}
, 			{
				"box" : 				{
					"fontname" : "Arial",
					"fontsize" : 18.0,
					"id" : "obj-19",
					"maxclass" : "message",
					"numinlets" : 2,
					"numoutlets" : 1,
					"outlettype" : [ "" ],
					"patching_rect" : [ 929.5, 286.0, 98.0, 25.0 ],
					"text" : "1000. 0.01"
				}

			}
, 			{
				"box" : 				{
					"fontname" : "Arial",
					"fontsize" : 18.0,
					"id" : "obj-16",
					"maxclass" : "message",
					"numinlets" : 2,
					"numoutlets" : 1,
					"outlettype" : [ "" ],
					"patching_rect" : [ 645.5, 286.0, 88.0, 25.0 ],
					"text" : "150. 0.01"
				}

			}
, 			{
				"box" : 				{
					"fontname" : "Arial",
					"fontsize" : 18.0,
					"id" : "obj-15",
					"maxclass" : "message",
					"numinlets" : 2,
					"numoutlets" : 1,
					"outlettype" : [ "" ],
					"patching_rect" : [ 747.5, 286.0, 78.0, 25.0 ],
					"text" : "150. 0.1"
				}

			}
, 			{
				"box" : 				{
					"fontname" : "Arial",
					"fontsize" : 24.0,
					"id" : "obj-12",
					"maxclass" : "newobj",
					"numinlets" : 1,
					"numoutlets" : 0,
					"patching_rect" : [ 837.5, 326.5, 38.0, 33.0 ],
					"text" : "s t"
				}

			}
, 			{
				"box" : 				{
					"fontname" : "Arial",
					"fontsize" : 12.0,
					"frgb" : 0.0,
					"id" : "obj-41",
					"maxclass" : "comment",
					"numinlets" : 1,
					"numoutlets" : 0,
					"patching_rect" : [ 232.0, 124.0, 150.0, 20.0 ],
					"text" : "|"
				}

			}
, 			{
				"box" : 				{
					"fontname" : "Arial",
					"fontsize" : 12.0,
					"frgb" : 0.0,
					"id" : "obj-42",
					"maxclass" : "comment",
					"numinlets" : 1,
					"numoutlets" : 0,
					"patching_rect" : [ 232.0, 103.0, 150.0, 20.0 ],
					"text" : "|"
				}

			}
, 			{
				"box" : 				{
					"fontname" : "Arial",
					"fontsize" : 12.0,
					"frgb" : 0.0,
					"id" : "obj-43",
					"maxclass" : "comment",
					"numinlets" : 1,
					"numoutlets" : 0,
					"patching_rect" : [ 232.0, 114.0, 150.0, 20.0 ],
					"text" : "|"
				}

			}
, 			{
				"box" : 				{
					"fontname" : "Arial",
					"fontsize" : 12.0,
					"hidden" : 1,
					"id" : "obj-44",
					"maxclass" : "newobj",
					"numinlets" : 1,
					"numoutlets" : 1,
					"outlettype" : [ "float" ],
					"patcher" : 					{
						"fileversion" : 1,
						"appversion" : 						{
							"major" : 6,
							"minor" : 1,
							"revision" : 3,
							"architecture" : "x86"
						}
,
						"rect" : [ 696.0, 163.0, 280.0, 282.0 ],
						"bglocked" : 0,
						"openinpresentation" : 0,
						"default_fontsize" : 12.0,
						"default_fontface" : 0,
						"default_fontname" : "Arial",
						"gridonopen" : 0,
						"gridsize" : [ 15.0, 15.0 ],
						"gridsnaponopen" : 0,
						"statusbarvisible" : 2,
						"toolbarvisible" : 1,
						"boxanimatetime" : 200,
						"imprint" : 0,
						"enablehscroll" : 1,
						"enablevscroll" : 1,
						"devicewidth" : 0.0,
						"description" : "",
						"digest" : "",
						"tags" : "",
						"boxes" : [ 							{
								"box" : 								{
									"fontname" : "Arial",
									"fontsize" : 12.0,
									"id" : "obj-7",
									"maxclass" : "newobj",
									"numinlets" : 2,
									"numoutlets" : 1,
									"outlettype" : [ "float" ],
									"patching_rect" : [ 5.0, 154.0, 35.0, 20.0 ],
									"text" : "* 0.5"
								}

							}
, 							{
								"box" : 								{
									"fontname" : "Arial",
									"fontsize" : 12.0,
									"id" : "obj-6",
									"maxclass" : "newobj",
									"numinlets" : 2,
									"numoutlets" : 1,
									"outlettype" : [ "float" ],
									"patching_rect" : [ 5.0, 129.0, 32.5, 20.0 ],
									"text" : "+ 1."
								}

							}
, 							{
								"box" : 								{
									"fontname" : "Arial",
									"fontsize" : 12.0,
									"id" : "obj-5",
									"maxclass" : "newobj",
									"numinlets" : 2,
									"numoutlets" : 1,
									"outlettype" : [ "float" ],
									"patching_rect" : [ 5.0, 104.0, 42.0, 20.0 ],
									"text" : "* 200."
								}

							}
, 							{
								"box" : 								{
									"id" : "obj-8",
									"maxclass" : "toggle",
									"numinlets" : 1,
									"numoutlets" : 1,
									"outlettype" : [ "int" ],
									"parameter_enable" : 0,
									"patching_rect" : [ 18.0, 32.0, 20.0, 20.0 ]
								}

							}
, 							{
								"box" : 								{
									"fontname" : "Arial",
									"fontsize" : 12.0,
									"id" : "obj-4",
									"maxclass" : "newobj",
									"numinlets" : 1,
									"numoutlets" : 1,
									"outlettype" : [ "" ],
									"patching_rect" : [ 29.0, 55.0, 72.0, 20.0 ],
									"text" : "loadmess 1"
								}

							}
, 							{
								"box" : 								{
									"fontname" : "Arial",
									"fontsize" : 12.0,
									"id" : "obj-3",
									"maxclass" : "newobj",
									"numinlets" : 2,
									"numoutlets" : 1,
									"outlettype" : [ "float" ],
									"patching_rect" : [ 5.0, 79.0, 83.0, 20.0 ],
									"text" : "snapshot~ 15"
								}

							}
, 							{
								"box" : 								{
									"comment" : "",
									"id" : "obj-2",
									"maxclass" : "outlet",
									"numinlets" : 1,
									"numoutlets" : 0,
									"patching_rect" : [ 5.0, 178.0, 25.0, 25.0 ]
								}

							}
, 							{
								"box" : 								{
									"comment" : "",
									"id" : "obj-1",
									"maxclass" : "inlet",
									"numinlets" : 0,
									"numoutlets" : 1,
									"outlettype" : [ "signal" ],
									"patching_rect" : [ 5.0, 4.0, 25.0, 25.0 ]
								}

							}
 ],
						"lines" : [ 							{
								"patchline" : 								{
									"destination" : [ "obj-3", 0 ],
									"disabled" : 0,
									"hidden" : 0,
									"source" : [ "obj-1", 0 ]
								}

							}
, 							{
								"patchline" : 								{
									"destination" : [ "obj-5", 0 ],
									"disabled" : 0,
									"hidden" : 0,
									"source" : [ "obj-3", 0 ]
								}

							}
, 							{
								"patchline" : 								{
									"destination" : [ "obj-3", 0 ],
									"disabled" : 0,
									"hidden" : 0,
									"source" : [ "obj-4", 0 ]
								}

							}
, 							{
								"patchline" : 								{
									"destination" : [ "obj-6", 0 ],
									"disabled" : 0,
									"hidden" : 0,
									"source" : [ "obj-5", 0 ]
								}

							}
, 							{
								"patchline" : 								{
									"destination" : [ "obj-7", 0 ],
									"disabled" : 0,
									"hidden" : 0,
									"source" : [ "obj-6", 0 ]
								}

							}
, 							{
								"patchline" : 								{
									"destination" : [ "obj-2", 0 ],
									"disabled" : 0,
									"hidden" : 0,
									"source" : [ "obj-7", 0 ]
								}

							}
, 							{
								"patchline" : 								{
									"destination" : [ "obj-3", 0 ],
									"disabled" : 0,
									"hidden" : 0,
									"source" : [ "obj-8", 0 ]
								}

							}
 ]
					}
,
					"patching_rect" : [ 144.0, 113.0, 84.0, 20.0 ],
					"saved_object_attributes" : 					{
						"default_fontface" : 0,
						"default_fontname" : "Arial",
						"default_fontsize" : 12.0,
						"description" : "",
						"digest" : "",
						"fontface" : 0,
						"fontname" : "Arial",
						"fontsize" : 12.0,
						"globalpatchername" : "",
						"tags" : ""
					}
,
					"text" : "p prep-hslider"
				}

			}
, 			{
				"box" : 				{
					"floatoutput" : 1,
					"id" : "obj-45",
					"maxclass" : "slider",
					"mult" : 100.0,
					"numinlets" : 1,
					"numoutlets" : 1,
					"outlettype" : [ "" ],
					"parameter_enable" : 0,
					"patching_rect" : [ 144.0, 114.0, 189.0, 20.0 ],
					"size" : 1.0
				}

			}
, 			{
				"box" : 				{
					"fontname" : "Arial",
					"fontsize" : 18.0,
					"frgb" : 0.0,
					"id" : "obj-35",
					"maxclass" : "comment",
					"numinlets" : 1,
					"numoutlets" : 0,
					"patching_rect" : [ 790.0, 82.0, 185.0, 27.0 ],
					"presentation" : 1,
					"presentation_linecount" : 2,
					"presentation_rect" : [ 625.0, 217.0, 128.0, 47.0 ],
					"text" : "Position of fader"
				}

			}
, 			{
				"box" : 				{
					"fontname" : "Arial",
					"fontsize" : 12.0,
					"frgb" : 0.0,
					"id" : "obj-36",
					"maxclass" : "comment",
					"numinlets" : 1,
					"numoutlets" : 0,
					"patching_rect" : [ 869.0, 68.0, 150.0, 20.0 ],
					"text" : "|"
				}

			}
, 			{
				"box" : 				{
					"fontname" : "Arial",
					"fontsize" : 12.0,
					"frgb" : 0.0,
					"id" : "obj-37",
					"maxclass" : "comment",
					"numinlets" : 1,
					"numoutlets" : 0,
					"patching_rect" : [ 869.0, 47.0, 150.0, 20.0 ],
					"text" : "|"
				}

			}
, 			{
				"box" : 				{
					"fontname" : "Arial",
					"fontsize" : 12.0,
					"frgb" : 0.0,
					"id" : "obj-38",
					"maxclass" : "comment",
					"numinlets" : 1,
					"numoutlets" : 0,
					"patching_rect" : [ 869.0, 58.0, 150.0, 20.0 ],
					"text" : "|"
				}

			}
, 			{
				"box" : 				{
					"fontname" : "Arial",
					"fontsize" : 12.0,
					"hidden" : 1,
					"id" : "obj-39",
					"maxclass" : "newobj",
					"numinlets" : 1,
					"numoutlets" : 1,
					"outlettype" : [ "float" ],
					"patcher" : 					{
						"fileversion" : 1,
						"appversion" : 						{
							"major" : 6,
							"minor" : 1,
							"revision" : 3,
							"architecture" : "x86"
						}
,
						"rect" : [ 276.0, 159.0, 280.0, 282.0 ],
						"bglocked" : 0,
						"openinpresentation" : 0,
						"default_fontsize" : 12.0,
						"default_fontface" : 0,
						"default_fontname" : "Arial",
						"gridonopen" : 0,
						"gridsize" : [ 15.0, 15.0 ],
						"gridsnaponopen" : 0,
						"statusbarvisible" : 2,
						"toolbarvisible" : 1,
						"boxanimatetime" : 200,
						"imprint" : 0,
						"enablehscroll" : 1,
						"enablevscroll" : 1,
						"devicewidth" : 0.0,
						"description" : "",
						"digest" : "",
						"tags" : "",
						"boxes" : [ 							{
								"box" : 								{
									"fontname" : "Arial",
									"fontsize" : 12.0,
									"id" : "obj-7",
									"maxclass" : "newobj",
									"numinlets" : 2,
									"numoutlets" : 1,
									"outlettype" : [ "float" ],
									"patching_rect" : [ 5.0, 154.0, 35.0, 20.0 ],
									"text" : "* 0.5"
								}

							}
, 							{
								"box" : 								{
									"fontname" : "Arial",
									"fontsize" : 12.0,
									"id" : "obj-6",
									"maxclass" : "newobj",
									"numinlets" : 2,
									"numoutlets" : 1,
									"outlettype" : [ "float" ],
									"patching_rect" : [ 5.0, 129.0, 32.5, 20.0 ],
									"text" : "+ 1."
								}

							}
, 							{
								"box" : 								{
									"fontname" : "Arial",
									"fontsize" : 12.0,
									"id" : "obj-5",
									"maxclass" : "newobj",
									"numinlets" : 2,
									"numoutlets" : 1,
									"outlettype" : [ "float" ],
									"patching_rect" : [ 5.0, 105.0, 41.0, 20.0 ],
									"text" : "/ 0.05"
								}

							}
, 							{
								"box" : 								{
									"id" : "obj-8",
									"maxclass" : "toggle",
									"numinlets" : 1,
									"numoutlets" : 1,
									"outlettype" : [ "int" ],
									"parameter_enable" : 0,
									"patching_rect" : [ 18.0, 32.0, 20.0, 20.0 ]
								}

							}
, 							{
								"box" : 								{
									"fontname" : "Arial",
									"fontsize" : 12.0,
									"id" : "obj-4",
									"maxclass" : "newobj",
									"numinlets" : 1,
									"numoutlets" : 1,
									"outlettype" : [ "" ],
									"patching_rect" : [ 29.0, 55.0, 72.0, 20.0 ],
									"text" : "loadmess 1"
								}

							}
, 							{
								"box" : 								{
									"fontname" : "Arial",
									"fontsize" : 12.0,
									"id" : "obj-3",
									"maxclass" : "newobj",
									"numinlets" : 2,
									"numoutlets" : 1,
									"outlettype" : [ "float" ],
									"patching_rect" : [ 5.0, 79.0, 83.0, 20.0 ],
									"text" : "snapshot~ 15"
								}

							}
, 							{
								"box" : 								{
									"comment" : "",
									"id" : "obj-2",
									"maxclass" : "outlet",
									"numinlets" : 1,
									"numoutlets" : 0,
									"patching_rect" : [ 5.0, 178.0, 25.0, 25.0 ]
								}

							}
, 							{
								"box" : 								{
									"comment" : "",
									"id" : "obj-1",
									"maxclass" : "inlet",
									"numinlets" : 0,
									"numoutlets" : 1,
									"outlettype" : [ "signal" ],
									"patching_rect" : [ 5.0, 4.0, 25.0, 25.0 ]
								}

							}
 ],
						"lines" : [ 							{
								"patchline" : 								{
									"destination" : [ "obj-3", 0 ],
									"disabled" : 0,
									"hidden" : 0,
									"source" : [ "obj-1", 0 ]
								}

							}
, 							{
								"patchline" : 								{
									"destination" : [ "obj-5", 0 ],
									"disabled" : 0,
									"hidden" : 0,
									"source" : [ "obj-3", 0 ]
								}

							}
, 							{
								"patchline" : 								{
									"destination" : [ "obj-3", 0 ],
									"disabled" : 0,
									"hidden" : 0,
									"source" : [ "obj-4", 0 ]
								}

							}
, 							{
								"patchline" : 								{
									"destination" : [ "obj-6", 0 ],
									"disabled" : 0,
									"hidden" : 0,
									"source" : [ "obj-5", 0 ]
								}

							}
, 							{
								"patchline" : 								{
									"destination" : [ "obj-7", 0 ],
									"disabled" : 0,
									"hidden" : 0,
									"source" : [ "obj-6", 0 ]
								}

							}
, 							{
								"patchline" : 								{
									"destination" : [ "obj-2", 0 ],
									"disabled" : 0,
									"hidden" : 0,
									"source" : [ "obj-7", 0 ]
								}

							}
, 							{
								"patchline" : 								{
									"destination" : [ "obj-3", 0 ],
									"disabled" : 0,
									"hidden" : 0,
									"source" : [ "obj-8", 0 ]
								}

							}
 ]
					}
,
					"patching_rect" : [ 780.0, 58.0, 84.0, 20.0 ],
					"saved_object_attributes" : 					{
						"default_fontface" : 0,
						"default_fontname" : "Arial",
						"default_fontsize" : 12.0,
						"description" : "",
						"digest" : "",
						"fontface" : 0,
						"fontname" : "Arial",
						"fontsize" : 12.0,
						"globalpatchername" : "",
						"tags" : ""
					}
,
					"text" : "p prep-hslider"
				}

			}
, 			{
				"box" : 				{
					"floatoutput" : 1,
					"id" : "obj-40",
					"maxclass" : "slider",
					"mult" : 100.0,
					"numinlets" : 1,
					"numoutlets" : 1,
					"outlettype" : [ "" ],
					"parameter_enable" : 0,
					"patching_rect" : [ 781.0, 58.0, 189.0, 20.0 ],
					"size" : 1.0
				}

			}
, 			{
				"box" : 				{
					"fontname" : "Arial Bold Italic",
					"fontsize" : 24.0,
					"frgb" : 0.0,
					"id" : "obj-27",
					"maxclass" : "comment",
					"numinlets" : 1,
					"numoutlets" : 0,
					"patching_rect" : [ 13.0, 169.0, 135.0, 33.0 ],
					"presentation" : 1,
					"presentation_rect" : [ 198.0, 299.0, 178.0, 33.0 ],
					"text" : "Resonator"
				}

			}
, 			{
				"box" : 				{
					"fontname" : "Arial Italic",
					"fontsize" : 18.0,
					"frgb" : 0.0,
					"id" : "obj-23",
					"maxclass" : "comment",
					"numinlets" : 1,
					"numoutlets" : 0,
					"patching_rect" : [ 439.0, 124.0, 30.0, 27.0 ],
					"presentation" : 1,
					"presentation_rect" : [ 607.0, 190.0, 128.0, 27.0 ],
					"text" : "m"
				}

			}
, 			{
				"box" : 				{
					"fontname" : "Arial",
					"fontsize" : 18.0,
					"frgb" : 0.0,
					"id" : "obj-6",
					"maxclass" : "comment",
					"numinlets" : 1,
					"numoutlets" : 0,
					"patching_rect" : [ 339.0, 124.0, 110.0, 27.0 ],
					"presentation" : 1,
					"presentation_rect" : [ 494.0, 190.0, 128.0, 27.0 ],
					"text" : "virtual mass"
				}

			}
, 			{
				"box" : 				{
					"id" : "obj-1",
					"maxclass" : "ezdac~",
					"numinlets" : 2,
					"numoutlets" : 0,
					"patching_rect" : [ 515.0, 223.0, 45.0, 45.0 ]
				}

			}
, 			{
				"box" : 				{
					"fontname" : "Arial",
					"fontsize" : 12.0,
					"hidden" : 1,
					"id" : "obj-21",
					"maxclass" : "newobj",
					"numinlets" : 1,
					"numoutlets" : 1,
					"outlettype" : [ "signal" ],
					"patcher" : 					{
						"fileversion" : 1,
						"appversion" : 						{
							"major" : 6,
							"minor" : 1,
							"revision" : 3,
							"architecture" : "x86"
						}
,
						"rect" : [ 776.0, 261.0, 100.0, 132.0 ],
						"bglocked" : 0,
						"openinpresentation" : 0,
						"default_fontsize" : 12.0,
						"default_fontface" : 0,
						"default_fontname" : "Arial",
						"gridonopen" : 0,
						"gridsize" : [ 15.0, 15.0 ],
						"gridsnaponopen" : 0,
						"statusbarvisible" : 2,
						"toolbarvisible" : 1,
						"boxanimatetime" : 200,
						"imprint" : 0,
						"enablehscroll" : 1,
						"enablevscroll" : 1,
						"devicewidth" : 0.0,
						"description" : "",
						"digest" : "",
						"tags" : "",
						"boxes" : [ 							{
								"box" : 								{
									"fontname" : "Arial",
									"fontsize" : 12.0,
									"id" : "obj-10",
									"maxclass" : "newobj",
									"numinlets" : 1,
									"numoutlets" : 1,
									"outlettype" : [ "signal" ],
									"patcher" : 									{
										"fileversion" : 1,
										"appversion" : 										{
											"major" : 6,
											"minor" : 1,
											"revision" : 3,
											"architecture" : "x86"
										}
,
										"rect" : [ 776.0, 261.0, 208.0, 283.0 ],
										"bglocked" : 0,
										"openinpresentation" : 0,
										"default_fontsize" : 12.0,
										"default_fontface" : 0,
										"default_fontname" : "Arial",
										"gridonopen" : 0,
										"gridsize" : [ 15.0, 15.0 ],
										"gridsnaponopen" : 0,
										"statusbarvisible" : 2,
										"toolbarvisible" : 1,
										"boxanimatetime" : 200,
										"imprint" : 0,
										"enablehscroll" : 1,
										"enablevscroll" : 1,
										"devicewidth" : 0.0,
										"description" : "",
										"digest" : "",
										"tags" : "",
										"boxes" : [ 											{
												"box" : 												{
													"fontname" : "Arial",
													"fontsize" : 12.0,
													"id" : "obj-8",
													"maxclass" : "newobj",
													"numinlets" : 1,
													"numoutlets" : 1,
													"outlettype" : [ "signal" ],
													"patcher" : 													{
														"fileversion" : 1,
														"appversion" : 														{
															"major" : 6,
															"minor" : 1,
															"revision" : 3,
															"architecture" : "x86"
														}
,
														"rect" : [ 863.0, 388.0, 226.0, 196.0 ],
														"bglocked" : 0,
														"openinpresentation" : 0,
														"default_fontsize" : 12.0,
														"default_fontface" : 0,
														"default_fontname" : "Arial",
														"gridonopen" : 0,
														"gridsize" : [ 15.0, 15.0 ],
														"gridsnaponopen" : 0,
														"statusbarvisible" : 2,
														"toolbarvisible" : 1,
														"boxanimatetime" : 200,
														"imprint" : 0,
														"enablehscroll" : 1,
														"enablevscroll" : 1,
														"devicewidth" : 0.0,
														"description" : "",
														"digest" : "",
														"tags" : "",
														"boxes" : [ 															{
																"box" : 																{
																	"fontname" : "Arial",
																	"fontsize" : 12.0,
																	"id" : "obj-3",
																	"maxclass" : "newobj",
																	"numinlets" : 2,
																	"numoutlets" : 1,
																	"outlettype" : [ "signal" ],
																	"patching_rect" : [ 28.0, 110.0, 32.5, 20.0 ],
																	"text" : "-~"
																}

															}
, 															{
																"box" : 																{
																	"comment" : "",
																	"id" : "obj-2",
																	"maxclass" : "outlet",
																	"numinlets" : 1,
																	"numoutlets" : 0,
																	"patching_rect" : [ 19.0, 147.0, 25.0, 25.0 ]
																}

															}
, 															{
																"box" : 																{
																	"comment" : "",
																	"id" : "obj-1",
																	"maxclass" : "inlet",
																	"numinlets" : 0,
																	"numoutlets" : 1,
																	"outlettype" : [ "signal" ],
																	"patching_rect" : [ 25.0, 24.0, 25.0, 25.0 ]
																}

															}
, 															{
																"box" : 																{
																	"fontname" : "Arial",
																	"fontsize" : 12.0,
																	"id" : "obj-7",
																	"maxclass" : "newobj",
																	"numinlets" : 2,
																	"numoutlets" : 1,
																	"outlettype" : [ "signal" ],
																	"patching_rect" : [ 52.0, 66.0, 98.0, 20.0 ],
																	"text" : "onepole~ 30. Hz"
																}

															}
 ],
														"lines" : [ 															{
																"patchline" : 																{
																	"destination" : [ "obj-3", 0 ],
																	"disabled" : 0,
																	"hidden" : 0,
																	"source" : [ "obj-1", 0 ]
																}

															}
, 															{
																"patchline" : 																{
																	"destination" : [ "obj-7", 0 ],
																	"disabled" : 0,
																	"hidden" : 0,
																	"source" : [ "obj-1", 0 ]
																}

															}
, 															{
																"patchline" : 																{
																	"destination" : [ "obj-2", 0 ],
																	"disabled" : 0,
																	"hidden" : 0,
																	"source" : [ "obj-3", 0 ]
																}

															}
, 															{
																"patchline" : 																{
																	"destination" : [ "obj-3", 1 ],
																	"disabled" : 0,
																	"hidden" : 0,
																	"source" : [ "obj-7", 0 ]
																}

															}
 ]
													}
,
													"patching_rect" : [ 10.0, 82.0, 76.0, 20.0 ],
													"saved_object_attributes" : 													{
														"default_fontface" : 0,
														"default_fontname" : "Arial",
														"default_fontsize" : 12.0,
														"description" : "",
														"digest" : "",
														"fontface" : 0,
														"fontname" : "Arial",
														"fontsize" : 12.0,
														"globalpatchername" : "",
														"tags" : ""
													}
,
													"text" : "p highpass~"
												}

											}
, 											{
												"box" : 												{
													"fontname" : "Arial",
													"fontsize" : 12.0,
													"id" : "obj-7",
													"maxclass" : "newobj",
													"numinlets" : 1,
													"numoutlets" : 1,
													"outlettype" : [ "signal" ],
													"patcher" : 													{
														"fileversion" : 1,
														"appversion" : 														{
															"major" : 6,
															"minor" : 1,
															"revision" : 3,
															"architecture" : "x86"
														}
,
														"rect" : [ 863.0, 388.0, 226.0, 196.0 ],
														"bglocked" : 0,
														"openinpresentation" : 0,
														"default_fontsize" : 12.0,
														"default_fontface" : 0,
														"default_fontname" : "Arial",
														"gridonopen" : 0,
														"gridsize" : [ 15.0, 15.0 ],
														"gridsnaponopen" : 0,
														"statusbarvisible" : 2,
														"toolbarvisible" : 1,
														"boxanimatetime" : 200,
														"imprint" : 0,
														"enablehscroll" : 1,
														"enablevscroll" : 1,
														"devicewidth" : 0.0,
														"description" : "",
														"digest" : "",
														"tags" : "",
														"boxes" : [ 															{
																"box" : 																{
																	"fontname" : "Arial",
																	"fontsize" : 12.0,
																	"id" : "obj-3",
																	"maxclass" : "newobj",
																	"numinlets" : 2,
																	"numoutlets" : 1,
																	"outlettype" : [ "signal" ],
																	"patching_rect" : [ 28.0, 110.0, 32.5, 20.0 ],
																	"text" : "-~"
																}

															}
, 															{
																"box" : 																{
																	"comment" : "",
																	"id" : "obj-2",
																	"maxclass" : "outlet",
																	"numinlets" : 1,
																	"numoutlets" : 0,
																	"patching_rect" : [ 19.0, 147.0, 25.0, 25.0 ]
																}

															}
, 															{
																"box" : 																{
																	"comment" : "",
																	"id" : "obj-1",
																	"maxclass" : "inlet",
																	"numinlets" : 0,
																	"numoutlets" : 1,
																	"outlettype" : [ "signal" ],
																	"patching_rect" : [ 25.0, 24.0, 25.0, 25.0 ]
																}

															}
, 															{
																"box" : 																{
																	"fontname" : "Arial",
																	"fontsize" : 12.0,
																	"id" : "obj-7",
																	"maxclass" : "newobj",
																	"numinlets" : 2,
																	"numoutlets" : 1,
																	"outlettype" : [ "signal" ],
																	"patching_rect" : [ 52.0, 66.0, 98.0, 20.0 ],
																	"text" : "onepole~ 40. Hz"
																}

															}
 ],
														"lines" : [ 															{
																"patchline" : 																{
																	"destination" : [ "obj-3", 0 ],
																	"disabled" : 0,
																	"hidden" : 0,
																	"source" : [ "obj-1", 0 ]
																}

															}
, 															{
																"patchline" : 																{
																	"destination" : [ "obj-7", 0 ],
																	"disabled" : 0,
																	"hidden" : 0,
																	"source" : [ "obj-1", 0 ]
																}

															}
, 															{
																"patchline" : 																{
																	"destination" : [ "obj-2", 0 ],
																	"disabled" : 0,
																	"hidden" : 0,
																	"source" : [ "obj-3", 0 ]
																}

															}
, 															{
																"patchline" : 																{
																	"destination" : [ "obj-3", 1 ],
																	"disabled" : 0,
																	"hidden" : 0,
																	"source" : [ "obj-7", 0 ]
																}

															}
 ]
													}
,
													"patching_rect" : [ 10.0, 211.0, 76.0, 20.0 ],
													"saved_object_attributes" : 													{
														"default_fontface" : 0,
														"default_fontname" : "Arial",
														"default_fontsize" : 12.0,
														"description" : "",
														"digest" : "",
														"fontface" : 0,
														"fontname" : "Arial",
														"fontsize" : 12.0,
														"globalpatchername" : "",
														"tags" : ""
													}
,
													"text" : "p highpass~"
												}

											}
, 											{
												"box" : 												{
													"fontname" : "Arial",
													"fontsize" : 12.0,
													"id" : "obj-6",
													"maxclass" : "newobj",
													"numinlets" : 1,
													"numoutlets" : 1,
													"outlettype" : [ "signal" ],
													"patcher" : 													{
														"fileversion" : 1,
														"appversion" : 														{
															"major" : 6,
															"minor" : 1,
															"revision" : 3,
															"architecture" : "x86"
														}
,
														"rect" : [ 863.0, 388.0, 226.0, 196.0 ],
														"bglocked" : 0,
														"openinpresentation" : 0,
														"default_fontsize" : 12.0,
														"default_fontface" : 0,
														"default_fontname" : "Arial",
														"gridonopen" : 0,
														"gridsize" : [ 15.0, 15.0 ],
														"gridsnaponopen" : 0,
														"statusbarvisible" : 2,
														"toolbarvisible" : 1,
														"boxanimatetime" : 200,
														"imprint" : 0,
														"enablehscroll" : 1,
														"enablevscroll" : 1,
														"devicewidth" : 0.0,
														"description" : "",
														"digest" : "",
														"tags" : "",
														"boxes" : [ 															{
																"box" : 																{
																	"fontname" : "Arial",
																	"fontsize" : 12.0,
																	"id" : "obj-3",
																	"maxclass" : "newobj",
																	"numinlets" : 2,
																	"numoutlets" : 1,
																	"outlettype" : [ "signal" ],
																	"patching_rect" : [ 28.0, 110.0, 32.5, 20.0 ],
																	"text" : "-~"
																}

															}
, 															{
																"box" : 																{
																	"comment" : "",
																	"id" : "obj-2",
																	"maxclass" : "outlet",
																	"numinlets" : 1,
																	"numoutlets" : 0,
																	"patching_rect" : [ 19.0, 147.0, 25.0, 25.0 ]
																}

															}
, 															{
																"box" : 																{
																	"comment" : "",
																	"id" : "obj-1",
																	"maxclass" : "inlet",
																	"numinlets" : 0,
																	"numoutlets" : 1,
																	"outlettype" : [ "signal" ],
																	"patching_rect" : [ 25.0, 24.0, 25.0, 25.0 ]
																}

															}
, 															{
																"box" : 																{
																	"fontname" : "Arial",
																	"fontsize" : 12.0,
																	"id" : "obj-7",
																	"maxclass" : "newobj",
																	"numinlets" : 2,
																	"numoutlets" : 1,
																	"outlettype" : [ "signal" ],
																	"patching_rect" : [ 52.0, 66.0, 98.0, 20.0 ],
																	"text" : "onepole~ 10. Hz"
																}

															}
 ],
														"lines" : [ 															{
																"patchline" : 																{
																	"destination" : [ "obj-3", 0 ],
																	"disabled" : 0,
																	"hidden" : 0,
																	"source" : [ "obj-1", 0 ]
																}

															}
, 															{
																"patchline" : 																{
																	"destination" : [ "obj-7", 0 ],
																	"disabled" : 0,
																	"hidden" : 0,
																	"source" : [ "obj-1", 0 ]
																}

															}
, 															{
																"patchline" : 																{
																	"destination" : [ "obj-2", 0 ],
																	"disabled" : 0,
																	"hidden" : 0,
																	"source" : [ "obj-3", 0 ]
																}

															}
, 															{
																"patchline" : 																{
																	"destination" : [ "obj-3", 1 ],
																	"disabled" : 0,
																	"hidden" : 0,
																	"source" : [ "obj-7", 0 ]
																}

															}
 ]
													}
,
													"patching_rect" : [ 10.0, 170.0, 76.0, 20.0 ],
													"saved_object_attributes" : 													{
														"default_fontface" : 0,
														"default_fontname" : "Arial",
														"default_fontsize" : 12.0,
														"description" : "",
														"digest" : "",
														"fontface" : 0,
														"fontname" : "Arial",
														"fontsize" : 12.0,
														"globalpatchername" : "",
														"tags" : ""
													}
,
													"text" : "p highpass~"
												}

											}
, 											{
												"box" : 												{
													"fontname" : "Arial",
													"fontsize" : 12.0,
													"id" : "obj-5",
													"maxclass" : "newobj",
													"numinlets" : 1,
													"numoutlets" : 1,
													"outlettype" : [ "signal" ],
													"patcher" : 													{
														"fileversion" : 1,
														"appversion" : 														{
															"major" : 6,
															"minor" : 1,
															"revision" : 3,
															"architecture" : "x86"
														}
,
														"rect" : [ 863.0, 388.0, 226.0, 196.0 ],
														"bglocked" : 0,
														"openinpresentation" : 0,
														"default_fontsize" : 12.0,
														"default_fontface" : 0,
														"default_fontname" : "Arial",
														"gridonopen" : 0,
														"gridsize" : [ 15.0, 15.0 ],
														"gridsnaponopen" : 0,
														"statusbarvisible" : 2,
														"toolbarvisible" : 1,
														"boxanimatetime" : 200,
														"imprint" : 0,
														"enablehscroll" : 1,
														"enablevscroll" : 1,
														"devicewidth" : 0.0,
														"description" : "",
														"digest" : "",
														"tags" : "",
														"boxes" : [ 															{
																"box" : 																{
																	"fontname" : "Arial",
																	"fontsize" : 12.0,
																	"id" : "obj-3",
																	"maxclass" : "newobj",
																	"numinlets" : 2,
																	"numoutlets" : 1,
																	"outlettype" : [ "signal" ],
																	"patching_rect" : [ 28.0, 110.0, 32.5, 20.0 ],
																	"text" : "-~"
																}

															}
, 															{
																"box" : 																{
																	"comment" : "",
																	"id" : "obj-2",
																	"maxclass" : "outlet",
																	"numinlets" : 1,
																	"numoutlets" : 0,
																	"patching_rect" : [ 19.0, 147.0, 25.0, 25.0 ]
																}

															}
, 															{
																"box" : 																{
																	"comment" : "",
																	"id" : "obj-1",
																	"maxclass" : "inlet",
																	"numinlets" : 0,
																	"numoutlets" : 1,
																	"outlettype" : [ "signal" ],
																	"patching_rect" : [ 25.0, 24.0, 25.0, 25.0 ]
																}

															}
, 															{
																"box" : 																{
																	"fontname" : "Arial",
																	"fontsize" : 12.0,
																	"id" : "obj-7",
																	"maxclass" : "newobj",
																	"numinlets" : 2,
																	"numoutlets" : 1,
																	"outlettype" : [ "signal" ],
																	"patching_rect" : [ 52.0, 66.0, 98.0, 20.0 ],
																	"text" : "onepole~ 15. Hz"
																}

															}
 ],
														"lines" : [ 															{
																"patchline" : 																{
																	"destination" : [ "obj-3", 0 ],
																	"disabled" : 0,
																	"hidden" : 0,
																	"source" : [ "obj-1", 0 ]
																}

															}
, 															{
																"patchline" : 																{
																	"destination" : [ "obj-7", 0 ],
																	"disabled" : 0,
																	"hidden" : 0,
																	"source" : [ "obj-1", 0 ]
																}

															}
, 															{
																"patchline" : 																{
																	"destination" : [ "obj-2", 0 ],
																	"disabled" : 0,
																	"hidden" : 0,
																	"source" : [ "obj-3", 0 ]
																}

															}
, 															{
																"patchline" : 																{
																	"destination" : [ "obj-3", 1 ],
																	"disabled" : 0,
																	"hidden" : 0,
																	"source" : [ "obj-7", 0 ]
																}

															}
 ]
													}
,
													"patching_rect" : [ 10.0, 137.0, 76.0, 20.0 ],
													"saved_object_attributes" : 													{
														"default_fontface" : 0,
														"default_fontname" : "Arial",
														"default_fontsize" : 12.0,
														"description" : "",
														"digest" : "",
														"fontface" : 0,
														"fontname" : "Arial",
														"fontsize" : 12.0,
														"globalpatchername" : "",
														"tags" : ""
													}
,
													"text" : "p highpass~"
												}

											}
, 											{
												"box" : 												{
													"fontname" : "Arial",
													"fontsize" : 12.0,
													"id" : "obj-4",
													"maxclass" : "newobj",
													"numinlets" : 1,
													"numoutlets" : 1,
													"outlettype" : [ "signal" ],
													"patcher" : 													{
														"fileversion" : 1,
														"appversion" : 														{
															"major" : 6,
															"minor" : 1,
															"revision" : 3,
															"architecture" : "x86"
														}
,
														"rect" : [ 863.0, 388.0, 226.0, 196.0 ],
														"bglocked" : 0,
														"openinpresentation" : 0,
														"default_fontsize" : 12.0,
														"default_fontface" : 0,
														"default_fontname" : "Arial",
														"gridonopen" : 0,
														"gridsize" : [ 15.0, 15.0 ],
														"gridsnaponopen" : 0,
														"statusbarvisible" : 2,
														"toolbarvisible" : 1,
														"boxanimatetime" : 200,
														"imprint" : 0,
														"enablehscroll" : 1,
														"enablevscroll" : 1,
														"devicewidth" : 0.0,
														"description" : "",
														"digest" : "",
														"tags" : "",
														"boxes" : [ 															{
																"box" : 																{
																	"fontname" : "Arial",
																	"fontsize" : 12.0,
																	"id" : "obj-3",
																	"maxclass" : "newobj",
																	"numinlets" : 2,
																	"numoutlets" : 1,
																	"outlettype" : [ "signal" ],
																	"patching_rect" : [ 28.0, 110.0, 32.5, 20.0 ],
																	"text" : "-~"
																}

															}
, 															{
																"box" : 																{
																	"comment" : "",
																	"id" : "obj-2",
																	"maxclass" : "outlet",
																	"numinlets" : 1,
																	"numoutlets" : 0,
																	"patching_rect" : [ 19.0, 147.0, 25.0, 25.0 ]
																}

															}
, 															{
																"box" : 																{
																	"comment" : "",
																	"id" : "obj-1",
																	"maxclass" : "inlet",
																	"numinlets" : 0,
																	"numoutlets" : 1,
																	"outlettype" : [ "signal" ],
																	"patching_rect" : [ 25.0, 24.0, 25.0, 25.0 ]
																}

															}
, 															{
																"box" : 																{
																	"fontname" : "Arial",
																	"fontsize" : 12.0,
																	"id" : "obj-7",
																	"maxclass" : "newobj",
																	"numinlets" : 2,
																	"numoutlets" : 1,
																	"outlettype" : [ "signal" ],
																	"patching_rect" : [ 52.0, 66.0, 98.0, 20.0 ],
																	"text" : "onepole~ 20. Hz"
																}

															}
 ],
														"lines" : [ 															{
																"patchline" : 																{
																	"destination" : [ "obj-3", 0 ],
																	"disabled" : 0,
																	"hidden" : 0,
																	"source" : [ "obj-1", 0 ]
																}

															}
, 															{
																"patchline" : 																{
																	"destination" : [ "obj-7", 0 ],
																	"disabled" : 0,
																	"hidden" : 0,
																	"source" : [ "obj-1", 0 ]
																}

															}
, 															{
																"patchline" : 																{
																	"destination" : [ "obj-2", 0 ],
																	"disabled" : 0,
																	"hidden" : 0,
																	"source" : [ "obj-3", 0 ]
																}

															}
, 															{
																"patchline" : 																{
																	"destination" : [ "obj-3", 1 ],
																	"disabled" : 0,
																	"hidden" : 0,
																	"source" : [ "obj-7", 0 ]
																}

															}
 ]
													}
,
													"patching_rect" : [ 10.0, 109.0, 76.0, 20.0 ],
													"saved_object_attributes" : 													{
														"default_fontface" : 0,
														"default_fontname" : "Arial",
														"default_fontsize" : 12.0,
														"description" : "",
														"digest" : "",
														"fontface" : 0,
														"fontname" : "Arial",
														"fontsize" : 12.0,
														"globalpatchername" : "",
														"tags" : ""
													}
,
													"text" : "p highpass~"
												}

											}
, 											{
												"box" : 												{
													"fontname" : "Arial",
													"fontsize" : 12.0,
													"id" : "obj-3",
													"maxclass" : "newobj",
													"numinlets" : 2,
													"numoutlets" : 1,
													"outlettype" : [ "signal" ],
													"patching_rect" : [ 10.0, 42.0, 36.0, 20.0 ],
													"text" : "*~ 1."
												}

											}
, 											{
												"box" : 												{
													"comment" : "",
													"id" : "obj-2",
													"maxclass" : "outlet",
													"numinlets" : 1,
													"numoutlets" : 0,
													"patching_rect" : [ 10.0, 252.0, 25.0, 25.0 ]
												}

											}
, 											{
												"box" : 												{
													"comment" : "",
													"id" : "obj-1",
													"maxclass" : "inlet",
													"numinlets" : 0,
													"numoutlets" : 1,
													"outlettype" : [ "signal" ],
													"patching_rect" : [ 10.0, 12.0, 25.0, 25.0 ]
												}

											}
 ],
										"lines" : [ 											{
												"patchline" : 												{
													"destination" : [ "obj-3", 0 ],
													"disabled" : 0,
													"hidden" : 0,
													"source" : [ "obj-1", 0 ]
												}

											}
, 											{
												"patchline" : 												{
													"destination" : [ "obj-8", 0 ],
													"disabled" : 0,
													"hidden" : 0,
													"source" : [ "obj-3", 0 ]
												}

											}
, 											{
												"patchline" : 												{
													"destination" : [ "obj-5", 0 ],
													"disabled" : 0,
													"hidden" : 0,
													"source" : [ "obj-4", 0 ]
												}

											}
, 											{
												"patchline" : 												{
													"destination" : [ "obj-6", 0 ],
													"disabled" : 0,
													"hidden" : 0,
													"source" : [ "obj-5", 0 ]
												}

											}
, 											{
												"patchline" : 												{
													"destination" : [ "obj-7", 0 ],
													"disabled" : 0,
													"hidden" : 0,
													"source" : [ "obj-6", 0 ]
												}

											}
, 											{
												"patchline" : 												{
													"destination" : [ "obj-2", 0 ],
													"disabled" : 0,
													"hidden" : 0,
													"source" : [ "obj-7", 0 ]
												}

											}
, 											{
												"patchline" : 												{
													"destination" : [ "obj-4", 0 ],
													"disabled" : 0,
													"hidden" : 0,
													"source" : [ "obj-8", 0 ]
												}

											}
 ]
									}
,
									"patching_rect" : [ 10.0, 68.0, 76.0, 20.0 ],
									"saved_object_attributes" : 									{
										"default_fontface" : 0,
										"default_fontname" : "Arial",
										"default_fontsize" : 12.0,
										"description" : "",
										"digest" : "",
										"fontface" : 0,
										"fontname" : "Arial",
										"fontsize" : 12.0,
										"globalpatchername" : "",
										"tags" : ""
									}
,
									"text" : "p highpass~"
								}

							}
, 							{
								"box" : 								{
									"fontname" : "Arial",
									"fontsize" : 12.0,
									"id" : "obj-3",
									"maxclass" : "newobj",
									"numinlets" : 2,
									"numoutlets" : 1,
									"outlettype" : [ "signal" ],
									"patching_rect" : [ 10.0, 42.0, 49.0, 20.0 ],
									"text" : "*~ 500."
								}

							}
, 							{
								"box" : 								{
									"comment" : "",
									"id" : "obj-2",
									"maxclass" : "outlet",
									"numinlets" : 1,
									"numoutlets" : 0,
									"patching_rect" : [ 10.0, 94.0, 25.0, 25.0 ]
								}

							}
, 							{
								"box" : 								{
									"comment" : "",
									"id" : "obj-1",
									"maxclass" : "inlet",
									"numinlets" : 0,
									"numoutlets" : 1,
									"outlettype" : [ "signal" ],
									"patching_rect" : [ 10.0, 12.0, 25.0, 25.0 ]
								}

							}
 ],
						"lines" : [ 							{
								"patchline" : 								{
									"destination" : [ "obj-3", 0 ],
									"disabled" : 0,
									"hidden" : 0,
									"source" : [ "obj-1", 0 ]
								}

							}
, 							{
								"patchline" : 								{
									"destination" : [ "obj-2", 0 ],
									"disabled" : 0,
									"hidden" : 0,
									"source" : [ "obj-10", 0 ]
								}

							}
, 							{
								"patchline" : 								{
									"destination" : [ "obj-10", 0 ],
									"disabled" : 0,
									"hidden" : 0,
									"source" : [ "obj-3", 0 ]
								}

							}
 ]
					}
,
					"patching_rect" : [ 525.0, 144.0, 41.0, 20.0 ],
					"saved_object_attributes" : 					{
						"default_fontface" : 0,
						"default_fontname" : "Arial",
						"default_fontsize" : 12.0,
						"description" : "",
						"digest" : "",
						"fontface" : 0,
						"fontname" : "Arial",
						"fontsize" : 12.0,
						"globalpatchername" : "",
						"tags" : ""
					}
,
					"text" : "p hp~"
				}

			}
, 			{
				"box" : 				{
					"id" : "obj-22",
					"maxclass" : "gain~",
					"numinlets" : 2,
					"numoutlets" : 2,
					"outlettype" : [ "signal", "int" ],
					"parameter_enable" : 0,
					"patching_rect" : [ 528.0, 144.0, 42.0, 67.0 ]
				}

			}
, 			{
				"box" : 				{
					"fontname" : "Arial",
					"fontsize" : 18.0,
					"frgb" : 0.0,
					"id" : "obj-7",
					"maxclass" : "comment",
					"numinlets" : 1,
					"numoutlets" : 0,
					"patching_rect" : [ 339.0, 101.0, 99.0, 27.0 ],
					"presentation" : 1,
					"presentation_rect" : [ 494.0, 176.0, 128.0, 27.0 ],
					"text" : "Position of"
				}

			}
, 			{
				"box" : 				{
					"color" : [ 0.278431, 0.921569, 0.639216, 1.0 ],
					"fontname" : "Arial",
					"fontsize" : 18.0,
					"id" : "obj-4",
					"maxclass" : "newobj",
					"numinlets" : 2,
					"numoutlets" : 2,
					"outlettype" : [ "signal", "signal" ],
					"patching_rect" : [ 539.0, 23.0, 175.0, 27.0 ],
					"presentation" : 1,
					"presentation_rect" : [ 443.0, 94.0, 175.0, 27.0 ],
					"text" : "touch~ t 300. 0.15 0."
				}

			}
, 			{
				"box" : 				{
					"color" : [ 0.960784, 0.439216, 0.478431, 1.0 ],
					"fontname" : "Arial",
					"fontsize" : 18.0,
					"id" : "obj-3",
					"maxclass" : "newobj",
					"numinlets" : 1,
					"numoutlets" : 1,
					"outlettype" : [ "signal" ],
					"patching_rect" : [ 365.0, 23.0, 134.0, 27.0 ],
					"presentation" : 1,
					"presentation_rect" : [ 286.0, 176.0, 134.0, 27.0 ],
					"text" : "mass~ m 0.001"
				}

			}
, 			{
				"box" : 				{
					"fontname" : "Arial",
					"fontsize" : 18.0,
					"frgb" : 0.0,
					"id" : "obj-2",
					"linecount" : 2,
					"maxclass" : "comment",
					"numinlets" : 1,
					"numoutlets" : 0,
					"patching_rect" : [ 562.0, 220.0, 91.0, 47.0 ],
					"presentation" : 1,
					"presentation_linecount" : 2,
					"presentation_rect" : [ 52.0, 106.0, 91.0, 47.0 ],
					"text" : "Start/stop\nDSP"
				}

			}
, 			{
				"box" : 				{
					"color" : [ 0.278431, 0.921569, 0.639216, 1.0 ],
					"fontname" : "Arial",
					"fontsize" : 18.0,
					"id" : "obj-17",
					"maxclass" : "newobj",
					"numinlets" : 2,
					"numoutlets" : 2,
					"outlettype" : [ "signal", "signal" ],
					"patching_rect" : [ 143.0, 24.0, 177.0, 27.0 ],
					"presentation" : 1,
					"presentation_rect" : [ 136.0, 13.0, 177.0, 27.0 ],
					"text" : "link~ l 1200. 0.003 0."
				}

			}
, 			{
				"box" : 				{
					"color" : [ 0.960784, 0.439216, 0.478431, 1.0 ],
					"fontname" : "Arial",
					"fontsize" : 18.0,
					"id" : "obj-5",
					"maxclass" : "newobj",
					"numinlets" : 2,
					"numoutlets" : 2,
					"outlettype" : [ "signal", "signal" ],
					"patching_rect" : [ 780.0, 22.0, 99.0, 27.0 ],
					"presentation" : 1,
					"presentation_rect" : [ 391.0, 14.0, 99.0, 27.0 ],
					"text" : "FireFader~"
				}

			}
, 			{
				"box" : 				{
					"color" : [ 0.960784, 0.439216, 0.478431, 1.0 ],
					"fontname" : "Arial",
					"fontsize" : 18.0,
					"id" : "obj-13",
					"maxclass" : "newobj",
					"numinlets" : 1,
					"numoutlets" : 1,
					"outlettype" : [ "signal" ],
					"patching_rect" : [ 13.0, 26.0, 94.0, 27.0 ],
					"presentation" : 1,
					"presentation_rect" : [ 6.0, 15.0, 94.0, 27.0 ],
					"text" : "grnd~ g 0."
				}

			}
, 			{
				"box" : 				{
					"background" : 1,
					"grad1" : [ 0.72549, 0.780392, 1.0, 1.0 ],
					"grad2" : [ 0.811765, 0.803922, 1.0, 1.0 ],
					"id" : "obj-26",
					"maxclass" : "panel",
					"mode" : 1,
					"numinlets" : 1,
					"numoutlets" : 0,
					"patching_rect" : [ 5.0, 7.0, 501.0, 204.0 ],
					"varname" : "autohelp_top_panel"
				}

			}
 ],
		"lines" : [ 			{
				"patchline" : 				{
					"destination" : [ "obj-17", 0 ],
					"disabled" : 0,
					"hidden" : 0,
					"midpoints" : [ 22.5, 59.0, 111.0, 59.0, 138.0, 18.0, 152.5, 18.0 ],
					"source" : [ "obj-13", 0 ]
				}

			}
, 			{
				"patchline" : 				{
					"destination" : [ "obj-12", 0 ],
					"disabled" : 0,
					"hidden" : 0,
					"source" : [ "obj-15", 0 ]
				}

			}
, 			{
				"patchline" : 				{
					"destination" : [ "obj-12", 0 ],
					"disabled" : 0,
					"hidden" : 0,
					"source" : [ "obj-16", 0 ]
				}

			}
, 			{
				"patchline" : 				{
					"destination" : [ "obj-13", 0 ],
					"disabled" : 0,
					"hidden" : 0,
					"midpoints" : [ 152.5, 59.0, 138.0, 59.0, 114.0, 18.0, 22.5, 18.0 ],
					"source" : [ "obj-17", 0 ]
				}

			}
, 			{
				"patchline" : 				{
					"destination" : [ "obj-3", 0 ],
					"disabled" : 0,
					"hidden" : 0,
					"midpoints" : [ 310.5, 57.0, 333.0, 57.0, 356.0, 16.0, 374.0, 16.0, 374.5, 22.0 ],
					"source" : [ "obj-17", 1 ]
				}

			}
, 			{
				"patchline" : 				{
					"destination" : [ "obj-12", 0 ],
					"disabled" : 0,
					"hidden" : 0,
					"source" : [ "obj-18", 0 ]
				}

			}
, 			{
				"patchline" : 				{
					"destination" : [ "obj-12", 0 ],
					"disabled" : 0,
					"hidden" : 0,
					"source" : [ "obj-19", 0 ]
				}

			}
, 			{
				"patchline" : 				{
					"destination" : [ "obj-22", 0 ],
					"disabled" : 0,
					"hidden" : 1,
					"source" : [ "obj-21", 0 ]
				}

			}
, 			{
				"patchline" : 				{
					"destination" : [ "obj-1", 1 ],
					"disabled" : 0,
					"hidden" : 0,
					"source" : [ "obj-22", 0 ]
				}

			}
, 			{
				"patchline" : 				{
					"destination" : [ "obj-1", 0 ],
					"disabled" : 0,
					"hidden" : 0,
					"source" : [ "obj-22", 0 ]
				}

			}
, 			{
				"patchline" : 				{
					"destination" : [ "obj-17", 1 ],
					"disabled" : 0,
					"hidden" : 0,
					"midpoints" : [ 374.5, 56.0, 357.0, 56.0, 331.0, 16.0, 310.5, 16.0 ],
					"source" : [ "obj-3", 0 ]
				}

			}
, 			{
				"patchline" : 				{
					"destination" : [ "obj-21", 0 ],
					"disabled" : 0,
					"hidden" : 0,
					"midpoints" : [ 374.5, 84.0, 534.5, 84.0 ],
					"source" : [ "obj-3", 0 ]
				}

			}
, 			{
				"patchline" : 				{
					"destination" : [ "obj-4", 0 ],
					"disabled" : 0,
					"hidden" : 0,
					"midpoints" : [ 374.5, 56.0, 503.0, 56.0, 529.0, 16.0, 548.5, 16.0 ],
					"source" : [ "obj-3", 0 ]
				}

			}
, 			{
				"patchline" : 				{
					"destination" : [ "obj-44", 0 ],
					"disabled" : 0,
					"hidden" : 0,
					"midpoints" : [ 374.5, 84.0, 153.5, 84.0 ],
					"source" : [ "obj-3", 0 ]
				}

			}
, 			{
				"patchline" : 				{
					"destination" : [ "obj-33", 0 ],
					"disabled" : 0,
					"hidden" : 1,
					"source" : [ "obj-32", 0 ]
				}

			}
, 			{
				"patchline" : 				{
					"destination" : [ "obj-40", 0 ],
					"disabled" : 0,
					"hidden" : 1,
					"source" : [ "obj-39", 0 ]
				}

			}
, 			{
				"patchline" : 				{
					"destination" : [ "obj-3", 0 ],
					"disabled" : 0,
					"hidden" : 0,
					"midpoints" : [ 548.5, 56.0, 530.0, 56.0, 503.0, 16.0, 374.5, 16.0 ],
					"source" : [ "obj-4", 0 ]
				}

			}
, 			{
				"patchline" : 				{
					"destination" : [ "obj-32", 0 ],
					"disabled" : 0,
					"hidden" : 0,
					"source" : [ "obj-4", 1 ]
				}

			}
, 			{
				"patchline" : 				{
					"destination" : [ "obj-5", 0 ],
					"disabled" : 0,
					"hidden" : 0,
					"midpoints" : [ 704.5, 53.0, 742.0, 53.0, 761.0, 16.0, 789.5, 16.0 ],
					"source" : [ "obj-4", 1 ]
				}

			}
, 			{
				"patchline" : 				{
					"destination" : [ "obj-45", 0 ],
					"disabled" : 0,
					"hidden" : 1,
					"source" : [ "obj-44", 0 ]
				}

			}
, 			{
				"patchline" : 				{
					"destination" : [ "obj-39", 0 ],
					"disabled" : 0,
					"hidden" : 0,
					"source" : [ "obj-5", 0 ]
				}

			}
, 			{
				"patchline" : 				{
					"destination" : [ "obj-4", 1 ],
					"disabled" : 0,
					"hidden" : 0,
					"midpoints" : [ 789.5, 52.0, 764.0, 52.0, 742.0, 16.0, 704.5, 16.0 ],
					"source" : [ "obj-5", 0 ]
				}

			}
 ],
		"dependency_cache" : [ 			{
				"name" : "grnd~.maxpat",
				"bootpath" : "/Users/eberdahl/Documents/gits/Open-Source-Haptics-For-Artists/Software/MaxMSP/palette/CA",
				"patcherrelativepath" : "../palette/CA",
				"type" : "JSON",
				"implicit" : 1
			}
, 			{
				"name" : "FireFader~.maxpat",
				"bootpath" : "/Users/eberdahl/Documents/gits/Open-Source-Haptics-For-Artists/Software/MaxMSP/palette",
				"patcherrelativepath" : "../palette",
				"type" : "JSON",
				"implicit" : 1
			}
, 			{
				"name" : "link~.maxpat",
				"bootpath" : "/Users/eberdahl/Documents/gits/Open-Source-Haptics-For-Artists/Software/MaxMSP/palette/CA",
				"patcherrelativepath" : "../palette/CA",
				"type" : "JSON",
				"implicit" : 1
			}
, 			{
				"name" : "mass~.maxpat",
				"bootpath" : "/Users/eberdahl/Documents/gits/Open-Source-Haptics-For-Artists/Software/MaxMSP/palette/CA",
				"patcherrelativepath" : "../palette/CA",
				"type" : "JSON",
				"implicit" : 1
			}
, 			{
				"name" : "touch~.maxpat",
				"bootpath" : "/Users/eberdahl/Documents/gits/Open-Source-Haptics-For-Artists/Software/MaxMSP/palette/CA",
				"patcherrelativepath" : "../palette/CA",
				"type" : "JSON",
				"implicit" : 1
			}
 ]
	}

}
