#N canvas 473 195 380 205 10;
#X msg -5 56 \; pd dsp 1;
#X text -18 38 Turn on DSP ...;
#N canvas 62 249 1350 248 look-inside-me! 0;
#X obj 146 202 outlet~;
#X obj 2817 136 sig~ 0;
#X text 2817 121 Ground;
#X obj 28 50 click~;
#X obj 28 20 bng 25 250 50 0 empty empty empty 17 7 0 10 -262144 -1
-1;
#X obj 87 152 mass~ 0.01;
#X obj 87 111 delwrite~ mydel0 5;
#X obj 87 131 delread~ mydel0 0;
#X obj 265 150 link~ 0.0001 0.0003;
#X obj 462 167 mass~ 0.01;
#X obj 462 124 delwrite~ mydel1 5;
#X obj 462 145 delread~ mydel1 0;
#X obj 609 153 link~ 0.0001 0.0003;
#X obj 406 59 click~;
#X obj 406 28 bng 25 250 50 0 empty empty empty 17 7 0 10 -262144 -1
-1;
#X obj 775 171 mass~ 0.01;
#X obj 953 169 link~ 0.0001 0.0003;
#X obj 1150 186 mass~ 0.01;
#X obj 1297 172 link~ 0.0001 0.0003;
#X obj 775 130 delwrite~ mydel2 5;
#X obj 775 150 delread~ mydel2 0;
#X obj 1150 143 delwrite~ mydel3 5;
#X obj 1150 164 delread~ mydel3 0;
#X obj 738 56 click~;
#X obj 738 26 bng 25 250 50 0 empty empty empty 17 7 0 10 -262144 -1
-1;
#X obj 1100 72 click~;
#X obj 1100 42 bng 25 250 50 0 empty empty empty 17 7 0 10 -262144
-1 -1;
#X obj 738 82 *~ 0.001;
#X obj 406 85 *~ 0.001;
#X obj 28 76 *~ 0.001;
#X obj 1100 98 *~ 0.001;
#X obj 1439 63 click~;
#X obj 1439 33 bng 25 250 50 0 empty empty empty 17 7 0 10 -262144
-1 -1;
#X obj 1498 165 mass~ 0.01;
#X obj 1676 163 link~ 0.0001 0.0003;
#X obj 1873 180 mass~ 0.01;
#X obj 2020 166 link~ 0.0001 0.0003;
#X obj 1817 72 click~;
#X obj 1817 42 bng 25 250 50 0 empty empty empty 17 7 0 10 -262144
-1 -1;
#X obj 2186 184 mass~ 0.01;
#X obj 2364 182 link~ 0.0001 0.0003;
#X obj 2561 199 mass~ 0.01;
#X obj 2708 185 link~ 0.0001 0.0003;
#X obj 2149 69 click~;
#X obj 2149 39 bng 25 250 50 0 empty empty empty 17 7 0 10 -262144
-1 -1;
#X obj 2511 85 click~;
#X obj 2511 55 bng 25 250 50 0 empty empty empty 17 7 0 10 -262144
-1 -1;
#X obj 2149 95 *~ 0.001;
#X obj 1817 98 *~ 0.001;
#X obj 1439 89 *~ 0.001;
#X obj 2511 111 *~ 0.001;
#X obj 1498 124 delwrite~ mydel4 5;
#X obj 1498 144 delread~ mydel4 0;
#X obj 1873 137 delwrite~ mydel5 5;
#X obj 1873 158 delread~ mydel5 0;
#X obj 2186 143 delwrite~ mydel6 5;
#X obj 2186 163 delread~ mydel6 0;
#X obj 2560 156 delwrite~ mydel7 5;
#X obj 2561 177 delread~ mydel7 0;
#X obj 202 43 block~ 1;
#X connect 1 0 42 1;
#X connect 3 0 29 0;
#X connect 4 0 3 0;
#X connect 5 0 0 0;
#X connect 5 0 8 0;
#X connect 7 0 5 0;
#X connect 8 0 6 0;
#X connect 8 1 10 0;
#X connect 9 0 8 1;
#X connect 9 0 12 0;
#X connect 11 0 9 0;
#X connect 12 0 10 0;
#X connect 12 1 19 0;
#X connect 13 0 28 0;
#X connect 14 0 13 0;
#X connect 15 0 16 0;
#X connect 15 0 12 1;
#X connect 16 0 19 0;
#X connect 16 1 21 0;
#X connect 17 0 16 1;
#X connect 17 0 18 0;
#X connect 18 0 21 0;
#X connect 18 1 51 0;
#X connect 20 0 15 0;
#X connect 22 0 17 0;
#X connect 23 0 27 0;
#X connect 24 0 23 0;
#X connect 25 0 30 0;
#X connect 26 0 25 0;
#X connect 27 0 15 0;
#X connect 28 0 9 0;
#X connect 29 0 5 0;
#X connect 30 0 17 0;
#X connect 31 0 49 0;
#X connect 32 0 31 0;
#X connect 33 0 34 0;
#X connect 33 0 18 1;
#X connect 34 0 51 0;
#X connect 34 1 53 0;
#X connect 35 0 34 1;
#X connect 35 0 36 0;
#X connect 36 0 53 0;
#X connect 36 1 55 0;
#X connect 37 0 48 0;
#X connect 38 0 37 0;
#X connect 39 0 40 0;
#X connect 39 0 36 1;
#X connect 40 0 55 0;
#X connect 40 1 57 0;
#X connect 41 0 40 1;
#X connect 41 0 42 0;
#X connect 42 0 57 0;
#X connect 43 0 47 0;
#X connect 44 0 43 0;
#X connect 45 0 50 0;
#X connect 46 0 45 0;
#X connect 47 0 39 0;
#X connect 48 0 35 0;
#X connect 49 0 33 0;
#X connect 50 0 41 0;
#X connect 52 0 33 0;
#X connect 54 0 35 0;
#X connect 56 0 39 0;
#X connect 58 0 41 0;
#X restore 175 15 pd look-inside-me!;
#X obj 175 123 dac~;
#X obj 175 95 *~ 0.1;
#X obj 211 70 hsl 128 15 0 1 0 0 empty empty empty -2 -8 0 10 -262144
-1 -1 2100 1;
#X text 212 53 Volume;
#X text -24 185 Edgar Berdahl \, 5/15/10;
#X connect 2 0 4 0;
#X connect 4 0 3 0;
#X connect 4 0 3 1;
#X connect 5 0 4 1;
