#N canvas 380 17 813 720 10;
#X obj 4 76 cnv 15 60 22 empty empty empty 20 12 0 14 -253938 -66577
0;
#X msg 12 77 open 4;
#N canvas 123 312 525 433 serin 0;
#X obj 180 61 cnv 15 15 15 empty \$0-number-canvas 4 4 8 0 14 -233017
-1 0;
#X obj 200 225 s \$0-number-canvas;
#X obj 60 61 hradio 15 1 1 8 empty empty empty 0 -6 0 8 -225271 -1
-1 4;
#X obj 60 13 inlet;
#X msg 200 202 label \$1;
#X obj 200 180 makefilename %d;
#X obj 59 108 int;
#X msg 59 206 open \$1;
#X obj 59 377 outlet;
#X msg 201 306 set \$1 \$2;
#X obj 59 266 trigger bang anything;
#X obj 201 286 list;
#X obj 383 383 outlet;
#X obj 384 22 netreceive 34567;
#X obj 477 43 tgl 15 0 empty empty empty 0 -6 0 10 -262144 -1 -1 0
1;
#X obj 384 41 bng 15 250 50 0 empty empty empty 0 -6 0 10 -262144 -1
-1;
#X obj 187 24 delay 15000;
#X text 345 379 close;
#X text 209 4 for open/close automation in Makefile;
#N canvas 698 22 318 215 reset 0;
#X obj 65 24 inlet;
#X obj 66 58 bang;
#X obj 66 150 send ARDUINO_TEST_RESET;
#X msg 66 129 0;
#X msg 111 99 1;
#X obj 111 120 send ARDUINO_PINMODE_RESET;
#X connect 0 0 1 0;
#X connect 1 0 3 0;
#X connect 1 0 4 0;
#X connect 3 0 2 0;
#X connect 4 0 5 0;
#X restore 172 111 pd reset guis;
#X connect 2 0 6 0;
#X connect 2 0 19 0;
#X connect 3 0 2 0;
#X connect 4 0 1 0;
#X connect 5 0 4 0;
#X connect 6 0 5 0;
#X connect 6 0 7 0;
#X connect 7 0 10 0;
#X connect 9 0 8 0;
#X connect 10 0 8 0;
#X connect 10 1 11 0;
#X connect 11 0 9 0;
#X connect 13 0 15 0;
#X connect 13 1 14 0;
#X connect 15 0 16 0;
#X connect 15 0 12 0;
#X connect 16 0 2 0;
#X coords 0 -1 1 1 136 17 1 60 60;
#X restore 12 53 pd serin;
#X text 10 34 serial port #;
#X msg 141 76 close;
#X text 10 19 select serial port;
#N canvas 194 105 307 354 concat-two-bytes 0;
#X obj 119 16 inlet;
#X obj 78 310 outlet;
#X obj 119 48 t f b;
#X obj 166 146 spigot;
#X text 209 147 MSB;
#N canvas 594 292 249 231 conv-to-signed 0;
#X obj 12 132 spigot;
#X obj 12 36 t f f;
#X obj 116 144 expr 1-$f1;
#X obj 83 166 spigot;
#X obj 12 203 outlet;
#X obj 12 12 inlet;
#X text 70 21 Cast a 4-bit unsigned number;
#X text 70 33 as a signed number.;
#X obj 71 82 > 15;
#X obj 12 107 - 32;
#X connect 0 0 4 0;
#X connect 1 0 3 0;
#X connect 1 0 9 0;
#X connect 1 1 8 0;
#X connect 2 0 3 1;
#X connect 3 0 4 0;
#X connect 5 0 1 0;
#X connect 8 0 2 0;
#X connect 8 0 0 1;
#X connect 9 0 0 0;
#X restore 166 169 pd conv-to-signed;
#X obj 143 240 + 0;
#X obj 62 142 expr 1-$f1;
#X obj 29 165 spigot;
#X text 72 166 LSB;
#X obj 146 71 tgl 15 0 empty empty empty 17 7 0 10 -262144 -1 -1 0
1;
#X obj 209 11 inlet;
#X obj 166 192 * 128;
#X connect 0 0 2 0;
#X connect 2 0 3 0;
#X connect 2 0 8 0;
#X connect 2 1 10 0;
#X connect 3 0 5 0;
#X connect 5 0 12 0;
#X connect 6 0 1 0;
#X connect 7 0 8 1;
#X connect 8 0 6 0;
#X connect 10 0 3 1;
#X connect 10 0 7 0;
#X connect 11 0 10 0;
#X connect 12 0 6 1;
#X restore 110 300 pd concat-two-bytes;
#N canvas 362 135 306 184 separate-pos-FSR 0;
#X obj 53 20 inlet;
#X obj 53 138 outlet;
#X text 96 138 pos out;
#X obj 196 27 inlet;
#X obj 86 88 < 2;
#X obj 53 113 spigot;
#X obj 174 139 outlet;
#X obj 174 114 spigot;
#X text 217 139 FSR out;
#X obj 207 89 > 1;
#X connect 0 0 5 0;
#X connect 0 0 7 0;
#X connect 3 0 4 0;
#X connect 3 0 9 0;
#X connect 4 0 5 1;
#X connect 5 0 1 0;
#X connect 7 0 6 0;
#X connect 9 0 7 1;
#X restore 177 233 pd separate-pos-FSR;
#N canvas 145 147 322 192 downsample-for-GUI-display 0;
#X obj 264 77 inlet;
#X obj 225 113 float 0;
#X obj 225 156 outlet;
#X obj 137 70 inlet;
#X obj 98 106 float 0;
#X obj 98 149 outlet;
#X obj 10 35 tgl 15 0 empty empty empty 17 7 0 10 -262144 -1 -1 1 1
;
#X obj 10 12 loadbang;
#X obj 10 56 metro 100;
#X connect 0 0 1 1;
#X connect 1 0 2 0;
#X connect 3 0 4 1;
#X connect 4 0 5 0;
#X connect 6 0 8 0;
#X connect 7 0 6 0;
#X connect 8 0 4 0;
#X connect 8 0 1 0;
#X restore 140 364 pd downsample-for-GUI-display;
#X floatatom 140 388 10 0 0 0 - - -;
#X floatatom 312 400 5 0 0 0 - - -;
#X obj 221 279 bng 15 250 50 0 empty empty empty 17 7 0 10 -262144
-1 -1;
#N canvas 666 122 419 378 find-header 0;
#X obj 18 13 inlet;
#X obj 65 257 counter;
#X obj 115 163 loadbang;
#X obj 115 186 bng 15 250 50 0 empty empty empty 17 7 0 10 -262144
-1 -1;
#X obj 23 207 spigot;
#X obj 56 180 tgl 15 0 empty empty empty 17 7 0 10 -262144 -1 -1 1
1;
#X obj 18 35 t f f;
#X obj 65 280 sel 3;
#X msg 115 207 3;
#X msg 65 303 0;
#X obj 15 267 t f b;
#X obj 15 344 outlet;
#X obj 137 284 outlet;
#X text 217 289 FINDS HEADER AND COUNTS INDICES;
#X text 217 301 FOR DATA BYTES THEREAFTER.;
#X obj 65 102 sel 255;
#X msg 65 127 1;
#X obj 84 169 bng 15 250 50 0 empty empty empty 17 7 0 10 -262144 -1
-1;
#X obj 103 229 t f f;
#X connect 0 0 6 0;
#X connect 1 0 7 0;
#X connect 1 0 12 0;
#X connect 2 0 3 0;
#X connect 3 0 8 0;
#X connect 4 0 10 0;
#X connect 5 0 4 1;
#X connect 6 0 15 0;
#X connect 6 1 4 0;
#X connect 7 0 9 0;
#X connect 8 0 18 0;
#X connect 9 0 5 0;
#X connect 10 0 11 0;
#X connect 10 1 1 0;
#X connect 15 0 16 0;
#X connect 16 0 5 0;
#X connect 16 0 17 0;
#X connect 17 0 1 2;
#X connect 18 0 1 3;
#X connect 18 1 1 4;
#X restore 194 201 pd find-header;
#X obj 517 293 bng 15 250 50 0 empty empty empty 17 7 0 10 -262144
-1 -1;
#N canvas 194 105 307 354 concat-two-bytes-unsigned 0;
#X obj 119 16 inlet;
#X obj 78 310 outlet;
#X obj 119 48 t f b;
#X obj 166 146 spigot;
#X text 209 147 MSB;
#X obj 143 240 + 0;
#X obj 62 142 expr 1-$f1;
#X obj 29 165 spigot;
#X text 72 166 LSB;
#X obj 146 71 tgl 15 0 empty empty empty 17 7 0 10 -262144 -1 -1 0
1;
#X obj 209 11 inlet;
#X obj 166 192 * 128;
#X connect 0 0 2 0;
#X connect 2 0 3 0;
#X connect 2 0 7 0;
#X connect 2 1 9 0;
#X connect 3 0 11 0;
#X connect 5 0 1 0;
#X connect 6 0 7 1;
#X connect 7 0 5 0;
#X connect 9 0 3 1;
#X connect 9 0 6 0;
#X connect 10 0 9 0;
#X connect 11 0 5 1;
#X restore 352 313 pd concat-two-bytes-unsigned;
#X text 239 278 For debugging only ...;
#X text 536 292 For debugging only ...;
#X floatatom 198 87 5 0 0 0 - - -;
#X obj 200 0 max -127;
#X text 239 -66 This is uncalibrated in Newtons. We are mapping an
assumed;
#X text 239 -55 input range of -10N to 10N to -127 to 127;
#X obj 200 -22 min 127;
#X obj 682 521 delay 0;
#X obj 710 -144 bang;
#X msg 130 507 \$1 10;
#X obj 103 428 / 256;
#X obj 103 450 * 0.1;
#X text 142 450 Map to output range approx in "meters";
#X obj 130 529 line~;
#X obj 463 106 block~ 1;
#X obj 130 551 outlet~;
#X text 168 532 Convert to audio-rate signal for convenience of HSP
modeling;
#X obj 200 -67 / 10;
#X obj 103 474 t b f;
#X obj 200 -90 snapshot~;
#X text 673 -74 Use input from Arduino;
#X text 673 -58 to also trigger output;
#X text 673 -42 to Arduino.;
#X text 257 -12 Saturate the values;
#X obj 200 -112 inlet~;
#N canvas 145 147 322 192 downsample-for-GUI-display 0;
#X obj 264 77 inlet;
#X obj 225 113 float 0;
#X obj 225 156 outlet;
#X obj 137 70 inlet;
#X obj 98 106 float 0;
#X obj 98 149 outlet;
#X obj 10 35 tgl 15 0 empty empty empty 17 7 0 10 -262144 -1 -1 1 1
;
#X obj 10 12 loadbang;
#X obj 10 56 metro 100;
#X connect 0 0 1 1;
#X connect 1 0 2 0;
#X connect 3 0 4 1;
#X connect 4 0 5 0;
#X connect 6 0 8 0;
#X connect 7 0 6 0;
#X connect 8 0 4 0;
#X connect 8 0 1 0;
#X restore 237 32 pd downsample-for-GUI-display;
#X floatatom 241 58 5 0 0 0 - - -;
#X obj 200 -44 * -127;
#X obj 345 -101 metro 1;
#X obj 345 -143 loadbang;
#X obj 345 -121 tgl 15 0 empty empty empty 17 7 0 10 -262144 -1 -1
1 1;
#X text 649 -100 Alternative to Metro;
#X text 649 -89 would be:;
#X obj 142 132 comport \$1 9600;
#X connect 1 0 48 0;
#X connect 2 0 1 0;
#X connect 2 1 4 0;
#X connect 4 0 48 0;
#X connect 6 0 8 0;
#X connect 6 0 25 0;
#X connect 7 0 6 0;
#X connect 7 1 14 0;
#X connect 8 0 9 0;
#X connect 8 1 10 0;
#X connect 11 0 6 1;
#X connect 12 0 7 0;
#X connect 12 1 7 1;
#X connect 13 0 14 1;
#X connect 14 0 8 1;
#X connect 17 0 48 0;
#X connect 18 0 40 0;
#X connect 18 0 48 0;
#X connect 21 0 18 0;
#X connect 22 0 23 0;
#X connect 24 0 28 0;
#X connect 25 0 26 0;
#X connect 26 0 33 0;
#X connect 28 0 30 0;
#X connect 32 0 42 0;
#X connect 33 0 22 0;
#X connect 33 1 24 0;
#X connect 34 0 32 0;
#X connect 39 0 34 0;
#X connect 40 0 41 0;
#X connect 42 0 21 0;
#X connect 43 0 34 0;
#X connect 44 0 45 0;
#X connect 45 0 43 0;
#X connect 48 0 12 0;
