#N canvas 426 96 391 437 10;
#X obj 6 92 inlet~;
#X obj 75 152 -~;
#X obj 324 212 block~ 1;
#X obj 35 368 *~ -1;
#X obj 35 391 outlet~;
#X obj 75 286 +~;
#X obj 170 10 inlet;
#X msg 197 78 \$1 1;
#X obj 170 33 t b f;
#X obj 197 100 line~;
#X obj 75 237 expr~ ($v1*$v2)*($v1>0);
#X obj 210 216 + \$1;
#X obj 210 195 loadbang;
#X obj 140 364 snapshot~;
#X obj 140 409 outlet;
#X obj 197 56 * 100;
#X obj 140 387 * 100000;
#X connect 0 0 1 0;
#X connect 1 0 10 0;
#X connect 3 0 4 0;
#X connect 5 0 3 0;
#X connect 5 0 13 0;
#X connect 6 0 8 0;
#X connect 7 0 9 0;
#X connect 8 0 13 0;
#X connect 8 1 15 0;
#X connect 9 0 1 1;
#X connect 10 0 5 0;
#X connect 11 0 10 1;
#X connect 12 0 11 0;
#X connect 13 0 16 0;
#X connect 15 0 7 0;
#X connect 16 0 14 0;
