{
	"patcher" : 	{
		"fileversion" : 1,
		"rect" : [ 336.0, 439.0, 672.0, 218.0 ],
		"bglocked" : 0,
		"defrect" : [ 336.0, 439.0, 672.0, 218.0 ],
		"openrect" : [ 0.0, 0.0, 0.0, 0.0 ],
		"openinpresentation" : 0,
		"default_fontsize" : 12.0,
		"default_fontface" : 0,
		"default_fontname" : "Arial",
		"gridonopen" : 0,
		"gridsize" : [ 15.0, 15.0 ],
		"gridsnaponopen" : 0,
		"toolbarvisible" : 1,
		"boxanimatetime" : 200,
		"imprint" : 0,
		"enablehscroll" : 1,
		"enablevscroll" : 1,
		"devicewidth" : 0.0,
		"boxes" : [ 			{
				"box" : 				{
					"maxclass" : "comment",
					"text" : "Decrease contact~ stiffness for more stable performance.",
					"id" : "obj-7",
					"fontname" : "Arial",
					"numinlets" : 1,
					"numoutlets" : 0,
					"presentation_rect" : [ 363.0, 176.0, 0.0, 0.0 ],
					"fontsize" : 12.0,
					"patching_rect" : [ 335.0, 135.0, 322.0, 20.0 ]
				}

			}
, 			{
				"box" : 				{
					"maxclass" : "comment",
					"text" : "Increase contact~ stiffness to feel more string vibrations.",
					"id" : "obj-3",
					"fontname" : "Arial",
					"numinlets" : 1,
					"numoutlets" : 0,
					"fontsize" : 12.0,
					"patching_rect" : [ 335.0, 110.0, 322.0, 20.0 ]
				}

			}
, 			{
				"box" : 				{
					"maxclass" : "ezdac~",
					"id" : "obj-6",
					"numinlets" : 2,
					"numoutlets" : 0,
					"patching_rect" : [ 232.0, 163.0, 45.0, 45.0 ]
				}

			}
, 			{
				"box" : 				{
					"maxclass" : "newobj",
					"text" : "p highpass~",
					"id" : "obj-4",
					"fontname" : "Arial",
					"numinlets" : 1,
					"numoutlets" : 1,
					"fontsize" : 12.0,
					"outlettype" : [ "signal" ],
					"patching_rect" : [ 245.0, 66.0, 76.0, 20.0 ],
					"patcher" : 					{
						"fileversion" : 1,
						"rect" : [ 776.0, 261.0, 100.0, 132.0 ],
						"bglocked" : 0,
						"defrect" : [ 776.0, 261.0, 100.0, 132.0 ],
						"openrect" : [ 0.0, 0.0, 0.0, 0.0 ],
						"openinpresentation" : 0,
						"default_fontsize" : 12.0,
						"default_fontface" : 0,
						"default_fontname" : "Arial",
						"gridonopen" : 0,
						"gridsize" : [ 15.0, 15.0 ],
						"gridsnaponopen" : 0,
						"toolbarvisible" : 1,
						"boxanimatetime" : 200,
						"imprint" : 0,
						"enablehscroll" : 1,
						"enablevscroll" : 1,
						"devicewidth" : 0.0,
						"boxes" : [ 							{
								"box" : 								{
									"maxclass" : "newobj",
									"text" : "*~ 500.",
									"id" : "obj-3",
									"fontname" : "Arial",
									"numinlets" : 2,
									"numoutlets" : 1,
									"fontsize" : 12.0,
									"outlettype" : [ "signal" ],
									"patching_rect" : [ 10.0, 42.0, 49.0, 20.0 ]
								}

							}
, 							{
								"box" : 								{
									"maxclass" : "newobj",
									"text" : "p highpass~",
									"id" : "obj-9",
									"fontname" : "Arial",
									"numinlets" : 1,
									"numoutlets" : 1,
									"fontsize" : 12.0,
									"outlettype" : [ "signal" ],
									"patching_rect" : [ 10.0, 68.0, 76.0, 20.0 ],
									"patcher" : 									{
										"fileversion" : 1,
										"rect" : [ 863.0, 388.0, 226.0, 196.0 ],
										"bglocked" : 0,
										"defrect" : [ 863.0, 388.0, 226.0, 196.0 ],
										"openrect" : [ 0.0, 0.0, 0.0, 0.0 ],
										"openinpresentation" : 0,
										"default_fontsize" : 12.0,
										"default_fontface" : 0,
										"default_fontname" : "Arial",
										"gridonopen" : 0,
										"gridsize" : [ 15.0, 15.0 ],
										"gridsnaponopen" : 0,
										"toolbarvisible" : 1,
										"boxanimatetime" : 200,
										"imprint" : 0,
										"enablehscroll" : 1,
										"enablevscroll" : 1,
										"devicewidth" : 0.0,
										"boxes" : [ 											{
												"box" : 												{
													"maxclass" : "newobj",
													"text" : "-~",
													"id" : "obj-3",
													"fontname" : "Arial",
													"numinlets" : 2,
													"numoutlets" : 1,
													"fontsize" : 12.0,
													"outlettype" : [ "signal" ],
													"patching_rect" : [ 28.0, 110.0, 32.5, 20.0 ]
												}

											}
, 											{
												"box" : 												{
													"maxclass" : "outlet",
													"id" : "obj-2",
													"numinlets" : 1,
													"numoutlets" : 0,
													"patching_rect" : [ 19.0, 147.0, 25.0, 25.0 ],
													"comment" : ""
												}

											}
, 											{
												"box" : 												{
													"maxclass" : "inlet",
													"id" : "obj-1",
													"numinlets" : 0,
													"numoutlets" : 1,
													"outlettype" : [ "signal" ],
													"patching_rect" : [ 25.0, 24.0, 25.0, 25.0 ],
													"comment" : ""
												}

											}
, 											{
												"box" : 												{
													"maxclass" : "newobj",
													"text" : "onepole~ 50. Hz",
													"id" : "obj-7",
													"fontname" : "Arial",
													"numinlets" : 2,
													"numoutlets" : 1,
													"fontsize" : 12.0,
													"outlettype" : [ "signal" ],
													"patching_rect" : [ 52.0, 66.0, 98.0, 20.0 ]
												}

											}
 ],
										"lines" : [ 											{
												"patchline" : 												{
													"source" : [ "obj-7", 0 ],
													"destination" : [ "obj-3", 1 ],
													"hidden" : 0,
													"midpoints" : [  ]
												}

											}
, 											{
												"patchline" : 												{
													"source" : [ "obj-3", 0 ],
													"destination" : [ "obj-2", 0 ],
													"hidden" : 0,
													"midpoints" : [  ]
												}

											}
, 											{
												"patchline" : 												{
													"source" : [ "obj-1", 0 ],
													"destination" : [ "obj-3", 0 ],
													"hidden" : 0,
													"midpoints" : [  ]
												}

											}
, 											{
												"patchline" : 												{
													"source" : [ "obj-1", 0 ],
													"destination" : [ "obj-7", 0 ],
													"hidden" : 0,
													"midpoints" : [  ]
												}

											}
 ]
									}
,
									"saved_object_attributes" : 									{
										"default_fontface" : 0,
										"fontname" : "Arial",
										"default_fontname" : "Arial",
										"globalpatchername" : "",
										"default_fontsize" : 12.0,
										"fontface" : 0,
										"fontsize" : 12.0
									}

								}

							}
, 							{
								"box" : 								{
									"maxclass" : "outlet",
									"id" : "obj-2",
									"numinlets" : 1,
									"numoutlets" : 0,
									"patching_rect" : [ 10.0, 94.0, 25.0, 25.0 ],
									"comment" : ""
								}

							}
, 							{
								"box" : 								{
									"maxclass" : "inlet",
									"id" : "obj-1",
									"numinlets" : 0,
									"numoutlets" : 1,
									"outlettype" : [ "signal" ],
									"patching_rect" : [ 10.0, 12.0, 25.0, 25.0 ],
									"comment" : ""
								}

							}
 ],
						"lines" : [ 							{
								"patchline" : 								{
									"source" : [ "obj-1", 0 ],
									"destination" : [ "obj-3", 0 ],
									"hidden" : 0,
									"midpoints" : [  ]
								}

							}
, 							{
								"patchline" : 								{
									"source" : [ "obj-3", 0 ],
									"destination" : [ "obj-9", 0 ],
									"hidden" : 0,
									"midpoints" : [  ]
								}

							}
, 							{
								"patchline" : 								{
									"source" : [ "obj-9", 0 ],
									"destination" : [ "obj-2", 0 ],
									"hidden" : 0,
									"midpoints" : [  ]
								}

							}
 ]
					}
,
					"saved_object_attributes" : 					{
						"default_fontface" : 0,
						"fontname" : "Arial",
						"default_fontname" : "Arial",
						"globalpatchername" : "",
						"default_fontsize" : 12.0,
						"fontface" : 0,
						"fontsize" : 12.0
					}

				}

			}
, 			{
				"box" : 				{
					"maxclass" : "newobj",
					"text" : "contact~ c 3000. 1.5 0.",
					"id" : "obj-17",
					"fontname" : "Arial",
					"numinlets" : 2,
					"numoutlets" : 2,
					"fontsize" : 12.0,
					"outlettype" : [ "signal", "signal" ],
					"color" : [ 0.278431, 0.921569, 0.639216, 1.0 ],
					"patching_rect" : [ 360.0, 23.0, 132.0, 20.0 ]
				}

			}
, 			{
				"box" : 				{
					"maxclass" : "newobj",
					"text" : "Falcon-SI 0",
					"id" : "obj-5",
					"fontname" : "Arial",
					"numinlets" : 4,
					"numoutlets" : 4,
					"fontsize" : 12.0,
					"outlettype" : [ "signal", "signal", "signal", "list" ],
					"color" : [ 0.960784, 0.439216, 0.478431, 1.0 ],
					"patching_rect" : [ 528.0, 23.0, 72.0, 20.0 ]
				}

			}
, 			{
				"box" : 				{
					"maxclass" : "newobj",
					"text" : "link~ l 4000. 0.0002",
					"id" : "obj-22",
					"fontname" : "Arial",
					"numinlets" : 2,
					"numoutlets" : 2,
					"fontsize" : 12.0,
					"outlettype" : [ "signal", "signal" ],
					"color" : [ 0.278431, 0.921569, 0.639216, 1.0 ],
					"patching_rect" : [ 95.0, 23.0, 115.0, 20.0 ]
				}

			}
, 			{
				"box" : 				{
					"maxclass" : "gain~",
					"id" : "obj-14",
					"numinlets" : 2,
					"numoutlets" : 2,
					"outlettype" : [ "signal", "int" ],
					"patching_rect" : [ 245.0, 90.0, 42.0, 67.0 ]
				}

			}
, 			{
				"box" : 				{
					"maxclass" : "newobj",
					"text" : "grnd~ g 0.",
					"id" : "obj-13",
					"fontname" : "Arial",
					"numinlets" : 1,
					"numoutlets" : 1,
					"fontsize" : 12.0,
					"outlettype" : [ "signal" ],
					"color" : [ 0.960784, 0.439216, 0.478431, 1.0 ],
					"patching_rect" : [ 7.0, 24.0, 65.0, 20.0 ]
				}

			}
, 			{
				"box" : 				{
					"maxclass" : "newobj",
					"text" : "mass~ m 0.05",
					"id" : "obj-1",
					"fontname" : "Arial",
					"numinlets" : 1,
					"numoutlets" : 1,
					"fontsize" : 12.0,
					"outlettype" : [ "signal" ],
					"color" : [ 0.960784, 0.439216, 0.478431, 1.0 ],
					"patching_rect" : [ 245.0, 23.0, 86.0, 20.0 ]
				}

			}
 ],
		"lines" : [ 			{
				"patchline" : 				{
					"source" : [ "obj-17", 0 ],
					"destination" : [ "obj-1", 0 ],
					"hidden" : 0,
					"midpoints" : [ 369.5, 51.0, 354.0, 51.0, 354.0, 18.0, 254.5, 18.0 ]
				}

			}
, 			{
				"patchline" : 				{
					"source" : [ "obj-1", 0 ],
					"destination" : [ "obj-17", 0 ],
					"hidden" : 0,
					"midpoints" : [ 254.5, 50.0, 340.0, 50.0, 340.0, 10.0, 369.5, 10.0 ]
				}

			}
, 			{
				"patchline" : 				{
					"source" : [ "obj-14", 0 ],
					"destination" : [ "obj-6", 1 ],
					"hidden" : 0,
					"midpoints" : [  ]
				}

			}
, 			{
				"patchline" : 				{
					"source" : [ "obj-14", 0 ],
					"destination" : [ "obj-6", 0 ],
					"hidden" : 0,
					"midpoints" : [  ]
				}

			}
, 			{
				"patchline" : 				{
					"source" : [ "obj-4", 0 ],
					"destination" : [ "obj-14", 0 ],
					"hidden" : 0,
					"midpoints" : [  ]
				}

			}
, 			{
				"patchline" : 				{
					"source" : [ "obj-1", 0 ],
					"destination" : [ "obj-4", 0 ],
					"hidden" : 0,
					"midpoints" : [  ]
				}

			}
, 			{
				"patchline" : 				{
					"source" : [ "obj-22", 1 ],
					"destination" : [ "obj-1", 0 ],
					"hidden" : 0,
					"midpoints" : [  ]
				}

			}
, 			{
				"patchline" : 				{
					"source" : [ "obj-1", 0 ],
					"destination" : [ "obj-22", 1 ],
					"hidden" : 0,
					"midpoints" : [  ]
				}

			}
, 			{
				"patchline" : 				{
					"source" : [ "obj-22", 0 ],
					"destination" : [ "obj-13", 0 ],
					"hidden" : 0,
					"midpoints" : [ 104.5, 50.0, 90.0, 50.0, 90.0, 17.0, 16.5, 17.0 ]
				}

			}
, 			{
				"patchline" : 				{
					"source" : [ "obj-13", 0 ],
					"destination" : [ "obj-22", 0 ],
					"hidden" : 0,
					"midpoints" : [ 16.5, 50.0, 81.0, 50.0, 81.0, 10.0, 104.5, 10.0 ]
				}

			}
, 			{
				"patchline" : 				{
					"source" : [ "obj-17", 1 ],
					"destination" : [ "obj-5", 1 ],
					"hidden" : 0,
					"midpoints" : [ 482.5, 49.0, 506.0, 49.0, 506.0, 8.0, 555.166687, 8.0 ]
				}

			}
, 			{
				"patchline" : 				{
					"source" : [ "obj-5", 1 ],
					"destination" : [ "obj-17", 1 ],
					"hidden" : 0,
					"midpoints" : [ 555.166687, 49.0, 519.0, 49.0, 519.0, 16.0, 482.5, 16.0 ]
				}

			}
 ]
	}

}
