{
	"patcher" : 	{
		"fileversion" : 1,
		"appversion" : 		{
			"major" : 6,
			"minor" : 1,
			"revision" : 3,
			"architecture" : "x86"
		}
,
		"rect" : [ 56.0, 81.0, 829.0, 481.0 ],
		"bglocked" : 0,
		"openinpresentation" : 0,
		"default_fontsize" : 12.0,
		"default_fontface" : 0,
		"default_fontname" : "Arial",
		"gridonopen" : 0,
		"gridsize" : [ 15.0, 15.0 ],
		"gridsnaponopen" : 0,
		"statusbarvisible" : 2,
		"toolbarvisible" : 1,
		"boxanimatetime" : 200,
		"imprint" : 0,
		"enablehscroll" : 1,
		"enablevscroll" : 1,
		"devicewidth" : 0.0,
		"description" : "",
		"digest" : "",
		"tags" : "",
		"boxes" : [ 			{
				"box" : 				{
					"fontname" : "Arial",
					"fontsize" : 24.0,
					"id" : "obj-5",
					"maxclass" : "message",
					"numinlets" : 2,
					"numoutlets" : 1,
					"outlettype" : [ "" ],
					"patching_rect" : [ 303.0, 289.0, 193.0, 31.0 ],
					"presentation_rect" : [ 324.0, 288.0, 0.0, 0.0 ],
					"text" : "0.01 0.8 0.03 1.5"
				}

			}
, 			{
				"box" : 				{
					"fontname" : "Arial",
					"fontsize" : 18.0,
					"frgb" : 0.0,
					"id" : "obj-4",
					"maxclass" : "comment",
					"numinlets" : 1,
					"numoutlets" : 0,
					"patching_rect" : [ 7.0, 450.0, 777.0, 27.0 ],
					"presentation_rect" : [ 60.5, 454.0, 0.0, 0.0 ],
					"text" : "The position of each contact-detent~ is adjusted by the position of the grnd~ connected to it."
				}

			}
, 			{
				"box" : 				{
					"fontname" : "Arial",
					"fontsize" : 18.0,
					"frgb" : 0.0,
					"id" : "obj-21",
					"maxclass" : "comment",
					"numinlets" : 1,
					"numoutlets" : 0,
					"patching_rect" : [ 263.0, 5.0, 341.0, 27.0 ],
					"text" : "3 detents and how to connect them ..."
				}

			}
, 			{
				"box" : 				{
					"fontname" : "Arial",
					"fontsize" : 18.0,
					"frgb" : 0.0,
					"id" : "obj-20",
					"maxclass" : "comment",
					"numinlets" : 1,
					"numoutlets" : 0,
					"patching_rect" : [ 7.0, 241.0, 163.0, 27.0 ],
					"text" : "Fader position [m]"
				}

			}
, 			{
				"box" : 				{
					"color" : [ 0.94233, 0.0, 0.060032, 1.0 ],
					"fontname" : "Arial",
					"fontsize" : 24.0,
					"id" : "obj-19",
					"maxclass" : "newobj",
					"numinlets" : 1,
					"numoutlets" : 1,
					"outlettype" : [ "signal" ],
					"patching_rect" : [ 644.0, 152.0, 133.0, 33.0 ],
					"text" : "grnd~ g2 0."
				}

			}
, 			{
				"box" : 				{
					"color" : [ 0.94233, 0.0, 0.060032, 1.0 ],
					"fontname" : "Arial",
					"fontsize" : 24.0,
					"id" : "obj-18",
					"maxclass" : "newobj",
					"numinlets" : 1,
					"numoutlets" : 1,
					"outlettype" : [ "signal" ],
					"patching_rect" : [ 644.0, 231.0, 181.0, 33.0 ],
					"text" : "grnd~ g3 -0.025"
				}

			}
, 			{
				"box" : 				{
					"fontname" : "Arial",
					"fontsize" : 18.0,
					"frgb" : 0.0,
					"id" : "obj-17",
					"maxclass" : "comment",
					"numinlets" : 1,
					"numoutlets" : 0,
					"patching_rect" : [ 40.0, 338.0, 234.0, 27.0 ],
					"text" : "Change detent parameters:"
				}

			}
, 			{
				"box" : 				{
					"color" : [ 0.94233, 0.0, 0.060032, 1.0 ],
					"fontname" : "Arial",
					"fontsize" : 24.0,
					"id" : "obj-10",
					"maxclass" : "newobj",
					"numinlets" : 1,
					"numoutlets" : 1,
					"outlettype" : [ "signal" ],
					"patching_rect" : [ 644.0, 75.0, 173.0, 33.0 ],
					"text" : "grnd~ g1 0.025"
				}

			}
, 			{
				"box" : 				{
					"fontname" : "Arial",
					"fontsize" : 24.0,
					"id" : "obj-13",
					"maxclass" : "message",
					"numinlets" : 2,
					"numoutlets" : 1,
					"outlettype" : [ "" ],
					"patching_rect" : [ 40.0, 365.0, 219.0, 31.0 ],
					"text" : "0.005 0.8 0.001 1.5"
				}

			}
, 			{
				"box" : 				{
					"fontname" : "Arial",
					"fontsize" : 24.0,
					"id" : "obj-12",
					"maxclass" : "message",
					"numinlets" : 2,
					"numoutlets" : 1,
					"outlettype" : [ "" ],
					"patching_rect" : [ 271.0, 365.0, 171.0, 31.0 ],
					"text" : "0.01 1 0.02 1.5"
				}

			}
, 			{
				"box" : 				{
					"fontname" : "Arial",
					"fontsize" : 24.0,
					"id" : "obj-11",
					"maxclass" : "message",
					"numinlets" : 2,
					"numoutlets" : 1,
					"outlettype" : [ "" ],
					"patching_rect" : [ 474.0, 365.0, 179.0, 31.0 ],
					"text" : "0.01 1.1 0.1 1.5"
				}

			}
, 			{
				"box" : 				{
					"fontname" : "Arial",
					"fontsize" : 24.0,
					"id" : "obj-9",
					"maxclass" : "newobj",
					"numinlets" : 1,
					"numoutlets" : 0,
					"patching_rect" : [ 271.0, 409.0, 45.0, 33.0 ],
					"text" : "s d"
				}

			}
, 			{
				"box" : 				{
					"color" : [ 0.13209, 0.933774, 0.067458, 1.0 ],
					"fontname" : "Arial",
					"fontsize" : 24.0,
					"id" : "obj-8",
					"maxclass" : "newobj",
					"numinlets" : 2,
					"numoutlets" : 2,
					"outlettype" : [ "signal", "signal" ],
					"patching_rect" : [ 232.0, 231.0, 383.0, 33.0 ],
					"text" : "contact-detent~ d 0.01 0.8 0.03 1.5"
				}

			}
, 			{
				"box" : 				{
					"color" : [ 0.13209, 0.933774, 0.067458, 1.0 ],
					"fontname" : "Arial",
					"fontsize" : 24.0,
					"id" : "obj-3",
					"maxclass" : "newobj",
					"numinlets" : 2,
					"numoutlets" : 2,
					"outlettype" : [ "signal", "signal" ],
					"patching_rect" : [ 232.0, 75.0, 383.0, 33.0 ],
					"text" : "contact-detent~ d 0.01 0.8 0.03 1.5"
				}

			}
, 			{
				"box" : 				{
					"color" : [ 0.13209, 0.933774, 0.067458, 1.0 ],
					"fontname" : "Arial",
					"fontsize" : 24.0,
					"id" : "obj-6",
					"maxclass" : "newobj",
					"numinlets" : 2,
					"numoutlets" : 2,
					"outlettype" : [ "signal", "signal" ],
					"patching_rect" : [ 232.0, 152.0, 383.0, 33.0 ],
					"text" : "contact-detent~ d 0.01 0.8 0.03 1.5"
				}

			}
, 			{
				"box" : 				{
					"fontname" : "Arial",
					"fontsize" : 24.0,
					"id" : "obj-2",
					"maxclass" : "number~",
					"mode" : 2,
					"numinlets" : 2,
					"numoutlets" : 2,
					"outlettype" : [ "signal", "float" ],
					"patching_rect" : [ 40.0, 208.0, 97.0, 33.0 ],
					"sig" : 0.0
				}

			}
, 			{
				"box" : 				{
					"color" : [ 0.94233, 0.0, 0.060032, 1.0 ],
					"fontname" : "Arial",
					"fontsize" : 24.0,
					"id" : "obj-1",
					"maxclass" : "newobj",
					"numinlets" : 2,
					"numoutlets" : 2,
					"outlettype" : [ "signal", "signal" ],
					"patching_rect" : [ 40.0, 152.0, 131.0, 33.0 ],
					"text" : "FireFader~"
				}

			}
 ],
		"lines" : [ 			{
				"patchline" : 				{
					"destination" : [ "obj-2", 0 ],
					"disabled" : 0,
					"hidden" : 0,
					"source" : [ "obj-1", 0 ]
				}

			}
, 			{
				"patchline" : 				{
					"destination" : [ "obj-3", 0 ],
					"disabled" : 0,
					"hidden" : 0,
					"midpoints" : [ 49.5, 195.0, 27.0, 195.0, 27.0, 62.0, 241.5, 62.0 ],
					"source" : [ "obj-1", 0 ]
				}

			}
, 			{
				"patchline" : 				{
					"destination" : [ "obj-6", 0 ],
					"disabled" : 0,
					"hidden" : 0,
					"midpoints" : [ 49.5, 195.0, 28.0, 195.0, 28.0, 63.0, 222.0, 63.0, 222.0, 142.0, 241.5, 142.0 ],
					"source" : [ "obj-1", 0 ]
				}

			}
, 			{
				"patchline" : 				{
					"destination" : [ "obj-8", 0 ],
					"disabled" : 0,
					"hidden" : 0,
					"midpoints" : [ 49.5, 194.0, 27.0, 194.0, 27.0, 62.0, 222.0, 62.0, 222.0, 221.0, 241.5, 221.0 ],
					"source" : [ "obj-1", 0 ]
				}

			}
, 			{
				"patchline" : 				{
					"destination" : [ "obj-3", 1 ],
					"disabled" : 0,
					"hidden" : 0,
					"source" : [ "obj-10", 0 ]
				}

			}
, 			{
				"patchline" : 				{
					"destination" : [ "obj-9", 0 ],
					"disabled" : 0,
					"hidden" : 0,
					"source" : [ "obj-11", 0 ]
				}

			}
, 			{
				"patchline" : 				{
					"destination" : [ "obj-9", 0 ],
					"disabled" : 0,
					"hidden" : 0,
					"source" : [ "obj-12", 0 ]
				}

			}
, 			{
				"patchline" : 				{
					"destination" : [ "obj-9", 0 ],
					"disabled" : 0,
					"hidden" : 0,
					"source" : [ "obj-13", 0 ]
				}

			}
, 			{
				"patchline" : 				{
					"destination" : [ "obj-8", 1 ],
					"disabled" : 0,
					"hidden" : 0,
					"source" : [ "obj-18", 0 ]
				}

			}
, 			{
				"patchline" : 				{
					"destination" : [ "obj-6", 1 ],
					"disabled" : 0,
					"hidden" : 0,
					"source" : [ "obj-19", 0 ]
				}

			}
, 			{
				"patchline" : 				{
					"destination" : [ "obj-1", 0 ],
					"disabled" : 0,
					"hidden" : 0,
					"midpoints" : [ 241.5, 117.0, 49.5, 117.0 ],
					"source" : [ "obj-3", 0 ]
				}

			}
, 			{
				"patchline" : 				{
					"destination" : [ "obj-10", 0 ],
					"disabled" : 0,
					"hidden" : 0,
					"source" : [ "obj-3", 1 ]
				}

			}
, 			{
				"patchline" : 				{
					"destination" : [ "obj-1", 0 ],
					"disabled" : 0,
					"hidden" : 0,
					"midpoints" : [ 241.5, 192.0, 182.0, 192.0, 182.0, 116.0, 49.5, 116.0 ],
					"source" : [ "obj-6", 0 ]
				}

			}
, 			{
				"patchline" : 				{
					"destination" : [ "obj-19", 0 ],
					"disabled" : 0,
					"hidden" : 0,
					"source" : [ "obj-6", 1 ]
				}

			}
, 			{
				"patchline" : 				{
					"destination" : [ "obj-1", 0 ],
					"disabled" : 0,
					"hidden" : 0,
					"midpoints" : [ 241.5, 273.0, 182.0, 273.0, 182.0, 117.0, 49.5, 117.0 ],
					"source" : [ "obj-8", 0 ]
				}

			}
, 			{
				"patchline" : 				{
					"destination" : [ "obj-18", 0 ],
					"disabled" : 0,
					"hidden" : 0,
					"source" : [ "obj-8", 1 ]
				}

			}
 ],
		"dependency_cache" : [ 			{
				"name" : "FireFader~.maxpat",
				"bootpath" : "/Users/eberdahl/Documents/gits/Open-Source-Haptics-For-Artists/Software/Max/palette",
				"patcherrelativepath" : "../palette",
				"type" : "JSON",
				"implicit" : 1
			}
, 			{
				"name" : "contact-detent~.maxpat",
				"bootpath" : "/Users/eberdahl/Documents/gits/Open-Source-Haptics-For-Artists/Software/Max/palette/CA",
				"patcherrelativepath" : "../palette/CA",
				"type" : "JSON",
				"implicit" : 1
			}
, 			{
				"name" : "grnd~.maxpat",
				"bootpath" : "/Users/eberdahl/Documents/gits/Open-Source-Haptics-For-Artists/Software/Max/palette/CA",
				"patcherrelativepath" : "../palette/CA",
				"type" : "JSON",
				"implicit" : 1
			}
 ]
	}

}
