{
	"patcher" : 	{
		"fileversion" : 1,
		"rect" : [ 270.0, 154.0, 904.0, 545.0 ],
		"bglocked" : 0,
		"defrect" : [ 270.0, 154.0, 904.0, 545.0 ],
		"openrect" : [ 0.0, 0.0, 0.0, 0.0 ],
		"openinpresentation" : 0,
		"default_fontsize" : 12.0,
		"default_fontface" : 0,
		"default_fontname" : "Arial",
		"gridonopen" : 0,
		"gridsize" : [ 15.0, 15.0 ],
		"gridsnaponopen" : 0,
		"toolbarvisible" : 1,
		"boxanimatetime" : 200,
		"imprint" : 0,
		"enablehscroll" : 1,
		"enablevscroll" : 1,
		"devicewidth" : 0.0,
		"boxes" : [ 			{
				"box" : 				{
					"maxclass" : "message",
					"text" : "/note /s1 57.8, /note /s2 59.75, /note /s3 61.75",
					"linecount" : 2,
					"fontsize" : 12.0,
					"numinlets" : 2,
					"numoutlets" : 1,
					"presentation_rect" : [ 662.0, 278.0, 0.0, 0.0 ],
					"outlettype" : [ "" ],
					"fontname" : "Arial",
					"patching_rect" : [ 662.0, 278.0, 225.0, 32.0 ],
					"id" : "obj-39"
				}

			}
, 			{
				"box" : 				{
					"maxclass" : "message",
					"text" : "/note /s1 57.8, /note /s2 57.8, /note /s3 57.8",
					"fontsize" : 12.0,
					"numinlets" : 2,
					"numoutlets" : 1,
					"presentation_rect" : [ 645.0, 357.0, 0.0, 0.0 ],
					"outlettype" : [ "" ],
					"fontname" : "Arial",
					"patching_rect" : [ 645.0, 357.0, 242.0, 18.0 ],
					"id" : "obj-37"
				}

			}
, 			{
				"box" : 				{
					"maxclass" : "message",
					"text" : "/note /s1 61.75, /note /s2 61.75, /note /s3 61.75",
					"fontsize" : 12.0,
					"numinlets" : 2,
					"numoutlets" : 1,
					"presentation_rect" : [ 636.0, 323.0, 0.0, 0.0 ],
					"outlettype" : [ "" ],
					"fontname" : "Arial",
					"patching_rect" : [ 649.0, 317.0, 262.0, 18.0 ],
					"id" : "obj-35"
				}

			}
, 			{
				"box" : 				{
					"maxclass" : "message",
					"text" : "/note /s1 59.75, /note /s2 59.75, /note /s3 59.75",
					"fontsize" : 12.0,
					"numinlets" : 2,
					"numoutlets" : 1,
					"presentation_rect" : [ 632.0, 353.0, 0.0, 0.0 ],
					"outlettype" : [ "" ],
					"fontname" : "Arial",
					"patching_rect" : [ 645.0, 338.0, 262.0, 18.0 ],
					"id" : "obj-32"
				}

			}
, 			{
				"box" : 				{
					"maxclass" : "message",
					"text" : "/note /s1 33.75, /note /s2 40.75, /note /s3 47.75",
					"fontsize" : 12.0,
					"numinlets" : 2,
					"numoutlets" : 1,
					"presentation_rect" : [ 582.0, 495.0, 0.0, 0.0 ],
					"outlettype" : [ "" ],
					"fontname" : "Arial",
					"patching_rect" : [ 582.0, 495.0, 262.0, 18.0 ],
					"id" : "obj-31"
				}

			}
, 			{
				"box" : 				{
					"maxclass" : "message",
					"text" : "/note /s1 45.75, /note /s2 52.75, /note /s3 45.75",
					"fontsize" : 12.0,
					"numinlets" : 2,
					"numoutlets" : 1,
					"presentation_rect" : [ 598.0, 439.0, 0.0, 0.0 ],
					"outlettype" : [ "" ],
					"fontname" : "Arial",
					"patching_rect" : [ 598.0, 439.0, 262.0, 18.0 ],
					"id" : "obj-30"
				}

			}
, 			{
				"box" : 				{
					"maxclass" : "message",
					"text" : "/note /s1 33.75, /note /s2 40.75, /note /s3 45.75",
					"fontsize" : 12.0,
					"numinlets" : 2,
					"numoutlets" : 1,
					"presentation_rect" : [ 594.0, 438.0, 0.0, 0.0 ],
					"outlettype" : [ "" ],
					"fontname" : "Arial",
					"patching_rect" : [ 588.0, 470.0, 262.0, 18.0 ],
					"id" : "obj-24"
				}

			}
, 			{
				"box" : 				{
					"maxclass" : "message",
					"text" : "/note /s1 45.75, /note /s2 45.75, /note /s3 45.75",
					"fontsize" : 12.0,
					"numinlets" : 2,
					"numoutlets" : 1,
					"presentation_rect" : [ 602.0, 410.0, 0.0, 0.0 ],
					"outlettype" : [ "" ],
					"fontname" : "Arial",
					"patching_rect" : [ 602.0, 410.0, 262.0, 18.0 ],
					"id" : "obj-10"
				}

			}
, 			{
				"box" : 				{
					"maxclass" : "message",
					"text" : "/note /s1 45.75, /note /s2 10, /note /s3 10",
					"fontsize" : 12.0,
					"numinlets" : 2,
					"numoutlets" : 1,
					"presentation_rect" : [ 602.0, 380.0, 0.0, 0.0 ],
					"outlettype" : [ "" ],
					"fontname" : "Arial",
					"patching_rect" : [ 602.0, 380.0, 229.0, 18.0 ],
					"id" : "obj-8"
				}

			}
, 			{
				"box" : 				{
					"maxclass" : "newobj",
					"text" : "p handle-MIDI",
					"fontsize" : 12.0,
					"numinlets" : 0,
					"numoutlets" : 0,
					"fontname" : "Arial",
					"patching_rect" : [ 377.0, 427.0, 86.0, 20.0 ],
					"id" : "obj-5",
					"patcher" : 					{
						"fileversion" : 1,
						"rect" : [ 107.0, 171.0, 883.0, 608.0 ],
						"bglocked" : 0,
						"defrect" : [ 107.0, 171.0, 883.0, 608.0 ],
						"openrect" : [ 0.0, 0.0, 0.0, 0.0 ],
						"openinpresentation" : 0,
						"default_fontsize" : 12.0,
						"default_fontface" : 0,
						"default_fontname" : "Arial",
						"gridonopen" : 0,
						"gridsize" : [ 15.0, 15.0 ],
						"gridsnaponopen" : 0,
						"toolbarvisible" : 1,
						"boxanimatetime" : 200,
						"imprint" : 0,
						"enablehscroll" : 1,
						"enablevscroll" : 1,
						"devicewidth" : 0.0,
						"boxes" : [ 							{
								"box" : 								{
									"maxclass" : "message",
									"text" : "/note /s3 $1",
									"fontsize" : 12.0,
									"numinlets" : 2,
									"numoutlets" : 1,
									"outlettype" : [ "" ],
									"fontname" : "Arial",
									"patching_rect" : [ 633.0, 319.0, 73.0, 18.0 ],
									"id" : "obj-10"
								}

							}
, 							{
								"box" : 								{
									"maxclass" : "message",
									"text" : "/note /s2 $1",
									"fontsize" : 12.0,
									"numinlets" : 2,
									"numoutlets" : 1,
									"outlettype" : [ "" ],
									"fontname" : "Arial",
									"patching_rect" : [ 515.0, 311.0, 73.0, 18.0 ],
									"id" : "obj-9"
								}

							}
, 							{
								"box" : 								{
									"maxclass" : "message",
									"text" : "/note /s1 $1",
									"fontsize" : 12.0,
									"numinlets" : 2,
									"numoutlets" : 1,
									"outlettype" : [ "" ],
									"fontname" : "Arial",
									"patching_rect" : [ 364.0, 308.0, 73.0, 18.0 ],
									"id" : "obj-8"
								}

							}
, 							{
								"box" : 								{
									"maxclass" : "newobj",
									"text" : "s mess-in",
									"fontsize" : 12.0,
									"numinlets" : 1,
									"numoutlets" : 0,
									"fontname" : "Arial",
									"patching_rect" : [ 495.0, 375.0, 62.0, 20.0 ],
									"id" : "obj-6"
								}

							}
, 							{
								"box" : 								{
									"maxclass" : "newobj",
									"text" : "p synth-one",
									"fontsize" : 12.0,
									"numinlets" : 2,
									"numoutlets" : 2,
									"outlettype" : [ "", "" ],
									"fontname" : "Arial",
									"patching_rect" : [ 135.0, 420.0, 73.0, 20.0 ],
									"id" : "obj-4",
									"patcher" : 									{
										"fileversion" : 1,
										"rect" : [ 535.0, 290.0, 517.0, 338.0 ],
										"bglocked" : 0,
										"defrect" : [ 535.0, 290.0, 517.0, 338.0 ],
										"openrect" : [ 0.0, 0.0, 0.0, 0.0 ],
										"openinpresentation" : 0,
										"default_fontsize" : 12.0,
										"default_fontface" : 0,
										"default_fontname" : "Arial",
										"gridonopen" : 0,
										"gridsize" : [ 15.0, 15.0 ],
										"gridsnaponopen" : 0,
										"toolbarvisible" : 1,
										"boxanimatetime" : 200,
										"imprint" : 0,
										"enablehscroll" : 1,
										"enablevscroll" : 1,
										"devicewidth" : 0.0,
										"boxes" : [ 											{
												"box" : 												{
													"maxclass" : "newobj",
													"text" : "t i i",
													"fontsize" : 12.0,
													"numinlets" : 1,
													"numoutlets" : 2,
													"outlettype" : [ "int", "int" ],
													"fontname" : "Arial",
													"patching_rect" : [ 277.0, 40.0, 32.5, 20.0 ],
													"id" : "obj-5"
												}

											}
, 											{
												"box" : 												{
													"maxclass" : "toggle",
													"numinlets" : 1,
													"numoutlets" : 1,
													"outlettype" : [ "int" ],
													"patching_rect" : [ 262.0, 236.0, 20.0, 20.0 ],
													"id" : "obj-17"
												}

											}
, 											{
												"box" : 												{
													"maxclass" : "toggle",
													"numinlets" : 1,
													"numoutlets" : 1,
													"outlettype" : [ "int" ],
													"patching_rect" : [ 2.0, 219.0, 20.0, 20.0 ],
													"id" : "obj-12"
												}

											}
, 											{
												"box" : 												{
													"maxclass" : "toggle",
													"numinlets" : 1,
													"numoutlets" : 1,
													"outlettype" : [ "int" ],
													"patching_rect" : [ 344.0, 126.0, 20.0, 20.0 ],
													"id" : "obj-8"
												}

											}
, 											{
												"box" : 												{
													"maxclass" : "newobj",
													"text" : "loadbang",
													"fontsize" : 12.0,
													"numinlets" : 1,
													"numoutlets" : 1,
													"outlettype" : [ "bang" ],
													"fontname" : "Arial",
													"patching_rect" : [ 114.0, 47.0, 60.0, 20.0 ],
													"id" : "obj-2"
												}

											}
, 											{
												"box" : 												{
													"maxclass" : "message",
													"text" : "0",
													"fontsize" : 12.0,
													"numinlets" : 2,
													"numoutlets" : 1,
													"outlettype" : [ "" ],
													"fontname" : "Arial",
													"patching_rect" : [ 141.0, 183.0, 32.5, 18.0 ],
													"id" : "obj-40"
												}

											}
, 											{
												"box" : 												{
													"maxclass" : "comment",
													"text" : "If not in use, turn on",
													"fontsize" : 12.0,
													"numinlets" : 1,
													"numoutlets" : 0,
													"fontname" : "Arial",
													"patching_rect" : [ 382.0, 148.0, 123.0, 20.0 ],
													"id" : "obj-35"
												}

											}
, 											{
												"box" : 												{
													"maxclass" : "newobj",
													"text" : "== 0",
													"fontsize" : 12.0,
													"numinlets" : 2,
													"numoutlets" : 1,
													"outlettype" : [ "int" ],
													"fontname" : "Arial",
													"patching_rect" : [ 344.0, 102.0, 37.0, 20.0 ],
													"id" : "obj-36"
												}

											}
, 											{
												"box" : 												{
													"maxclass" : "newobj",
													"text" : "gate",
													"fontsize" : 12.0,
													"numinlets" : 2,
													"numoutlets" : 1,
													"outlettype" : [ "" ],
													"fontname" : "Arial",
													"patching_rect" : [ 344.0, 149.0, 36.0, 20.0 ],
													"id" : "obj-37"
												}

											}
, 											{
												"box" : 												{
													"maxclass" : "comment",
													"text" : "Pitch on messages",
													"fontsize" : 12.0,
													"numinlets" : 1,
													"numoutlets" : 0,
													"fontname" : "Arial",
													"patching_rect" : [ 304.0, 14.0, 121.0, 20.0 ],
													"id" : "obj-34"
												}

											}
, 											{
												"box" : 												{
													"maxclass" : "comment",
													"text" : "Pitch off messages",
													"fontsize" : 12.0,
													"numinlets" : 1,
													"numoutlets" : 0,
													"fontname" : "Arial",
													"patching_rect" : [ 42.0, 18.0, 119.0, 20.0 ],
													"id" : "obj-33"
												}

											}
, 											{
												"box" : 												{
													"maxclass" : "message",
													"text" : "0",
													"fontsize" : 12.0,
													"numinlets" : 2,
													"numoutlets" : 1,
													"outlettype" : [ "" ],
													"fontname" : "Arial",
													"patching_rect" : [ 100.0, 182.0, 32.5, 18.0 ],
													"id" : "obj-31"
												}

											}
, 											{
												"box" : 												{
													"maxclass" : "newobj",
													"text" : "sel 1",
													"fontsize" : 12.0,
													"numinlets" : 2,
													"numoutlets" : 2,
													"outlettype" : [ "bang", "" ],
													"fontname" : "Arial",
													"patching_rect" : [ 100.0, 158.0, 36.0, 20.0 ],
													"id" : "obj-29"
												}

											}
, 											{
												"box" : 												{
													"maxclass" : "comment",
													"text" : "If should turn off this pitch, then do so",
													"linecount" : 2,
													"fontsize" : 12.0,
													"numinlets" : 1,
													"numoutlets" : 0,
													"fontname" : "Arial",
													"patching_rect" : [ 136.0, 125.0, 123.0, 34.0 ],
													"id" : "obj-26"
												}

											}
, 											{
												"box" : 												{
													"maxclass" : "newobj",
													"text" : "t f f f",
													"fontsize" : 12.0,
													"numinlets" : 1,
													"numoutlets" : 3,
													"outlettype" : [ "float", "float", "float" ],
													"fontname" : "Arial",
													"patching_rect" : [ 16.0, 46.0, 46.0, 20.0 ],
													"id" : "obj-24"
												}

											}
, 											{
												"box" : 												{
													"maxclass" : "newobj",
													"text" : "==",
													"fontsize" : 12.0,
													"numinlets" : 2,
													"numoutlets" : 1,
													"outlettype" : [ "int" ],
													"fontname" : "Arial",
													"patching_rect" : [ 100.0, 134.0, 32.5, 20.0 ],
													"id" : "obj-23"
												}

											}
, 											{
												"box" : 												{
													"maxclass" : "newobj",
													"text" : "s synth3cmd",
													"fontsize" : 12.0,
													"numinlets" : 1,
													"numoutlets" : 0,
													"fontname" : "Arial",
													"patching_rect" : [ 141.0, 209.0, 78.0, 20.0 ],
													"id" : "obj-22"
												}

											}
, 											{
												"box" : 												{
													"maxclass" : "comment",
													"text" : "If NOT in use, pass on pitch off event",
													"linecount" : 2,
													"fontsize" : 12.0,
													"numinlets" : 1,
													"numoutlets" : 0,
													"fontname" : "Arial",
													"patching_rect" : [ 53.0, 247.0, 121.0, 34.0 ],
													"id" : "obj-18"
												}

											}
, 											{
												"box" : 												{
													"maxclass" : "newobj",
													"text" : "!=",
													"fontsize" : 12.0,
													"numinlets" : 2,
													"numoutlets" : 1,
													"outlettype" : [ "int" ],
													"fontname" : "Arial",
													"patching_rect" : [ 2.0, 195.0, 32.5, 20.0 ],
													"id" : "obj-19"
												}

											}
, 											{
												"box" : 												{
													"maxclass" : "newobj",
													"text" : "gate",
													"fontsize" : 12.0,
													"numinlets" : 2,
													"numoutlets" : 1,
													"outlettype" : [ "" ],
													"fontname" : "Arial",
													"patching_rect" : [ 15.0, 248.0, 34.0, 20.0 ],
													"id" : "obj-20"
												}

											}
, 											{
												"box" : 												{
													"maxclass" : "outlet",
													"numinlets" : 1,
													"numoutlets" : 0,
													"patching_rect" : [ 15.0, 273.0, 25.0, 25.0 ],
													"id" : "obj-21",
													"comment" : ""
												}

											}
, 											{
												"box" : 												{
													"maxclass" : "comment",
													"text" : "If in use, pass on pitch on event",
													"linecount" : 2,
													"fontsize" : 12.0,
													"numinlets" : 1,
													"numoutlets" : 0,
													"fontname" : "Arial",
													"patching_rect" : [ 314.0, 259.0, 121.0, 34.0 ],
													"id" : "obj-16"
												}

											}
, 											{
												"box" : 												{
													"maxclass" : "newobj",
													"text" : "!= 0",
													"fontsize" : 12.0,
													"numinlets" : 2,
													"numoutlets" : 1,
													"outlettype" : [ "int" ],
													"fontname" : "Arial",
													"patching_rect" : [ 262.0, 212.0, 32.5, 20.0 ],
													"id" : "obj-14"
												}

											}
, 											{
												"box" : 												{
													"maxclass" : "comment",
													"text" : "Current pitch (or 0==off)",
													"fontsize" : 12.0,
													"numinlets" : 1,
													"numoutlets" : 0,
													"fontname" : "Arial",
													"patching_rect" : [ 163.0, 78.0, 166.0, 20.0 ],
													"id" : "obj-13"
												}

											}
, 											{
												"box" : 												{
													"maxclass" : "number",
													"fontsize" : 12.0,
													"numinlets" : 1,
													"numoutlets" : 2,
													"outlettype" : [ "int", "bang" ],
													"fontname" : "Arial",
													"patching_rect" : [ 114.0, 78.0, 50.0, 20.0 ],
													"id" : "obj-11"
												}

											}
, 											{
												"box" : 												{
													"maxclass" : "newobj",
													"text" : "gate",
													"fontsize" : 12.0,
													"numinlets" : 2,
													"numoutlets" : 1,
													"outlettype" : [ "" ],
													"fontname" : "Arial",
													"patching_rect" : [ 276.0, 260.0, 34.0, 20.0 ],
													"id" : "obj-9"
												}

											}
, 											{
												"box" : 												{
													"maxclass" : "outlet",
													"numinlets" : 1,
													"numoutlets" : 0,
													"patching_rect" : [ 276.0, 285.0, 25.0, 25.0 ],
													"id" : "obj-4",
													"comment" : ""
												}

											}
, 											{
												"box" : 												{
													"maxclass" : "inlet",
													"numinlets" : 0,
													"numoutlets" : 1,
													"outlettype" : [ "" ],
													"patching_rect" : [ 277.0, 10.0, 25.0, 25.0 ],
													"id" : "obj-3",
													"comment" : ""
												}

											}
, 											{
												"box" : 												{
													"maxclass" : "inlet",
													"numinlets" : 0,
													"numoutlets" : 1,
													"outlettype" : [ "" ],
													"patching_rect" : [ 16.0, 16.0, 25.0, 25.0 ],
													"id" : "obj-1",
													"comment" : ""
												}

											}
 ],
										"lines" : [ 											{
												"patchline" : 												{
													"source" : [ "obj-37", 0 ],
													"destination" : [ "obj-22", 0 ],
													"hidden" : 0,
													"midpoints" : [ 353.5, 205.0, 150.5, 205.0 ]
												}

											}
, 											{
												"patchline" : 												{
													"source" : [ "obj-40", 0 ],
													"destination" : [ "obj-22", 0 ],
													"hidden" : 0,
													"midpoints" : [  ]
												}

											}
, 											{
												"patchline" : 												{
													"source" : [ "obj-24", 0 ],
													"destination" : [ "obj-23", 0 ],
													"hidden" : 0,
													"midpoints" : [  ]
												}

											}
, 											{
												"patchline" : 												{
													"source" : [ "obj-24", 1 ],
													"destination" : [ "obj-20", 1 ],
													"hidden" : 0,
													"midpoints" : [  ]
												}

											}
, 											{
												"patchline" : 												{
													"source" : [ "obj-24", 2 ],
													"destination" : [ "obj-19", 0 ],
													"hidden" : 0,
													"midpoints" : [  ]
												}

											}
, 											{
												"patchline" : 												{
													"source" : [ "obj-1", 0 ],
													"destination" : [ "obj-24", 0 ],
													"hidden" : 0,
													"midpoints" : [  ]
												}

											}
, 											{
												"patchline" : 												{
													"source" : [ "obj-11", 0 ],
													"destination" : [ "obj-19", 1 ],
													"hidden" : 0,
													"midpoints" : [  ]
												}

											}
, 											{
												"patchline" : 												{
													"source" : [ "obj-19", 0 ],
													"destination" : [ "obj-12", 0 ],
													"hidden" : 0,
													"midpoints" : [  ]
												}

											}
, 											{
												"patchline" : 												{
													"source" : [ "obj-37", 0 ],
													"destination" : [ "obj-11", 0 ],
													"hidden" : 0,
													"midpoints" : [  ]
												}

											}
, 											{
												"patchline" : 												{
													"source" : [ "obj-17", 0 ],
													"destination" : [ "obj-9", 0 ],
													"hidden" : 0,
													"midpoints" : [  ]
												}

											}
, 											{
												"patchline" : 												{
													"source" : [ "obj-14", 0 ],
													"destination" : [ "obj-17", 0 ],
													"hidden" : 0,
													"midpoints" : [  ]
												}

											}
, 											{
												"patchline" : 												{
													"source" : [ "obj-12", 0 ],
													"destination" : [ "obj-20", 0 ],
													"hidden" : 0,
													"midpoints" : [  ]
												}

											}
, 											{
												"patchline" : 												{
													"source" : [ "obj-8", 0 ],
													"destination" : [ "obj-37", 0 ],
													"hidden" : 0,
													"midpoints" : [  ]
												}

											}
, 											{
												"patchline" : 												{
													"source" : [ "obj-36", 0 ],
													"destination" : [ "obj-8", 0 ],
													"hidden" : 0,
													"midpoints" : [  ]
												}

											}
, 											{
												"patchline" : 												{
													"source" : [ "obj-9", 0 ],
													"destination" : [ "obj-4", 0 ],
													"hidden" : 0,
													"midpoints" : [  ]
												}

											}
, 											{
												"patchline" : 												{
													"source" : [ "obj-11", 0 ],
													"destination" : [ "obj-14", 0 ],
													"hidden" : 0,
													"midpoints" : [  ]
												}

											}
, 											{
												"patchline" : 												{
													"source" : [ "obj-20", 0 ],
													"destination" : [ "obj-21", 0 ],
													"hidden" : 0,
													"midpoints" : [  ]
												}

											}
, 											{
												"patchline" : 												{
													"source" : [ "obj-11", 0 ],
													"destination" : [ "obj-23", 1 ],
													"hidden" : 0,
													"midpoints" : [  ]
												}

											}
, 											{
												"patchline" : 												{
													"source" : [ "obj-23", 0 ],
													"destination" : [ "obj-29", 0 ],
													"hidden" : 0,
													"midpoints" : [  ]
												}

											}
, 											{
												"patchline" : 												{
													"source" : [ "obj-29", 0 ],
													"destination" : [ "obj-31", 0 ],
													"hidden" : 0,
													"midpoints" : [  ]
												}

											}
, 											{
												"patchline" : 												{
													"source" : [ "obj-31", 0 ],
													"destination" : [ "obj-11", 0 ],
													"hidden" : 0,
													"midpoints" : [ 109.5, 205.0, 94.0, 205.0, 94.0, 72.0, 123.5, 72.0 ]
												}

											}
, 											{
												"patchline" : 												{
													"source" : [ "obj-29", 0 ],
													"destination" : [ "obj-40", 0 ],
													"hidden" : 0,
													"midpoints" : [  ]
												}

											}
, 											{
												"patchline" : 												{
													"source" : [ "obj-11", 0 ],
													"destination" : [ "obj-36", 0 ],
													"hidden" : 0,
													"midpoints" : [  ]
												}

											}
, 											{
												"patchline" : 												{
													"source" : [ "obj-2", 0 ],
													"destination" : [ "obj-11", 0 ],
													"hidden" : 0,
													"midpoints" : [  ]
												}

											}
, 											{
												"patchline" : 												{
													"source" : [ "obj-5", 1 ],
													"destination" : [ "obj-9", 1 ],
													"hidden" : 0,
													"midpoints" : [  ]
												}

											}
, 											{
												"patchline" : 												{
													"source" : [ "obj-5", 0 ],
													"destination" : [ "obj-37", 1 ],
													"hidden" : 0,
													"midpoints" : [  ]
												}

											}
, 											{
												"patchline" : 												{
													"source" : [ "obj-3", 0 ],
													"destination" : [ "obj-5", 0 ],
													"hidden" : 0,
													"midpoints" : [  ]
												}

											}
 ]
									}
,
									"saved_object_attributes" : 									{
										"fontface" : 0,
										"default_fontname" : "Arial",
										"fontsize" : 12.0,
										"globalpatchername" : "",
										"default_fontsize" : 12.0,
										"fontname" : "Arial",
										"default_fontface" : 0
									}

								}

							}
, 							{
								"box" : 								{
									"maxclass" : "newobj",
									"text" : "p synth-one",
									"fontsize" : 12.0,
									"numinlets" : 2,
									"numoutlets" : 2,
									"outlettype" : [ "", "" ],
									"fontname" : "Arial",
									"patching_rect" : [ 135.0, 397.0, 73.0, 20.0 ],
									"id" : "obj-3",
									"patcher" : 									{
										"fileversion" : 1,
										"rect" : [ 535.0, 290.0, 517.0, 338.0 ],
										"bglocked" : 0,
										"defrect" : [ 535.0, 290.0, 517.0, 338.0 ],
										"openrect" : [ 0.0, 0.0, 0.0, 0.0 ],
										"openinpresentation" : 0,
										"default_fontsize" : 12.0,
										"default_fontface" : 0,
										"default_fontname" : "Arial",
										"gridonopen" : 0,
										"gridsize" : [ 15.0, 15.0 ],
										"gridsnaponopen" : 0,
										"toolbarvisible" : 1,
										"boxanimatetime" : 200,
										"imprint" : 0,
										"enablehscroll" : 1,
										"enablevscroll" : 1,
										"devicewidth" : 0.0,
										"boxes" : [ 											{
												"box" : 												{
													"maxclass" : "newobj",
													"text" : "t i i",
													"fontsize" : 12.0,
													"numinlets" : 1,
													"numoutlets" : 2,
													"outlettype" : [ "int", "int" ],
													"fontname" : "Arial",
													"patching_rect" : [ 277.0, 40.0, 32.5, 20.0 ],
													"id" : "obj-5"
												}

											}
, 											{
												"box" : 												{
													"maxclass" : "toggle",
													"numinlets" : 1,
													"numoutlets" : 1,
													"outlettype" : [ "int" ],
													"patching_rect" : [ 262.0, 236.0, 20.0, 20.0 ],
													"id" : "obj-17"
												}

											}
, 											{
												"box" : 												{
													"maxclass" : "toggle",
													"numinlets" : 1,
													"numoutlets" : 1,
													"outlettype" : [ "int" ],
													"patching_rect" : [ 2.0, 219.0, 20.0, 20.0 ],
													"id" : "obj-12"
												}

											}
, 											{
												"box" : 												{
													"maxclass" : "toggle",
													"numinlets" : 1,
													"numoutlets" : 1,
													"outlettype" : [ "int" ],
													"patching_rect" : [ 344.0, 126.0, 20.0, 20.0 ],
													"id" : "obj-8"
												}

											}
, 											{
												"box" : 												{
													"maxclass" : "newobj",
													"text" : "loadbang",
													"fontsize" : 12.0,
													"numinlets" : 1,
													"numoutlets" : 1,
													"outlettype" : [ "bang" ],
													"fontname" : "Arial",
													"patching_rect" : [ 114.0, 47.0, 60.0, 20.0 ],
													"id" : "obj-2"
												}

											}
, 											{
												"box" : 												{
													"maxclass" : "message",
													"text" : "0",
													"fontsize" : 12.0,
													"numinlets" : 2,
													"numoutlets" : 1,
													"outlettype" : [ "" ],
													"fontname" : "Arial",
													"patching_rect" : [ 141.0, 183.0, 32.5, 18.0 ],
													"id" : "obj-40"
												}

											}
, 											{
												"box" : 												{
													"maxclass" : "comment",
													"text" : "If not in use, turn on",
													"fontsize" : 12.0,
													"numinlets" : 1,
													"numoutlets" : 0,
													"fontname" : "Arial",
													"patching_rect" : [ 382.0, 148.0, 123.0, 20.0 ],
													"id" : "obj-35"
												}

											}
, 											{
												"box" : 												{
													"maxclass" : "newobj",
													"text" : "== 0",
													"fontsize" : 12.0,
													"numinlets" : 2,
													"numoutlets" : 1,
													"outlettype" : [ "int" ],
													"fontname" : "Arial",
													"patching_rect" : [ 344.0, 102.0, 37.0, 20.0 ],
													"id" : "obj-36"
												}

											}
, 											{
												"box" : 												{
													"maxclass" : "newobj",
													"text" : "gate",
													"fontsize" : 12.0,
													"numinlets" : 2,
													"numoutlets" : 1,
													"outlettype" : [ "" ],
													"fontname" : "Arial",
													"patching_rect" : [ 344.0, 149.0, 36.0, 20.0 ],
													"id" : "obj-37"
												}

											}
, 											{
												"box" : 												{
													"maxclass" : "comment",
													"text" : "Pitch on messages",
													"fontsize" : 12.0,
													"numinlets" : 1,
													"numoutlets" : 0,
													"fontname" : "Arial",
													"patching_rect" : [ 304.0, 14.0, 121.0, 20.0 ],
													"id" : "obj-34"
												}

											}
, 											{
												"box" : 												{
													"maxclass" : "comment",
													"text" : "Pitch off messages",
													"fontsize" : 12.0,
													"numinlets" : 1,
													"numoutlets" : 0,
													"fontname" : "Arial",
													"patching_rect" : [ 42.0, 18.0, 119.0, 20.0 ],
													"id" : "obj-33"
												}

											}
, 											{
												"box" : 												{
													"maxclass" : "message",
													"text" : "0",
													"fontsize" : 12.0,
													"numinlets" : 2,
													"numoutlets" : 1,
													"outlettype" : [ "" ],
													"fontname" : "Arial",
													"patching_rect" : [ 100.0, 182.0, 32.5, 18.0 ],
													"id" : "obj-31"
												}

											}
, 											{
												"box" : 												{
													"maxclass" : "newobj",
													"text" : "sel 1",
													"fontsize" : 12.0,
													"numinlets" : 2,
													"numoutlets" : 2,
													"outlettype" : [ "bang", "" ],
													"fontname" : "Arial",
													"patching_rect" : [ 100.0, 158.0, 36.0, 20.0 ],
													"id" : "obj-29"
												}

											}
, 											{
												"box" : 												{
													"maxclass" : "comment",
													"text" : "If should turn off this pitch, then do so",
													"linecount" : 2,
													"fontsize" : 12.0,
													"numinlets" : 1,
													"numoutlets" : 0,
													"fontname" : "Arial",
													"patching_rect" : [ 136.0, 125.0, 123.0, 34.0 ],
													"id" : "obj-26"
												}

											}
, 											{
												"box" : 												{
													"maxclass" : "newobj",
													"text" : "t f f f",
													"fontsize" : 12.0,
													"numinlets" : 1,
													"numoutlets" : 3,
													"outlettype" : [ "float", "float", "float" ],
													"fontname" : "Arial",
													"patching_rect" : [ 16.0, 46.0, 46.0, 20.0 ],
													"id" : "obj-24"
												}

											}
, 											{
												"box" : 												{
													"maxclass" : "newobj",
													"text" : "==",
													"fontsize" : 12.0,
													"numinlets" : 2,
													"numoutlets" : 1,
													"outlettype" : [ "int" ],
													"fontname" : "Arial",
													"patching_rect" : [ 100.0, 134.0, 32.5, 20.0 ],
													"id" : "obj-23"
												}

											}
, 											{
												"box" : 												{
													"maxclass" : "newobj",
													"text" : "s synth2cmd",
													"fontsize" : 12.0,
													"numinlets" : 1,
													"numoutlets" : 0,
													"fontname" : "Arial",
													"patching_rect" : [ 141.0, 209.0, 78.0, 20.0 ],
													"id" : "obj-22"
												}

											}
, 											{
												"box" : 												{
													"maxclass" : "comment",
													"text" : "If NOT in use, pass on pitch off event",
													"linecount" : 2,
													"fontsize" : 12.0,
													"numinlets" : 1,
													"numoutlets" : 0,
													"fontname" : "Arial",
													"patching_rect" : [ 53.0, 247.0, 121.0, 34.0 ],
													"id" : "obj-18"
												}

											}
, 											{
												"box" : 												{
													"maxclass" : "newobj",
													"text" : "!=",
													"fontsize" : 12.0,
													"numinlets" : 2,
													"numoutlets" : 1,
													"outlettype" : [ "int" ],
													"fontname" : "Arial",
													"patching_rect" : [ 2.0, 195.0, 32.5, 20.0 ],
													"id" : "obj-19"
												}

											}
, 											{
												"box" : 												{
													"maxclass" : "newobj",
													"text" : "gate",
													"fontsize" : 12.0,
													"numinlets" : 2,
													"numoutlets" : 1,
													"outlettype" : [ "" ],
													"fontname" : "Arial",
													"patching_rect" : [ 15.0, 248.0, 34.0, 20.0 ],
													"id" : "obj-20"
												}

											}
, 											{
												"box" : 												{
													"maxclass" : "outlet",
													"numinlets" : 1,
													"numoutlets" : 0,
													"patching_rect" : [ 15.0, 273.0, 25.0, 25.0 ],
													"id" : "obj-21",
													"comment" : ""
												}

											}
, 											{
												"box" : 												{
													"maxclass" : "comment",
													"text" : "If in use, pass on pitch on event",
													"linecount" : 2,
													"fontsize" : 12.0,
													"numinlets" : 1,
													"numoutlets" : 0,
													"fontname" : "Arial",
													"patching_rect" : [ 314.0, 259.0, 121.0, 34.0 ],
													"id" : "obj-16"
												}

											}
, 											{
												"box" : 												{
													"maxclass" : "newobj",
													"text" : "!= 0",
													"fontsize" : 12.0,
													"numinlets" : 2,
													"numoutlets" : 1,
													"outlettype" : [ "int" ],
													"fontname" : "Arial",
													"patching_rect" : [ 262.0, 212.0, 32.5, 20.0 ],
													"id" : "obj-14"
												}

											}
, 											{
												"box" : 												{
													"maxclass" : "comment",
													"text" : "Current pitch (or 0==off)",
													"fontsize" : 12.0,
													"numinlets" : 1,
													"numoutlets" : 0,
													"fontname" : "Arial",
													"patching_rect" : [ 163.0, 78.0, 166.0, 20.0 ],
													"id" : "obj-13"
												}

											}
, 											{
												"box" : 												{
													"maxclass" : "number",
													"fontsize" : 12.0,
													"numinlets" : 1,
													"numoutlets" : 2,
													"outlettype" : [ "int", "bang" ],
													"fontname" : "Arial",
													"patching_rect" : [ 114.0, 78.0, 50.0, 20.0 ],
													"id" : "obj-11"
												}

											}
, 											{
												"box" : 												{
													"maxclass" : "newobj",
													"text" : "gate",
													"fontsize" : 12.0,
													"numinlets" : 2,
													"numoutlets" : 1,
													"outlettype" : [ "" ],
													"fontname" : "Arial",
													"patching_rect" : [ 276.0, 260.0, 34.0, 20.0 ],
													"id" : "obj-9"
												}

											}
, 											{
												"box" : 												{
													"maxclass" : "outlet",
													"numinlets" : 1,
													"numoutlets" : 0,
													"patching_rect" : [ 276.0, 285.0, 25.0, 25.0 ],
													"id" : "obj-4",
													"comment" : ""
												}

											}
, 											{
												"box" : 												{
													"maxclass" : "inlet",
													"numinlets" : 0,
													"numoutlets" : 1,
													"outlettype" : [ "" ],
													"patching_rect" : [ 277.0, 10.0, 25.0, 25.0 ],
													"id" : "obj-3",
													"comment" : ""
												}

											}
, 											{
												"box" : 												{
													"maxclass" : "inlet",
													"numinlets" : 0,
													"numoutlets" : 1,
													"outlettype" : [ "" ],
													"patching_rect" : [ 16.0, 16.0, 25.0, 25.0 ],
													"id" : "obj-1",
													"comment" : ""
												}

											}
 ],
										"lines" : [ 											{
												"patchline" : 												{
													"source" : [ "obj-37", 0 ],
													"destination" : [ "obj-22", 0 ],
													"hidden" : 0,
													"midpoints" : [ 353.5, 205.0, 150.5, 205.0 ]
												}

											}
, 											{
												"patchline" : 												{
													"source" : [ "obj-40", 0 ],
													"destination" : [ "obj-22", 0 ],
													"hidden" : 0,
													"midpoints" : [  ]
												}

											}
, 											{
												"patchline" : 												{
													"source" : [ "obj-3", 0 ],
													"destination" : [ "obj-5", 0 ],
													"hidden" : 0,
													"midpoints" : [  ]
												}

											}
, 											{
												"patchline" : 												{
													"source" : [ "obj-5", 0 ],
													"destination" : [ "obj-37", 1 ],
													"hidden" : 0,
													"midpoints" : [  ]
												}

											}
, 											{
												"patchline" : 												{
													"source" : [ "obj-5", 1 ],
													"destination" : [ "obj-9", 1 ],
													"hidden" : 0,
													"midpoints" : [  ]
												}

											}
, 											{
												"patchline" : 												{
													"source" : [ "obj-2", 0 ],
													"destination" : [ "obj-11", 0 ],
													"hidden" : 0,
													"midpoints" : [  ]
												}

											}
, 											{
												"patchline" : 												{
													"source" : [ "obj-11", 0 ],
													"destination" : [ "obj-36", 0 ],
													"hidden" : 0,
													"midpoints" : [  ]
												}

											}
, 											{
												"patchline" : 												{
													"source" : [ "obj-29", 0 ],
													"destination" : [ "obj-40", 0 ],
													"hidden" : 0,
													"midpoints" : [  ]
												}

											}
, 											{
												"patchline" : 												{
													"source" : [ "obj-31", 0 ],
													"destination" : [ "obj-11", 0 ],
													"hidden" : 0,
													"midpoints" : [ 109.5, 205.0, 94.0, 205.0, 94.0, 72.0, 123.5, 72.0 ]
												}

											}
, 											{
												"patchline" : 												{
													"source" : [ "obj-29", 0 ],
													"destination" : [ "obj-31", 0 ],
													"hidden" : 0,
													"midpoints" : [  ]
												}

											}
, 											{
												"patchline" : 												{
													"source" : [ "obj-23", 0 ],
													"destination" : [ "obj-29", 0 ],
													"hidden" : 0,
													"midpoints" : [  ]
												}

											}
, 											{
												"patchline" : 												{
													"source" : [ "obj-11", 0 ],
													"destination" : [ "obj-23", 1 ],
													"hidden" : 0,
													"midpoints" : [  ]
												}

											}
, 											{
												"patchline" : 												{
													"source" : [ "obj-20", 0 ],
													"destination" : [ "obj-21", 0 ],
													"hidden" : 0,
													"midpoints" : [  ]
												}

											}
, 											{
												"patchline" : 												{
													"source" : [ "obj-11", 0 ],
													"destination" : [ "obj-14", 0 ],
													"hidden" : 0,
													"midpoints" : [  ]
												}

											}
, 											{
												"patchline" : 												{
													"source" : [ "obj-9", 0 ],
													"destination" : [ "obj-4", 0 ],
													"hidden" : 0,
													"midpoints" : [  ]
												}

											}
, 											{
												"patchline" : 												{
													"source" : [ "obj-36", 0 ],
													"destination" : [ "obj-8", 0 ],
													"hidden" : 0,
													"midpoints" : [  ]
												}

											}
, 											{
												"patchline" : 												{
													"source" : [ "obj-8", 0 ],
													"destination" : [ "obj-37", 0 ],
													"hidden" : 0,
													"midpoints" : [  ]
												}

											}
, 											{
												"patchline" : 												{
													"source" : [ "obj-12", 0 ],
													"destination" : [ "obj-20", 0 ],
													"hidden" : 0,
													"midpoints" : [  ]
												}

											}
, 											{
												"patchline" : 												{
													"source" : [ "obj-14", 0 ],
													"destination" : [ "obj-17", 0 ],
													"hidden" : 0,
													"midpoints" : [  ]
												}

											}
, 											{
												"patchline" : 												{
													"source" : [ "obj-17", 0 ],
													"destination" : [ "obj-9", 0 ],
													"hidden" : 0,
													"midpoints" : [  ]
												}

											}
, 											{
												"patchline" : 												{
													"source" : [ "obj-37", 0 ],
													"destination" : [ "obj-11", 0 ],
													"hidden" : 0,
													"midpoints" : [  ]
												}

											}
, 											{
												"patchline" : 												{
													"source" : [ "obj-19", 0 ],
													"destination" : [ "obj-12", 0 ],
													"hidden" : 0,
													"midpoints" : [  ]
												}

											}
, 											{
												"patchline" : 												{
													"source" : [ "obj-11", 0 ],
													"destination" : [ "obj-19", 1 ],
													"hidden" : 0,
													"midpoints" : [  ]
												}

											}
, 											{
												"patchline" : 												{
													"source" : [ "obj-1", 0 ],
													"destination" : [ "obj-24", 0 ],
													"hidden" : 0,
													"midpoints" : [  ]
												}

											}
, 											{
												"patchline" : 												{
													"source" : [ "obj-24", 2 ],
													"destination" : [ "obj-19", 0 ],
													"hidden" : 0,
													"midpoints" : [  ]
												}

											}
, 											{
												"patchline" : 												{
													"source" : [ "obj-24", 1 ],
													"destination" : [ "obj-20", 1 ],
													"hidden" : 0,
													"midpoints" : [  ]
												}

											}
, 											{
												"patchline" : 												{
													"source" : [ "obj-24", 0 ],
													"destination" : [ "obj-23", 0 ],
													"hidden" : 0,
													"midpoints" : [  ]
												}

											}
 ]
									}
,
									"saved_object_attributes" : 									{
										"fontface" : 0,
										"default_fontname" : "Arial",
										"fontsize" : 12.0,
										"globalpatchername" : "",
										"default_fontsize" : 12.0,
										"fontname" : "Arial",
										"default_fontface" : 0
									}

								}

							}
, 							{
								"box" : 								{
									"maxclass" : "newobj",
									"text" : "print pitchon",
									"fontsize" : 12.0,
									"numinlets" : 1,
									"numoutlets" : 0,
									"fontname" : "Arial",
									"patching_rect" : [ 250.0, 384.0, 76.0, 20.0 ],
									"id" : "obj-2"
								}

							}
, 							{
								"box" : 								{
									"maxclass" : "newobj",
									"text" : "print pitchoff",
									"fontsize" : 12.0,
									"numinlets" : 1,
									"numoutlets" : 0,
									"fontname" : "Arial",
									"patching_rect" : [ 23.0, 359.0, 76.0, 20.0 ],
									"id" : "obj-1"
								}

							}
, 							{
								"box" : 								{
									"maxclass" : "newobj",
									"text" : "print synth1cmd",
									"fontsize" : 12.0,
									"numinlets" : 1,
									"numoutlets" : 0,
									"fontname" : "Arial",
									"patching_rect" : [ 405.0, 287.0, 95.0, 20.0 ],
									"id" : "obj-26"
								}

							}
, 							{
								"box" : 								{
									"maxclass" : "newobj",
									"text" : "print synth2cmd",
									"fontsize" : 12.0,
									"numinlets" : 1,
									"numoutlets" : 0,
									"fontname" : "Arial",
									"patching_rect" : [ 550.0, 286.0, 95.0, 20.0 ],
									"id" : "obj-25"
								}

							}
, 							{
								"box" : 								{
									"maxclass" : "newobj",
									"text" : "print synth3cmd",
									"fontsize" : 12.0,
									"numinlets" : 1,
									"numoutlets" : 0,
									"fontname" : "Arial",
									"patching_rect" : [ 667.0, 280.0, 95.0, 20.0 ],
									"id" : "obj-24"
								}

							}
, 							{
								"box" : 								{
									"maxclass" : "newobj",
									"text" : "r synth3cmd",
									"fontsize" : 12.0,
									"numinlets" : 0,
									"numoutlets" : 1,
									"outlettype" : [ "" ],
									"fontname" : "Arial",
									"patching_rect" : [ 644.0, 256.0, 76.0, 20.0 ],
									"id" : "obj-23"
								}

							}
, 							{
								"box" : 								{
									"maxclass" : "newobj",
									"text" : "r synth2cmd",
									"fontsize" : 12.0,
									"numinlets" : 0,
									"numoutlets" : 1,
									"outlettype" : [ "" ],
									"fontname" : "Arial",
									"patching_rect" : [ 535.0, 262.0, 76.0, 20.0 ],
									"id" : "obj-21"
								}

							}
, 							{
								"box" : 								{
									"maxclass" : "newobj",
									"text" : "r synth1cmd",
									"fontsize" : 12.0,
									"numinlets" : 0,
									"numoutlets" : 1,
									"outlettype" : [ "" ],
									"fontname" : "Arial",
									"patching_rect" : [ 403.0, 262.0, 76.0, 20.0 ],
									"id" : "obj-22"
								}

							}
, 							{
								"box" : 								{
									"maxclass" : "comment",
									"text" : "Pitch on",
									"fontsize" : 11.595187,
									"numinlets" : 1,
									"numoutlets" : 0,
									"fontname" : "Arial",
									"patching_rect" : [ 210.0, 360.0, 79.0, 20.0 ],
									"id" : "obj-20"
								}

							}
, 							{
								"box" : 								{
									"maxclass" : "newobj",
									"text" : "unpack 0 0",
									"fontsize" : 12.0,
									"numinlets" : 1,
									"numoutlets" : 2,
									"outlettype" : [ "int", "int" ],
									"fontname" : "Arial",
									"patching_rect" : [ 163.0, 331.0, 69.0, 20.0 ],
									"id" : "obj-19"
								}

							}
, 							{
								"box" : 								{
									"maxclass" : "newobj",
									"text" : "zl rev",
									"fontsize" : 12.0,
									"numinlets" : 2,
									"numoutlets" : 2,
									"outlettype" : [ "", "" ],
									"fontname" : "Arial",
									"patching_rect" : [ 134.0, 282.0, 39.0, 20.0 ],
									"id" : "obj-18"
								}

							}
, 							{
								"box" : 								{
									"maxclass" : "newobj",
									"text" : "pack 0 0",
									"fontsize" : 12.0,
									"numinlets" : 2,
									"numoutlets" : 1,
									"outlettype" : [ "" ],
									"fontname" : "Arial",
									"patching_rect" : [ 134.0, 257.0, 56.0, 20.0 ],
									"id" : "obj-17"
								}

							}
, 							{
								"box" : 								{
									"maxclass" : "newobj",
									"text" : "route 0",
									"fontsize" : 12.0,
									"numinlets" : 1,
									"numoutlets" : 2,
									"outlettype" : [ "", "" ],
									"fontname" : "Arial",
									"patching_rect" : [ 134.0, 307.0, 48.0, 20.0 ],
									"id" : "obj-14"
								}

							}
, 							{
								"box" : 								{
									"maxclass" : "comment",
									"text" : "Pitch off",
									"fontsize" : 11.595187,
									"numinlets" : 1,
									"numoutlets" : 0,
									"fontname" : "Arial",
									"patching_rect" : [ 89.0, 324.0, 50.0, 20.0 ],
									"id" : "obj-13"
								}

							}
, 							{
								"box" : 								{
									"maxclass" : "newobj",
									"text" : "p synth-one",
									"fontsize" : 12.0,
									"numinlets" : 2,
									"numoutlets" : 2,
									"outlettype" : [ "", "" ],
									"fontname" : "Arial",
									"patching_rect" : [ 134.0, 374.0, 73.0, 20.0 ],
									"id" : "obj-5",
									"patcher" : 									{
										"fileversion" : 1,
										"rect" : [ 535.0, 290.0, 517.0, 338.0 ],
										"bglocked" : 0,
										"defrect" : [ 535.0, 290.0, 517.0, 338.0 ],
										"openrect" : [ 0.0, 0.0, 0.0, 0.0 ],
										"openinpresentation" : 0,
										"default_fontsize" : 12.0,
										"default_fontface" : 0,
										"default_fontname" : "Arial",
										"gridonopen" : 0,
										"gridsize" : [ 15.0, 15.0 ],
										"gridsnaponopen" : 0,
										"toolbarvisible" : 1,
										"boxanimatetime" : 200,
										"imprint" : 0,
										"enablehscroll" : 1,
										"enablevscroll" : 1,
										"devicewidth" : 0.0,
										"boxes" : [ 											{
												"box" : 												{
													"maxclass" : "newobj",
													"text" : "t i i",
													"fontsize" : 12.0,
													"numinlets" : 1,
													"numoutlets" : 2,
													"outlettype" : [ "int", "int" ],
													"fontname" : "Arial",
													"patching_rect" : [ 277.0, 40.0, 32.5, 20.0 ],
													"id" : "obj-5"
												}

											}
, 											{
												"box" : 												{
													"maxclass" : "toggle",
													"numinlets" : 1,
													"numoutlets" : 1,
													"outlettype" : [ "int" ],
													"patching_rect" : [ 262.0, 236.0, 20.0, 20.0 ],
													"id" : "obj-17"
												}

											}
, 											{
												"box" : 												{
													"maxclass" : "toggle",
													"numinlets" : 1,
													"numoutlets" : 1,
													"outlettype" : [ "int" ],
													"patching_rect" : [ 2.0, 219.0, 20.0, 20.0 ],
													"id" : "obj-12"
												}

											}
, 											{
												"box" : 												{
													"maxclass" : "toggle",
													"numinlets" : 1,
													"numoutlets" : 1,
													"outlettype" : [ "int" ],
													"patching_rect" : [ 344.0, 126.0, 20.0, 20.0 ],
													"id" : "obj-8"
												}

											}
, 											{
												"box" : 												{
													"maxclass" : "newobj",
													"text" : "loadbang",
													"fontsize" : 12.0,
													"numinlets" : 1,
													"numoutlets" : 1,
													"outlettype" : [ "bang" ],
													"fontname" : "Arial",
													"patching_rect" : [ 114.0, 47.0, 60.0, 20.0 ],
													"id" : "obj-2"
												}

											}
, 											{
												"box" : 												{
													"maxclass" : "message",
													"text" : "0",
													"fontsize" : 12.0,
													"numinlets" : 2,
													"numoutlets" : 1,
													"outlettype" : [ "" ],
													"fontname" : "Arial",
													"patching_rect" : [ 141.0, 183.0, 32.5, 18.0 ],
													"id" : "obj-40"
												}

											}
, 											{
												"box" : 												{
													"maxclass" : "comment",
													"text" : "If not in use, turn on",
													"fontsize" : 12.0,
													"numinlets" : 1,
													"numoutlets" : 0,
													"fontname" : "Arial",
													"patching_rect" : [ 382.0, 148.0, 123.0, 20.0 ],
													"id" : "obj-35"
												}

											}
, 											{
												"box" : 												{
													"maxclass" : "newobj",
													"text" : "== 0",
													"fontsize" : 12.0,
													"numinlets" : 2,
													"numoutlets" : 1,
													"outlettype" : [ "int" ],
													"fontname" : "Arial",
													"patching_rect" : [ 344.0, 102.0, 37.0, 20.0 ],
													"id" : "obj-36"
												}

											}
, 											{
												"box" : 												{
													"maxclass" : "newobj",
													"text" : "gate",
													"fontsize" : 12.0,
													"numinlets" : 2,
													"numoutlets" : 1,
													"outlettype" : [ "" ],
													"fontname" : "Arial",
													"patching_rect" : [ 344.0, 149.0, 36.0, 20.0 ],
													"id" : "obj-37"
												}

											}
, 											{
												"box" : 												{
													"maxclass" : "comment",
													"text" : "Pitch on messages",
													"fontsize" : 12.0,
													"numinlets" : 1,
													"numoutlets" : 0,
													"fontname" : "Arial",
													"patching_rect" : [ 304.0, 14.0, 121.0, 20.0 ],
													"id" : "obj-34"
												}

											}
, 											{
												"box" : 												{
													"maxclass" : "comment",
													"text" : "Pitch off messages",
													"fontsize" : 12.0,
													"numinlets" : 1,
													"numoutlets" : 0,
													"fontname" : "Arial",
													"patching_rect" : [ 42.0, 18.0, 119.0, 20.0 ],
													"id" : "obj-33"
												}

											}
, 											{
												"box" : 												{
													"maxclass" : "message",
													"text" : "0",
													"fontsize" : 12.0,
													"numinlets" : 2,
													"numoutlets" : 1,
													"outlettype" : [ "" ],
													"fontname" : "Arial",
													"patching_rect" : [ 100.0, 182.0, 32.5, 18.0 ],
													"id" : "obj-31"
												}

											}
, 											{
												"box" : 												{
													"maxclass" : "newobj",
													"text" : "sel 1",
													"fontsize" : 12.0,
													"numinlets" : 2,
													"numoutlets" : 2,
													"outlettype" : [ "bang", "" ],
													"fontname" : "Arial",
													"patching_rect" : [ 100.0, 158.0, 36.0, 20.0 ],
													"id" : "obj-29"
												}

											}
, 											{
												"box" : 												{
													"maxclass" : "comment",
													"text" : "If should turn off this pitch, then do so",
													"linecount" : 2,
													"fontsize" : 12.0,
													"numinlets" : 1,
													"numoutlets" : 0,
													"fontname" : "Arial",
													"patching_rect" : [ 136.0, 125.0, 123.0, 34.0 ],
													"id" : "obj-26"
												}

											}
, 											{
												"box" : 												{
													"maxclass" : "newobj",
													"text" : "t f f f",
													"fontsize" : 12.0,
													"numinlets" : 1,
													"numoutlets" : 3,
													"outlettype" : [ "float", "float", "float" ],
													"fontname" : "Arial",
													"patching_rect" : [ 16.0, 46.0, 46.0, 20.0 ],
													"id" : "obj-24"
												}

											}
, 											{
												"box" : 												{
													"maxclass" : "newobj",
													"text" : "==",
													"fontsize" : 12.0,
													"numinlets" : 2,
													"numoutlets" : 1,
													"outlettype" : [ "int" ],
													"fontname" : "Arial",
													"patching_rect" : [ 100.0, 134.0, 32.5, 20.0 ],
													"id" : "obj-23"
												}

											}
, 											{
												"box" : 												{
													"maxclass" : "newobj",
													"text" : "s synth1cmd",
													"fontsize" : 12.0,
													"numinlets" : 1,
													"numoutlets" : 0,
													"fontname" : "Arial",
													"patching_rect" : [ 141.0, 209.0, 78.0, 20.0 ],
													"id" : "obj-22"
												}

											}
, 											{
												"box" : 												{
													"maxclass" : "comment",
													"text" : "If NOT in use, pass on pitch off event",
													"linecount" : 2,
													"fontsize" : 12.0,
													"numinlets" : 1,
													"numoutlets" : 0,
													"fontname" : "Arial",
													"patching_rect" : [ 53.0, 247.0, 121.0, 34.0 ],
													"id" : "obj-18"
												}

											}
, 											{
												"box" : 												{
													"maxclass" : "newobj",
													"text" : "!=",
													"fontsize" : 12.0,
													"numinlets" : 2,
													"numoutlets" : 1,
													"outlettype" : [ "int" ],
													"fontname" : "Arial",
													"patching_rect" : [ 2.0, 195.0, 32.5, 20.0 ],
													"id" : "obj-19"
												}

											}
, 											{
												"box" : 												{
													"maxclass" : "newobj",
													"text" : "gate",
													"fontsize" : 12.0,
													"numinlets" : 2,
													"numoutlets" : 1,
													"outlettype" : [ "" ],
													"fontname" : "Arial",
													"patching_rect" : [ 15.0, 248.0, 34.0, 20.0 ],
													"id" : "obj-20"
												}

											}
, 											{
												"box" : 												{
													"maxclass" : "outlet",
													"numinlets" : 1,
													"numoutlets" : 0,
													"patching_rect" : [ 15.0, 273.0, 25.0, 25.0 ],
													"id" : "obj-21",
													"comment" : ""
												}

											}
, 											{
												"box" : 												{
													"maxclass" : "comment",
													"text" : "If in use, pass on pitch on event",
													"linecount" : 2,
													"fontsize" : 12.0,
													"numinlets" : 1,
													"numoutlets" : 0,
													"fontname" : "Arial",
													"patching_rect" : [ 314.0, 259.0, 121.0, 34.0 ],
													"id" : "obj-16"
												}

											}
, 											{
												"box" : 												{
													"maxclass" : "newobj",
													"text" : "!= 0",
													"fontsize" : 12.0,
													"numinlets" : 2,
													"numoutlets" : 1,
													"outlettype" : [ "int" ],
													"fontname" : "Arial",
													"patching_rect" : [ 262.0, 212.0, 32.5, 20.0 ],
													"id" : "obj-14"
												}

											}
, 											{
												"box" : 												{
													"maxclass" : "comment",
													"text" : "Current pitch (or 0==off)",
													"fontsize" : 12.0,
													"numinlets" : 1,
													"numoutlets" : 0,
													"fontname" : "Arial",
													"patching_rect" : [ 163.0, 78.0, 166.0, 20.0 ],
													"id" : "obj-13"
												}

											}
, 											{
												"box" : 												{
													"maxclass" : "number",
													"fontsize" : 12.0,
													"numinlets" : 1,
													"numoutlets" : 2,
													"outlettype" : [ "int", "bang" ],
													"fontname" : "Arial",
													"patching_rect" : [ 114.0, 78.0, 50.0, 20.0 ],
													"id" : "obj-11"
												}

											}
, 											{
												"box" : 												{
													"maxclass" : "newobj",
													"text" : "gate",
													"fontsize" : 12.0,
													"numinlets" : 2,
													"numoutlets" : 1,
													"outlettype" : [ "" ],
													"fontname" : "Arial",
													"patching_rect" : [ 276.0, 260.0, 34.0, 20.0 ],
													"id" : "obj-9"
												}

											}
, 											{
												"box" : 												{
													"maxclass" : "outlet",
													"numinlets" : 1,
													"numoutlets" : 0,
													"patching_rect" : [ 276.0, 285.0, 25.0, 25.0 ],
													"id" : "obj-4",
													"comment" : ""
												}

											}
, 											{
												"box" : 												{
													"maxclass" : "inlet",
													"numinlets" : 0,
													"numoutlets" : 1,
													"outlettype" : [ "int" ],
													"patching_rect" : [ 277.0, 10.0, 25.0, 25.0 ],
													"id" : "obj-3",
													"comment" : ""
												}

											}
, 											{
												"box" : 												{
													"maxclass" : "inlet",
													"numinlets" : 0,
													"numoutlets" : 1,
													"outlettype" : [ "" ],
													"patching_rect" : [ 16.0, 16.0, 25.0, 25.0 ],
													"id" : "obj-1",
													"comment" : ""
												}

											}
 ],
										"lines" : [ 											{
												"patchline" : 												{
													"source" : [ "obj-24", 0 ],
													"destination" : [ "obj-23", 0 ],
													"hidden" : 0,
													"midpoints" : [  ]
												}

											}
, 											{
												"patchline" : 												{
													"source" : [ "obj-24", 1 ],
													"destination" : [ "obj-20", 1 ],
													"hidden" : 0,
													"midpoints" : [  ]
												}

											}
, 											{
												"patchline" : 												{
													"source" : [ "obj-24", 2 ],
													"destination" : [ "obj-19", 0 ],
													"hidden" : 0,
													"midpoints" : [  ]
												}

											}
, 											{
												"patchline" : 												{
													"source" : [ "obj-1", 0 ],
													"destination" : [ "obj-24", 0 ],
													"hidden" : 0,
													"midpoints" : [  ]
												}

											}
, 											{
												"patchline" : 												{
													"source" : [ "obj-11", 0 ],
													"destination" : [ "obj-19", 1 ],
													"hidden" : 0,
													"midpoints" : [  ]
												}

											}
, 											{
												"patchline" : 												{
													"source" : [ "obj-19", 0 ],
													"destination" : [ "obj-12", 0 ],
													"hidden" : 0,
													"midpoints" : [  ]
												}

											}
, 											{
												"patchline" : 												{
													"source" : [ "obj-37", 0 ],
													"destination" : [ "obj-11", 0 ],
													"hidden" : 0,
													"midpoints" : [  ]
												}

											}
, 											{
												"patchline" : 												{
													"source" : [ "obj-17", 0 ],
													"destination" : [ "obj-9", 0 ],
													"hidden" : 0,
													"midpoints" : [  ]
												}

											}
, 											{
												"patchline" : 												{
													"source" : [ "obj-14", 0 ],
													"destination" : [ "obj-17", 0 ],
													"hidden" : 0,
													"midpoints" : [  ]
												}

											}
, 											{
												"patchline" : 												{
													"source" : [ "obj-12", 0 ],
													"destination" : [ "obj-20", 0 ],
													"hidden" : 0,
													"midpoints" : [  ]
												}

											}
, 											{
												"patchline" : 												{
													"source" : [ "obj-8", 0 ],
													"destination" : [ "obj-37", 0 ],
													"hidden" : 0,
													"midpoints" : [  ]
												}

											}
, 											{
												"patchline" : 												{
													"source" : [ "obj-36", 0 ],
													"destination" : [ "obj-8", 0 ],
													"hidden" : 0,
													"midpoints" : [  ]
												}

											}
, 											{
												"patchline" : 												{
													"source" : [ "obj-9", 0 ],
													"destination" : [ "obj-4", 0 ],
													"hidden" : 0,
													"midpoints" : [  ]
												}

											}
, 											{
												"patchline" : 												{
													"source" : [ "obj-11", 0 ],
													"destination" : [ "obj-14", 0 ],
													"hidden" : 0,
													"midpoints" : [  ]
												}

											}
, 											{
												"patchline" : 												{
													"source" : [ "obj-20", 0 ],
													"destination" : [ "obj-21", 0 ],
													"hidden" : 0,
													"midpoints" : [  ]
												}

											}
, 											{
												"patchline" : 												{
													"source" : [ "obj-11", 0 ],
													"destination" : [ "obj-23", 1 ],
													"hidden" : 0,
													"midpoints" : [  ]
												}

											}
, 											{
												"patchline" : 												{
													"source" : [ "obj-23", 0 ],
													"destination" : [ "obj-29", 0 ],
													"hidden" : 0,
													"midpoints" : [  ]
												}

											}
, 											{
												"patchline" : 												{
													"source" : [ "obj-29", 0 ],
													"destination" : [ "obj-31", 0 ],
													"hidden" : 0,
													"midpoints" : [  ]
												}

											}
, 											{
												"patchline" : 												{
													"source" : [ "obj-31", 0 ],
													"destination" : [ "obj-11", 0 ],
													"hidden" : 0,
													"midpoints" : [ 109.5, 205.0, 94.0, 205.0, 94.0, 72.0, 123.5, 72.0 ]
												}

											}
, 											{
												"patchline" : 												{
													"source" : [ "obj-29", 0 ],
													"destination" : [ "obj-40", 0 ],
													"hidden" : 0,
													"midpoints" : [  ]
												}

											}
, 											{
												"patchline" : 												{
													"source" : [ "obj-40", 0 ],
													"destination" : [ "obj-22", 0 ],
													"hidden" : 0,
													"midpoints" : [  ]
												}

											}
, 											{
												"patchline" : 												{
													"source" : [ "obj-11", 0 ],
													"destination" : [ "obj-36", 0 ],
													"hidden" : 0,
													"midpoints" : [  ]
												}

											}
, 											{
												"patchline" : 												{
													"source" : [ "obj-37", 0 ],
													"destination" : [ "obj-22", 0 ],
													"hidden" : 0,
													"midpoints" : [ 353.5, 205.0, 150.5, 205.0 ]
												}

											}
, 											{
												"patchline" : 												{
													"source" : [ "obj-2", 0 ],
													"destination" : [ "obj-11", 0 ],
													"hidden" : 0,
													"midpoints" : [  ]
												}

											}
, 											{
												"patchline" : 												{
													"source" : [ "obj-5", 1 ],
													"destination" : [ "obj-9", 1 ],
													"hidden" : 0,
													"midpoints" : [  ]
												}

											}
, 											{
												"patchline" : 												{
													"source" : [ "obj-5", 0 ],
													"destination" : [ "obj-37", 1 ],
													"hidden" : 0,
													"midpoints" : [  ]
												}

											}
, 											{
												"patchline" : 												{
													"source" : [ "obj-3", 0 ],
													"destination" : [ "obj-5", 0 ],
													"hidden" : 0,
													"midpoints" : [  ]
												}

											}
 ]
									}
,
									"saved_object_attributes" : 									{
										"fontface" : 0,
										"default_fontname" : "Arial",
										"fontsize" : 12.0,
										"globalpatchername" : "",
										"default_fontsize" : 12.0,
										"fontname" : "Arial",
										"default_fontface" : 0
									}

								}

							}
, 							{
								"box" : 								{
									"maxclass" : "newobj",
									"text" : "notein",
									"fontsize" : 11.595187,
									"numinlets" : 1,
									"numoutlets" : 3,
									"outlettype" : [ "int", "int", "int" ],
									"fontname" : "Arial",
									"patching_rect" : [ 134.0, 232.0, 50.0, 20.0 ],
									"id" : "obj-15"
								}

							}
 ],
						"lines" : [ 							{
								"patchline" : 								{
									"source" : [ "obj-3", 1 ],
									"destination" : [ "obj-4", 1 ],
									"hidden" : 0,
									"midpoints" : [  ]
								}

							}
, 							{
								"patchline" : 								{
									"source" : [ "obj-3", 0 ],
									"destination" : [ "obj-4", 0 ],
									"hidden" : 0,
									"midpoints" : [  ]
								}

							}
, 							{
								"patchline" : 								{
									"source" : [ "obj-5", 1 ],
									"destination" : [ "obj-3", 1 ],
									"hidden" : 0,
									"midpoints" : [  ]
								}

							}
, 							{
								"patchline" : 								{
									"source" : [ "obj-5", 0 ],
									"destination" : [ "obj-3", 0 ],
									"hidden" : 0,
									"midpoints" : [  ]
								}

							}
, 							{
								"patchline" : 								{
									"source" : [ "obj-19", 1 ],
									"destination" : [ "obj-2", 0 ],
									"hidden" : 0,
									"midpoints" : [  ]
								}

							}
, 							{
								"patchline" : 								{
									"source" : [ "obj-14", 0 ],
									"destination" : [ "obj-1", 0 ],
									"hidden" : 0,
									"midpoints" : [  ]
								}

							}
, 							{
								"patchline" : 								{
									"source" : [ "obj-15", 0 ],
									"destination" : [ "obj-17", 0 ],
									"hidden" : 0,
									"midpoints" : [  ]
								}

							}
, 							{
								"patchline" : 								{
									"source" : [ "obj-15", 1 ],
									"destination" : [ "obj-17", 1 ],
									"hidden" : 0,
									"midpoints" : [  ]
								}

							}
, 							{
								"patchline" : 								{
									"source" : [ "obj-17", 0 ],
									"destination" : [ "obj-18", 0 ],
									"hidden" : 0,
									"midpoints" : [  ]
								}

							}
, 							{
								"patchline" : 								{
									"source" : [ "obj-18", 0 ],
									"destination" : [ "obj-14", 0 ],
									"hidden" : 0,
									"midpoints" : [  ]
								}

							}
, 							{
								"patchline" : 								{
									"source" : [ "obj-14", 1 ],
									"destination" : [ "obj-19", 0 ],
									"hidden" : 0,
									"midpoints" : [  ]
								}

							}
, 							{
								"patchline" : 								{
									"source" : [ "obj-14", 0 ],
									"destination" : [ "obj-5", 0 ],
									"hidden" : 0,
									"midpoints" : [  ]
								}

							}
, 							{
								"patchline" : 								{
									"source" : [ "obj-19", 1 ],
									"destination" : [ "obj-5", 1 ],
									"hidden" : 0,
									"midpoints" : [  ]
								}

							}
, 							{
								"patchline" : 								{
									"source" : [ "obj-23", 0 ],
									"destination" : [ "obj-24", 0 ],
									"hidden" : 0,
									"midpoints" : [  ]
								}

							}
, 							{
								"patchline" : 								{
									"source" : [ "obj-21", 0 ],
									"destination" : [ "obj-25", 0 ],
									"hidden" : 0,
									"midpoints" : [  ]
								}

							}
, 							{
								"patchline" : 								{
									"source" : [ "obj-22", 0 ],
									"destination" : [ "obj-26", 0 ],
									"hidden" : 0,
									"midpoints" : [  ]
								}

							}
, 							{
								"patchline" : 								{
									"source" : [ "obj-22", 0 ],
									"destination" : [ "obj-8", 0 ],
									"hidden" : 0,
									"midpoints" : [  ]
								}

							}
, 							{
								"patchline" : 								{
									"source" : [ "obj-8", 0 ],
									"destination" : [ "obj-6", 0 ],
									"hidden" : 0,
									"midpoints" : [  ]
								}

							}
, 							{
								"patchline" : 								{
									"source" : [ "obj-21", 0 ],
									"destination" : [ "obj-9", 0 ],
									"hidden" : 0,
									"midpoints" : [  ]
								}

							}
, 							{
								"patchline" : 								{
									"source" : [ "obj-9", 0 ],
									"destination" : [ "obj-6", 0 ],
									"hidden" : 0,
									"midpoints" : [  ]
								}

							}
, 							{
								"patchline" : 								{
									"source" : [ "obj-23", 0 ],
									"destination" : [ "obj-10", 0 ],
									"hidden" : 0,
									"midpoints" : [  ]
								}

							}
, 							{
								"patchline" : 								{
									"source" : [ "obj-10", 0 ],
									"destination" : [ "obj-6", 0 ],
									"hidden" : 0,
									"midpoints" : [  ]
								}

							}
 ]
					}
,
					"saved_object_attributes" : 					{
						"fontface" : 0,
						"default_fontname" : "Arial",
						"fontsize" : 12.0,
						"globalpatchername" : "",
						"default_fontsize" : 12.0,
						"fontname" : "Arial",
						"default_fontface" : 0
					}

				}

			}
, 			{
				"box" : 				{
					"maxclass" : "newobj",
					"text" : "midiin",
					"fontsize" : 12.0,
					"numinlets" : 1,
					"numoutlets" : 1,
					"outlettype" : [ "int" ],
					"fontname" : "Arial",
					"patching_rect" : [ 467.0, 399.0, 42.0, 20.0 ],
					"id" : "obj-3"
				}

			}
, 			{
				"box" : 				{
					"maxclass" : "comment",
					"text" : "Choose the notes/\"chords\" using these message boxes:",
					"fontsize" : 12.0,
					"numinlets" : 1,
					"numoutlets" : 0,
					"fontname" : "Arial",
					"patching_rect" : [ 7.0, 239.0, 318.0, 20.0 ],
					"id" : "obj-4"
				}

			}
, 			{
				"box" : 				{
					"maxclass" : "message",
					"text" : "writewave soundout.wav",
					"hidden" : 1,
					"fontsize" : 12.0,
					"numinlets" : 2,
					"numoutlets" : 1,
					"outlettype" : [ "" ],
					"fontname" : "Arial",
					"patching_rect" : [ 323.0, 168.0, 141.0, 18.0 ],
					"id" : "obj-38"
				}

			}
, 			{
				"box" : 				{
					"maxclass" : "toggle",
					"hidden" : 1,
					"numinlets" : 1,
					"numoutlets" : 1,
					"outlettype" : [ "int" ],
					"patching_rect" : [ 335.0, 116.0, 20.0, 20.0 ],
					"id" : "obj-36"
				}

			}
, 			{
				"box" : 				{
					"maxclass" : "newobj",
					"text" : "buffer~ soundout 120000 2",
					"hidden" : 1,
					"fontsize" : 12.0,
					"numinlets" : 1,
					"numoutlets" : 2,
					"outlettype" : [ "float", "bang" ],
					"fontname" : "Arial",
					"patching_rect" : [ 323.0, 190.0, 154.0, 20.0 ],
					"id" : "obj-34"
				}

			}
, 			{
				"box" : 				{
					"maxclass" : "newobj",
					"text" : "record~ soundout 2",
					"hidden" : 1,
					"fontsize" : 12.0,
					"numinlets" : 4,
					"numoutlets" : 1,
					"outlettype" : [ "signal" ],
					"fontname" : "Arial",
					"patching_rect" : [ 334.0, 142.0, 114.0, 20.0 ],
					"id" : "obj-33"
				}

			}
, 			{
				"box" : 				{
					"maxclass" : "newobj",
					"text" : "receive~ audioR",
					"fontsize" : 12.0,
					"numinlets" : 1,
					"numoutlets" : 1,
					"outlettype" : [ "signal" ],
					"fontname" : "Arial",
					"patching_rect" : [ 367.0, 41.0, 98.0, 20.0 ],
					"id" : "obj-15"
				}

			}
, 			{
				"box" : 				{
					"maxclass" : "newobj",
					"text" : "receive~ audioL",
					"fontsize" : 12.0,
					"numinlets" : 1,
					"numoutlets" : 1,
					"outlettype" : [ "signal" ],
					"fontname" : "Arial",
					"patching_rect" : [ 349.0, 13.0, 96.0, 20.0 ],
					"id" : "obj-14"
				}

			}
, 			{
				"box" : 				{
					"maxclass" : "newobj",
					"text" : "dac~",
					"fontsize" : 12.0,
					"numinlets" : 2,
					"numoutlets" : 0,
					"fontname" : "Arial",
					"patching_rect" : [ 349.0, 69.0, 37.0, 20.0 ],
					"id" : "obj-13"
				}

			}
, 			{
				"box" : 				{
					"maxclass" : "message",
					"text" : "/note /s1 50, /note /s2 43, /note /s3 60",
					"fontsize" : 12.0,
					"numinlets" : 2,
					"numoutlets" : 1,
					"outlettype" : [ "" ],
					"fontname" : "Arial",
					"patching_rect" : [ 131.0, 317.0, 212.0, 18.0 ],
					"id" : "obj-29"
				}

			}
, 			{
				"box" : 				{
					"maxclass" : "message",
					"text" : "/note /s1 50, /note /s2 52, /note /s3 48",
					"fontsize" : 12.0,
					"numinlets" : 2,
					"numoutlets" : 1,
					"outlettype" : [ "" ],
					"fontname" : "Arial",
					"patching_rect" : [ 63.0, 285.0, 212.0, 18.0 ],
					"id" : "obj-28"
				}

			}
, 			{
				"box" : 				{
					"maxclass" : "message",
					"text" : "/note /s1 50, /note /s2 50.025002, /note /s3 50.05",
					"fontsize" : 12.0,
					"numinlets" : 2,
					"numoutlets" : 1,
					"outlettype" : [ "" ],
					"fontname" : "Arial",
					"patching_rect" : [ 399.0, 241.0, 271.0, 18.0 ],
					"id" : "obj-27"
				}

			}
, 			{
				"box" : 				{
					"maxclass" : "message",
					"text" : "/note /s1 50, /note /s2 50.05, /note /s3 50.1",
					"fontsize" : 12.0,
					"numinlets" : 2,
					"numoutlets" : 1,
					"outlettype" : [ "" ],
					"fontname" : "Arial",
					"patching_rect" : [ 399.0, 264.0, 239.0, 18.0 ],
					"id" : "obj-26"
				}

			}
, 			{
				"box" : 				{
					"maxclass" : "message",
					"text" : "/note /s1 50, /note /s2 50.4, /note /s3 50.6",
					"fontsize" : 12.0,
					"numinlets" : 2,
					"numoutlets" : 1,
					"outlettype" : [ "" ],
					"fontname" : "Arial",
					"patching_rect" : [ 398.0, 335.0, 232.0, 18.0 ],
					"id" : "obj-23"
				}

			}
, 			{
				"box" : 				{
					"maxclass" : "message",
					"text" : "/note /s1 50, /note /s2 50.1, /note /s3 50.2",
					"fontsize" : 12.0,
					"numinlets" : 2,
					"numoutlets" : 1,
					"outlettype" : [ "" ],
					"fontname" : "Arial",
					"patching_rect" : [ 398.0, 287.0, 230.0, 18.0 ],
					"id" : "obj-22"
				}

			}
, 			{
				"box" : 				{
					"maxclass" : "newobj",
					"text" : "loadbang",
					"fontsize" : 12.0,
					"numinlets" : 1,
					"numoutlets" : 1,
					"outlettype" : [ "bang" ],
					"fontname" : "Arial",
					"patching_rect" : [ 3.0, 367.0, 60.0, 20.0 ],
					"id" : "obj-21"
				}

			}
, 			{
				"box" : 				{
					"maxclass" : "message",
					"text" : "/note /s1 26, /note /s2 38, /note /s3 50",
					"fontsize" : 12.0,
					"numinlets" : 2,
					"numoutlets" : 1,
					"outlettype" : [ "" ],
					"fontname" : "Arial",
					"patching_rect" : [ 136.0, 486.0, 212.0, 18.0 ],
					"id" : "obj-20"
				}

			}
, 			{
				"box" : 				{
					"maxclass" : "message",
					"text" : "/note /s1 26, /note /s2 26, /note /s3 26",
					"fontsize" : 12.0,
					"numinlets" : 2,
					"numoutlets" : 1,
					"outlettype" : [ "" ],
					"fontname" : "Arial",
					"patching_rect" : [ 165.0, 391.0, 212.0, 18.0 ],
					"id" : "obj-19"
				}

			}
, 			{
				"box" : 				{
					"maxclass" : "message",
					"text" : "/note /s1 38, /note /s2 38, /note /s3 38",
					"fontsize" : 12.0,
					"numinlets" : 2,
					"numoutlets" : 1,
					"outlettype" : [ "" ],
					"fontname" : "Arial",
					"patching_rect" : [ 153.0, 367.0, 212.0, 18.0 ],
					"id" : "obj-18"
				}

			}
, 			{
				"box" : 				{
					"maxclass" : "message",
					"text" : "/note /s1 50, /note /s2 40, /note /s3 60",
					"fontsize" : 12.0,
					"numinlets" : 2,
					"numoutlets" : 1,
					"outlettype" : [ "" ],
					"fontname" : "Arial",
					"patching_rect" : [ 147.0, 339.0, 212.0, 18.0 ],
					"id" : "obj-16"
				}

			}
, 			{
				"box" : 				{
					"maxclass" : "message",
					"text" : "/note /s1 50, /note /s2 50.2, /note /s3 50.4",
					"fontsize" : 12.0,
					"numinlets" : 2,
					"numoutlets" : 1,
					"outlettype" : [ "" ],
					"fontname" : "Arial",
					"patching_rect" : [ 397.0, 311.0, 232.0, 18.0 ],
					"id" : "obj-12"
				}

			}
, 			{
				"box" : 				{
					"maxclass" : "newobj",
					"text" : "Bowed-String~ s3",
					"fontsize" : 12.0,
					"numinlets" : 1,
					"numoutlets" : 1,
					"outlettype" : [ "signal" ],
					"fontname" : "Arial",
					"patching_rect" : [ 92.0, 100.0, 106.0, 20.0 ],
					"id" : "obj-11"
				}

			}
, 			{
				"box" : 				{
					"maxclass" : "message",
					"text" : "/note /s1 50, /note /s2 51, /note /s3 49",
					"fontsize" : 12.0,
					"numinlets" : 2,
					"numoutlets" : 1,
					"outlettype" : [ "" ],
					"fontname" : "Arial",
					"patching_rect" : [ 51.0, 261.0, 212.0, 18.0 ],
					"id" : "obj-2"
				}

			}
, 			{
				"box" : 				{
					"maxclass" : "newobj",
					"text" : "Bowed-String~ s2",
					"fontsize" : 12.0,
					"numinlets" : 1,
					"numoutlets" : 1,
					"outlettype" : [ "signal" ],
					"fontname" : "Arial",
					"patching_rect" : [ 64.0, 61.0, 106.0, 20.0 ],
					"id" : "obj-9"
				}

			}
, 			{
				"box" : 				{
					"maxclass" : "message",
					"text" : "/instrum 2",
					"fontsize" : 12.0,
					"numinlets" : 2,
					"numoutlets" : 1,
					"outlettype" : [ "" ],
					"fontname" : "Arial",
					"patching_rect" : [ 3.0, 391.0, 63.0, 18.0 ],
					"id" : "obj-6"
				}

			}
, 			{
				"box" : 				{
					"maxclass" : "newobj",
					"text" : "s mess-in",
					"fontsize" : 12.0,
					"numinlets" : 1,
					"numoutlets" : 0,
					"fontname" : "Arial",
					"patching_rect" : [ 45.0, 463.0, 62.0, 20.0 ],
					"id" : "obj-1"
				}

			}
, 			{
				"box" : 				{
					"maxclass" : "newobj",
					"text" : "Bowed-String~ s1",
					"fontsize" : 12.0,
					"numinlets" : 1,
					"numoutlets" : 1,
					"outlettype" : [ "signal" ],
					"fontname" : "Arial",
					"patching_rect" : [ 37.0, 14.0, 106.0, 20.0 ],
					"id" : "obj-7"
				}

			}
, 			{
				"box" : 				{
					"maxclass" : "newobj",
					"text" : "Falcon-angular 0",
					"fontsize" : 12.0,
					"numinlets" : 4,
					"numoutlets" : 4,
					"outlettype" : [ "signal", "signal", "signal", "list" ],
					"fontname" : "Arial",
					"patching_rect" : [ 37.0, 126.0, 101.0, 20.0 ],
					"id" : "obj-17"
				}

			}
 ],
		"lines" : [ 			{
				"patchline" : 				{
					"source" : [ "obj-39", 0 ],
					"destination" : [ "obj-1", 0 ],
					"hidden" : 0,
					"midpoints" : [  ]
				}

			}
, 			{
				"patchline" : 				{
					"source" : [ "obj-37", 0 ],
					"destination" : [ "obj-1", 0 ],
					"hidden" : 0,
					"midpoints" : [  ]
				}

			}
, 			{
				"patchline" : 				{
					"source" : [ "obj-35", 0 ],
					"destination" : [ "obj-1", 0 ],
					"hidden" : 0,
					"midpoints" : [  ]
				}

			}
, 			{
				"patchline" : 				{
					"source" : [ "obj-32", 0 ],
					"destination" : [ "obj-1", 0 ],
					"hidden" : 0,
					"midpoints" : [  ]
				}

			}
, 			{
				"patchline" : 				{
					"source" : [ "obj-31", 0 ],
					"destination" : [ "obj-1", 0 ],
					"hidden" : 0,
					"midpoints" : [  ]
				}

			}
, 			{
				"patchline" : 				{
					"source" : [ "obj-30", 0 ],
					"destination" : [ "obj-1", 0 ],
					"hidden" : 0,
					"midpoints" : [  ]
				}

			}
, 			{
				"patchline" : 				{
					"source" : [ "obj-24", 0 ],
					"destination" : [ "obj-1", 0 ],
					"hidden" : 0,
					"midpoints" : [  ]
				}

			}
, 			{
				"patchline" : 				{
					"source" : [ "obj-10", 0 ],
					"destination" : [ "obj-1", 0 ],
					"hidden" : 0,
					"midpoints" : [  ]
				}

			}
, 			{
				"patchline" : 				{
					"source" : [ "obj-8", 0 ],
					"destination" : [ "obj-1", 0 ],
					"hidden" : 0,
					"midpoints" : [  ]
				}

			}
, 			{
				"patchline" : 				{
					"source" : [ "obj-38", 0 ],
					"destination" : [ "obj-34", 0 ],
					"hidden" : 1,
					"midpoints" : [  ]
				}

			}
, 			{
				"patchline" : 				{
					"source" : [ "obj-36", 0 ],
					"destination" : [ "obj-33", 0 ],
					"hidden" : 1,
					"midpoints" : [  ]
				}

			}
, 			{
				"patchline" : 				{
					"source" : [ "obj-14", 0 ],
					"destination" : [ "obj-33", 0 ],
					"hidden" : 1,
					"midpoints" : [  ]
				}

			}
, 			{
				"patchline" : 				{
					"source" : [ "obj-15", 0 ],
					"destination" : [ "obj-33", 1 ],
					"hidden" : 1,
					"midpoints" : [  ]
				}

			}
, 			{
				"patchline" : 				{
					"source" : [ "obj-14", 0 ],
					"destination" : [ "obj-13", 0 ],
					"hidden" : 0,
					"midpoints" : [  ]
				}

			}
, 			{
				"patchline" : 				{
					"source" : [ "obj-15", 0 ],
					"destination" : [ "obj-13", 1 ],
					"hidden" : 0,
					"midpoints" : [  ]
				}

			}
, 			{
				"patchline" : 				{
					"source" : [ "obj-29", 0 ],
					"destination" : [ "obj-1", 0 ],
					"hidden" : 0,
					"midpoints" : [  ]
				}

			}
, 			{
				"patchline" : 				{
					"source" : [ "obj-28", 0 ],
					"destination" : [ "obj-1", 0 ],
					"hidden" : 0,
					"midpoints" : [  ]
				}

			}
, 			{
				"patchline" : 				{
					"source" : [ "obj-27", 0 ],
					"destination" : [ "obj-1", 0 ],
					"hidden" : 0,
					"midpoints" : [  ]
				}

			}
, 			{
				"patchline" : 				{
					"source" : [ "obj-26", 0 ],
					"destination" : [ "obj-1", 0 ],
					"hidden" : 0,
					"midpoints" : [  ]
				}

			}
, 			{
				"patchline" : 				{
					"source" : [ "obj-23", 0 ],
					"destination" : [ "obj-1", 0 ],
					"hidden" : 0,
					"midpoints" : [  ]
				}

			}
, 			{
				"patchline" : 				{
					"source" : [ "obj-22", 0 ],
					"destination" : [ "obj-1", 0 ],
					"hidden" : 0,
					"midpoints" : [  ]
				}

			}
, 			{
				"patchline" : 				{
					"source" : [ "obj-21", 0 ],
					"destination" : [ "obj-6", 0 ],
					"hidden" : 0,
					"midpoints" : [  ]
				}

			}
, 			{
				"patchline" : 				{
					"source" : [ "obj-20", 0 ],
					"destination" : [ "obj-1", 0 ],
					"hidden" : 0,
					"midpoints" : [  ]
				}

			}
, 			{
				"patchline" : 				{
					"source" : [ "obj-19", 0 ],
					"destination" : [ "obj-1", 0 ],
					"hidden" : 0,
					"midpoints" : [  ]
				}

			}
, 			{
				"patchline" : 				{
					"source" : [ "obj-18", 0 ],
					"destination" : [ "obj-1", 0 ],
					"hidden" : 0,
					"midpoints" : [  ]
				}

			}
, 			{
				"patchline" : 				{
					"source" : [ "obj-16", 0 ],
					"destination" : [ "obj-1", 0 ],
					"hidden" : 0,
					"midpoints" : [  ]
				}

			}
, 			{
				"patchline" : 				{
					"source" : [ "obj-12", 0 ],
					"destination" : [ "obj-1", 0 ],
					"hidden" : 0,
					"midpoints" : [  ]
				}

			}
, 			{
				"patchline" : 				{
					"source" : [ "obj-2", 0 ],
					"destination" : [ "obj-1", 0 ],
					"hidden" : 0,
					"midpoints" : [  ]
				}

			}
, 			{
				"patchline" : 				{
					"source" : [ "obj-6", 0 ],
					"destination" : [ "obj-1", 0 ],
					"hidden" : 0,
					"midpoints" : [  ]
				}

			}
, 			{
				"patchline" : 				{
					"source" : [ "obj-17", 2 ],
					"destination" : [ "obj-11", 0 ],
					"hidden" : 0,
					"midpoints" : [ 101.166664, 155.0, 221.0, 155.0, 221.0, 92.0, 101.5, 92.0 ]
				}

			}
, 			{
				"patchline" : 				{
					"source" : [ "obj-11", 0 ],
					"destination" : [ "obj-17", 2 ],
					"hidden" : 0,
					"midpoints" : [  ]
				}

			}
, 			{
				"patchline" : 				{
					"source" : [ "obj-9", 0 ],
					"destination" : [ "obj-17", 1 ],
					"hidden" : 0,
					"midpoints" : [  ]
				}

			}
, 			{
				"patchline" : 				{
					"source" : [ "obj-17", 1 ],
					"destination" : [ "obj-9", 0 ],
					"hidden" : 0,
					"midpoints" : [ 73.833336, 164.0, 300.0, 164.0, 300.0, 51.0, 73.5, 51.0 ]
				}

			}
, 			{
				"patchline" : 				{
					"source" : [ "obj-17", 0 ],
					"destination" : [ "obj-7", 0 ],
					"hidden" : 0,
					"midpoints" : [ 46.5, 160.0, 17.0, 160.0, 17.0, 5.0, 46.5, 5.0 ]
				}

			}
, 			{
				"patchline" : 				{
					"source" : [ "obj-7", 0 ],
					"destination" : [ "obj-17", 0 ],
					"hidden" : 0,
					"midpoints" : [  ]
				}

			}
 ]
	}

}
