{
	"patcher" : 	{
		"fileversion" : 1,
		"rect" : [ 25.0, 69.0, 640.0, 480.0 ],
		"bglocked" : 0,
		"defrect" : [ 25.0, 69.0, 640.0, 480.0 ],
		"openrect" : [ 0.0, 0.0, 0.0, 0.0 ],
		"openinpresentation" : 0,
		"default_fontsize" : 12.0,
		"default_fontface" : 0,
		"default_fontname" : "Arial",
		"gridonopen" : 0,
		"gridsize" : [ 15.0, 15.0 ],
		"gridsnaponopen" : 0,
		"toolbarvisible" : 1,
		"boxanimatetime" : 200,
		"imprint" : 0,
		"enablehscroll" : 1,
		"enablevscroll" : 1,
		"devicewidth" : 0.0,
		"boxes" : [ 			{
				"box" : 				{
					"maxclass" : "newobj",
					"text" : "p startup-audio-automatically",
					"numoutlets" : 0,
					"fontname" : "Arial",
					"fontsize" : 12.0,
					"patching_rect" : [ 69.0, 275.0, 165.0, 20.0 ],
					"id" : "obj-33",
					"numinlets" : 0,
					"patcher" : 					{
						"fileversion" : 1,
						"rect" : [ 469.0, 224.0, 416.0, 346.0 ],
						"bglocked" : 0,
						"defrect" : [ 469.0, 224.0, 416.0, 346.0 ],
						"openrect" : [ 0.0, 0.0, 0.0, 0.0 ],
						"openinpresentation" : 0,
						"default_fontsize" : 12.0,
						"default_fontface" : 0,
						"default_fontname" : "Arial",
						"gridonopen" : 0,
						"gridsize" : [ 15.0, 15.0 ],
						"gridsnaponopen" : 0,
						"toolbarvisible" : 1,
						"boxanimatetime" : 200,
						"imprint" : 0,
						"enablehscroll" : 1,
						"enablevscroll" : 1,
						"devicewidth" : 0.0,
						"boxes" : [ 							{
								"box" : 								{
									"maxclass" : "newobj",
									"text" : "loadbang",
									"numoutlets" : 1,
									"outlettype" : [ "bang" ],
									"fontname" : "Arial",
									"fontsize" : 12.0,
									"patching_rect" : [ 58.0, 11.0, 60.0, 20.0 ],
									"id" : "obj-1",
									"numinlets" : 1
								}

							}
, 							{
								"box" : 								{
									"maxclass" : "flonum",
									"numoutlets" : 2,
									"outlettype" : [ "float", "bang" ],
									"fontname" : "Arial",
									"fontsize" : 12.0,
									"patching_rect" : [ 280.0, 188.0, 50.0, 20.0 ],
									"id" : "obj-4",
									"numinlets" : 1
								}

							}
, 							{
								"box" : 								{
									"maxclass" : "flonum",
									"numoutlets" : 2,
									"outlettype" : [ "float", "bang" ],
									"fontname" : "Arial",
									"fontsize" : 12.0,
									"patching_rect" : [ 244.0, 225.0, 50.0, 20.0 ],
									"id" : "obj-3",
									"numinlets" : 1
								}

							}
, 							{
								"box" : 								{
									"maxclass" : "button",
									"numoutlets" : 1,
									"outlettype" : [ "bang" ],
									"patching_rect" : [ 58.0, 35.0, 36.0, 36.0 ],
									"id" : "obj-2",
									"numinlets" : 1
								}

							}
, 							{
								"box" : 								{
									"maxclass" : "newobj",
									"text" : "t b b b b b b b b b b b b b b",
									"numoutlets" : 14,
									"outlettype" : [ "bang", "bang", "bang", "bang", "bang", "bang", "bang", "bang", "bang", "bang", "bang", "bang", "bang", "bang" ],
									"fontname" : "Arial",
									"fontsize" : 12.0,
									"patching_rect" : [ 58.0, 75.0, 194.5, 20.0 ],
									"id" : "obj-32",
									"numinlets" : 1
								}

							}
, 							{
								"box" : 								{
									"maxclass" : "message",
									"text" : "3",
									"numoutlets" : 1,
									"outlettype" : [ "" ],
									"fontname" : "Arial",
									"fontsize" : 12.0,
									"patching_rect" : [ 218.0, 143.0, 32.5, 18.0 ],
									"id" : "obj-30",
									"numinlets" : 2
								}

							}
, 							{
								"box" : 								{
									"maxclass" : "newobj",
									"text" : "adstatus iovs",
									"numoutlets" : 2,
									"outlettype" : [ "", "int" ],
									"fontname" : "Arial",
									"fontsize" : 12.0,
									"patching_rect" : [ 218.0, 164.0, 81.0, 20.0 ],
									"id" : "obj-31",
									"numinlets" : 2
								}

							}
, 							{
								"box" : 								{
									"maxclass" : "comment",
									"text" : "Choose correct driver",
									"numoutlets" : 0,
									"fontname" : "Arial",
									"fontsize" : 12.0,
									"patching_rect" : [ 269.0, 98.0, 127.0, 20.0 ],
									"id" : "obj-29",
									"numinlets" : 1
								}

							}
, 							{
								"box" : 								{
									"maxclass" : "message",
									"text" : "1",
									"numoutlets" : 1,
									"outlettype" : [ "" ],
									"fontname" : "Arial",
									"fontsize" : 12.0,
									"patching_rect" : [ 237.0, 99.0, 32.5, 18.0 ],
									"id" : "obj-26",
									"numinlets" : 2
								}

							}
, 							{
								"box" : 								{
									"maxclass" : "newobj",
									"text" : "adstatus driver",
									"numoutlets" : 2,
									"outlettype" : [ "", "int" ],
									"fontname" : "Arial",
									"fontsize" : 12.0,
									"patching_rect" : [ 237.0, 120.0, 89.0, 20.0 ],
									"id" : "obj-27",
									"numinlets" : 2
								}

							}
, 							{
								"box" : 								{
									"maxclass" : "message",
									"text" : "0",
									"numoutlets" : 1,
									"outlettype" : [ "" ],
									"fontname" : "Arial",
									"fontsize" : 12.0,
									"patching_rect" : [ 28.0, 265.0, 32.5, 18.0 ],
									"id" : "obj-24",
									"numinlets" : 2
								}

							}
, 							{
								"box" : 								{
									"maxclass" : "newobj",
									"text" : "adstatus takeover",
									"numoutlets" : 2,
									"outlettype" : [ "", "int" ],
									"fontname" : "Arial",
									"fontsize" : 12.0,
									"patching_rect" : [ 28.0, 286.0, 105.0, 20.0 ],
									"id" : "obj-25",
									"numinlets" : 2
								}

							}
, 							{
								"box" : 								{
									"maxclass" : "message",
									"text" : "1",
									"numoutlets" : 1,
									"outlettype" : [ "" ],
									"fontname" : "Arial",
									"fontsize" : 12.0,
									"patching_rect" : [ 11.0, 139.0, 32.5, 18.0 ],
									"id" : "obj-22",
									"numinlets" : 2
								}

							}
, 							{
								"box" : 								{
									"maxclass" : "newobj",
									"text" : "adstatus switch",
									"numoutlets" : 2,
									"outlettype" : [ "", "int" ],
									"fontname" : "Arial",
									"fontsize" : 12.0,
									"patching_rect" : [ 11.0, 161.0, 93.0, 20.0 ],
									"id" : "obj-23",
									"numinlets" : 2
								}

							}
, 							{
								"box" : 								{
									"maxclass" : "message",
									"text" : "0",
									"numoutlets" : 1,
									"outlettype" : [ "" ],
									"fontname" : "Arial",
									"fontsize" : 12.0,
									"patching_rect" : [ 176.0, 180.0, 32.5, 18.0 ],
									"id" : "obj-20",
									"numinlets" : 2
								}

							}
, 							{
								"box" : 								{
									"maxclass" : "newobj",
									"text" : "adstatus sigvs",
									"numoutlets" : 2,
									"outlettype" : [ "", "int" ],
									"fontname" : "Arial",
									"fontsize" : 12.0,
									"patching_rect" : [ 176.0, 201.0, 87.0, 20.0 ],
									"id" : "obj-18",
									"numinlets" : 2
								}

							}
, 							{
								"box" : 								{
									"maxclass" : "message",
									"text" : "44100",
									"numoutlets" : 1,
									"outlettype" : [ "" ],
									"fontname" : "Arial",
									"fontsize" : 12.0,
									"patching_rect" : [ 123.0, 213.0, 44.0, 18.0 ],
									"id" : "obj-17",
									"numinlets" : 2
								}

							}
, 							{
								"box" : 								{
									"maxclass" : "newobj",
									"text" : "adstatus sr",
									"numoutlets" : 2,
									"outlettype" : [ "", "int" ],
									"fontname" : "Arial",
									"fontsize" : 12.0,
									"patching_rect" : [ 123.0, 234.0, 69.0, 20.0 ],
									"id" : "obj-16",
									"numinlets" : 2
								}

							}
, 							{
								"box" : 								{
									"maxclass" : "message",
									"text" : "0",
									"numoutlets" : 1,
									"outlettype" : [ "" ],
									"fontname" : "Arial",
									"fontsize" : 12.0,
									"patching_rect" : [ 75.0, 236.0, 32.5, 18.0 ],
									"id" : "obj-15",
									"numinlets" : 2
								}

							}
, 							{
								"box" : 								{
									"maxclass" : "newobj",
									"text" : "adstatus overdrive",
									"numoutlets" : 2,
									"outlettype" : [ "", "int" ],
									"fontname" : "Arial",
									"fontsize" : 12.0,
									"patching_rect" : [ 75.0, 257.0, 109.0, 20.0 ],
									"id" : "obj-13",
									"numinlets" : 2
								}

							}
 ],
						"lines" : [ 							{
								"patchline" : 								{
									"source" : [ "obj-1", 0 ],
									"destination" : [ "obj-2", 0 ],
									"hidden" : 0,
									"midpoints" : [  ]
								}

							}
, 							{
								"patchline" : 								{
									"source" : [ "obj-31", 1 ],
									"destination" : [ "obj-4", 0 ],
									"hidden" : 0,
									"midpoints" : [  ]
								}

							}
, 							{
								"patchline" : 								{
									"source" : [ "obj-18", 1 ],
									"destination" : [ "obj-3", 0 ],
									"hidden" : 0,
									"midpoints" : [  ]
								}

							}
, 							{
								"patchline" : 								{
									"source" : [ "obj-2", 0 ],
									"destination" : [ "obj-32", 0 ],
									"hidden" : 0,
									"midpoints" : [  ]
								}

							}
, 							{
								"patchline" : 								{
									"source" : [ "obj-15", 0 ],
									"destination" : [ "obj-13", 0 ],
									"hidden" : 0,
									"midpoints" : [  ]
								}

							}
, 							{
								"patchline" : 								{
									"source" : [ "obj-17", 0 ],
									"destination" : [ "obj-16", 0 ],
									"hidden" : 0,
									"midpoints" : [  ]
								}

							}
, 							{
								"patchline" : 								{
									"source" : [ "obj-20", 0 ],
									"destination" : [ "obj-18", 0 ],
									"hidden" : 0,
									"midpoints" : [  ]
								}

							}
, 							{
								"patchline" : 								{
									"source" : [ "obj-22", 0 ],
									"destination" : [ "obj-23", 0 ],
									"hidden" : 0,
									"midpoints" : [  ]
								}

							}
, 							{
								"patchline" : 								{
									"source" : [ "obj-24", 0 ],
									"destination" : [ "obj-25", 0 ],
									"hidden" : 0,
									"midpoints" : [  ]
								}

							}
, 							{
								"patchline" : 								{
									"source" : [ "obj-26", 0 ],
									"destination" : [ "obj-27", 0 ],
									"hidden" : 0,
									"midpoints" : [  ]
								}

							}
, 							{
								"patchline" : 								{
									"source" : [ "obj-30", 0 ],
									"destination" : [ "obj-31", 0 ],
									"hidden" : 0,
									"midpoints" : [  ]
								}

							}
, 							{
								"patchline" : 								{
									"source" : [ "obj-32", 13 ],
									"destination" : [ "obj-26", 0 ],
									"hidden" : 0,
									"midpoints" : [  ]
								}

							}
, 							{
								"patchline" : 								{
									"source" : [ "obj-32", 12 ],
									"destination" : [ "obj-30", 0 ],
									"hidden" : 0,
									"midpoints" : [  ]
								}

							}
, 							{
								"patchline" : 								{
									"source" : [ "obj-32", 11 ],
									"destination" : [ "obj-20", 0 ],
									"hidden" : 0,
									"midpoints" : [  ]
								}

							}
, 							{
								"patchline" : 								{
									"source" : [ "obj-32", 10 ],
									"destination" : [ "obj-17", 0 ],
									"hidden" : 0,
									"midpoints" : [  ]
								}

							}
, 							{
								"patchline" : 								{
									"source" : [ "obj-32", 9 ],
									"destination" : [ "obj-15", 0 ],
									"hidden" : 0,
									"midpoints" : [  ]
								}

							}
, 							{
								"patchline" : 								{
									"source" : [ "obj-32", 8 ],
									"destination" : [ "obj-24", 0 ],
									"hidden" : 0,
									"midpoints" : [  ]
								}

							}
, 							{
								"patchline" : 								{
									"source" : [ "obj-32", 4 ],
									"destination" : [ "obj-22", 0 ],
									"hidden" : 0,
									"midpoints" : [  ]
								}

							}
 ]
					}
,
					"saved_object_attributes" : 					{
						"globalpatchername" : "",
						"default_fontname" : "Arial",
						"fontname" : "Arial",
						"default_fontsize" : 12.0,
						"fontface" : 0,
						"fontsize" : 12.0,
						"default_fontface" : 0
					}

				}

			}
 ],
		"lines" : [  ]
	}

}
