{
	"patcher" : 	{
		"fileversion" : 1,
		"rect" : [ 641.0, 118.0, 580.0, 632.0 ],
		"bglocked" : 0,
		"defrect" : [ 641.0, 118.0, 580.0, 632.0 ],
		"openrect" : [ 0.0, 0.0, 0.0, 0.0 ],
		"openinpresentation" : 0,
		"default_fontsize" : 12.0,
		"default_fontface" : 0,
		"default_fontname" : "Arial",
		"gridonopen" : 0,
		"gridsize" : [ 15.0, 15.0 ],
		"gridsnaponopen" : 0,
		"toolbarvisible" : 1,
		"boxanimatetime" : 200,
		"imprint" : 0,
		"enablehscroll" : 1,
		"enablevscroll" : 1,
		"devicewidth" : 0.0,
		"boxes" : [ 			{
				"box" : 				{
					"maxclass" : "newobj",
					"text" : "p synth-2",
					"patching_rect" : [ 13.0, 326.0, 60.0, 20.0 ],
					"fontsize" : 12.0,
					"numinlets" : 3,
					"numoutlets" : 0,
					"id" : "obj-65",
					"fontname" : "Arial",
					"patcher" : 					{
						"fileversion" : 1,
						"rect" : [ 294.0, 114.0, 1040.0, 711.0 ],
						"bglocked" : 0,
						"defrect" : [ 294.0, 114.0, 1040.0, 711.0 ],
						"openrect" : [ 0.0, 0.0, 0.0, 0.0 ],
						"openinpresentation" : 0,
						"default_fontsize" : 12.0,
						"default_fontface" : 0,
						"default_fontname" : "Arial",
						"gridonopen" : 0,
						"gridsize" : [ 15.0, 15.0 ],
						"gridsnaponopen" : 0,
						"toolbarvisible" : 1,
						"boxanimatetime" : 200,
						"imprint" : 0,
						"enablehscroll" : 1,
						"enablevscroll" : 1,
						"devicewidth" : 0.0,
						"boxes" : [ 							{
								"box" : 								{
									"maxclass" : "message",
									"text" : "44",
									"patching_rect" : [ 656.0, 39.0, 32.5, 18.0 ],
									"fontsize" : 12.0,
									"numinlets" : 2,
									"numoutlets" : 1,
									"outlettype" : [ "" ],
									"id" : "obj-7",
									"fontname" : "Arial"
								}

							}
, 							{
								"box" : 								{
									"maxclass" : "message",
									"text" : "140",
									"patching_rect" : [ 923.0, 146.0, 32.5, 18.0 ],
									"fontsize" : 12.0,
									"numinlets" : 2,
									"numoutlets" : 1,
									"outlettype" : [ "" ],
									"id" : "obj-12",
									"fontname" : "Arial"
								}

							}
, 							{
								"box" : 								{
									"maxclass" : "newobj",
									"text" : "loadbang",
									"patching_rect" : [ 674.0, 7.0, 60.0, 20.0 ],
									"fontsize" : 12.0,
									"numinlets" : 1,
									"numoutlets" : 1,
									"outlettype" : [ "bang" ],
									"id" : "obj-11",
									"fontname" : "Arial"
								}

							}
, 							{
								"box" : 								{
									"maxclass" : "message",
									"text" : "43",
									"patching_rect" : [ 622.0, 40.0, 32.5, 18.0 ],
									"fontsize" : 12.0,
									"numinlets" : 2,
									"numoutlets" : 1,
									"outlettype" : [ "" ],
									"id" : "obj-10",
									"fontname" : "Arial"
								}

							}
, 							{
								"box" : 								{
									"maxclass" : "newobj",
									"text" : "change",
									"patching_rect" : [ 310.0, 558.0, 50.0, 20.0 ],
									"fontsize" : 12.0,
									"numinlets" : 1,
									"numoutlets" : 3,
									"outlettype" : [ "", "int", "int" ],
									"id" : "obj-51",
									"fontname" : "Arial"
								}

							}
, 							{
								"box" : 								{
									"maxclass" : "flonum",
									"patching_rect" : [ 310.0, 534.0, 50.0, 20.0 ],
									"fontsize" : 12.0,
									"numinlets" : 1,
									"numoutlets" : 2,
									"outlettype" : [ "float", "bang" ],
									"id" : "obj-50",
									"fontname" : "Arial"
								}

							}
, 							{
								"box" : 								{
									"maxclass" : "newobj",
									"text" : "+ 0.",
									"patching_rect" : [ 310.0, 509.0, 32.5, 20.0 ],
									"fontsize" : 12.0,
									"numinlets" : 2,
									"numoutlets" : 1,
									"outlettype" : [ "float" ],
									"id" : "obj-49",
									"fontname" : "Arial"
								}

							}
, 							{
								"box" : 								{
									"maxclass" : "newobj",
									"text" : "* 30.",
									"patching_rect" : [ 310.0, 484.0, 35.0, 20.0 ],
									"fontsize" : 12.0,
									"numinlets" : 2,
									"numoutlets" : 1,
									"outlettype" : [ "float" ],
									"id" : "obj-48",
									"fontname" : "Arial"
								}

							}
, 							{
								"box" : 								{
									"maxclass" : "flonum",
									"patching_rect" : [ 310.0, 459.0, 50.0, 20.0 ],
									"fontsize" : 12.0,
									"numinlets" : 1,
									"numoutlets" : 2,
									"outlettype" : [ "float", "bang" ],
									"id" : "obj-47",
									"fontname" : "Arial"
								}

							}
, 							{
								"box" : 								{
									"maxclass" : "newobj",
									"text" : "snapshot~ 2",
									"patching_rect" : [ 310.0, 434.0, 76.0, 20.0 ],
									"fontsize" : 12.0,
									"numinlets" : 2,
									"numoutlets" : 1,
									"outlettype" : [ "float" ],
									"id" : "obj-45",
									"fontname" : "Arial"
								}

							}
, 							{
								"box" : 								{
									"maxclass" : "newobj",
									"text" : "prepend type",
									"patching_rect" : [ 613.0, 283.0, 68.0, 17.0 ],
									"fontsize" : 9.0,
									"numinlets" : 1,
									"numoutlets" : 1,
									"outlettype" : [ "" ],
									"id" : "obj-9",
									"fontname" : "Arial"
								}

							}
, 							{
								"box" : 								{
									"maxclass" : "umenu",
									"types" : [  ],
									"patching_rect" : [ 613.0, 264.0, 100.0, 17.0 ],
									"fontsize" : 9.0,
									"numinlets" : 1,
									"items" : [ "Maraca", ",", "Cabasa", ",", "Sekere", ",", "Guiro", ",", "Waterdrp", ",", "Bamboo", ",", "Tambourn", ",", "Sleighbl", ",", "Stix1", ",", "Crunch1", ",", "Wrench", ",", "SandPapr", ",", "CokeCan", ",", "NextMug", ",", "PennyMug", ",", "NicklMug", ",", "DimeMug", ",", "QuartMug", ",", "FrancMug", ",", "PesoMug", ",", "BigRocks", ",", "LitlRocks", ",", "TBamboo" ],
									"numoutlets" : 3,
									"outlettype" : [ "int", "", "" ],
									"id" : "obj-17",
									"fontname" : "Arial"
								}

							}
, 							{
								"box" : 								{
									"maxclass" : "newobj",
									"text" : "loadbang",
									"hidden" : 1,
									"patching_rect" : [ 888.0, 311.0, 48.0, 17.0 ],
									"fontsize" : 9.0,
									"numinlets" : 1,
									"numoutlets" : 1,
									"outlettype" : [ "bang" ],
									"id" : "obj-19",
									"fontname" : "Arial"
								}

							}
, 							{
								"box" : 								{
									"maxclass" : "message",
									"text" : "local 1",
									"hidden" : 1,
									"patching_rect" : [ 876.0, 333.0, 40.0, 15.0 ],
									"fontsize" : 9.0,
									"numinlets" : 2,
									"numoutlets" : 1,
									"outlettype" : [ "" ],
									"id" : "obj-27",
									"fontname" : "Arial"
								}

							}
, 							{
								"box" : 								{
									"maxclass" : "fpic",
									"patching_rect" : [ 433.0, 350.0, 140.0, 87.0 ],
									"pic" : "percolate.jpg",
									"numinlets" : 1,
									"numoutlets" : 0,
									"id" : "obj-28"
								}

							}
, 							{
								"box" : 								{
									"maxclass" : "comment",
									"text" : "shakers~",
									"patching_rect" : [ 434.0, 49.0, 158.0, 23.0 ],
									"fontsize" : 14.0,
									"numinlets" : 1,
									"numoutlets" : 0,
									"id" : "obj-29",
									"fontname" : "Arial"
								}

							}
, 							{
								"box" : 								{
									"maxclass" : "comment",
									"text" : "• by perry cook;\rported to MSP by dan trueman",
									"linecount" : 2,
									"patching_rect" : [ 434.0, 312.0, 142.0, 27.0 ],
									"fontsize" : 9.0,
									"numinlets" : 1,
									"numoutlets" : 0,
									"id" : "obj-30",
									"fontname" : "Arial"
								}

							}
, 							{
								"box" : 								{
									"maxclass" : "comment",
									"text" : "resonant freq",
									"patching_rect" : [ 712.0, 243.0, 100.0, 17.0 ],
									"fontsize" : 9.0,
									"numinlets" : 1,
									"numoutlets" : 0,
									"id" : "obj-31",
									"fontname" : "Arial"
								}

							}
, 							{
								"box" : 								{
									"maxclass" : "comment",
									"text" : "with lots of beans",
									"patching_rect" : [ 729.0, 225.0, 100.0, 17.0 ],
									"fontsize" : 9.0,
									"numinlets" : 1,
									"numoutlets" : 0,
									"id" : "obj-32",
									"fontname" : "Arial"
								}

							}
, 							{
								"box" : 								{
									"maxclass" : "comment",
									"text" : "with some decay",
									"patching_rect" : [ 703.0, 208.0, 100.0, 17.0 ],
									"fontsize" : 9.0,
									"numinlets" : 1,
									"numoutlets" : 0,
									"id" : "obj-33",
									"fontname" : "Arial"
								}

							}
, 							{
								"box" : 								{
									"maxclass" : "flonum",
									"htextcolor" : [ 0.870588, 0.870588, 0.870588, 1.0 ],
									"triscale" : 0.9,
									"patching_rect" : [ 613.0, 188.0, 35.0, 17.0 ],
									"fontsize" : 9.0,
									"numinlets" : 1,
									"numoutlets" : 2,
									"bgcolor" : [ 0.866667, 0.866667, 0.866667, 1.0 ],
									"outlettype" : [ "float", "bang" ],
									"id" : "obj-34",
									"fontname" : "Arial"
								}

							}
, 							{
								"box" : 								{
									"maxclass" : "message",
									"text" : "energy $1",
									"patching_rect" : [ 650.0, 188.0, 56.0, 15.0 ],
									"fontsize" : 9.0,
									"numinlets" : 2,
									"numoutlets" : 1,
									"outlettype" : [ "" ],
									"id" : "obj-35",
									"fontname" : "Arial"
								}

							}
, 							{
								"box" : 								{
									"maxclass" : "message",
									"text" : ";\rmax launchbrowser \"file:/Library/Application Support/Cycling '74/PeRColate/STK_html/classShakers.html\"",
									"linecount" : 3,
									"patching_rect" : [ 597.0, 391.0, 265.0, 36.0 ],
									"fontsize" : 9.0,
									"numinlets" : 2,
									"numoutlets" : 1,
									"outlettype" : [ "" ],
									"id" : "obj-36",
									"fontname" : "Arial"
								}

							}
, 							{
								"box" : 								{
									"maxclass" : "meter~",
									"tepidcolor" : [ 0.6, 0.729412, 0.0, 1.0 ],
									"patching_rect" : [ 861.0, 185.0, 16.0, 122.0 ],
									"numinlets" : 1,
									"coldcolor" : [ 0.0, 0.658824, 0.0, 1.0 ],
									"numoutlets" : 1,
									"bgcolor" : [ 0.403922, 0.403922, 0.403922, 1.0 ],
									"outlettype" : [ "float" ],
									"id" : "obj-37",
									"warmcolor" : [ 0.85098, 0.85098, 0.0, 1.0 ]
								}

							}
, 							{
								"box" : 								{
									"maxclass" : "message",
									"text" : "noteon $1 $2",
									"patching_rect" : [ 611.0, 164.0, 69.0, 15.0 ],
									"fontsize" : 9.0,
									"numinlets" : 2,
									"numoutlets" : 1,
									"outlettype" : [ "" ],
									"id" : "obj-38",
									"fontname" : "Arial"
								}

							}
, 							{
								"box" : 								{
									"maxclass" : "newobj",
									"text" : "pack 1. 1.",
									"patching_rect" : [ 611.0, 143.0, 54.0, 17.0 ],
									"fontsize" : 9.0,
									"numinlets" : 2,
									"numoutlets" : 1,
									"outlettype" : [ "" ],
									"id" : "obj-39",
									"fontname" : "Arial"
								}

							}
, 							{
								"box" : 								{
									"maxclass" : "newobj",
									"text" : "/ 127.",
									"patching_rect" : [ 798.0, 122.0, 40.0, 17.0 ],
									"fontsize" : 9.0,
									"numinlets" : 2,
									"numoutlets" : 1,
									"outlettype" : [ "float" ],
									"id" : "obj-40",
									"fontname" : "Arial"
								}

							}
, 							{
								"box" : 								{
									"maxclass" : "newobj",
									"text" : "mtof",
									"patching_rect" : [ 611.0, 122.0, 31.0, 17.0 ],
									"fontsize" : 9.0,
									"numinlets" : 1,
									"numoutlets" : 1,
									"outlettype" : [ "" ],
									"id" : "obj-41",
									"fontname" : "Arial"
								}

							}
, 							{
								"box" : 								{
									"maxclass" : "kslider",
									"patching_rect" : [ 611.0, 80.0, 196.0, 34.0 ],
									"numinlets" : 2,
									"hkeycolor" : [ 0.501961, 0.501961, 0.501961, 1.0 ],
									"numoutlets" : 2,
									"outlettype" : [ "int", "int" ],
									"id" : "obj-42",
									"presentation_rect" : [ 60.0, 60.0, 196.0, 34.0 ]
								}

							}
, 							{
								"box" : 								{
									"maxclass" : "flonum",
									"htextcolor" : [ 0.870588, 0.870588, 0.870588, 1.0 ],
									"triscale" : 0.9,
									"patching_rect" : [ 613.0, 242.0, 35.0, 17.0 ],
									"fontsize" : 9.0,
									"numinlets" : 1,
									"numoutlets" : 2,
									"bgcolor" : [ 0.866667, 0.866667, 0.866667, 1.0 ],
									"outlettype" : [ "float", "bang" ],
									"id" : "obj-43",
									"fontname" : "Arial"
								}

							}
, 							{
								"box" : 								{
									"maxclass" : "flonum",
									"htextcolor" : [ 0.870588, 0.870588, 0.870588, 1.0 ],
									"triscale" : 0.9,
									"patching_rect" : [ 613.0, 224.0, 35.0, 17.0 ],
									"fontsize" : 9.0,
									"numinlets" : 1,
									"numoutlets" : 2,
									"bgcolor" : [ 0.866667, 0.866667, 0.866667, 1.0 ],
									"outlettype" : [ "float", "bang" ],
									"id" : "obj-44",
									"fontname" : "Arial"
								}

							}
, 							{
								"box" : 								{
									"maxclass" : "flonum",
									"htextcolor" : [ 0.870588, 0.870588, 0.870588, 1.0 ],
									"triscale" : 0.9,
									"patching_rect" : [ 613.0, 206.0, 35.0, 17.0 ],
									"fontsize" : 9.0,
									"numinlets" : 1,
									"numoutlets" : 2,
									"bgcolor" : [ 0.866667, 0.866667, 0.866667, 1.0 ],
									"outlettype" : [ "float", "bang" ],
									"id" : "obj-46",
									"fontname" : "Arial"
								}

							}
, 							{
								"box" : 								{
									"maxclass" : "message",
									"text" : "resfreq $1",
									"patching_rect" : [ 650.0, 242.0, 59.0, 15.0 ],
									"fontsize" : 9.0,
									"numinlets" : 2,
									"numoutlets" : 1,
									"outlettype" : [ "" ],
									"id" : "obj-52",
									"fontname" : "Arial"
								}

							}
, 							{
								"box" : 								{
									"maxclass" : "message",
									"text" : "numobjects $1",
									"patching_rect" : [ 650.0, 224.0, 76.0, 15.0 ],
									"fontsize" : 9.0,
									"numinlets" : 2,
									"numoutlets" : 1,
									"outlettype" : [ "" ],
									"id" : "obj-53",
									"fontname" : "Arial"
								}

							}
, 							{
								"box" : 								{
									"maxclass" : "message",
									"text" : "decay $1",
									"patching_rect" : [ 650.0, 206.0, 51.0, 15.0 ],
									"fontsize" : 9.0,
									"numinlets" : 2,
									"numoutlets" : 1,
									"outlettype" : [ "" ],
									"id" : "obj-54",
									"fontname" : "Arial"
								}

							}
, 							{
								"box" : 								{
									"maxclass" : "gain~",
									"patching_rect" : [ 837.0, 185.0, 22.0, 122.0 ],
									"numinlets" : 2,
									"orientation" : 2,
									"numoutlets" : 2,
									"outlettype" : [ "signal", "int" ],
									"id" : "obj-55"
								}

							}
, 							{
								"box" : 								{
									"maxclass" : "ezdac~",
									"patching_rect" : [ 835.0, 330.0, 33.0, 33.0 ],
									"numinlets" : 2,
									"local" : 1,
									"numoutlets" : 0,
									"id" : "obj-56"
								}

							}
, 							{
								"box" : 								{
									"maxclass" : "newobj",
									"text" : "shakers~",
									"patching_rect" : [ 613.0, 317.0, 51.0, 17.0 ],
									"fontsize" : 9.0,
									"numinlets" : 1,
									"numoutlets" : 1,
									"outlettype" : [ "signal" ],
									"id" : "obj-57",
									"fontname" : "Arial"
								}

							}
, 							{
								"box" : 								{
									"maxclass" : "comment",
									"text" : "see this site for detailed information about these algorithms:",
									"linecount" : 2,
									"patching_rect" : [ 597.0, 362.0, 202.0, 27.0 ],
									"fontsize" : 9.0,
									"numinlets" : 1,
									"numoutlets" : 0,
									"id" : "obj-58",
									"fontname" : "Arial"
								}

							}
, 							{
								"box" : 								{
									"maxclass" : "comment",
									"text" : "shake away",
									"patching_rect" : [ 708.0, 189.0, 100.0, 17.0 ],
									"fontsize" : 9.0,
									"numinlets" : 1,
									"numoutlets" : 0,
									"id" : "obj-59",
									"fontname" : "Arial"
								}

							}
, 							{
								"box" : 								{
									"maxclass" : "panel",
									"patching_rect" : [ 597.0, 59.0, 291.0, 300.0 ],
									"numinlets" : 1,
									"rounded" : 2,
									"numoutlets" : 0,
									"shadow" : 2,
									"bgcolor" : [ 0.74902, 0.74902, 0.74902, 1.0 ],
									"id" : "obj-60"
								}

							}
, 							{
								"box" : 								{
									"maxclass" : "comment",
									"text" : "PhISEM (Physically Informed Stochastic Event Modeling) is an algorithmic approach for simulating collisions of multiple independent sound producing objects. This class is a meta-model that can simulate a Maraca, Sekere, Cabasa, Bamboo Wind Chimes, Water Drops, Tambourine, Sleighbells, and a Guiro. PhOLIES (Physically-Oriented Library of Imitated Environmental Sounds) is a similar approach for the synthesis of environmental sounds. This class implements simulations of breaking sticks, crunchy snow (or not), a wrench, sandpaper, and more. This is a superset of the original PeRColate PhiSEM collection",
									"linecount" : 17,
									"patching_rect" : [ 434.0, 75.0, 170.0, 182.0 ],
									"fontsize" : 9.0,
									"numinlets" : 1,
									"numoutlets" : 0,
									"id" : "obj-61",
									"fontname" : "Arial"
								}

							}
, 							{
								"box" : 								{
									"maxclass" : "comment",
									"text" : "Edgar Berdahl, 10/22/2010",
									"linecount" : 2,
									"patching_rect" : [ 223.0, 555.0, 94.0, 34.0 ],
									"fontsize" : 12.0,
									"numinlets" : 1,
									"numoutlets" : 0,
									"id" : "obj-62",
									"fontname" : "Arial"
								}

							}
, 							{
								"box" : 								{
									"maxclass" : "newobj",
									"text" : "*~ 1",
									"patching_rect" : [ 122.0, 211.0, 32.5, 20.0 ],
									"fontsize" : 12.0,
									"numinlets" : 2,
									"numoutlets" : 1,
									"outlettype" : [ "signal" ],
									"id" : "obj-8",
									"fontname" : "Arial"
								}

							}
, 							{
								"box" : 								{
									"maxclass" : "newobj",
									"text" : "abs~",
									"patching_rect" : [ 274.0, 97.0, 37.0, 20.0 ],
									"fontsize" : 12.0,
									"numinlets" : 1,
									"numoutlets" : 1,
									"outlettype" : [ "signal" ],
									"id" : "obj-6",
									"fontname" : "Arial"
								}

							}
, 							{
								"box" : 								{
									"maxclass" : "newobj",
									"text" : "abs~",
									"patching_rect" : [ 160.0, 99.0, 37.0, 20.0 ],
									"fontsize" : 12.0,
									"numinlets" : 1,
									"numoutlets" : 1,
									"outlettype" : [ "signal" ],
									"id" : "obj-5",
									"fontname" : "Arial"
								}

							}
, 							{
								"box" : 								{
									"maxclass" : "newobj",
									"text" : "abs~",
									"patching_rect" : [ 54.0, 98.0, 37.0, 20.0 ],
									"fontsize" : 12.0,
									"numinlets" : 1,
									"numoutlets" : 1,
									"outlettype" : [ "signal" ],
									"id" : "obj-4",
									"fontname" : "Arial"
								}

							}
, 							{
								"box" : 								{
									"maxclass" : "inlet",
									"patching_rect" : [ 274.0, 69.0, 25.0, 25.0 ],
									"numinlets" : 0,
									"numoutlets" : 1,
									"outlettype" : [ "signal" ],
									"id" : "obj-3",
									"comment" : ""
								}

							}
, 							{
								"box" : 								{
									"maxclass" : "inlet",
									"patching_rect" : [ 160.0, 70.0, 25.0, 25.0 ],
									"numinlets" : 0,
									"numoutlets" : 1,
									"outlettype" : [ "signal" ],
									"id" : "obj-2",
									"comment" : ""
								}

							}
, 							{
								"box" : 								{
									"maxclass" : "inlet",
									"patching_rect" : [ 54.0, 69.0, 25.0, 25.0 ],
									"numinlets" : 0,
									"numoutlets" : 1,
									"outlettype" : [ "signal" ],
									"id" : "obj-1",
									"comment" : ""
								}

							}
 ],
						"lines" : [ 							{
								"patchline" : 								{
									"source" : [ "obj-12", 0 ],
									"destination" : [ "obj-55", 0 ],
									"hidden" : 0,
									"midpoints" : [  ]
								}

							}
, 							{
								"patchline" : 								{
									"source" : [ "obj-11", 0 ],
									"destination" : [ "obj-12", 0 ],
									"hidden" : 0,
									"midpoints" : [  ]
								}

							}
, 							{
								"patchline" : 								{
									"source" : [ "obj-10", 0 ],
									"destination" : [ "obj-42", 0 ],
									"hidden" : 0,
									"midpoints" : [  ]
								}

							}
, 							{
								"patchline" : 								{
									"source" : [ "obj-47", 0 ],
									"destination" : [ "obj-48", 0 ],
									"hidden" : 0,
									"midpoints" : [  ]
								}

							}
, 							{
								"patchline" : 								{
									"source" : [ "obj-48", 0 ],
									"destination" : [ "obj-49", 0 ],
									"hidden" : 0,
									"midpoints" : [  ]
								}

							}
, 							{
								"patchline" : 								{
									"source" : [ "obj-49", 0 ],
									"destination" : [ "obj-50", 0 ],
									"hidden" : 0,
									"midpoints" : [  ]
								}

							}
, 							{
								"patchline" : 								{
									"source" : [ "obj-8", 0 ],
									"destination" : [ "obj-45", 0 ],
									"hidden" : 0,
									"midpoints" : [  ]
								}

							}
, 							{
								"patchline" : 								{
									"source" : [ "obj-45", 0 ],
									"destination" : [ "obj-47", 0 ],
									"hidden" : 0,
									"midpoints" : [  ]
								}

							}
, 							{
								"patchline" : 								{
									"source" : [ "obj-19", 0 ],
									"destination" : [ "obj-27", 0 ],
									"hidden" : 1,
									"midpoints" : [  ]
								}

							}
, 							{
								"patchline" : 								{
									"source" : [ "obj-55", 0 ],
									"destination" : [ "obj-37", 0 ],
									"hidden" : 1,
									"midpoints" : [  ]
								}

							}
, 							{
								"patchline" : 								{
									"source" : [ "obj-27", 0 ],
									"destination" : [ "obj-56", 0 ],
									"hidden" : 1,
									"midpoints" : [  ]
								}

							}
, 							{
								"patchline" : 								{
									"source" : [ "obj-57", 0 ],
									"destination" : [ "obj-55", 0 ],
									"hidden" : 1,
									"midpoints" : [  ]
								}

							}
, 							{
								"patchline" : 								{
									"source" : [ "obj-42", 1 ],
									"destination" : [ "obj-40", 0 ],
									"hidden" : 0,
									"midpoints" : [  ]
								}

							}
, 							{
								"patchline" : 								{
									"source" : [ "obj-40", 0 ],
									"destination" : [ "obj-39", 1 ],
									"hidden" : 0,
									"midpoints" : [ 807.5, 141.0, 655.5, 141.0 ]
								}

							}
, 							{
								"patchline" : 								{
									"source" : [ "obj-43", 0 ],
									"destination" : [ "obj-52", 0 ],
									"hidden" : 1,
									"midpoints" : [  ]
								}

							}
, 							{
								"patchline" : 								{
									"source" : [ "obj-44", 0 ],
									"destination" : [ "obj-53", 0 ],
									"hidden" : 1,
									"midpoints" : [  ]
								}

							}
, 							{
								"patchline" : 								{
									"source" : [ "obj-46", 0 ],
									"destination" : [ "obj-54", 0 ],
									"hidden" : 1,
									"midpoints" : [  ]
								}

							}
, 							{
								"patchline" : 								{
									"source" : [ "obj-34", 0 ],
									"destination" : [ "obj-35", 0 ],
									"hidden" : 1,
									"midpoints" : [  ]
								}

							}
, 							{
								"patchline" : 								{
									"source" : [ "obj-38", 0 ],
									"destination" : [ "obj-57", 0 ],
									"hidden" : 1,
									"midpoints" : [  ]
								}

							}
, 							{
								"patchline" : 								{
									"source" : [ "obj-52", 0 ],
									"destination" : [ "obj-57", 0 ],
									"hidden" : 1,
									"midpoints" : [  ]
								}

							}
, 							{
								"patchline" : 								{
									"source" : [ "obj-53", 0 ],
									"destination" : [ "obj-57", 0 ],
									"hidden" : 1,
									"midpoints" : [  ]
								}

							}
, 							{
								"patchline" : 								{
									"source" : [ "obj-54", 0 ],
									"destination" : [ "obj-57", 0 ],
									"hidden" : 1,
									"midpoints" : [  ]
								}

							}
, 							{
								"patchline" : 								{
									"source" : [ "obj-35", 0 ],
									"destination" : [ "obj-57", 0 ],
									"hidden" : 1,
									"midpoints" : [  ]
								}

							}
, 							{
								"patchline" : 								{
									"source" : [ "obj-9", 0 ],
									"destination" : [ "obj-57", 0 ],
									"hidden" : 1,
									"midpoints" : [  ]
								}

							}
, 							{
								"patchline" : 								{
									"source" : [ "obj-17", 1 ],
									"destination" : [ "obj-9", 0 ],
									"hidden" : 0,
									"midpoints" : [  ]
								}

							}
, 							{
								"patchline" : 								{
									"source" : [ "obj-39", 0 ],
									"destination" : [ "obj-38", 0 ],
									"hidden" : 0,
									"midpoints" : [  ]
								}

							}
, 							{
								"patchline" : 								{
									"source" : [ "obj-41", 0 ],
									"destination" : [ "obj-39", 0 ],
									"hidden" : 0,
									"midpoints" : [  ]
								}

							}
, 							{
								"patchline" : 								{
									"source" : [ "obj-42", 0 ],
									"destination" : [ "obj-41", 0 ],
									"hidden" : 0,
									"midpoints" : [  ]
								}

							}
, 							{
								"patchline" : 								{
									"source" : [ "obj-50", 0 ],
									"destination" : [ "obj-51", 0 ],
									"hidden" : 0,
									"midpoints" : [  ]
								}

							}
, 							{
								"patchline" : 								{
									"source" : [ "obj-51", 0 ],
									"destination" : [ "obj-34", 0 ],
									"hidden" : 0,
									"midpoints" : [  ]
								}

							}
, 							{
								"patchline" : 								{
									"source" : [ "obj-4", 0 ],
									"destination" : [ "obj-8", 0 ],
									"hidden" : 0,
									"midpoints" : [  ]
								}

							}
, 							{
								"patchline" : 								{
									"source" : [ "obj-5", 0 ],
									"destination" : [ "obj-8", 0 ],
									"hidden" : 0,
									"midpoints" : [  ]
								}

							}
, 							{
								"patchline" : 								{
									"source" : [ "obj-6", 0 ],
									"destination" : [ "obj-8", 0 ],
									"hidden" : 0,
									"midpoints" : [  ]
								}

							}
, 							{
								"patchline" : 								{
									"source" : [ "obj-3", 0 ],
									"destination" : [ "obj-6", 0 ],
									"hidden" : 0,
									"midpoints" : [  ]
								}

							}
, 							{
								"patchline" : 								{
									"source" : [ "obj-2", 0 ],
									"destination" : [ "obj-5", 0 ],
									"hidden" : 0,
									"midpoints" : [  ]
								}

							}
, 							{
								"patchline" : 								{
									"source" : [ "obj-1", 0 ],
									"destination" : [ "obj-4", 0 ],
									"hidden" : 0,
									"midpoints" : [  ]
								}

							}
, 							{
								"patchline" : 								{
									"source" : [ "obj-55", 0 ],
									"destination" : [ "obj-56", 1 ],
									"hidden" : 0,
									"midpoints" : [  ]
								}

							}
, 							{
								"patchline" : 								{
									"source" : [ "obj-7", 0 ],
									"destination" : [ "obj-42", 0 ],
									"hidden" : 0,
									"midpoints" : [  ]
								}

							}
, 							{
								"patchline" : 								{
									"source" : [ "obj-11", 0 ],
									"destination" : [ "obj-7", 0 ],
									"hidden" : 0,
									"midpoints" : [  ]
								}

							}
 ]
					}
,
					"saved_object_attributes" : 					{
						"globalpatchername" : "",
						"fontface" : 0,
						"fontsize" : 12.0,
						"default_fontface" : 0,
						"default_fontname" : "Arial",
						"fontname" : "Arial",
						"default_fontsize" : 12.0
					}

				}

			}
, 			{
				"box" : 				{
					"maxclass" : "newobj",
					"text" : "p synth-1",
					"patching_rect" : [ 96.0, 589.0, 60.0, 20.0 ],
					"fontsize" : 12.0,
					"numinlets" : 3,
					"numoutlets" : 0,
					"id" : "obj-64",
					"fontname" : "Arial",
					"patcher" : 					{
						"fileversion" : 1,
						"rect" : [ 70.0, 66.0, 858.0, 586.0 ],
						"bglocked" : 0,
						"defrect" : [ 70.0, 66.0, 858.0, 586.0 ],
						"openrect" : [ 0.0, 0.0, 0.0, 0.0 ],
						"openinpresentation" : 0,
						"default_fontsize" : 12.0,
						"default_fontface" : 0,
						"default_fontname" : "Arial",
						"gridonopen" : 0,
						"gridsize" : [ 15.0, 15.0 ],
						"gridsnaponopen" : 0,
						"toolbarvisible" : 1,
						"boxanimatetime" : 200,
						"imprint" : 0,
						"enablehscroll" : 1,
						"enablevscroll" : 1,
						"devicewidth" : 0.0,
						"boxes" : [ 							{
								"box" : 								{
									"maxclass" : "message",
									"text" : "140",
									"patching_rect" : [ 821.0, 144.0, 32.5, 18.0 ],
									"fontsize" : 12.0,
									"numinlets" : 2,
									"numoutlets" : 1,
									"outlettype" : [ "" ],
									"id" : "obj-12",
									"fontname" : "Arial"
								}

							}
, 							{
								"box" : 								{
									"maxclass" : "newobj",
									"text" : "loadbang",
									"patching_rect" : [ 572.0, 5.0, 60.0, 20.0 ],
									"fontsize" : 12.0,
									"numinlets" : 1,
									"numoutlets" : 1,
									"outlettype" : [ "bang" ],
									"id" : "obj-11",
									"fontname" : "Arial"
								}

							}
, 							{
								"box" : 								{
									"maxclass" : "message",
									"text" : "43",
									"patching_rect" : [ 520.0, 38.0, 32.5, 18.0 ],
									"fontsize" : 12.0,
									"numinlets" : 2,
									"numoutlets" : 1,
									"outlettype" : [ "" ],
									"id" : "obj-10",
									"fontname" : "Arial"
								}

							}
, 							{
								"box" : 								{
									"maxclass" : "newobj",
									"text" : "change",
									"patching_rect" : [ 208.0, 556.0, 50.0, 20.0 ],
									"fontsize" : 12.0,
									"numinlets" : 1,
									"numoutlets" : 3,
									"outlettype" : [ "", "int", "int" ],
									"id" : "obj-51",
									"fontname" : "Arial"
								}

							}
, 							{
								"box" : 								{
									"maxclass" : "flonum",
									"patching_rect" : [ 208.0, 532.0, 50.0, 20.0 ],
									"fontsize" : 12.0,
									"numinlets" : 1,
									"numoutlets" : 2,
									"outlettype" : [ "float", "bang" ],
									"id" : "obj-50",
									"fontname" : "Arial"
								}

							}
, 							{
								"box" : 								{
									"maxclass" : "newobj",
									"text" : "+ 0.",
									"patching_rect" : [ 208.0, 507.0, 32.5, 20.0 ],
									"fontsize" : 12.0,
									"numinlets" : 2,
									"numoutlets" : 1,
									"outlettype" : [ "float" ],
									"id" : "obj-49",
									"fontname" : "Arial"
								}

							}
, 							{
								"box" : 								{
									"maxclass" : "newobj",
									"text" : "* 30.",
									"patching_rect" : [ 208.0, 482.0, 35.0, 20.0 ],
									"fontsize" : 12.0,
									"numinlets" : 2,
									"numoutlets" : 1,
									"outlettype" : [ "float" ],
									"id" : "obj-48",
									"fontname" : "Arial"
								}

							}
, 							{
								"box" : 								{
									"maxclass" : "flonum",
									"patching_rect" : [ 208.0, 457.0, 50.0, 20.0 ],
									"fontsize" : 12.0,
									"numinlets" : 1,
									"numoutlets" : 2,
									"outlettype" : [ "float", "bang" ],
									"id" : "obj-47",
									"fontname" : "Arial"
								}

							}
, 							{
								"box" : 								{
									"maxclass" : "newobj",
									"text" : "snapshot~ 2",
									"patching_rect" : [ 208.0, 432.0, 76.0, 20.0 ],
									"fontsize" : 12.0,
									"numinlets" : 2,
									"numoutlets" : 1,
									"outlettype" : [ "float" ],
									"id" : "obj-45",
									"fontname" : "Arial"
								}

							}
, 							{
								"box" : 								{
									"maxclass" : "newobj",
									"text" : "prepend type",
									"patching_rect" : [ 511.0, 281.0, 68.0, 17.0 ],
									"fontsize" : 9.0,
									"numinlets" : 1,
									"numoutlets" : 1,
									"outlettype" : [ "" ],
									"id" : "obj-9",
									"fontname" : "Arial"
								}

							}
, 							{
								"box" : 								{
									"maxclass" : "umenu",
									"types" : [  ],
									"patching_rect" : [ 511.0, 262.0, 100.0, 17.0 ],
									"fontsize" : 9.0,
									"numinlets" : 1,
									"items" : [ "Maraca", ",", "Cabasa", ",", "Sekere", ",", "Guiro", ",", "Waterdrp", ",", "Bamboo", ",", "Tambourn", ",", "Sleighbl", ",", "Stix1", ",", "Crunch1", ",", "Wrench", ",", "SandPapr", ",", "CokeCan", ",", "NextMug", ",", "PennyMug", ",", "NicklMug", ",", "DimeMug", ",", "QuartMug", ",", "FrancMug", ",", "PesoMug", ",", "BigRocks", ",", "LitlRocks", ",", "TBamboo" ],
									"numoutlets" : 3,
									"outlettype" : [ "int", "", "" ],
									"id" : "obj-17",
									"fontname" : "Arial"
								}

							}
, 							{
								"box" : 								{
									"maxclass" : "newobj",
									"text" : "loadbang",
									"hidden" : 1,
									"patching_rect" : [ 786.0, 309.0, 48.0, 17.0 ],
									"fontsize" : 9.0,
									"numinlets" : 1,
									"numoutlets" : 1,
									"outlettype" : [ "bang" ],
									"id" : "obj-19",
									"fontname" : "Arial"
								}

							}
, 							{
								"box" : 								{
									"maxclass" : "message",
									"text" : "local 1",
									"hidden" : 1,
									"patching_rect" : [ 774.0, 331.0, 40.0, 15.0 ],
									"fontsize" : 9.0,
									"numinlets" : 2,
									"numoutlets" : 1,
									"outlettype" : [ "" ],
									"id" : "obj-27",
									"fontname" : "Arial"
								}

							}
, 							{
								"box" : 								{
									"maxclass" : "fpic",
									"patching_rect" : [ 294.0, 353.0, 140.0, 87.0 ],
									"pic" : "percolate.jpg",
									"numinlets" : 1,
									"numoutlets" : 0,
									"id" : "obj-28"
								}

							}
, 							{
								"box" : 								{
									"maxclass" : "comment",
									"text" : "shakers~",
									"patching_rect" : [ 295.0, 52.0, 158.0, 23.0 ],
									"fontsize" : 14.0,
									"numinlets" : 1,
									"numoutlets" : 0,
									"id" : "obj-29",
									"fontname" : "Arial"
								}

							}
, 							{
								"box" : 								{
									"maxclass" : "comment",
									"text" : "• by perry cook;\rported to MSP by dan trueman",
									"linecount" : 2,
									"patching_rect" : [ 295.0, 315.0, 142.0, 27.0 ],
									"fontsize" : 9.0,
									"numinlets" : 1,
									"numoutlets" : 0,
									"id" : "obj-30",
									"fontname" : "Arial"
								}

							}
, 							{
								"box" : 								{
									"maxclass" : "comment",
									"text" : "resonant freq",
									"patching_rect" : [ 610.0, 241.0, 100.0, 17.0 ],
									"fontsize" : 9.0,
									"numinlets" : 1,
									"numoutlets" : 0,
									"id" : "obj-31",
									"fontname" : "Arial"
								}

							}
, 							{
								"box" : 								{
									"maxclass" : "comment",
									"text" : "with lots of beans",
									"patching_rect" : [ 627.0, 223.0, 100.0, 17.0 ],
									"fontsize" : 9.0,
									"numinlets" : 1,
									"numoutlets" : 0,
									"id" : "obj-32",
									"fontname" : "Arial"
								}

							}
, 							{
								"box" : 								{
									"maxclass" : "comment",
									"text" : "with some decay",
									"patching_rect" : [ 601.0, 206.0, 100.0, 17.0 ],
									"fontsize" : 9.0,
									"numinlets" : 1,
									"numoutlets" : 0,
									"id" : "obj-33",
									"fontname" : "Arial"
								}

							}
, 							{
								"box" : 								{
									"maxclass" : "flonum",
									"htextcolor" : [ 0.870588, 0.870588, 0.870588, 1.0 ],
									"triscale" : 0.9,
									"patching_rect" : [ 511.0, 186.0, 35.0, 17.0 ],
									"fontsize" : 9.0,
									"numinlets" : 1,
									"numoutlets" : 2,
									"bgcolor" : [ 0.866667, 0.866667, 0.866667, 1.0 ],
									"outlettype" : [ "float", "bang" ],
									"id" : "obj-34",
									"fontname" : "Arial"
								}

							}
, 							{
								"box" : 								{
									"maxclass" : "message",
									"text" : "energy $1",
									"patching_rect" : [ 548.0, 186.0, 56.0, 15.0 ],
									"fontsize" : 9.0,
									"numinlets" : 2,
									"numoutlets" : 1,
									"outlettype" : [ "" ],
									"id" : "obj-35",
									"fontname" : "Arial"
								}

							}
, 							{
								"box" : 								{
									"maxclass" : "message",
									"text" : ";\rmax launchbrowser \"file:/Library/Application Support/Cycling '74/PeRColate/STK_html/classShakers.html\"",
									"linecount" : 3,
									"patching_rect" : [ 495.0, 389.0, 265.0, 36.0 ],
									"fontsize" : 9.0,
									"numinlets" : 2,
									"numoutlets" : 1,
									"outlettype" : [ "" ],
									"id" : "obj-36",
									"fontname" : "Arial"
								}

							}
, 							{
								"box" : 								{
									"maxclass" : "meter~",
									"tepidcolor" : [ 0.6, 0.729412, 0.0, 1.0 ],
									"patching_rect" : [ 759.0, 183.0, 16.0, 122.0 ],
									"numinlets" : 1,
									"coldcolor" : [ 0.0, 0.658824, 0.0, 1.0 ],
									"numoutlets" : 1,
									"bgcolor" : [ 0.403922, 0.403922, 0.403922, 1.0 ],
									"outlettype" : [ "float" ],
									"id" : "obj-37",
									"warmcolor" : [ 0.85098, 0.85098, 0.0, 1.0 ]
								}

							}
, 							{
								"box" : 								{
									"maxclass" : "message",
									"text" : "noteon $1 $2",
									"patching_rect" : [ 509.0, 162.0, 69.0, 15.0 ],
									"fontsize" : 9.0,
									"numinlets" : 2,
									"numoutlets" : 1,
									"outlettype" : [ "" ],
									"id" : "obj-38",
									"fontname" : "Arial"
								}

							}
, 							{
								"box" : 								{
									"maxclass" : "newobj",
									"text" : "pack 1. 1.",
									"patching_rect" : [ 509.0, 141.0, 54.0, 17.0 ],
									"fontsize" : 9.0,
									"numinlets" : 2,
									"numoutlets" : 1,
									"outlettype" : [ "" ],
									"id" : "obj-39",
									"fontname" : "Arial"
								}

							}
, 							{
								"box" : 								{
									"maxclass" : "newobj",
									"text" : "/ 127.",
									"patching_rect" : [ 696.0, 120.0, 40.0, 17.0 ],
									"fontsize" : 9.0,
									"numinlets" : 2,
									"numoutlets" : 1,
									"outlettype" : [ "float" ],
									"id" : "obj-40",
									"fontname" : "Arial"
								}

							}
, 							{
								"box" : 								{
									"maxclass" : "newobj",
									"text" : "mtof",
									"patching_rect" : [ 509.0, 120.0, 31.0, 17.0 ],
									"fontsize" : 9.0,
									"numinlets" : 1,
									"numoutlets" : 1,
									"outlettype" : [ "" ],
									"id" : "obj-41",
									"fontname" : "Arial"
								}

							}
, 							{
								"box" : 								{
									"maxclass" : "kslider",
									"patching_rect" : [ 509.0, 78.0, 196.0, 34.0 ],
									"numinlets" : 2,
									"hkeycolor" : [ 0.501961, 0.501961, 0.501961, 1.0 ],
									"numoutlets" : 2,
									"outlettype" : [ "int", "int" ],
									"id" : "obj-42",
									"presentation_rect" : [ 60.0, 60.0, 196.0, 34.0 ]
								}

							}
, 							{
								"box" : 								{
									"maxclass" : "flonum",
									"htextcolor" : [ 0.870588, 0.870588, 0.870588, 1.0 ],
									"triscale" : 0.9,
									"patching_rect" : [ 511.0, 240.0, 35.0, 17.0 ],
									"fontsize" : 9.0,
									"numinlets" : 1,
									"numoutlets" : 2,
									"bgcolor" : [ 0.866667, 0.866667, 0.866667, 1.0 ],
									"outlettype" : [ "float", "bang" ],
									"id" : "obj-43",
									"fontname" : "Arial"
								}

							}
, 							{
								"box" : 								{
									"maxclass" : "flonum",
									"htextcolor" : [ 0.870588, 0.870588, 0.870588, 1.0 ],
									"triscale" : 0.9,
									"patching_rect" : [ 511.0, 222.0, 35.0, 17.0 ],
									"fontsize" : 9.0,
									"numinlets" : 1,
									"numoutlets" : 2,
									"bgcolor" : [ 0.866667, 0.866667, 0.866667, 1.0 ],
									"outlettype" : [ "float", "bang" ],
									"id" : "obj-44",
									"fontname" : "Arial"
								}

							}
, 							{
								"box" : 								{
									"maxclass" : "flonum",
									"htextcolor" : [ 0.870588, 0.870588, 0.870588, 1.0 ],
									"triscale" : 0.9,
									"patching_rect" : [ 511.0, 204.0, 35.0, 17.0 ],
									"fontsize" : 9.0,
									"numinlets" : 1,
									"numoutlets" : 2,
									"bgcolor" : [ 0.866667, 0.866667, 0.866667, 1.0 ],
									"outlettype" : [ "float", "bang" ],
									"id" : "obj-46",
									"fontname" : "Arial"
								}

							}
, 							{
								"box" : 								{
									"maxclass" : "message",
									"text" : "resfreq $1",
									"patching_rect" : [ 548.0, 240.0, 59.0, 15.0 ],
									"fontsize" : 9.0,
									"numinlets" : 2,
									"numoutlets" : 1,
									"outlettype" : [ "" ],
									"id" : "obj-52",
									"fontname" : "Arial"
								}

							}
, 							{
								"box" : 								{
									"maxclass" : "message",
									"text" : "numobjects $1",
									"patching_rect" : [ 548.0, 222.0, 76.0, 15.0 ],
									"fontsize" : 9.0,
									"numinlets" : 2,
									"numoutlets" : 1,
									"outlettype" : [ "" ],
									"id" : "obj-53",
									"fontname" : "Arial"
								}

							}
, 							{
								"box" : 								{
									"maxclass" : "message",
									"text" : "decay $1",
									"patching_rect" : [ 548.0, 204.0, 51.0, 15.0 ],
									"fontsize" : 9.0,
									"numinlets" : 2,
									"numoutlets" : 1,
									"outlettype" : [ "" ],
									"id" : "obj-54",
									"fontname" : "Arial"
								}

							}
, 							{
								"box" : 								{
									"maxclass" : "gain~",
									"patching_rect" : [ 735.0, 183.0, 22.0, 122.0 ],
									"numinlets" : 2,
									"orientation" : 2,
									"numoutlets" : 2,
									"outlettype" : [ "signal", "int" ],
									"id" : "obj-55"
								}

							}
, 							{
								"box" : 								{
									"maxclass" : "ezdac~",
									"patching_rect" : [ 734.0, 312.0, 33.0, 33.0 ],
									"numinlets" : 2,
									"local" : 1,
									"numoutlets" : 0,
									"id" : "obj-56"
								}

							}
, 							{
								"box" : 								{
									"maxclass" : "newobj",
									"text" : "shakers~",
									"patching_rect" : [ 511.0, 315.0, 51.0, 17.0 ],
									"fontsize" : 9.0,
									"numinlets" : 1,
									"numoutlets" : 1,
									"outlettype" : [ "signal" ],
									"id" : "obj-57",
									"fontname" : "Arial"
								}

							}
, 							{
								"box" : 								{
									"maxclass" : "comment",
									"text" : "see this site for detailed information about these algorithms:",
									"linecount" : 2,
									"patching_rect" : [ 495.0, 360.0, 202.0, 27.0 ],
									"fontsize" : 9.0,
									"numinlets" : 1,
									"numoutlets" : 0,
									"id" : "obj-58",
									"fontname" : "Arial"
								}

							}
, 							{
								"box" : 								{
									"maxclass" : "comment",
									"text" : "shake away",
									"patching_rect" : [ 606.0, 187.0, 100.0, 17.0 ],
									"fontsize" : 9.0,
									"numinlets" : 1,
									"numoutlets" : 0,
									"id" : "obj-59",
									"fontname" : "Arial"
								}

							}
, 							{
								"box" : 								{
									"maxclass" : "panel",
									"patching_rect" : [ 495.0, 57.0, 291.0, 300.0 ],
									"numinlets" : 1,
									"rounded" : 2,
									"numoutlets" : 0,
									"shadow" : 2,
									"bgcolor" : [ 0.74902, 0.74902, 0.74902, 1.0 ],
									"id" : "obj-60"
								}

							}
, 							{
								"box" : 								{
									"maxclass" : "comment",
									"text" : "PhISEM (Physically Informed Stochastic Event Modeling) is an algorithmic approach for simulating collisions of multiple independent sound producing objects. This class is a meta-model that can simulate a Maraca, Sekere, Cabasa, Bamboo Wind Chimes, Water Drops, Tambourine, Sleighbells, and a Guiro. PhOLIES (Physically-Oriented Library of Imitated Environmental Sounds) is a similar approach for the synthesis of environmental sounds. This class implements simulations of breaking sticks, crunchy snow (or not), a wrench, sandpaper, and more. This is a superset of the original PeRColate PhiSEM collection",
									"linecount" : 18,
									"patching_rect" : [ 295.0, 78.0, 168.0, 193.0 ],
									"fontsize" : 9.0,
									"numinlets" : 1,
									"numoutlets" : 0,
									"id" : "obj-61",
									"fontname" : "Arial"
								}

							}
, 							{
								"box" : 								{
									"maxclass" : "comment",
									"text" : "Edgar Berdahl, 10/22/2010",
									"linecount" : 2,
									"patching_rect" : [ 118.0, 540.0, 94.0, 34.0 ],
									"fontsize" : 12.0,
									"numinlets" : 1,
									"numoutlets" : 0,
									"id" : "obj-62",
									"fontname" : "Arial"
								}

							}
, 							{
								"box" : 								{
									"maxclass" : "newobj",
									"text" : "*~ 1",
									"patching_rect" : [ 58.0, 139.0, 32.5, 20.0 ],
									"fontsize" : 12.0,
									"numinlets" : 2,
									"numoutlets" : 1,
									"outlettype" : [ "signal" ],
									"id" : "obj-8",
									"fontname" : "Arial"
								}

							}
, 							{
								"box" : 								{
									"maxclass" : "newobj",
									"text" : "abs~",
									"patching_rect" : [ 108.0, 96.0, 37.0, 20.0 ],
									"fontsize" : 12.0,
									"numinlets" : 1,
									"numoutlets" : 1,
									"outlettype" : [ "signal" ],
									"id" : "obj-6",
									"fontname" : "Arial"
								}

							}
, 							{
								"box" : 								{
									"maxclass" : "newobj",
									"text" : "abs~",
									"patching_rect" : [ 58.0, 97.0, 37.0, 20.0 ],
									"fontsize" : 12.0,
									"numinlets" : 1,
									"numoutlets" : 1,
									"outlettype" : [ "signal" ],
									"id" : "obj-5",
									"fontname" : "Arial"
								}

							}
, 							{
								"box" : 								{
									"maxclass" : "newobj",
									"text" : "abs~",
									"patching_rect" : [ 7.0, 97.0, 37.0, 20.0 ],
									"fontsize" : 12.0,
									"numinlets" : 1,
									"numoutlets" : 1,
									"outlettype" : [ "signal" ],
									"id" : "obj-4",
									"fontname" : "Arial"
								}

							}
, 							{
								"box" : 								{
									"maxclass" : "inlet",
									"patching_rect" : [ 108.0, 68.0, 25.0, 25.0 ],
									"numinlets" : 0,
									"numoutlets" : 1,
									"outlettype" : [ "signal" ],
									"id" : "obj-3",
									"comment" : ""
								}

							}
, 							{
								"box" : 								{
									"maxclass" : "inlet",
									"patching_rect" : [ 58.0, 68.0, 25.0, 25.0 ],
									"numinlets" : 0,
									"numoutlets" : 1,
									"outlettype" : [ "signal" ],
									"id" : "obj-2",
									"comment" : ""
								}

							}
, 							{
								"box" : 								{
									"maxclass" : "inlet",
									"patching_rect" : [ 7.0, 68.0, 25.0, 25.0 ],
									"numinlets" : 0,
									"numoutlets" : 1,
									"outlettype" : [ "signal" ],
									"id" : "obj-1",
									"comment" : ""
								}

							}
 ],
						"lines" : [ 							{
								"patchline" : 								{
									"source" : [ "obj-1", 0 ],
									"destination" : [ "obj-4", 0 ],
									"hidden" : 0,
									"midpoints" : [  ]
								}

							}
, 							{
								"patchline" : 								{
									"source" : [ "obj-2", 0 ],
									"destination" : [ "obj-5", 0 ],
									"hidden" : 0,
									"midpoints" : [  ]
								}

							}
, 							{
								"patchline" : 								{
									"source" : [ "obj-3", 0 ],
									"destination" : [ "obj-6", 0 ],
									"hidden" : 0,
									"midpoints" : [  ]
								}

							}
, 							{
								"patchline" : 								{
									"source" : [ "obj-6", 0 ],
									"destination" : [ "obj-8", 0 ],
									"hidden" : 0,
									"midpoints" : [  ]
								}

							}
, 							{
								"patchline" : 								{
									"source" : [ "obj-5", 0 ],
									"destination" : [ "obj-8", 0 ],
									"hidden" : 0,
									"midpoints" : [  ]
								}

							}
, 							{
								"patchline" : 								{
									"source" : [ "obj-4", 0 ],
									"destination" : [ "obj-8", 0 ],
									"hidden" : 0,
									"midpoints" : [  ]
								}

							}
, 							{
								"patchline" : 								{
									"source" : [ "obj-51", 0 ],
									"destination" : [ "obj-34", 0 ],
									"hidden" : 0,
									"midpoints" : [  ]
								}

							}
, 							{
								"patchline" : 								{
									"source" : [ "obj-50", 0 ],
									"destination" : [ "obj-51", 0 ],
									"hidden" : 0,
									"midpoints" : [  ]
								}

							}
, 							{
								"patchline" : 								{
									"source" : [ "obj-42", 0 ],
									"destination" : [ "obj-41", 0 ],
									"hidden" : 0,
									"midpoints" : [  ]
								}

							}
, 							{
								"patchline" : 								{
									"source" : [ "obj-41", 0 ],
									"destination" : [ "obj-39", 0 ],
									"hidden" : 0,
									"midpoints" : [  ]
								}

							}
, 							{
								"patchline" : 								{
									"source" : [ "obj-39", 0 ],
									"destination" : [ "obj-38", 0 ],
									"hidden" : 0,
									"midpoints" : [  ]
								}

							}
, 							{
								"patchline" : 								{
									"source" : [ "obj-17", 1 ],
									"destination" : [ "obj-9", 0 ],
									"hidden" : 0,
									"midpoints" : [  ]
								}

							}
, 							{
								"patchline" : 								{
									"source" : [ "obj-9", 0 ],
									"destination" : [ "obj-57", 0 ],
									"hidden" : 1,
									"midpoints" : [  ]
								}

							}
, 							{
								"patchline" : 								{
									"source" : [ "obj-35", 0 ],
									"destination" : [ "obj-57", 0 ],
									"hidden" : 1,
									"midpoints" : [  ]
								}

							}
, 							{
								"patchline" : 								{
									"source" : [ "obj-54", 0 ],
									"destination" : [ "obj-57", 0 ],
									"hidden" : 1,
									"midpoints" : [  ]
								}

							}
, 							{
								"patchline" : 								{
									"source" : [ "obj-53", 0 ],
									"destination" : [ "obj-57", 0 ],
									"hidden" : 1,
									"midpoints" : [  ]
								}

							}
, 							{
								"patchline" : 								{
									"source" : [ "obj-52", 0 ],
									"destination" : [ "obj-57", 0 ],
									"hidden" : 1,
									"midpoints" : [  ]
								}

							}
, 							{
								"patchline" : 								{
									"source" : [ "obj-38", 0 ],
									"destination" : [ "obj-57", 0 ],
									"hidden" : 1,
									"midpoints" : [  ]
								}

							}
, 							{
								"patchline" : 								{
									"source" : [ "obj-34", 0 ],
									"destination" : [ "obj-35", 0 ],
									"hidden" : 1,
									"midpoints" : [  ]
								}

							}
, 							{
								"patchline" : 								{
									"source" : [ "obj-46", 0 ],
									"destination" : [ "obj-54", 0 ],
									"hidden" : 1,
									"midpoints" : [  ]
								}

							}
, 							{
								"patchline" : 								{
									"source" : [ "obj-44", 0 ],
									"destination" : [ "obj-53", 0 ],
									"hidden" : 1,
									"midpoints" : [  ]
								}

							}
, 							{
								"patchline" : 								{
									"source" : [ "obj-43", 0 ],
									"destination" : [ "obj-52", 0 ],
									"hidden" : 1,
									"midpoints" : [  ]
								}

							}
, 							{
								"patchline" : 								{
									"source" : [ "obj-40", 0 ],
									"destination" : [ "obj-39", 1 ],
									"hidden" : 0,
									"midpoints" : [ 705.5, 139.0, 553.5, 139.0 ]
								}

							}
, 							{
								"patchline" : 								{
									"source" : [ "obj-42", 1 ],
									"destination" : [ "obj-40", 0 ],
									"hidden" : 0,
									"midpoints" : [  ]
								}

							}
, 							{
								"patchline" : 								{
									"source" : [ "obj-57", 0 ],
									"destination" : [ "obj-55", 0 ],
									"hidden" : 1,
									"midpoints" : [  ]
								}

							}
, 							{
								"patchline" : 								{
									"source" : [ "obj-55", 0 ],
									"destination" : [ "obj-56", 0 ],
									"hidden" : 0,
									"midpoints" : [  ]
								}

							}
, 							{
								"patchline" : 								{
									"source" : [ "obj-27", 0 ],
									"destination" : [ "obj-56", 0 ],
									"hidden" : 1,
									"midpoints" : [  ]
								}

							}
, 							{
								"patchline" : 								{
									"source" : [ "obj-55", 0 ],
									"destination" : [ "obj-37", 0 ],
									"hidden" : 1,
									"midpoints" : [  ]
								}

							}
, 							{
								"patchline" : 								{
									"source" : [ "obj-19", 0 ],
									"destination" : [ "obj-27", 0 ],
									"hidden" : 1,
									"midpoints" : [  ]
								}

							}
, 							{
								"patchline" : 								{
									"source" : [ "obj-45", 0 ],
									"destination" : [ "obj-47", 0 ],
									"hidden" : 0,
									"midpoints" : [  ]
								}

							}
, 							{
								"patchline" : 								{
									"source" : [ "obj-8", 0 ],
									"destination" : [ "obj-45", 0 ],
									"hidden" : 0,
									"midpoints" : [  ]
								}

							}
, 							{
								"patchline" : 								{
									"source" : [ "obj-49", 0 ],
									"destination" : [ "obj-50", 0 ],
									"hidden" : 0,
									"midpoints" : [  ]
								}

							}
, 							{
								"patchline" : 								{
									"source" : [ "obj-48", 0 ],
									"destination" : [ "obj-49", 0 ],
									"hidden" : 0,
									"midpoints" : [  ]
								}

							}
, 							{
								"patchline" : 								{
									"source" : [ "obj-47", 0 ],
									"destination" : [ "obj-48", 0 ],
									"hidden" : 0,
									"midpoints" : [  ]
								}

							}
, 							{
								"patchline" : 								{
									"source" : [ "obj-10", 0 ],
									"destination" : [ "obj-42", 0 ],
									"hidden" : 0,
									"midpoints" : [  ]
								}

							}
, 							{
								"patchline" : 								{
									"source" : [ "obj-11", 0 ],
									"destination" : [ "obj-10", 0 ],
									"hidden" : 0,
									"midpoints" : [  ]
								}

							}
, 							{
								"patchline" : 								{
									"source" : [ "obj-11", 0 ],
									"destination" : [ "obj-12", 0 ],
									"hidden" : 0,
									"midpoints" : [  ]
								}

							}
, 							{
								"patchline" : 								{
									"source" : [ "obj-12", 0 ],
									"destination" : [ "obj-55", 0 ],
									"hidden" : 0,
									"midpoints" : [  ]
								}

							}
 ]
					}
,
					"saved_object_attributes" : 					{
						"globalpatchername" : "",
						"fontface" : 0,
						"fontsize" : 12.0,
						"default_fontface" : 0,
						"default_fontname" : "Arial",
						"fontname" : "Arial",
						"default_fontsize" : 12.0
					}

				}

			}
, 			{
				"box" : 				{
					"maxclass" : "newobj",
					"text" : "link~ lteleop 10000. 200.",
					"patching_rect" : [ 210.0, 485.0, 141.0, 20.0 ],
					"fontsize" : 12.0,
					"numinlets" : 2,
					"numoutlets" : 2,
					"outlettype" : [ "signal", "signal" ],
					"id" : "obj-24",
					"fontname" : "Arial"
				}

			}
, 			{
				"box" : 				{
					"maxclass" : "newobj",
					"text" : "link~ lteleop 10000. 200.",
					"patching_rect" : [ 212.0, 520.0, 141.0, 20.0 ],
					"fontsize" : 12.0,
					"numinlets" : 2,
					"numoutlets" : 2,
					"outlettype" : [ "signal", "signal" ],
					"id" : "obj-25",
					"fontname" : "Arial"
				}

			}
, 			{
				"box" : 				{
					"maxclass" : "newobj",
					"text" : "link~ lteleop 10000. 200.",
					"patching_rect" : [ 212.0, 553.0, 141.0, 20.0 ],
					"fontsize" : 12.0,
					"numinlets" : 2,
					"numoutlets" : 2,
					"outlettype" : [ "signal", "signal" ],
					"id" : "obj-26",
					"fontname" : "Arial"
				}

			}
, 			{
				"box" : 				{
					"maxclass" : "newobj",
					"text" : "Falcon-angular 2",
					"patching_rect" : [ 105.0, 518.0, 101.0, 20.0 ],
					"fontsize" : 12.0,
					"numinlets" : 4,
					"numoutlets" : 4,
					"outlettype" : [ "signal", "signal", "signal", "list" ],
					"id" : "obj-22",
					"fontname" : "Arial"
				}

			}
, 			{
				"box" : 				{
					"maxclass" : "comment",
					"text" : "Collaborative teleoperation of virtual musical instruments",
					"patching_rect" : [ 225.0, 32.0, 348.0, 20.0 ],
					"fontsize" : 12.0,
					"numinlets" : 1,
					"numoutlets" : 0,
					"id" : "obj-23",
					"fontname" : "Arial"
				}

			}
, 			{
				"box" : 				{
					"maxclass" : "comment",
					"text" : "Edgar Berdahl, 7/14/2010",
					"patching_rect" : [ 225.0, 60.0, 150.0, 20.0 ],
					"fontsize" : 12.0,
					"numinlets" : 1,
					"numoutlets" : 0,
					"id" : "obj-21",
					"fontname" : "Arial"
				}

			}
, 			{
				"box" : 				{
					"maxclass" : "message",
					"text" : "175",
					"hidden" : 1,
					"patching_rect" : [ 43.0, 54.0, 32.5, 18.0 ],
					"fontsize" : 12.0,
					"numinlets" : 2,
					"numoutlets" : 1,
					"outlettype" : [ "" ],
					"id" : "obj-20",
					"fontname" : "Arial"
				}

			}
, 			{
				"box" : 				{
					"maxclass" : "message",
					"text" : "7500",
					"hidden" : 1,
					"patching_rect" : [ 6.0, -21.0, 37.0, 18.0 ],
					"fontsize" : 12.0,
					"numinlets" : 2,
					"numoutlets" : 1,
					"outlettype" : [ "" ],
					"id" : "obj-18",
					"fontname" : "Arial"
				}

			}
, 			{
				"box" : 				{
					"maxclass" : "newobj",
					"text" : "loadbang",
					"hidden" : 1,
					"patching_rect" : [ 5.0, -45.0, 60.0, 20.0 ],
					"fontsize" : 12.0,
					"numinlets" : 1,
					"numoutlets" : 1,
					"outlettype" : [ "bang" ],
					"id" : "obj-16",
					"fontname" : "Arial"
				}

			}
, 			{
				"box" : 				{
					"maxclass" : "slider",
					"prototypename" : "horizontal",
					"patching_rect" : [ 6.0, 5.0, 140.0, 20.0 ],
					"numinlets" : 1,
					"numoutlets" : 1,
					"size" : 15000.0,
					"outlettype" : [ "" ],
					"id" : "obj-12"
				}

			}
, 			{
				"box" : 				{
					"maxclass" : "slider",
					"prototypename" : "horizontal",
					"patching_rect" : [ 41.0, 75.0, 140.0, 20.0 ],
					"numinlets" : 1,
					"numoutlets" : 1,
					"size" : 400.0,
					"outlettype" : [ "" ],
					"id" : "obj-15"
				}

			}
, 			{
				"box" : 				{
					"maxclass" : "comment",
					"text" : "Damping in link",
					"patching_rect" : [ 94.0, 99.0, 94.0, 20.0 ],
					"fontsize" : 12.0,
					"numinlets" : 1,
					"numoutlets" : 0,
					"id" : "obj-14",
					"fontname" : "Arial"
				}

			}
, 			{
				"box" : 				{
					"maxclass" : "comment",
					"text" : "Stiffness of link",
					"patching_rect" : [ 58.0, 33.0, 98.0, 20.0 ],
					"fontsize" : 12.0,
					"numinlets" : 1,
					"numoutlets" : 0,
					"id" : "obj-11",
					"fontname" : "Arial"
				}

			}
, 			{
				"box" : 				{
					"maxclass" : "flonum",
					"patching_rect" : [ 41.0, 99.0, 50.0, 20.0 ],
					"fontsize" : 12.0,
					"numinlets" : 1,
					"numoutlets" : 2,
					"outlettype" : [ "float", "bang" ],
					"id" : "obj-13",
					"fontname" : "Arial"
				}

			}
, 			{
				"box" : 				{
					"maxclass" : "number",
					"patching_rect" : [ 6.0, 32.0, 50.0, 20.0 ],
					"fontsize" : 12.0,
					"numinlets" : 1,
					"numoutlets" : 2,
					"outlettype" : [ "int", "bang" ],
					"id" : "obj-10",
					"fontname" : "Arial"
				}

			}
, 			{
				"box" : 				{
					"maxclass" : "newobj",
					"text" : "pack 0. 0.",
					"patching_rect" : [ 2.0, 151.0, 63.0, 20.0 ],
					"fontsize" : 12.0,
					"numinlets" : 2,
					"numoutlets" : 1,
					"outlettype" : [ "" ],
					"id" : "obj-8",
					"fontname" : "Arial"
				}

			}
, 			{
				"box" : 				{
					"maxclass" : "newobj",
					"text" : "bondo 2",
					"patching_rect" : [ 6.0, 127.0, 54.0, 20.0 ],
					"fontsize" : 12.0,
					"numinlets" : 2,
					"numoutlets" : 2,
					"outlettype" : [ "", "" ],
					"id" : "obj-7",
					"fontname" : "Arial"
				}

			}
, 			{
				"box" : 				{
					"maxclass" : "newobj",
					"text" : "s lteleop",
					"patching_rect" : [ 2.0, 175.0, 55.0, 20.0 ],
					"fontsize" : 12.0,
					"numinlets" : 1,
					"numoutlets" : 0,
					"id" : "obj-6",
					"fontname" : "Arial"
				}

			}
, 			{
				"box" : 				{
					"maxclass" : "newobj",
					"text" : "link~ lteleop 10000. 200.",
					"patching_rect" : [ 235.0, 138.0, 141.0, 20.0 ],
					"fontsize" : 12.0,
					"numinlets" : 2,
					"numoutlets" : 2,
					"outlettype" : [ "signal", "signal" ],
					"id" : "obj-5",
					"fontname" : "Arial"
				}

			}
, 			{
				"box" : 				{
					"maxclass" : "newobj",
					"text" : "link~ lteleop 10000. 200.",
					"patching_rect" : [ 233.0, 295.0, 141.0, 20.0 ],
					"fontsize" : 12.0,
					"numinlets" : 2,
					"numoutlets" : 2,
					"outlettype" : [ "signal", "signal" ],
					"id" : "obj-4",
					"fontname" : "Arial"
				}

			}
, 			{
				"box" : 				{
					"maxclass" : "newobj",
					"text" : "link~ lteleop 10000. 200.",
					"patching_rect" : [ 220.0, 374.0, 141.0, 20.0 ],
					"fontsize" : 12.0,
					"numinlets" : 2,
					"numoutlets" : 2,
					"outlettype" : [ "signal", "signal" ],
					"id" : "obj-3",
					"fontname" : "Arial"
				}

			}
, 			{
				"box" : 				{
					"maxclass" : "newobj",
					"text" : "Falcon-angular 1",
					"patching_rect" : [ 84.0, 211.0, 101.0, 20.0 ],
					"fontsize" : 12.0,
					"numinlets" : 4,
					"numoutlets" : 4,
					"outlettype" : [ "signal", "signal", "signal", "list" ],
					"id" : "obj-2",
					"fontname" : "Arial"
				}

			}
, 			{
				"box" : 				{
					"maxclass" : "newobj",
					"text" : "Falcon-angular 0",
					"patching_rect" : [ 436.0, 209.0, 101.0, 20.0 ],
					"fontsize" : 12.0,
					"numinlets" : 4,
					"numoutlets" : 4,
					"outlettype" : [ "signal", "signal", "signal", "list" ],
					"id" : "obj-1",
					"fontname" : "Arial"
				}

			}
 ],
		"lines" : [ 			{
				"patchline" : 				{
					"source" : [ "obj-22", 0 ],
					"destination" : [ "obj-26", 0 ],
					"hidden" : 0,
					"midpoints" : [  ]
				}

			}
, 			{
				"patchline" : 				{
					"source" : [ "obj-26", 0 ],
					"destination" : [ "obj-22", 0 ],
					"hidden" : 0,
					"midpoints" : [  ]
				}

			}
, 			{
				"patchline" : 				{
					"source" : [ "obj-22", 1 ],
					"destination" : [ "obj-25", 0 ],
					"hidden" : 0,
					"midpoints" : [  ]
				}

			}
, 			{
				"patchline" : 				{
					"source" : [ "obj-25", 0 ],
					"destination" : [ "obj-22", 1 ],
					"hidden" : 0,
					"midpoints" : [  ]
				}

			}
, 			{
				"patchline" : 				{
					"source" : [ "obj-24", 0 ],
					"destination" : [ "obj-22", 2 ],
					"hidden" : 0,
					"midpoints" : [  ]
				}

			}
, 			{
				"patchline" : 				{
					"source" : [ "obj-22", 2 ],
					"destination" : [ "obj-24", 0 ],
					"hidden" : 0,
					"midpoints" : [  ]
				}

			}
, 			{
				"patchline" : 				{
					"source" : [ "obj-1", 2 ],
					"destination" : [ "obj-24", 1 ],
					"hidden" : 0,
					"midpoints" : [  ]
				}

			}
, 			{
				"patchline" : 				{
					"source" : [ "obj-1", 1 ],
					"destination" : [ "obj-25", 1 ],
					"hidden" : 0,
					"midpoints" : [  ]
				}

			}
, 			{
				"patchline" : 				{
					"source" : [ "obj-1", 0 ],
					"destination" : [ "obj-26", 1 ],
					"hidden" : 0,
					"midpoints" : [  ]
				}

			}
, 			{
				"patchline" : 				{
					"source" : [ "obj-16", 0 ],
					"destination" : [ "obj-20", 0 ],
					"hidden" : 1,
					"midpoints" : [  ]
				}

			}
, 			{
				"patchline" : 				{
					"source" : [ "obj-20", 0 ],
					"destination" : [ "obj-15", 0 ],
					"hidden" : 1,
					"midpoints" : [  ]
				}

			}
, 			{
				"patchline" : 				{
					"source" : [ "obj-16", 0 ],
					"destination" : [ "obj-18", 0 ],
					"hidden" : 1,
					"midpoints" : [  ]
				}

			}
, 			{
				"patchline" : 				{
					"source" : [ "obj-18", 0 ],
					"destination" : [ "obj-12", 0 ],
					"hidden" : 1,
					"midpoints" : [  ]
				}

			}
, 			{
				"patchline" : 				{
					"source" : [ "obj-12", 0 ],
					"destination" : [ "obj-10", 0 ],
					"hidden" : 0,
					"midpoints" : [  ]
				}

			}
, 			{
				"patchline" : 				{
					"source" : [ "obj-15", 0 ],
					"destination" : [ "obj-13", 0 ],
					"hidden" : 0,
					"midpoints" : [  ]
				}

			}
, 			{
				"patchline" : 				{
					"source" : [ "obj-13", 0 ],
					"destination" : [ "obj-7", 1 ],
					"hidden" : 0,
					"midpoints" : [  ]
				}

			}
, 			{
				"patchline" : 				{
					"source" : [ "obj-10", 0 ],
					"destination" : [ "obj-7", 0 ],
					"hidden" : 0,
					"midpoints" : [  ]
				}

			}
, 			{
				"patchline" : 				{
					"source" : [ "obj-8", 0 ],
					"destination" : [ "obj-6", 0 ],
					"hidden" : 0,
					"midpoints" : [  ]
				}

			}
, 			{
				"patchline" : 				{
					"source" : [ "obj-7", 1 ],
					"destination" : [ "obj-8", 1 ],
					"hidden" : 0,
					"midpoints" : [  ]
				}

			}
, 			{
				"patchline" : 				{
					"source" : [ "obj-7", 0 ],
					"destination" : [ "obj-8", 0 ],
					"hidden" : 0,
					"midpoints" : [  ]
				}

			}
, 			{
				"patchline" : 				{
					"source" : [ "obj-2", 0 ],
					"destination" : [ "obj-3", 0 ],
					"hidden" : 0,
					"midpoints" : [ 93.5, 367.0, 229.5, 367.0 ]
				}

			}
, 			{
				"patchline" : 				{
					"source" : [ "obj-3", 0 ],
					"destination" : [ "obj-2", 0 ],
					"hidden" : 0,
					"midpoints" : [ 229.5, 399.0, 83.0, 399.0, 83.0, 203.0, 93.5, 203.0 ]
				}

			}
, 			{
				"patchline" : 				{
					"source" : [ "obj-2", 1 ],
					"destination" : [ "obj-4", 0 ],
					"hidden" : 0,
					"midpoints" : [ 120.833336, 288.0, 242.5, 288.0 ]
				}

			}
, 			{
				"patchline" : 				{
					"source" : [ "obj-4", 0 ],
					"destination" : [ "obj-2", 1 ],
					"hidden" : 0,
					"midpoints" : [ 242.5, 320.0, 113.0, 320.0, 113.0, 202.0, 120.833336, 202.0 ]
				}

			}
, 			{
				"patchline" : 				{
					"source" : [ "obj-1", 0 ],
					"destination" : [ "obj-3", 1 ],
					"hidden" : 0,
					"midpoints" : [ 445.5, 368.0, 351.5, 368.0 ]
				}

			}
, 			{
				"patchline" : 				{
					"source" : [ "obj-1", 1 ],
					"destination" : [ "obj-4", 1 ],
					"hidden" : 0,
					"midpoints" : [ 472.833344, 287.0, 364.5, 287.0 ]
				}

			}
, 			{
				"patchline" : 				{
					"source" : [ "obj-5", 0 ],
					"destination" : [ "obj-2", 2 ],
					"hidden" : 0,
					"midpoints" : [ 244.5, 204.0, 148.166672, 204.0 ]
				}

			}
, 			{
				"patchline" : 				{
					"source" : [ "obj-2", 2 ],
					"destination" : [ "obj-5", 0 ],
					"hidden" : 0,
					"midpoints" : [ 148.166672, 236.0, 229.0, 236.0, 229.0, 133.0, 244.5, 133.0 ]
				}

			}
, 			{
				"patchline" : 				{
					"source" : [ "obj-1", 2 ],
					"destination" : [ "obj-5", 1 ],
					"hidden" : 0,
					"midpoints" : [ 500.166656, 235.0, 381.0, 235.0, 381.0, 132.0, 366.5, 132.0 ]
				}

			}
, 			{
				"patchline" : 				{
					"source" : [ "obj-22", 0 ],
					"destination" : [ "obj-64", 0 ],
					"hidden" : 0,
					"midpoints" : [  ]
				}

			}
, 			{
				"patchline" : 				{
					"source" : [ "obj-22", 1 ],
					"destination" : [ "obj-64", 1 ],
					"hidden" : 0,
					"midpoints" : [  ]
				}

			}
, 			{
				"patchline" : 				{
					"source" : [ "obj-22", 2 ],
					"destination" : [ "obj-64", 2 ],
					"hidden" : 0,
					"midpoints" : [  ]
				}

			}
, 			{
				"patchline" : 				{
					"source" : [ "obj-2", 0 ],
					"destination" : [ "obj-65", 0 ],
					"hidden" : 0,
					"midpoints" : [  ]
				}

			}
, 			{
				"patchline" : 				{
					"source" : [ "obj-2", 1 ],
					"destination" : [ "obj-65", 1 ],
					"hidden" : 0,
					"midpoints" : [  ]
				}

			}
, 			{
				"patchline" : 				{
					"source" : [ "obj-2", 2 ],
					"destination" : [ "obj-65", 2 ],
					"hidden" : 0,
					"midpoints" : [  ]
				}

			}
 ]
	}

}
