#N canvas 434 129 560 449 10;
#X obj 318 15 loadbang;
#X msg 345 60 22050;
#X text 385 55 For now assume that this;
#X text 386 65 is the audio sampling rate.;
#X obj 11 155 inlet~;
#X obj 11 386 outlet~;
#X obj 11 260 biquad~ 0 0 0.333333 0.333333 0.333333;
#X obj 11 237 biquad~ 0 0 0.333333 0.333333 0.333333;
#X obj 11 282 biquad~ 0 0 0.5 0.5 0;
#X obj 11 180 delwrite~ \$0wgend 100;
#X obj 11 213 delread~ \$0wgend 4;
#X obj 11 343 *~ -0.99;
#X text 187 316 Arg 1: Object label;
#X text 187 335 Arg 2: Damping parameter (usually between -0.99999
and 0.99999);
#X text 187 359 Arg 3: Delay line length in sec;
#X text 187 378 Arg 4: Low-pass filter coefficient (not implemented
yet!!);
#X text 9 79 One end of a digital waveguide;
#X obj 259 -32 r \$1;
#X obj 259 -9 unpack 0 0 0;
#X obj 345 82 expr 3.5/$f1;
#X text 321 145 Subtract phase delay due to;
#X text 321 156 FIR filters;
#X obj 293 152 - 0;
#X obj 312 115 float \$3;
#X obj 293 176 * 1000;
#X text 335 177 Convert s to ms;
#X obj 318 37 t b b;
#X obj 325 267 block~ 1;
#X text 314 239 Probably not necessary but it makes;
#X text 314 251 the math easier for now ...;
#X connect 0 0 26 0;
#X connect 1 0 19 0;
#X connect 4 0 9 0;
#X connect 6 0 8 0;
#X connect 7 0 6 0;
#X connect 8 0 11 0;
#X connect 10 0 7 0;
#X connect 11 0 5 0;
#X connect 17 0 18 0;
#X connect 18 0 11 1;
#X connect 18 1 22 0;
#X connect 19 0 22 1;
#X connect 22 0 24 0;
#X connect 23 0 22 0;
#X connect 24 0 10 0;
#X connect 26 0 23 0;
#X connect 26 1 1 0;
