#N canvas 53 23 338 294 10;
#X obj 6 40 inlet~;
#X obj 5 203 outlet~;
#X obj 108 39 inlet~;
#X obj 289 80 inlet~;
#X obj 263 195 outlet~;
#X obj 105 203 outlet~;
#X obj 109 88 *~;
#X obj 167 6 r \$1;
#X obj 167 37 float \$2;
#X obj 208 7 loadbang;
#X obj 167 59 expr 0.5/$f1;
#X obj 6 151 +~;
#N canvas 218 85 281 202 integrator 0;
#X obj 13 12 inlet~;
#X obj 11 173 outlet~;
#X obj 68 74 loadbang;
#X msg 68 96 22050;
#X text 108 91 For now assume that this;
#X text 109 101 is the audio sampling rate.;
#X obj 68 118 expr 1.0/$f1;
#X obj 11 151 *~ 2.3e-05;
#X obj 12 41 biquad~ 0.9999 0 0.0001 0 0;
#X connect 0 0 8 0;
#X connect 2 0 3 0;
#X connect 3 0 6 0;
#X connect 6 0 7 1;
#X connect 7 0 1 0;
#X connect 8 0 7 0;
#X restore 104 179 pd integrator;
#X obj 120 129 +~;
#X text 3 238 Explicit control junction for haptic;
#X text 2 251 interaction with a digital waveguide.;
#X text 3 274 Edgar Berdahl \, Oct 2010;
#X obj 57 125 +~;
#X obj 7 8 block~ 1;
#X connect 0 0 11 0;
#X connect 0 0 13 0;
#X connect 2 0 6 0;
#X connect 3 0 17 1;
#X connect 6 0 13 1;
#X connect 6 0 17 0;
#X connect 7 0 8 0;
#X connect 8 0 10 0;
#X connect 9 0 8 0;
#X connect 10 0 6 1;
#X connect 11 0 12 0;
#X connect 12 0 5 0;
#X connect 13 0 4 0;
#X connect 17 0 1 0;
#X connect 17 0 11 1;
