#N canvas 483 142 780 573 10;
#X obj 20 237 cnv 15 60 22 empty empty empty 20 12 0 14 -253938 -66577
0;
#X msg 28 238 open 2;
#N canvas 123 312 525 433 serin 0;
#X obj 180 61 cnv 15 15 15 empty \$0-number-canvas 2 4 8 0 14 -233017
-1 0;
#X obj 200 225 s \$0-number-canvas;
#X obj 60 61 hradio 15 1 1 8 empty empty empty 0 -6 0 8 -225271 -1
-1 2;
#X obj 60 13 inlet;
#X msg 200 202 label \$1;
#X obj 200 180 makefilename %d;
#X obj 59 108 int;
#X msg 59 206 open \$1;
#X obj 59 377 outlet;
#X msg 201 306 set \$1 \$2;
#X obj 59 266 trigger bang anything;
#X obj 201 286 list;
#X obj 383 383 outlet;
#X obj 384 22 netreceive 34567;
#X obj 477 43 tgl 15 0 empty empty empty 0 -6 0 10 -262144 -1 -1 0
1;
#X obj 384 41 bng 15 250 50 0 empty empty empty 0 -6 0 10 -262144 -1
-1;
#X obj 187 24 delay 15000;
#X text 345 379 close;
#X text 209 4 for open/close automation in Makefile;
#N canvas 698 22 318 215 reset 0;
#X obj 65 24 inlet;
#X obj 66 58 bang;
#X obj 66 150 send ARDUINO_TEST_RESET;
#X msg 66 129 0;
#X msg 111 99 1;
#X obj 111 120 send ARDUINO_PINMODE_RESET;
#X connect 0 0 1 0;
#X connect 1 0 3 0;
#X connect 1 0 4 0;
#X connect 3 0 2 0;
#X connect 4 0 5 0;
#X restore 172 111 pd reset guis;
#X connect 2 0 6 0;
#X connect 2 0 19 0;
#X connect 3 0 2 0;
#X connect 4 0 1 0;
#X connect 5 0 4 0;
#X connect 6 0 5 0;
#X connect 6 0 7 0;
#X connect 7 0 10 0;
#X connect 9 0 8 0;
#X connect 10 0 8 0;
#X connect 10 1 11 0;
#X connect 11 0 9 0;
#X connect 13 0 15 0;
#X connect 13 1 14 0;
#X connect 15 0 16 0;
#X connect 15 0 12 0;
#X connect 16 0 2 0;
#X coords 0 -1 1 1 136 17 1 60 60;
#X restore 28 214 pd serin;
#X text 26 195 serial port #;
#X msg 157 237 close;
#X text 26 185 select serial port;
#X obj 31 30 block~ 1;
#X obj 157 468 outlet~;
#X obj 215 71 snapshot~;
#X obj 215 40 inlet~;
#X obj 340 -80 loadbang;
#X obj 340 -58 tgl 15 0 empty empty empty 17 7 0 10 -262144 -1 -1 1
1;
#X obj 157 293 comport \$1 57600;
#X msg 178 270 pollintervall 0;
#X obj 340 -38 metro 2;
#X text 395 150 THIS SUBPATCH INTERFACES WITH THE FORCE-FEEDBACK DEVICE
AND CONVERTS TO AND FROM SI UNITS.;
#X text 460 181 Edgar Berdahl \, Oct. 2011;
#N canvas 194 105 483 197 example-get-other-analog-input 0;
#X obj 14 12 inlet;
#X obj 61 166 outlet;
#X obj 61 142 spigot;
#X obj 104 7 inlet;
#X text 133 38 Pick off a different analog value being;
#X text 131 49 sent over the serial.;
#X obj 111 86 == 5;
#X text 144 83 For instance \, for the fifth byte after the sentinel.
;
#X connect 0 0 2 0;
#X connect 2 0 1 0;
#X connect 3 0 6 0;
#X connect 6 0 2 1;
#X restore 570 403 pd example-get-other-analog-input;
#N canvas 0 22 392 208 for-debugging-serial-speed 0;
#X obj -11 16 inlet;
#X floatatom -8 98 5 0 0 0 - - -;
#N canvas 0 22 272 197 calculate-how-often-getting-data-in-serial 0
;
#X obj 17 12 inlet;
#X obj 17 168 outlet;
#X obj 17 56 realtime;
#X obj 17 77 t f b;
#X obj 50 100 counter;
#X obj 98 41 loadbang;
#X obj 50 123 == 0;
#X obj 17 146 spigot;
#X obj 17 34 t b b;
#X text 118 128 Take every 100 times;
#X msg 98 66 100;
#X connect 0 0 8 0;
#X connect 2 0 3 0;
#X connect 3 0 7 0;
#X connect 3 1 4 0;
#X connect 4 0 6 0;
#X connect 5 0 10 0;
#X connect 6 0 7 1;
#X connect 7 0 1 0;
#X connect 8 0 2 0;
#X connect 8 1 2 1;
#X connect 10 0 4 4;
#X connect 10 0 4 3;
#X restore -8 76 pd calculate-how-often-getting-data-in-serial;
#X text 26 97 ms;
#X obj 52 144 spigot;
#X obj 54 102 t f f;
#X obj 52 169 print;
#X obj 98 121 > 2;
#X text -4 46 Can use this to see how fast the driver is running with
this OS ...;
#X connect 0 0 2 0;
#X connect 2 0 1 0;
#X connect 2 0 5 0;
#X connect 5 0 4 0;
#X connect 5 1 7 0;
#X connect 7 0 4 1;
#X restore 401 284 pd for-debugging-serial-speed;
#N canvas 194 105 389 219 get-potA-value 0;
#X obj 14 12 inlet;
#X obj 61 192 outlet;
#X obj 61 142 spigot;
#X obj 104 7 inlet;
#X obj 111 86 == 1;
#X obj 61 167 - 128;
#X text 162 43 Pick off the position of the fader.;
#X text 144 83 It's the FIRST byte after the sentinel.;
#X text 99 166 Put zero position of the fader in the center.;
#X connect 0 0 2 0;
#X connect 2 0 5 0;
#X connect 3 0 4 0;
#X connect 4 0 2 1;
#X connect 5 0 1 0;
#X restore 157 424 pd get-potA-value;
#N canvas 194 105 389 219 get-potB-value 0;
#X obj 14 12 inlet;
#X obj 61 192 outlet;
#X obj 61 142 spigot;
#X obj 104 7 inlet;
#X obj 61 167 - 128;
#X text 162 43 Pick off the position of the fader.;
#X text 99 166 Put zero position of the fader in the center.;
#X obj 111 86 == 2;
#X text 144 83 It's the SECOND byte after the sentinel.;
#X connect 0 0 2 0;
#X connect 2 0 4 0;
#X connect 3 0 7 0;
#X connect 4 0 1 0;
#X connect 7 0 2 1;
#X restore 293 423 pd get-potB-value;
#N canvas 0 22 465 197 process-position 0;
#X msg 40 115 \$1 10;
#X text 54 45 Map to output range approx in "meters";
#X obj 40 137 line~;
#X text 78 140 Convert to audio-rate signal for convenience of HSP
modeling;
#X obj 13 82 t b f;
#X obj 13 58 * 0.05;
#X obj 13 36 / 128;
#X obj 13 13 inlet;
#X obj 40 161 outlet~;
#X connect 0 0 2 0;
#X connect 2 0 8 0;
#X connect 4 1 0 0;
#X connect 5 0 4 0;
#X connect 6 0 5 0;
#X connect 7 0 6 0;
#X restore 157 446 pd process-position;
#X obj 293 467 outlet~;
#N canvas 0 22 465 197 process-position 0;
#X msg 40 115 \$1 10;
#X text 54 45 Map to output range approx in "meters";
#X obj 40 137 line~;
#X text 78 140 Convert to audio-rate signal for convenience of HSP
modeling;
#X obj 13 82 t b f;
#X obj 13 58 * 0.05;
#X obj 13 36 / 128;
#X obj 13 13 inlet;
#X obj 40 161 outlet~;
#X connect 0 0 2 0;
#X connect 2 0 8 0;
#X connect 4 1 0 0;
#X connect 5 0 4 0;
#X connect 6 0 5 0;
#X connect 7 0 6 0;
#X restore 293 445 pd process-position;
#N canvas 159 171 317 372 find-position-in-packet 0;
#X obj 18 13 inlet;
#X obj 46 253 counter;
#X obj 96 159 loadbang;
#X obj 96 182 bng 15 250 50 0 empty empty empty 17 7 0 10 -262144 -1
-1;
#X obj 18 338 outlet;
#X obj 94 283 outlet;
#X text 100 22 FINDS HEADER AND COUNTS INDICES;
#X obj 65 102 sel 255;
#X obj 65 126 bng 15 250 50 0 empty empty empty 17 7 0 10 -262144 -1
-1;
#X obj 84 225 t f f;
#X obj 37 207 bng 15 250 50 0 empty empty empty 17 7 0 10 -262144 -1
-1;
#X floatatom 46 281 5 0 0 0 - - -;
#X text 100 32 FOR DATA BYTES THEREAFTER;
#X text 169 190 0: Header 0xFF = 255;
#X text 169 202 1: Encoder MSB;
#X text 169 215 2: Encoder LSB;
#X text 169 228 3: FSR MSB;
#X text 169 241 4: FSR LSB;
#X obj 18 35 t f b f;
#X text 84 127 Set back to minimum;
#X msg 96 203 6;
#X connect 0 0 18 0;
#X connect 1 0 5 0;
#X connect 1 0 11 0;
#X connect 2 0 3 0;
#X connect 3 0 20 0;
#X connect 7 0 8 0;
#X connect 8 0 1 2;
#X connect 9 0 1 3;
#X connect 9 1 1 4;
#X connect 10 0 1 0;
#X connect 18 0 4 0;
#X connect 18 1 10 0;
#X connect 18 2 7 0;
#X connect 20 0 9 0;
#X restore 157 323 pd find-position-in-packet;
#X obj 340 -16 t b b b;
#X msg 379 7 127;
#X text 460 194 Updated May \, 2012 for two faders;
#X obj 417 30 inlet~;
#X obj 417 53 snapshot~;
#N canvas 0 22 450 300 process-force 0;
#X obj 37 23 inlet;
#X obj 9 167 outlet;
#X obj 37 113 max -127;
#X text 94 101 Saturate the values;
#N canvas 145 147 322 192 downsample-for-GUI-display 0;
#X obj 264 77 inlet;
#X obj 225 113 float 0;
#X obj 225 156 outlet;
#X obj 137 70 inlet;
#X obj 98 106 float 0;
#X obj 98 149 outlet;
#X obj 10 35 tgl 15 0 empty empty empty 17 7 0 10 -262144 -1 -1 1 1
;
#X obj 10 12 loadbang;
#X obj 10 56 metro 100;
#X connect 0 0 1 1;
#X connect 1 0 2 0;
#X connect 3 0 4 1;
#X connect 4 0 5 0;
#X connect 6 0 8 0;
#X connect 7 0 6 0;
#X connect 8 0 4 0;
#X connect 8 0 1 0;
#X restore 74 145 pd downsample-for-GUI-display;
#X obj 37 69 * 127;
#X text 67 47 This is uncalibrated. This should be more like / 0.39
;
#X obj 37 46 / 4;
#X obj 75 169 outlet;
#X obj 37 91 min 126;
#X connect 0 0 7 0;
#X connect 2 0 4 0;
#X connect 2 0 1 0;
#X connect 4 0 8 0;
#X connect 5 0 9 0;
#X connect 7 0 5 0;
#X connect 9 0 2 0;
#X restore 215 94 pd process-force;
#X floatatom 308 116 5 0 0 0 - - -;
#N canvas 552 394 450 300 process-force 0;
#X obj 37 23 inlet;
#X obj 9 167 outlet;
#X obj 37 113 max -127;
#X text 94 101 Saturate the values;
#N canvas 145 147 322 192 downsample-for-GUI-display 0;
#X obj 264 77 inlet;
#X obj 225 113 float 0;
#X obj 225 156 outlet;
#X obj 137 70 inlet;
#X obj 98 106 float 0;
#X obj 98 149 outlet;
#X obj 10 35 tgl 15 0 empty empty empty 17 7 0 10 -262144 -1 -1 1 1
;
#X obj 10 12 loadbang;
#X obj 10 56 metro 100;
#X connect 0 0 1 1;
#X connect 1 0 2 0;
#X connect 3 0 4 1;
#X connect 4 0 5 0;
#X connect 6 0 8 0;
#X connect 7 0 6 0;
#X connect 8 0 4 0;
#X connect 8 0 1 0;
#X restore 74 145 pd downsample-for-GUI-display;
#X obj 37 69 * 127;
#X text 67 47 This is uncalibrated. This should be more like / 0.39
;
#X obj 37 46 / 4;
#X obj 75 169 outlet;
#X obj 37 91 min 126;
#X connect 0 0 7 0;
#X connect 2 0 4 0;
#X connect 2 0 1 0;
#X connect 4 0 8 0;
#X connect 5 0 9 0;
#X connect 7 0 5 0;
#X connect 9 0 2 0;
#X restore 417 76 pd process-force;
#X floatatom 510 98 5 0 0 0 - - -;
#X connect 1 0 12 0;
#X connect 2 0 1 0;
#X connect 2 1 4 0;
#X connect 4 0 12 0;
#X connect 8 0 30 0;
#X connect 9 0 8 0;
#X connect 10 0 11 0;
#X connect 11 0 14 0;
#X connect 12 0 24 0;
#X connect 13 0 12 0;
#X connect 14 0 25 0;
#X connect 19 0 21 0;
#X connect 20 0 23 0;
#X connect 21 0 7 0;
#X connect 23 0 22 0;
#X connect 24 0 19 0;
#X connect 24 0 17 0;
#X connect 24 0 20 0;
#X connect 24 1 19 1;
#X connect 24 1 17 1;
#X connect 24 1 20 1;
#X connect 25 0 29 0;
#X connect 25 1 8 0;
#X connect 25 2 26 0;
#X connect 26 0 12 0;
#X connect 28 0 29 0;
#X connect 29 0 32 0;
#X connect 30 0 12 0;
#X connect 30 1 31 0;
#X connect 32 0 12 0;
#X connect 32 1 33 0;
