#N canvas 53 156 445 306 10;
#X obj 8 -17 inlet~;
#X obj 8 104 outlet~;
#X obj 375 94 block~ 1;
#X obj 8 65 biquad~ 2 -1 1 0 0;
#X obj 167 -170 loadbang;
#X text 206 -154 Assume this is the audio sampling rate;
#X text 205 -142 for now.;
#X msg 167 -149 22050;
#X obj 167 -124 t b f f;
#X msg 142 -91 1;
#X obj 142 -69 / \$2;
#X obj 239 -128 r \$1;
#X obj 239 -105 t b f;
#X obj 171 -41 / 1;
#X obj 191 -15 / 1;
#X text 26 -69 Divide by the mass;
#X text 58 -45 Scale by the audio;
#X text 89 -36 sampling rate;
#X text 78 -20 Scale by the audio;
#X text 109 -11 sampling rate;
#X obj 8 24 *~ 0;
#X text 271 -41 Arg 1: Label;
#X text 11 -165 IMPLEMENT A MASS;
#X text 271 -25 Arg 2: Mass in kg;
#X text 211 88 Made by Edgar Berdahl;
#X text 211 101 Oct \, 2010;
#X connect 0 0 20 0;
#X connect 3 0 1 0;
#X connect 4 0 7 0;
#X connect 7 0 8 0;
#X connect 8 0 9 0;
#X connect 8 1 13 1;
#X connect 8 2 14 1;
#X connect 9 0 10 0;
#X connect 10 0 13 0;
#X connect 11 0 12 0;
#X connect 12 0 10 0;
#X connect 12 1 10 1;
#X connect 13 0 14 0;
#X connect 14 0 20 1;
#X connect 20 0 3 0;
