#N canvas 431 277 782 336 16;
#X obj 687 293 block~ 1;
#X obj 600 89 delwrite~ #0d2 1;
#X obj 600 116 delread~ #0d2 0;
#X obj -1 88 delwrite~ #0d1 1;
#X obj 0 115 delread~ #0d1 0;
#N canvas 148 53 243 182 sample-for-GUI 0;
#X obj 135 38 tgl 15 0 empty empty empty 17 7 0 10 -262144 -1 -1 1
1;
#X obj 135 9 loadbang;
#X obj 10 145 outlet;
#X obj 10 114 snapshot~;
#X obj 9 37 inlet~;
#X obj 135 59 metro 40;
#X connect 0 0 5 0;
#X connect 1 0 0 0;
#X connect 3 0 2 0;
#X connect 4 0 3 0;
#X connect 5 0 3 0;
#X restore 1 227 pd sample-for-GUI;
#X obj 4 256 hsl 128 15 -0.15 0.15 0 0 empty empty empty -2 -8 0 10
-262144 -1 -1 6534 1;
#X obj 600 143 grnd~ g 0;
#X text 55 272 /| there is the wall;
#X floatatom 1 298 7 0 0 0 - - -;
#X text 185 -7 The force stick is connected to wall g by conditional
link c \, which consists of a spring with stiffness 300 N/m and a damper
with coefficient 1 that engage once the force stick is pushed to the
right beyond 0;
#X text 63 259 |;
#X obj 292 115 link~ l 300 1 0;
#X obj 0 143 Force-stick~;
#X connect 2 0 7 0;
#X connect 4 0 13 0;
#X connect 5 0 6 0;
#X connect 6 0 9 0;
#X connect 7 0 12 1;
#X connect 12 0 3 0;
#X connect 12 1 1 0;
#X connect 13 0 5 0;
#X connect 13 0 12 0;
