#N canvas 83 195 1237 421 16;
#N canvas 47 42 1136 356 subpatch-with-signal-vector-size-1 0;
#X obj 240 257 block~ 1;
#X obj 519 109 delwrite~ #0d2 1;
#X obj 519 136 delread~ #0d2 0;
#X obj 10 107 delwrite~ #0d1 1;
#X obj 11 134 delread~ #0d1 0;
#N canvas 148 53 243 182 sample-for-GUI 0;
#X obj 135 38 tgl 15 0 empty empty empty 17 7 0 10 -262144 -1 -1 1
1;
#X obj 135 9 loadbang;
#X obj 10 145 outlet;
#X obj 10 114 snapshot~;
#X obj 9 37 inlet~;
#X obj 135 59 metro 40;
#X connect 0 0 5 0;
#X connect 1 0 0 0;
#X connect 3 0 2 0;
#X connect 4 0 3 0;
#X connect 5 0 3 0;
#X restore 12 246 pd sample-for-GUI;
#X obj 15 275 hsl 128 15 -0.15 0.15 0 0 empty empty empty -2 -8 0 10
-262144 -1 -1 6769 1;
#N canvas 148 53 243 182 sample-for-GUI 0;
#X obj 135 38 tgl 15 0 empty empty empty 17 7 0 10 -262144 -1 -1 1
1;
#X obj 135 9 loadbang;
#X obj 10 145 outlet;
#X obj 10 114 snapshot~;
#X obj 9 37 inlet~;
#X obj 135 59 metro 40;
#X connect 0 0 5 0;
#X connect 1 0 0 0;
#X connect 3 0 2 0;
#X connect 4 0 3 0;
#X connect 5 0 3 0;
#X restore 392 291 pd sample-for-GUI;
#X obj 395 320 hsl 128 15 -0.15 0.15 0 0 empty empty empty -2 -8 0
10 -262144 -1 -1 6479 1;
#X text 105 8 The force stick is connected to virtual mass m by link
l \, which consists of a spring with stiffness 100 N/m and a damper
with coefficient 1 N/(m/s).;
#X obj 949 117 delwrite~ #0d3 1;
#X obj 949 144 delread~ #0d3 0;
#X obj 626 268 outlet~;
#X obj 518 58 inlet~;
#X obj 519 163 mass~ m 0.01;
#X obj 730 144 link~ l 2000 0.05;
#X obj 253 135 contact~ c 300 0.1 0;
#X obj 11 162 FireFader~;
#X obj 949 171 grnd~ g 0.002;
#X connect 2 0 14 0;
#X connect 4 0 17 0;
#X connect 5 0 6 0;
#X connect 7 0 8 0;
#X connect 11 0 18 0;
#X connect 13 0 1 0;
#X connect 14 0 7 0;
#X connect 14 0 12 0;
#X connect 14 0 15 0;
#X connect 14 0 16 1;
#X connect 15 0 1 0;
#X connect 15 1 10 0;
#X connect 16 0 3 0;
#X connect 16 1 1 0;
#X connect 17 0 5 0;
#X connect 17 0 16 0;
#X connect 18 0 15 1;
#X restore 408 100 pd subpatch-with-signal-vector-size-1;
#X obj 485 247 hip~ 5;
#X obj 485 279 hip~ 5;
#X obj 488 387 dac~;
#X obj 272 44 click~;
#X obj 271 21 bng 15 250 50 0 empty empty empty 17 7 0 10 -262144 -1
-1;
#X obj 413 33 noise~;
#X obj 440 48 *~ 100;
#X obj 486 329 *~ 2;
#X obj 305 119 *~ 50000;
#X connect 0 0 1 0;
#X connect 1 0 2 0;
#X connect 2 0 8 0;
#X connect 4 0 9 0;
#X connect 5 0 4 0;
#X connect 6 0 7 0;
#X connect 8 0 3 0;
#X connect 8 0 3 1;
#X connect 9 0 0 0;
