#N canvas 92 33 434 155 16;
#X obj 48 49 hip~ 5;
#X text 114 50 high pass filter to cut DC;
#X obj 10 119 dac~ 1 2;
#N canvas 143 69 1006 432 subpatch-with-signal-vector-size-1 0;
#X obj -25 223 block~ 1;
#X obj -25 4 delwrite~ #0d1 1;
#X obj -24 31 delread~ #0d1 0;
#N canvas 148 53 243 182 sample-for-GUI 0;
#X obj 135 38 tgl 15 0 empty empty empty 17 7 0 10 -262144 -1 -1 1
1;
#X obj 135 9 loadbang;
#X obj 10 145 outlet;
#X obj 10 114 snapshot~;
#X obj 9 37 inlet~;
#X obj 135 59 metro 100;
#X connect 0 0 5 0;
#X connect 1 0 0 0;
#X connect 3 0 2 0;
#X connect 4 0 3 0;
#X connect 5 0 3 0;
#X restore -23 143 pd sample-for-GUI;
#X obj -20 172 hsl 128 15 -0.04 0.04 0 0 empty empty empty -2 -8 0
10 -262144 -1 -1 5159 1;
#X floatatom -23 194 7 0 0 0 - - -;
#X obj -24 59 FireFader~;
#X text 172 226 Edgar Berdahl;
#X text 171 246 updated October 2011;
#N canvas 0 0 450 300 (subpatch) 0;
#X array sample-table 44104 float 0;
#X coords 0 1.02 44103 -1.02 200 130 1;
#X restore 730 -41 graph;
#X obj 550 174 loadbang;
#X text 736 112 (one second plus three extra;
#X text 738 131 for 4-point interpolation);
#X text 729 90 --- 44103 samples ---;
#X obj 550 223 soundfiler;
#X obj 467 26 tabread4~ sample-table;
#X obj 465 -62 +~ 0.03;
#X obj 620 67 outlet~;
#X obj 467 57 abs~;
#X obj 244 72 *~;
#X msg 550 198 read super220.wav sample-table;
#X obj 467 -3 lop~ 10;
#X obj 467 86 lop~ 100;
#X obj 466 -32 *~ 790000;
#X obj 243 43 link~ l 0 150 0;
#X text 478 246 message to read a soundfile into the table (automatically
sent when you load this patch by the "loadbang" object.);
#X text -16 -121 The strength of the damper link~ l is modulated by
the values stored in a lookup sample-table.;
#X connect 2 0 6 0;
#X connect 3 0 4 0;
#X connect 4 0 5 0;
#X connect 6 0 3 0;
#X connect 6 0 16 0;
#X connect 6 0 24 0;
#X connect 10 0 20 0;
#X connect 15 0 17 0;
#X connect 15 0 18 0;
#X connect 16 0 23 0;
#X connect 18 0 22 0;
#X connect 19 0 1 0;
#X connect 20 0 14 0;
#X connect 21 0 15 0;
#X connect 22 0 19 1;
#X connect 23 0 21 0;
#X connect 24 0 19 0;
#X restore 48 13 pd subpatch-with-signal-vector-size-1;
#X text 138 101 Feel the texture of a WAV file.;
#X connect 0 0 2 0;
#X connect 0 0 2 1;
#X connect 3 0 0 0;
