#N canvas 657 91 437 345 16;
#N canvas 150 292 902 233 subpatch-blocked-at-1 0;
#X obj 292 185 block~ 1;
#X obj 12 40 delwrite~ \$0d1 1;
#X obj 12 67 delread~ \$0d1 0;
#X obj 13 134 outlet~;
#X obj 12 95 FireFader~;
#X obj 506 103 *~ 0.015;
#X text 579 76 Make virtual "mass" oscillate over time;
#N canvas 0 0 500 140 dummy~ 0;
#X obj 14 14 inlet~;
#X text 11 50 This is just to remind you that if the virtual "mass"
had an input \, it would need to be connected like this ...;
#X restore 506 47 pd dummy~;
#X obj 261 80 link~ l1 280 0.2;
#X obj 506 75 osc~ 3;
#X text 181 -8 Haptic device is connected to virtual "oscillating mass"
by link l1;
#X connect 2 0 4 0;
#X connect 4 0 3 0;
#X connect 4 0 8 0;
#X connect 5 0 8 1;
#X connect 8 0 1 0;
#X connect 8 1 7 0;
#X connect 9 0 5 0;
#X restore 11 -42 pd subpatch-blocked-at-1;
#X obj 8 270 dac~;
#X obj 10 87 snapshot~;
#X obj 27 36 tgl 15 0 empty empty empty 17 7 0 10 -262144 -1 -1 1 1
;
#N canvas 486 55 954 575 Shakers~-abstraction 0;
#X obj -76 148 inlet;
#X obj 49 545 outlet~;
#X text 128 545 Sound;
#X obj 345 165 hsl 128 15 0 127 0 0 empty empty empty -2 -6 0 8 -262144
-1 -1 7500 1;
#X obj 343 225 hsl 128 15 0 127 0 0 empty empty empty -2 -6 0 8 -262144
-1 -1 11000 1;
#X obj 344 290 hsl 128 15 0 127 0 0 empty empty empty -2 -6 0 8 -262144
-1 -1 11000 1;
#X obj 234 50 loadbang;
#X msg 342 188 stkCtrl 1 \$1;
#X msg -9 357 stkCtrl 2 \$1;
#X msg 338 255 stkCtrl 4 \$1;
#X msg 341 318 stkCtrl 11 \$1;
#X floatatom 167 286 5 0 0 0 - - -;
#X obj 167 139 vsl 15 128 0 1500 0 0 empty empty empty 0 -8 0 8 -262144
-1 -1 2540 1;
#X text 96 129 Frequency;
#X text -76 6 Shakers~;
#X text -76 24 PhISEM (Physically Informed Stochastic Event Modeling)
;
#X text 485 165 Resonance Frequency;
#X text 5 333 Shake Energy;
#X text 481 292 System Decay;
#X text 481 227 Number of Objects;
#X obj 50 492 Shakers~;
#X msg 295 477 stkCtrl 1071 \$1;
#X obj 295 450 hradio 15 1 0 23 empty empty empty 0 -6 0 8 -262144
-1 -1 21;
#X floatatom 461 478 5 0 0 0 - - -;
#X text 661 43 0 - Maraca;
#X msg 167 102 300;
#X obj -76 325 vsl 15 128 0 127 0 0 empty empty empty 0 -8 0 8 -262144
-1 -1 0 1;
#X msg 301 302 0;
#X msg 297 213 110;
#X msg 311 164 75;
#X msg 304 262 110;
#X text 661 58 1 - Cabasa;
#X text 661 73 2 - Sekere;
#X text 661 88 3 - Guiro;
#X text 661 103 4 - Water Drops;
#X text 661 119 5 - Bamboo Chimes;
#X text 661 134 6 - Tambourine;
#X text 661 149 7 - Sleigh Bells;
#X text 661 163 8 - Sticks;
#X text 662 177 9 - Crunch;
#X text 662 191 10 - Wrench;
#X text 662 205 11 - Sand Paper;
#X text 663 221 12 - Coke Can;
#X text 663 236 13 - Next Mug;
#X text 663 251 14 - Penny + Mug;
#X text 663 267 15 - Nickel + Mug;
#X text 662 282 16 - Dime + Mug;
#X text 663 297 17 - Quarter + Mug;
#X text 663 311 18 - Franc + Mug;
#X text 664 325 19 - Peso + Mug;
#X text 664 339 20 - Big Rocks;
#X text 664 353 21 - Little Rocks;
#X text 664 367 22 - Tuned Bamboo Chimes;
#X obj 295 395 loadbang;
#X msg 295 422 21;
#N canvas 148 53 450 300 slow-for-GUI 0;
#X obj 94 115 float;
#X obj 141 84 inlet;
#X obj 10 60 metro 100;
#X obj 10 39 tgl 15 0 empty empty empty 17 7 0 10 -262144 -1 -1 1 1
;
#X obj 10 10 loadbang;
#X obj 94 144 outlet;
#X connect 0 0 5 0;
#X connect 1 0 0 1;
#X connect 2 0 0 0;
#X connect 3 0 2 0;
#X connect 4 0 3 0;
#X restore -76 294 pd slow-for-GUI;
#X obj -76 265 change;
#X obj -76 177 delta;
#X obj -76 236 abs;
#X obj -76 206 * 15000;
#X connect 0 0 57 0;
#X connect 3 0 7 0;
#X connect 4 0 9 0;
#X connect 5 0 10 0;
#X connect 6 0 29 0;
#X connect 6 0 27 0;
#X connect 6 0 25 0;
#X connect 6 0 30 0;
#X connect 6 0 28 0;
#X connect 7 0 20 3;
#X connect 8 0 20 3;
#X connect 9 0 20 3;
#X connect 10 0 20 3;
#X connect 11 0 20 2;
#X connect 12 0 11 0;
#X connect 20 0 1 0;
#X connect 21 0 20 3;
#X connect 22 0 21 0;
#X connect 22 0 23 0;
#X connect 25 0 12 0;
#X connect 27 0 20 1;
#X connect 28 0 4 0;
#X connect 29 0 3 0;
#X connect 30 0 5 0;
#X connect 53 0 54 0;
#X connect 54 0 22 0;
#X connect 55 0 26 0;
#X connect 56 0 8 0;
#X connect 56 0 55 0;
#X connect 57 0 59 0;
#X connect 58 0 56 0;
#X connect 59 0 58 0;
#X restore 10 192 pd Shakers~-abstraction;
#X obj 22 142 hsl 128 15 -0.1 0.1 0 0 empty empty empty -2 -8 0 10
-262144 -1 -1 6916 1;
#X obj 27 8 loadbang;
#X obj 27 56 metro 10;
#X text 123 -14 Play Shakers~ with the help of a robot;
#X obj 9 225 *~ 0.25;
#N canvas 148 53 450 300 slow-for-GUI 0;
#X obj 94 115 float;
#X obj 141 84 inlet;
#X obj 10 60 metro 100;
#X obj 10 39 tgl 15 0 empty empty empty 17 7 0 10 -262144 -1 -1 1 1
;
#X obj 10 10 loadbang;
#X obj 94 144 outlet;
#X connect 0 0 5 0;
#X connect 1 0 0 1;
#X connect 2 0 0 0;
#X connect 3 0 2 0;
#X connect 4 0 3 0;
#X restore 19 115 pd slow-for-GUI;
#X text 123 8 Edgar Berdahl \, Oct 2010;
#X connect 0 0 2 0;
#X connect 2 0 10 0;
#X connect 2 0 4 0;
#X connect 3 0 7 0;
#X connect 4 0 9 0;
#X connect 6 0 3 0;
#X connect 7 0 2 0;
#X connect 9 0 1 0;
#X connect 9 0 1 1;
#X connect 10 0 5 0;
