#N canvas 721 146 468 322 16;
#N canvas 171 0 1203 461 subpatch-with-signal-vector-size-1 0;
#X obj 238 255 block~ 1;
#X obj 586 106 delwrite~ #0d2 1;
#X obj 586 133 delread~ #0d2 0;
#X obj 8 105 delwrite~ #0d1 1;
#X obj 9 132 delread~ #0d1 0;
#N canvas 148 53 243 182 sample-for-GUI 0;
#X obj 135 38 tgl 15 0 empty empty empty 17 7 0 10 -262144 -1 -1 1
1;
#X obj 135 9 loadbang;
#X obj 10 145 outlet;
#X obj 10 114 snapshot~;
#X obj 9 37 inlet~;
#X obj 135 59 metro 200;
#X connect 0 0 5 0;
#X connect 1 0 0 0;
#X connect 3 0 2 0;
#X connect 4 0 3 0;
#X connect 5 0 3 0;
#X restore 10 244 pd sample-for-GUI;
#X obj 13 273 hsl 128 15 -0.04 0.04 0 0 empty empty empty -2 -8 0 10
-262144 -1 -1 2146 1;
#N canvas 148 53 243 182 sample-for-GUI 0;
#X obj 135 38 tgl 15 0 empty empty empty 17 7 0 10 -262144 -1 -1 1
1;
#X obj 135 9 loadbang;
#X obj 10 145 outlet;
#X obj 10 114 snapshot~;
#X obj 9 37 inlet~;
#X obj 135 59 metro 200;
#X connect 0 0 5 0;
#X connect 1 0 0 0;
#X connect 3 0 2 0;
#X connect 4 0 3 0;
#X connect 5 0 3 0;
#X restore 370 364 pd sample-for-GUI;
#X obj 373 393 hsl 128 15 -0.04 0.04 0 0 empty empty empty -2 -8 0
10 -262144 -1 -1 6350 1;
#X obj 1016 114 delwrite~ #0d3 1;
#X obj 1016 141 delread~ #0d3 0;
#X obj 444 325 outlet~;
#X obj 566 74 inlet~;
#X text 7 312 Edgar Berdahl \, Oct 2010;
#X obj 492 237 +~;
#X obj 587 238 delwrite~ #0d4 1;
#X obj 587 265 delread~ #0d4 0;
#X obj 1017 246 delwrite~ #0d5 1;
#X obj 1017 273 delread~ #0d5 0;
#X obj 1016 168 grnd~ g 0;
#X obj 1017 300 grnd~ g2 0;
#X text 103 6 The force stick plucks two resonators in parallel (i.e.
they share the same force).;
#X obj 798 272 link~ l2 6000 0.02;
#X obj 9 160 FireFader~;
#X obj 587 292 mass~ m2 0.005;
#X obj 586 160 mass~ m 0.005;
#X obj 797 141 link~ l 1000 0.01;
#X obj 227 130 contact-pluck~ c 2000 0.1 0.003;
#X connect 2 0 25 0;
#X connect 4 0 23 0;
#X connect 5 0 6 0;
#X connect 7 0 8 0;
#X connect 10 0 19 0;
#X connect 12 0 1 0;
#X connect 12 0 15 0;
#X connect 14 0 11 0;
#X connect 14 0 7 0;
#X connect 14 0 27 1;
#X connect 16 0 24 0;
#X connect 18 0 20 0;
#X connect 19 0 26 1;
#X connect 20 0 22 1;
#X connect 22 0 15 0;
#X connect 22 1 17 0;
#X connect 23 0 5 0;
#X connect 23 0 27 0;
#X connect 24 0 14 0;
#X connect 24 0 22 0;
#X connect 25 0 14 1;
#X connect 25 0 26 0;
#X connect 26 0 1 0;
#X connect 26 1 9 0;
#X connect 27 0 3 0;
#X connect 27 1 1 0;
#X connect 27 1 15 0;
#X restore 79 115 pd subpatch-with-signal-vector-size-1;
#X obj 79 277 dac~;
#X obj 13 49 click~;
#X obj 13 3 bng 40 250 50 0 empty empty empty 17 7 0 10 -262144 -1
-1;
#X obj 264 30 noise~;
#N canvas 0 0 435 241 highpassfilter~ 0;
#X obj 16 13 inlet~;
#X obj 15 196 outlet~;
#X text 136 44 These filters eliminate the DC;
#X text 137 69 offset in the audio \, which would;
#X text 137 94 otherwise sound bad.;
#X obj 16 132 hip~ 40;
#X obj 16 103 hip~ 20;
#X obj 16 71 hip~ 10;
#X connect 0 0 7 0;
#X connect 5 0 1 0;
#X connect 6 0 5 0;
#X connect 7 0 6 0;
#X restore 78 177 pd highpassfilter~;
#X obj 79 226 *~ 100;
#X obj 13 78 *~ 50;
#X obj 265 59 *~ 0.5;
#X connect 0 0 5 0;
#X connect 2 0 7 0;
#X connect 3 0 2 0;
#X connect 4 0 8 0;
#X connect 5 0 6 0;
#X connect 6 0 1 0;
#X connect 6 0 1 1;
#X connect 7 0 0 0;
