#N canvas 785 188 342 245 10;
#X obj 16 123 click~;
#X obj 16 84 bng 35 250 50 0 empty empty empty 17 7 0 10 -262144 -1
-1;
#X obj 7 218 dac~;
#N canvas 135 57 876 344 subpatch-with-signal-vector-size-1 0;
#X obj 634 174 outlet~;
#X obj 41 51 delwrite~ \$0d1 1;
#X obj 41 73 delread~ \$0d1 0;
#X obj 658 78 delread~ \$0d2 0;
#X obj 658 56 delwrite~ \$0d2 1;
#X obj 330 38 delwrite~ \$0j1 1;
#X obj 330 58 delread~ \$0j1 0;
#X obj 412 -98 delwrite~ \$0j2 1;
#X obj 412 -78 delread~ \$0j2 0;
#X obj 435 39 delwrite~ \$0j3 1;
#X obj 435 59 delread~ \$0j3 0;
#X obj 492 -26 inlet~;
#X obj 679 -90 block~ 1;
#X obj 6 -106 delwrite~ \$0d0 1;
#X obj 6 -86 delread~ \$0d0 0;
#X obj 331 79 ex-junct~ j1 0.0002;
#X text 664 118 Models right side of string;
#X text 37 116 Models left side of string;
#X text 288 95 Models junction connecting string to haptic device;
#X text 616 193 We are listening to the vibration of the;
#X text 615 204 end of the string on the right-hand side.;
#X text 535 -31 Additionally \, we can excite the string model;
#X text 534 -21 at the junction point using an audio signal.;
#X obj 6 -65 FireFader~;
#X obj 658 99 DWG-end~ e2 -0.99 0.015 10;
#X obj 40 96 DWG-end~ e1 -0.99 0.005 40;
#X obj 154 -86 contact-pluck~ p1 2000 0.2 0.003;
#X connect 2 0 25 0;
#X connect 3 0 24 0;
#X connect 6 0 15 0;
#X connect 8 0 15 1;
#X connect 10 0 15 2;
#X connect 11 0 15 1;
#X connect 14 0 23 0;
#X connect 15 0 1 0;
#X connect 15 1 26 1;
#X connect 15 2 4 0;
#X connect 23 0 26 0;
#X connect 24 0 9 0;
#X connect 24 0 0 0;
#X connect 25 0 5 0;
#X connect 26 0 13 0;
#X connect 26 1 7 0;
#X restore 16 165 pd subpatch-with-signal-vector-size-1;
#X obj 16 144 *~ 100;
#X obj 16 186 *~ 3e-05;
#X text 15 9 Pluck a virtual string;
#X text 14 22 simulated by a digital delay line.;
#X text 85 216 Edgar Berdahl \, Oct. 2010;
#X text 57 87 Click here to send an impulse into the string;
#X text 57 98 at the junction point.;
#X text 107 129 Can you feel the impulse if you are;
#X text 108 139 touching the string?;
#X connect 0 0 4 0;
#X connect 1 0 0 0;
#X connect 3 0 5 0;
#X connect 4 0 3 0;
#X connect 5 0 2 0;
#X connect 5 0 2 1;
