#N canvas 521 187 782 330 16;
#X obj 666 264 block~ 1;
#X obj 606 79 delwrite~ #0d2 1;
#X obj 606 106 delread~ #0d2 0;
#X obj 5 78 delwrite~ #0d1 1;
#X obj 6 105 delread~ #0d1 0;
#N canvas 148 53 243 182 sample-for-GUI 0;
#X obj 135 38 tgl 15 0 empty empty empty 17 7 0 10 -262144 -1 -1 1
1;
#X obj 135 9 loadbang;
#X obj 10 145 outlet;
#X obj 10 114 snapshot~;
#X obj 9 37 inlet~;
#X obj 135 59 metro 100;
#X connect 0 0 5 0;
#X connect 1 0 0 0;
#X connect 3 0 2 0;
#X connect 4 0 3 0;
#X connect 5 0 3 0;
#X restore 7 217 pd sample-for-GUI;
#X obj 10 246 hsl 128 15 -0.04 0.04 0 0 empty empty empty -2 -8 0 10
-262144 -1 -1 6936 1;
#X obj 606 133 grnd~ g 0;
#X floatatom 7 288 7 0 0 0 - - -;
#X text 63 258 ^;
#X obj 6 133 FireFader~;
#X obj 298 105 contact~ c 300 1 0;
#X text 326 253 Edgar Berdahl;
#X text 325 273 updated October 2011;
#X text 63 258 | The wall starts here;
#X text 183 2 The haptic device is connected to ground ''wall'' g by
contact~ link c \, which consists of a spring with stiffness 300 N/m
and a damper with coefficient 1 that engages once the force stick is
pushed to the right beyond the zero postion.;
#X connect 2 0 7 0;
#X connect 4 0 10 0;
#X connect 5 0 6 0;
#X connect 6 0 8 0;
#X connect 7 0 11 1;
#X connect 10 0 5 0;
#X connect 10 0 11 0;
#X connect 11 0 3 0;
#X connect 11 1 1 0;
